<?xml version="1.0" encoding="utf-8" standalone="no"?>
<!DOCTYPE svg PUBLIC "-//W3C//DTD SVG 1.1//EN"
  "http://www.w3.org/Graphics/SVG/1.1/DTD/svg11.dtd">
<!-- Created with matplotlib (http://matplotlib.org/) -->
<svg height="864pt" version="1.1" viewBox="0 0 976 864" width="976pt" xmlns="http://www.w3.org/2000/svg" xmlns:xlink="http://www.w3.org/1999/xlink">
 <defs>
  <style type="text/css">
*{stroke-linecap:butt;stroke-linejoin:round;}
  </style>
 </defs>
 <g id="figure_1">
  <g id="patch_1">
   <path d="M 0 864 
L 976.895 864 
L 976.895 0 
L 0 0 
z
" style="fill:#ffffff;"/>
  </g>
  <g id="axes_1">
   <g id="patch_2">
    <path d="M 71.064589 416.809628 
L 450.033639 416.809628 
L 450.033639 60.48 
L 71.064589 60.48 
z
" style="fill:#ffffff;"/>
   </g>
   <g id="matplotlib.axis_1">
    <g id="xtick_1">
     <g id="line2d_1">
      <path clip-path="url(#p07114b7cba)" d="M 88.290455 416.809628 
L 88.290455 60.48 
" style="fill:none;stroke:#cccccc;stroke-linecap:round;stroke-width:0.8;"/>
     </g>
    </g>
    <g id="xtick_2">
     <g id="line2d_2">
      <path clip-path="url(#p07114b7cba)" d="M 133.621681 416.809628 
L 133.621681 60.48 
" style="fill:none;stroke:#cccccc;stroke-linecap:round;stroke-width:0.8;"/>
     </g>
    </g>
    <g id="xtick_3">
     <g id="line2d_3">
      <path clip-path="url(#p07114b7cba)" d="M 178.952907 416.809628 
L 178.952907 60.48 
" style="fill:none;stroke:#cccccc;stroke-linecap:round;stroke-width:0.8;"/>
     </g>
    </g>
    <g id="xtick_4">
     <g id="line2d_4">
      <path clip-path="url(#p07114b7cba)" d="M 224.284133 416.809628 
L 224.284133 60.48 
" style="fill:none;stroke:#cccccc;stroke-linecap:round;stroke-width:0.8;"/>
     </g>
    </g>
    <g id="xtick_5">
     <g id="line2d_5">
      <path clip-path="url(#p07114b7cba)" d="M 269.615359 416.809628 
L 269.615359 60.48 
" style="fill:none;stroke:#cccccc;stroke-linecap:round;stroke-width:0.8;"/>
     </g>
    </g>
    <g id="xtick_6">
     <g id="line2d_6">
      <path clip-path="url(#p07114b7cba)" d="M 314.946585 416.809628 
L 314.946585 60.48 
" style="fill:none;stroke:#cccccc;stroke-linecap:round;stroke-width:0.8;"/>
     </g>
    </g>
    <g id="xtick_7">
     <g id="line2d_7">
      <path clip-path="url(#p07114b7cba)" d="M 360.277811 416.809628 
L 360.277811 60.48 
" style="fill:none;stroke:#cccccc;stroke-linecap:round;stroke-width:0.8;"/>
     </g>
    </g>
    <g id="xtick_8">
     <g id="line2d_8">
      <path clip-path="url(#p07114b7cba)" d="M 405.609038 416.809628 
L 405.609038 60.48 
" style="fill:none;stroke:#cccccc;stroke-linecap:round;stroke-width:0.8;"/>
     </g>
    </g>
   </g>
   <g id="matplotlib.axis_2">
    <g id="ytick_1">
     <g id="line2d_9">
      <path clip-path="url(#p07114b7cba)" d="M 71.064589 377.292741 
L 450.033639 377.292741 
" style="fill:none;stroke:#cccccc;stroke-linecap:round;stroke-width:0.8;"/>
     </g>
     <g id="text_1">
      <!-- 0.3 -->
      <defs>
       <path d="M 31.78125 66.40625 
Q 24.171875 66.40625 20.328125 58.90625 
Q 16.5 51.421875 16.5 36.375 
Q 16.5 21.390625 20.328125 13.890625 
Q 24.171875 6.390625 31.78125 6.390625 
Q 39.453125 6.390625 43.28125 13.890625 
Q 47.125 21.390625 47.125 36.375 
Q 47.125 51.421875 43.28125 58.90625 
Q 39.453125 66.40625 31.78125 66.40625 
z
M 31.78125 74.21875 
Q 44.046875 74.21875 50.515625 64.515625 
Q 56.984375 54.828125 56.984375 36.375 
Q 56.984375 17.96875 50.515625 8.265625 
Q 44.046875 -1.421875 31.78125 -1.421875 
Q 19.53125 -1.421875 13.0625 8.265625 
Q 6.59375 17.96875 6.59375 36.375 
Q 6.59375 54.828125 13.0625 64.515625 
Q 19.53125 74.21875 31.78125 74.21875 
z
" id="DejaVuSans-30"/>
       <path d="M 10.6875 12.40625 
L 21 12.40625 
L 21 0 
L 10.6875 0 
z
" id="DejaVuSans-2e"/>
       <path d="M 40.578125 39.3125 
Q 47.65625 37.796875 51.625 33 
Q 55.609375 28.21875 55.609375 21.1875 
Q 55.609375 10.40625 48.1875 4.484375 
Q 40.765625 -1.421875 27.09375 -1.421875 
Q 22.515625 -1.421875 17.65625 -0.515625 
Q 12.796875 0.390625 7.625 2.203125 
L 7.625 11.71875 
Q 11.71875 9.328125 16.59375 8.109375 
Q 21.484375 6.890625 26.8125 6.890625 
Q 36.078125 6.890625 40.9375 10.546875 
Q 45.796875 14.203125 45.796875 21.1875 
Q 45.796875 27.640625 41.28125 31.265625 
Q 36.765625 34.90625 28.71875 34.90625 
L 20.21875 34.90625 
L 20.21875 43.015625 
L 29.109375 43.015625 
Q 36.375 43.015625 40.234375 45.921875 
Q 44.09375 48.828125 44.09375 54.296875 
Q 44.09375 59.90625 40.109375 62.90625 
Q 36.140625 65.921875 28.71875 65.921875 
Q 24.65625 65.921875 20.015625 65.03125 
Q 15.375 64.15625 9.8125 62.3125 
L 9.8125 71.09375 
Q 15.4375 72.65625 20.34375 73.4375 
Q 25.25 74.21875 29.59375 74.21875 
Q 40.828125 74.21875 47.359375 69.109375 
Q 53.90625 64.015625 53.90625 55.328125 
Q 53.90625 49.265625 50.4375 45.09375 
Q 46.96875 40.921875 40.578125 39.3125 
z
" id="DejaVuSans-33"/>
      </defs>
      <g style="fill:#262626;" transform="translate(41.772464 382.30771)scale(0.132 -0.132)">
       <use xlink:href="#DejaVuSans-30"/>
       <use x="63.623047" xlink:href="#DejaVuSans-2e"/>
       <use x="95.410156" xlink:href="#DejaVuSans-33"/>
      </g>
     </g>
    </g>
    <g id="ytick_2">
     <g id="line2d_10">
      <path clip-path="url(#p07114b7cba)" d="M 71.064589 305.296353 
L 450.033639 305.296353 
" style="fill:none;stroke:#cccccc;stroke-linecap:round;stroke-width:0.8;"/>
     </g>
     <g id="text_2">
      <!-- 0.4 -->
      <defs>
       <path d="M 37.796875 64.3125 
L 12.890625 25.390625 
L 37.796875 25.390625 
z
M 35.203125 72.90625 
L 47.609375 72.90625 
L 47.609375 25.390625 
L 58.015625 25.390625 
L 58.015625 17.1875 
L 47.609375 17.1875 
L 47.609375 0 
L 37.796875 0 
L 37.796875 17.1875 
L 4.890625 17.1875 
L 4.890625 26.703125 
z
" id="DejaVuSans-34"/>
      </defs>
      <g style="fill:#262626;" transform="translate(41.772464 310.311322)scale(0.132 -0.132)">
       <use xlink:href="#DejaVuSans-30"/>
       <use x="63.623047" xlink:href="#DejaVuSans-2e"/>
       <use x="95.410156" xlink:href="#DejaVuSans-34"/>
      </g>
     </g>
    </g>
    <g id="ytick_3">
     <g id="line2d_11">
      <path clip-path="url(#p07114b7cba)" d="M 71.064589 233.299965 
L 450.033639 233.299965 
" style="fill:none;stroke:#cccccc;stroke-linecap:round;stroke-width:0.8;"/>
     </g>
     <g id="text_3">
      <!-- 0.5 -->
      <defs>
       <path d="M 10.796875 72.90625 
L 49.515625 72.90625 
L 49.515625 64.59375 
L 19.828125 64.59375 
L 19.828125 46.734375 
Q 21.96875 47.46875 24.109375 47.828125 
Q 26.265625 48.1875 28.421875 48.1875 
Q 40.625 48.1875 47.75 41.5 
Q 54.890625 34.8125 54.890625 23.390625 
Q 54.890625 11.625 47.5625 5.09375 
Q 40.234375 -1.421875 26.90625 -1.421875 
Q 22.3125 -1.421875 17.546875 -0.640625 
Q 12.796875 0.140625 7.71875 1.703125 
L 7.71875 11.625 
Q 12.109375 9.234375 16.796875 8.0625 
Q 21.484375 6.890625 26.703125 6.890625 
Q 35.15625 6.890625 40.078125 11.328125 
Q 45.015625 15.765625 45.015625 23.390625 
Q 45.015625 31 40.078125 35.4375 
Q 35.15625 39.890625 26.703125 39.890625 
Q 22.75 39.890625 18.8125 39.015625 
Q 14.890625 38.140625 10.796875 36.28125 
z
" id="DejaVuSans-35"/>
      </defs>
      <g style="fill:#262626;" transform="translate(41.772464 238.314934)scale(0.132 -0.132)">
       <use xlink:href="#DejaVuSans-30"/>
       <use x="63.623047" xlink:href="#DejaVuSans-2e"/>
       <use x="95.410156" xlink:href="#DejaVuSans-35"/>
      </g>
     </g>
    </g>
    <g id="ytick_4">
     <g id="line2d_12">
      <path clip-path="url(#p07114b7cba)" d="M 71.064589 161.303576 
L 450.033639 161.303576 
" style="fill:none;stroke:#cccccc;stroke-linecap:round;stroke-width:0.8;"/>
     </g>
     <g id="text_4">
      <!-- 0.6 -->
      <defs>
       <path d="M 33.015625 40.375 
Q 26.375 40.375 22.484375 35.828125 
Q 18.609375 31.296875 18.609375 23.390625 
Q 18.609375 15.53125 22.484375 10.953125 
Q 26.375 6.390625 33.015625 6.390625 
Q 39.65625 6.390625 43.53125 10.953125 
Q 47.40625 15.53125 47.40625 23.390625 
Q 47.40625 31.296875 43.53125 35.828125 
Q 39.65625 40.375 33.015625 40.375 
z
M 52.59375 71.296875 
L 52.59375 62.3125 
Q 48.875 64.0625 45.09375 64.984375 
Q 41.3125 65.921875 37.59375 65.921875 
Q 27.828125 65.921875 22.671875 59.328125 
Q 17.53125 52.734375 16.796875 39.40625 
Q 19.671875 43.65625 24.015625 45.921875 
Q 28.375 48.1875 33.59375 48.1875 
Q 44.578125 48.1875 50.953125 41.515625 
Q 57.328125 34.859375 57.328125 23.390625 
Q 57.328125 12.15625 50.6875 5.359375 
Q 44.046875 -1.421875 33.015625 -1.421875 
Q 20.359375 -1.421875 13.671875 8.265625 
Q 6.984375 17.96875 6.984375 36.375 
Q 6.984375 53.65625 15.1875 63.9375 
Q 23.390625 74.21875 37.203125 74.21875 
Q 40.921875 74.21875 44.703125 73.484375 
Q 48.484375 72.75 52.59375 71.296875 
z
" id="DejaVuSans-36"/>
      </defs>
      <g style="fill:#262626;" transform="translate(41.772464 166.318545)scale(0.132 -0.132)">
       <use xlink:href="#DejaVuSans-30"/>
       <use x="63.623047" xlink:href="#DejaVuSans-2e"/>
       <use x="95.410156" xlink:href="#DejaVuSans-36"/>
      </g>
     </g>
    </g>
    <g id="ytick_5">
     <g id="line2d_13">
      <path clip-path="url(#p07114b7cba)" d="M 71.064589 89.307188 
L 450.033639 89.307188 
" style="fill:none;stroke:#cccccc;stroke-linecap:round;stroke-width:0.8;"/>
     </g>
     <g id="text_5">
      <!-- 0.7 -->
      <defs>
       <path d="M 8.203125 72.90625 
L 55.078125 72.90625 
L 55.078125 68.703125 
L 28.609375 0 
L 18.3125 0 
L 43.21875 64.59375 
L 8.203125 64.59375 
z
" id="DejaVuSans-37"/>
      </defs>
      <g style="fill:#262626;" transform="translate(41.772464 94.322157)scale(0.132 -0.132)">
       <use xlink:href="#DejaVuSans-30"/>
       <use x="63.623047" xlink:href="#DejaVuSans-2e"/>
       <use x="95.410156" xlink:href="#DejaVuSans-37"/>
      </g>
     </g>
    </g>
    <g id="text_6">
     <!-- Validation accuracy -->
     <defs>
      <path d="M 28.609375 0 
L 0.78125 72.90625 
L 11.078125 72.90625 
L 34.1875 11.53125 
L 57.328125 72.90625 
L 67.578125 72.90625 
L 39.796875 0 
z
" id="DejaVuSans-56"/>
      <path d="M 34.28125 27.484375 
Q 23.390625 27.484375 19.1875 25 
Q 14.984375 22.515625 14.984375 16.5 
Q 14.984375 11.71875 18.140625 8.90625 
Q 21.296875 6.109375 26.703125 6.109375 
Q 34.1875 6.109375 38.703125 11.40625 
Q 43.21875 16.703125 43.21875 25.484375 
L 43.21875 27.484375 
z
M 52.203125 31.203125 
L 52.203125 0 
L 43.21875 0 
L 43.21875 8.296875 
Q 40.140625 3.328125 35.546875 0.953125 
Q 30.953125 -1.421875 24.3125 -1.421875 
Q 15.921875 -1.421875 10.953125 3.296875 
Q 6 8.015625 6 15.921875 
Q 6 25.140625 12.171875 29.828125 
Q 18.359375 34.515625 30.609375 34.515625 
L 43.21875 34.515625 
L 43.21875 35.40625 
Q 43.21875 41.609375 39.140625 45 
Q 35.0625 48.390625 27.6875 48.390625 
Q 23 48.390625 18.546875 47.265625 
Q 14.109375 46.140625 10.015625 43.890625 
L 10.015625 52.203125 
Q 14.9375 54.109375 19.578125 55.046875 
Q 24.21875 56 28.609375 56 
Q 40.484375 56 46.34375 49.84375 
Q 52.203125 43.703125 52.203125 31.203125 
z
" id="DejaVuSans-61"/>
      <path d="M 9.421875 75.984375 
L 18.40625 75.984375 
L 18.40625 0 
L 9.421875 0 
z
" id="DejaVuSans-6c"/>
      <path d="M 9.421875 54.6875 
L 18.40625 54.6875 
L 18.40625 0 
L 9.421875 0 
z
M 9.421875 75.984375 
L 18.40625 75.984375 
L 18.40625 64.59375 
L 9.421875 64.59375 
z
" id="DejaVuSans-69"/>
      <path d="M 45.40625 46.390625 
L 45.40625 75.984375 
L 54.390625 75.984375 
L 54.390625 0 
L 45.40625 0 
L 45.40625 8.203125 
Q 42.578125 3.328125 38.25 0.953125 
Q 33.9375 -1.421875 27.875 -1.421875 
Q 17.96875 -1.421875 11.734375 6.484375 
Q 5.515625 14.40625 5.515625 27.296875 
Q 5.515625 40.1875 11.734375 48.09375 
Q 17.96875 56 27.875 56 
Q 33.9375 56 38.25 53.625 
Q 42.578125 51.265625 45.40625 46.390625 
z
M 14.796875 27.296875 
Q 14.796875 17.390625 18.875 11.75 
Q 22.953125 6.109375 30.078125 6.109375 
Q 37.203125 6.109375 41.296875 11.75 
Q 45.40625 17.390625 45.40625 27.296875 
Q 45.40625 37.203125 41.296875 42.84375 
Q 37.203125 48.484375 30.078125 48.484375 
Q 22.953125 48.484375 18.875 42.84375 
Q 14.796875 37.203125 14.796875 27.296875 
z
" id="DejaVuSans-64"/>
      <path d="M 18.3125 70.21875 
L 18.3125 54.6875 
L 36.8125 54.6875 
L 36.8125 47.703125 
L 18.3125 47.703125 
L 18.3125 18.015625 
Q 18.3125 11.328125 20.140625 9.421875 
Q 21.96875 7.515625 27.59375 7.515625 
L 36.8125 7.515625 
L 36.8125 0 
L 27.59375 0 
Q 17.1875 0 13.234375 3.875 
Q 9.28125 7.765625 9.28125 18.015625 
L 9.28125 47.703125 
L 2.6875 47.703125 
L 2.6875 54.6875 
L 9.28125 54.6875 
L 9.28125 70.21875 
z
" id="DejaVuSans-74"/>
      <path d="M 30.609375 48.390625 
Q 23.390625 48.390625 19.1875 42.75 
Q 14.984375 37.109375 14.984375 27.296875 
Q 14.984375 17.484375 19.15625 11.84375 
Q 23.34375 6.203125 30.609375 6.203125 
Q 37.796875 6.203125 41.984375 11.859375 
Q 46.1875 17.53125 46.1875 27.296875 
Q 46.1875 37.015625 41.984375 42.703125 
Q 37.796875 48.390625 30.609375 48.390625 
z
M 30.609375 56 
Q 42.328125 56 49.015625 48.375 
Q 55.71875 40.765625 55.71875 27.296875 
Q 55.71875 13.875 49.015625 6.21875 
Q 42.328125 -1.421875 30.609375 -1.421875 
Q 18.84375 -1.421875 12.171875 6.21875 
Q 5.515625 13.875 5.515625 27.296875 
Q 5.515625 40.765625 12.171875 48.375 
Q 18.84375 56 30.609375 56 
z
" id="DejaVuSans-6f"/>
      <path d="M 54.890625 33.015625 
L 54.890625 0 
L 45.90625 0 
L 45.90625 32.71875 
Q 45.90625 40.484375 42.875 44.328125 
Q 39.84375 48.1875 33.796875 48.1875 
Q 26.515625 48.1875 22.3125 43.546875 
Q 18.109375 38.921875 18.109375 30.90625 
L 18.109375 0 
L 9.078125 0 
L 9.078125 54.6875 
L 18.109375 54.6875 
L 18.109375 46.1875 
Q 21.34375 51.125 25.703125 53.5625 
Q 30.078125 56 35.796875 56 
Q 45.21875 56 50.046875 50.171875 
Q 54.890625 44.34375 54.890625 33.015625 
z
" id="DejaVuSans-6e"/>
      <path id="DejaVuSans-20"/>
      <path d="M 48.78125 52.59375 
L 48.78125 44.1875 
Q 44.96875 46.296875 41.140625 47.34375 
Q 37.3125 48.390625 33.40625 48.390625 
Q 24.65625 48.390625 19.8125 42.84375 
Q 14.984375 37.3125 14.984375 27.296875 
Q 14.984375 17.28125 19.8125 11.734375 
Q 24.65625 6.203125 33.40625 6.203125 
Q 37.3125 6.203125 41.140625 7.25 
Q 44.96875 8.296875 48.78125 10.40625 
L 48.78125 2.09375 
Q 45.015625 0.34375 40.984375 -0.53125 
Q 36.96875 -1.421875 32.421875 -1.421875 
Q 20.0625 -1.421875 12.78125 6.34375 
Q 5.515625 14.109375 5.515625 27.296875 
Q 5.515625 40.671875 12.859375 48.328125 
Q 20.21875 56 33.015625 56 
Q 37.15625 56 41.109375 55.140625 
Q 45.0625 54.296875 48.78125 52.59375 
z
" id="DejaVuSans-63"/>
      <path d="M 8.5 21.578125 
L 8.5 54.6875 
L 17.484375 54.6875 
L 17.484375 21.921875 
Q 17.484375 14.15625 20.5 10.265625 
Q 23.53125 6.390625 29.59375 6.390625 
Q 36.859375 6.390625 41.078125 11.03125 
Q 45.3125 15.671875 45.3125 23.6875 
L 45.3125 54.6875 
L 54.296875 54.6875 
L 54.296875 0 
L 45.3125 0 
L 45.3125 8.40625 
Q 42.046875 3.421875 37.71875 1 
Q 33.40625 -1.421875 27.6875 -1.421875 
Q 18.265625 -1.421875 13.375 4.4375 
Q 8.5 10.296875 8.5 21.578125 
z
M 31.109375 56 
z
" id="DejaVuSans-75"/>
      <path d="M 41.109375 46.296875 
Q 39.59375 47.171875 37.8125 47.578125 
Q 36.03125 48 33.890625 48 
Q 26.265625 48 22.1875 43.046875 
Q 18.109375 38.09375 18.109375 28.8125 
L 18.109375 0 
L 9.078125 0 
L 9.078125 54.6875 
L 18.109375 54.6875 
L 18.109375 46.1875 
Q 20.953125 51.171875 25.484375 53.578125 
Q 30.03125 56 36.53125 56 
Q 37.453125 56 38.578125 55.875 
Q 39.703125 55.765625 41.0625 55.515625 
z
" id="DejaVuSans-72"/>
      <path d="M 32.171875 -5.078125 
Q 28.375 -14.84375 24.75 -17.8125 
Q 21.140625 -20.796875 15.09375 -20.796875 
L 7.90625 -20.796875 
L 7.90625 -13.28125 
L 13.1875 -13.28125 
Q 16.890625 -13.28125 18.9375 -11.515625 
Q 21 -9.765625 23.484375 -3.21875 
L 25.09375 0.875 
L 2.984375 54.6875 
L 12.5 54.6875 
L 29.59375 11.921875 
L 46.6875 54.6875 
L 56.203125 54.6875 
z
" id="DejaVuSans-79"/>
     </defs>
     <g style="fill:#262626;" transform="translate(34.777714 309.523189)rotate(-90)scale(0.144 -0.144)">
      <use xlink:href="#DejaVuSans-56"/>
      <use x="68.298828" xlink:href="#DejaVuSans-61"/>
      <use x="129.578125" xlink:href="#DejaVuSans-6c"/>
      <use x="157.361328" xlink:href="#DejaVuSans-69"/>
      <use x="185.144531" xlink:href="#DejaVuSans-64"/>
      <use x="248.621094" xlink:href="#DejaVuSans-61"/>
      <use x="309.900391" xlink:href="#DejaVuSans-74"/>
      <use x="349.109375" xlink:href="#DejaVuSans-69"/>
      <use x="376.892578" xlink:href="#DejaVuSans-6f"/>
      <use x="438.074219" xlink:href="#DejaVuSans-6e"/>
      <use x="501.453125" xlink:href="#DejaVuSans-20"/>
      <use x="533.240234" xlink:href="#DejaVuSans-61"/>
      <use x="594.519531" xlink:href="#DejaVuSans-63"/>
      <use x="649.5" xlink:href="#DejaVuSans-63"/>
      <use x="704.480469" xlink:href="#DejaVuSans-75"/>
      <use x="767.859375" xlink:href="#DejaVuSans-72"/>
      <use x="808.972656" xlink:href="#DejaVuSans-61"/>
      <use x="870.251953" xlink:href="#DejaVuSans-63"/>
      <use x="925.232422" xlink:href="#DejaVuSans-79"/>
     </g>
    </g>
   </g>
   <g id="PolyCollection_1">
    <defs>
     <path d="M 88.290455 -667.064097 
L 88.290455 -644.157601 
L 106.422945 -707.086835 
L 124.555435 -725.793806 
L 142.687926 -738.32875 
L 160.820416 -746.60054 
L 178.952907 -752.899826 
L 197.085397 -752.64531 
L 215.217888 -758.562821 
L 233.350378 -758.880967 
L 251.482869 -761.806317 
L 269.615359 -762.953233 
L 287.74785 -764.353074 
L 305.88034 -766.580095 
L 324.01283 -762.762345 
L 342.145321 -768.870744 
L 360.277811 -770.843248 
L 378.410302 -769.761552 
L 396.542792 -768.488969 
L 414.675283 -772.688493 
L 432.807773 -768.870744 
L 432.807773 -776.888018 
L 432.807773 -776.888018 
L 414.675283 -776.951647 
L 396.542792 -775.170031 
L 378.410302 -774.915514 
L 360.277811 -774.215593 
L 342.145321 -771.988573 
L 324.01283 -767.852678 
L 305.88034 -773.833818 
L 287.74785 -768.170824 
L 269.615359 -769.125261 
L 251.482869 -765.816545 
L 233.350378 -764.098558 
L 215.217888 -762.700307 
L 197.085397 -756.39943 
L 178.952907 -758.499192 
L 160.820416 -750.35466 
L 142.687926 -746.918686 
L 124.555435 -730.693251 
L 106.422945 -715.485883 
L 88.290455 -667.064097 
z
" id="m56fc8a0b35" style="stroke:#4c72b0;stroke-opacity:0.2;stroke-width:0.8;"/>
    </defs>
    <g clip-path="url(#p07114b7cba)">
     <use style="fill:#4c72b0;fill-opacity:0.2;stroke:#4c72b0;stroke-opacity:0.2;stroke-width:0.8;" x="0" xlink:href="#m56fc8a0b35" y="864"/>
    </g>
   </g>
   <g id="PolyCollection_2">
    <defs>
     <path d="M 88.290455 -695.188183 
L 88.290455 -681.751297 
L 106.422945 -718.985487 
L 124.555435 -729.420668 
L 142.687926 -734.701888 
L 160.820416 -740.746658 
L 178.952907 -746.027878 
L 197.085397 -749.909256 
L 215.217888 -750.481918 
L 233.350378 -753.599747 
L 251.482869 -756.972092 
L 269.615359 -754.554184 
L 287.74785 -758.435563 
L 305.88034 -759.32319 
L 324.01283 -759.385228 
L 342.145321 -759.771775 
L 360.277811 -762.253312 
L 378.410302 -761.295693 
L 396.542792 -763.90767 
L 414.675283 -762.31376 
L 432.807773 -765.307511 
L 432.807773 -771.47954 
L 432.807773 -771.47954 
L 414.675283 -769.18889 
L 396.542792 -769.252519 
L 378.410302 -767.089128 
L 360.277811 -766.643724 
L 342.145321 -766.516465 
L 324.01283 -767.534532 
L 305.88034 -764.416703 
L 287.74785 -764.607591 
L 269.615359 -757.867673 
L 251.482869 -761.107987 
L 233.350378 -757.92653 
L 215.217888 -756.526688 
L 197.085397 -753.981522 
L 178.952907 -748.703484 
L 160.820416 -746.349205 
L 142.687926 -741.001174 
L 124.555435 -735.210921 
L 106.422945 -722.54872 
L 88.290455 -695.188183 
z
" id="m0caaca3e29" style="stroke:#dd8452;stroke-opacity:0.2;stroke-width:0.8;"/>
    </defs>
    <g clip-path="url(#p07114b7cba)">
     <use style="fill:#dd8452;fill-opacity:0.2;stroke:#dd8452;stroke-opacity:0.2;stroke-width:0.8;" x="0" xlink:href="#m0caaca3e29" y="864"/>
    </g>
   </g>
   <g id="PolyCollection_3">
    <defs>
     <path d="M 88.290455 -668.527568 
L 88.290455 -654.839346 
L 106.422945 -712.558942 
L 124.555435 -732.34761 
L 142.687926 -744.628036 
L 160.820416 -753.536118 
L 178.952907 -758.880967 
L 197.085397 -761.489762 
L 215.217888 -764.034928 
L 233.350378 -767.343644 
L 251.482869 -769.379777 
L 269.615359 -773.515673 
L 287.74785 -771.41591 
L 305.88034 -771.861315 
L 324.01283 -771.097764 
L 342.145321 -773.006639 
L 360.277811 -773.006639 
L 378.410302 -774.533739 
L 396.542792 -771.606798 
L 414.675283 -773.070268 
L 432.807773 -774.84075 
L 432.807773 -781.087542 
L 432.807773 -781.087542 
L 414.675283 -778.925741 
L 396.542792 -779.178667 
L 378.410302 -777.524309 
L 360.277811 -778.733263 
L 342.145321 -778.924151 
L 324.01283 -775.106401 
L 305.88034 -780.387621 
L 287.74785 -777.142534 
L 269.615359 -778.478747 
L 251.482869 -773.70656 
L 233.350378 -770.016069 
L 215.217888 -769.443407 
L 197.085397 -767.343645 
L 178.952907 -761.362504 
L 160.820416 -757.16298 
L 142.687926 -749.082077 
L 124.555435 -737.5652 
L 106.422945 -717.522016 
L 88.290455 -668.527568 
z
" id="m79128d47cd" style="stroke:#55a868;stroke-opacity:0.2;stroke-width:0.8;"/>
    </defs>
    <g clip-path="url(#p07114b7cba)">
     <use style="fill:#55a868;fill-opacity:0.2;stroke:#55a868;stroke-opacity:0.2;stroke-width:0.8;" x="0" xlink:href="#m79128d47cd" y="864"/>
    </g>
   </g>
   <g id="PolyCollection_4">
    <defs>
     <path d="M 88.290455 -699.833111 
L 88.290455 -672.536204 
L 106.422945 -730.05696 
L 124.555435 -748.318527 
L 142.687926 -740.428512 
L 160.820416 -763.525895 
L 178.952907 -764.987775 
L 197.085397 -767.214795 
L 215.217888 -771.734056 
L 233.350378 -771.924943 
L 251.482869 -774.533739 
L 269.615359 -770.970506 
L 287.74785 -772.815752 
L 305.88034 -771.729284 
L 324.01283 -774.151964 
L 342.145321 -772.559644 
L 360.277811 -772.561235 
L 378.410302 -771.797685 
L 396.542792 -774.215593 
L 414.675283 -770.588731 
L 432.807773 -774.150373 
L 432.807773 -778.22423 
L 432.807773 -778.22423 
L 414.675283 -777.46068 
L 396.542792 -779.051409 
L 378.410302 -776.506243 
L 360.277811 -775.488176 
L 342.145321 -780.960283 
L 324.01283 -777.142534 
L 305.88034 -779.942217 
L 287.74785 -782.169237 
L 269.615359 -776.378984 
L 251.482869 -778.990961 
L 233.350378 -776.951647 
L 215.217888 -774.215593 
L 197.085397 -777.269793 
L 178.952907 -770.843248 
L 160.820416 -765.943803 
L 142.687926 -762.762345 
L 124.555435 -757.353867 
L 106.422945 -742.655532 
L 88.290455 -699.833111 
z
" id="mfe7a041091" style="stroke:#c44e52;stroke-opacity:0.2;stroke-width:0.8;"/>
    </defs>
    <g clip-path="url(#p07114b7cba)">
     <use style="fill:#c44e52;fill-opacity:0.2;stroke:#c44e52;stroke-opacity:0.2;stroke-width:0.8;" x="0" xlink:href="#mfe7a041091" y="864"/>
    </g>
   </g>
   <g id="line2d_14">
    <path clip-path="url(#p07114b7cba)" d="M 88.290455 208.643667 
L 106.422945 153.349932 
L 124.555435 135.597398 
L 142.687926 122.298905 
L 160.820416 115.87236 
L 178.952907 108.300491 
L 197.085397 109.445816 
L 215.217888 103.655563 
L 233.350378 102.573867 
L 251.482869 100.537734 
L 269.615359 97.610793 
L 287.74785 97.738051 
L 305.88034 93.793044 
L 324.01283 98.692489 
L 342.145321 93.538527 
L 360.277811 91.311507 
L 378.410302 91.629652 
L 396.542792 92.838606 
L 414.675283 89.275374 
L 432.807773 90.993361 
" style="fill:none;stroke:#4c72b0;stroke-linecap:round;stroke-width:1.5;"/>
   </g>
   <g id="line2d_15">
    <path clip-path="url(#p07114b7cba)" d="M 88.290455 175.492878 
L 106.422945 143.423784 
L 124.555435 131.843278 
L 142.687926 126.180283 
L 160.820416 120.580918 
L 178.952907 116.572281 
L 197.085397 112.054611 
L 215.217888 111.41832 
L 233.350378 108.236862 
L 251.482869 105.055404 
L 269.615359 107.791458 
L 287.74785 103.019271 
L 305.88034 102.192092 
L 324.01283 100.537734 
L 342.145321 100.85588 
L 360.277811 99.583297 
L 378.410302 99.710555 
L 396.542792 97.292647 
L 414.675283 97.928939 
L 432.807773 95.638289 
" style="fill:none;stroke:#dd8452;stroke-linecap:round;stroke-width:1.5;"/>
   </g>
   <g id="line2d_16">
    <path clip-path="url(#p07114b7cba)" d="M 88.290455 202.471639 
L 106.422945 148.895891 
L 124.555435 129.043595 
L 142.687926 117.017685 
L 160.820416 108.745895 
L 178.952907 103.84645 
L 197.085397 99.456038 
L 215.217888 97.738051 
L 233.350378 95.383773 
L 251.482869 92.265944 
L 269.615359 88.00279 
L 287.74785 90.038923 
L 305.88034 87.875532 
L 324.01283 90.993361 
L 342.145321 88.130049 
L 360.277811 87.748274 
L 378.410302 87.811903 
L 396.542792 88.384566 
L 414.675283 87.684645 
L 432.807773 85.712141 
" style="fill:none;stroke:#55a868;stroke-linecap:round;stroke-width:1.5;"/>
   </g>
   <g id="line2d_17">
    <path clip-path="url(#p07114b7cba)" d="M 88.290455 175.36562 
L 106.422945 127.643754 
L 124.555435 111.163803 
L 142.687926 111.990982 
L 160.820416 99.32878 
L 178.952907 95.447402 
L 197.085397 91.438765 
L 215.217888 91.05699 
L 233.350378 89.148115 
L 251.482869 87.30287 
L 269.615359 90.484328 
L 287.74785 86.412062 
L 305.88034 88.06642 
L 324.01283 88.384565 
L 342.145321 87.30287 
L 360.277811 89.975294 
L 378.410302 89.657148 
L 396.542792 87.684645 
L 414.675283 90.29344 
L 432.807773 88.002791 
" style="fill:none;stroke:#c44e52;stroke-linecap:round;stroke-width:1.5;"/>
   </g>
   <g id="line2d_18"/>
   <g id="line2d_19"/>
   <g id="line2d_20"/>
   <g id="line2d_21"/>
   <g id="line2d_22"/>
   <g id="patch_3">
    <path d="M 71.064589 416.809628 
L 71.064589 60.48 
" style="fill:none;stroke:#cccccc;stroke-linecap:square;stroke-linejoin:miter;"/>
   </g>
   <g id="patch_4">
    <path d="M 71.064589 416.809628 
L 450.033639 416.809628 
" style="fill:none;stroke:#cccccc;stroke-linecap:square;stroke-linejoin:miter;"/>
   </g>
   <g id="text_7">
    <!-- Batch size = 64 -->
    <defs>
     <path d="M 19.671875 34.8125 
L 19.671875 8.109375 
L 35.5 8.109375 
Q 43.453125 8.109375 47.28125 11.40625 
Q 51.125 14.703125 51.125 21.484375 
Q 51.125 28.328125 47.28125 31.5625 
Q 43.453125 34.8125 35.5 34.8125 
z
M 19.671875 64.796875 
L 19.671875 42.828125 
L 34.28125 42.828125 
Q 41.5 42.828125 45.03125 45.53125 
Q 48.578125 48.25 48.578125 53.8125 
Q 48.578125 59.328125 45.03125 62.0625 
Q 41.5 64.796875 34.28125 64.796875 
z
M 9.8125 72.90625 
L 35.015625 72.90625 
Q 46.296875 72.90625 52.390625 68.21875 
Q 58.5 63.53125 58.5 54.890625 
Q 58.5 48.1875 55.375 44.234375 
Q 52.25 40.28125 46.1875 39.3125 
Q 53.46875 37.75 57.5 32.78125 
Q 61.53125 27.828125 61.53125 20.40625 
Q 61.53125 10.640625 54.890625 5.3125 
Q 48.25 0 35.984375 0 
L 9.8125 0 
z
" id="DejaVuSans-42"/>
     <path d="M 54.890625 33.015625 
L 54.890625 0 
L 45.90625 0 
L 45.90625 32.71875 
Q 45.90625 40.484375 42.875 44.328125 
Q 39.84375 48.1875 33.796875 48.1875 
Q 26.515625 48.1875 22.3125 43.546875 
Q 18.109375 38.921875 18.109375 30.90625 
L 18.109375 0 
L 9.078125 0 
L 9.078125 75.984375 
L 18.109375 75.984375 
L 18.109375 46.1875 
Q 21.34375 51.125 25.703125 53.5625 
Q 30.078125 56 35.796875 56 
Q 45.21875 56 50.046875 50.171875 
Q 54.890625 44.34375 54.890625 33.015625 
z
" id="DejaVuSans-68"/>
     <path d="M 44.28125 53.078125 
L 44.28125 44.578125 
Q 40.484375 46.53125 36.375 47.5 
Q 32.28125 48.484375 27.875 48.484375 
Q 21.1875 48.484375 17.84375 46.4375 
Q 14.5 44.390625 14.5 40.28125 
Q 14.5 37.15625 16.890625 35.375 
Q 19.28125 33.59375 26.515625 31.984375 
L 29.59375 31.296875 
Q 39.15625 29.25 43.1875 25.515625 
Q 47.21875 21.78125 47.21875 15.09375 
Q 47.21875 7.46875 41.1875 3.015625 
Q 35.15625 -1.421875 24.609375 -1.421875 
Q 20.21875 -1.421875 15.453125 -0.5625 
Q 10.6875 0.296875 5.421875 2 
L 5.421875 11.28125 
Q 10.40625 8.6875 15.234375 7.390625 
Q 20.0625 6.109375 24.8125 6.109375 
Q 31.15625 6.109375 34.5625 8.28125 
Q 37.984375 10.453125 37.984375 14.40625 
Q 37.984375 18.0625 35.515625 20.015625 
Q 33.0625 21.96875 24.703125 23.78125 
L 21.578125 24.515625 
Q 13.234375 26.265625 9.515625 29.90625 
Q 5.8125 33.546875 5.8125 39.890625 
Q 5.8125 47.609375 11.28125 51.796875 
Q 16.75 56 26.8125 56 
Q 31.78125 56 36.171875 55.265625 
Q 40.578125 54.546875 44.28125 53.078125 
z
" id="DejaVuSans-73"/>
     <path d="M 5.515625 54.6875 
L 48.1875 54.6875 
L 48.1875 46.484375 
L 14.40625 7.171875 
L 48.1875 7.171875 
L 48.1875 0 
L 4.296875 0 
L 4.296875 8.203125 
L 38.09375 47.515625 
L 5.515625 47.515625 
z
" id="DejaVuSans-7a"/>
     <path d="M 56.203125 29.59375 
L 56.203125 25.203125 
L 14.890625 25.203125 
Q 15.484375 15.921875 20.484375 11.0625 
Q 25.484375 6.203125 34.421875 6.203125 
Q 39.59375 6.203125 44.453125 7.46875 
Q 49.3125 8.734375 54.109375 11.28125 
L 54.109375 2.78125 
Q 49.265625 0.734375 44.1875 -0.34375 
Q 39.109375 -1.421875 33.890625 -1.421875 
Q 20.796875 -1.421875 13.15625 6.1875 
Q 5.515625 13.8125 5.515625 26.8125 
Q 5.515625 40.234375 12.765625 48.109375 
Q 20.015625 56 32.328125 56 
Q 43.359375 56 49.78125 48.890625 
Q 56.203125 41.796875 56.203125 29.59375 
z
M 47.21875 32.234375 
Q 47.125 39.59375 43.09375 43.984375 
Q 39.0625 48.390625 32.421875 48.390625 
Q 24.90625 48.390625 20.390625 44.140625 
Q 15.875 39.890625 15.1875 32.171875 
z
" id="DejaVuSans-65"/>
     <path d="M 10.59375 45.40625 
L 73.1875 45.40625 
L 73.1875 37.203125 
L 10.59375 37.203125 
z
M 10.59375 25.484375 
L 73.1875 25.484375 
L 73.1875 17.1875 
L 10.59375 17.1875 
z
" id="DejaVuSans-3d"/>
    </defs>
    <g style="fill:#262626;" transform="translate(203.832239 54.48)scale(0.144 -0.144)">
     <use xlink:href="#DejaVuSans-42"/>
     <use x="68.603516" xlink:href="#DejaVuSans-61"/>
     <use x="129.882812" xlink:href="#DejaVuSans-74"/>
     <use x="169.091797" xlink:href="#DejaVuSans-63"/>
     <use x="224.072266" xlink:href="#DejaVuSans-68"/>
     <use x="287.451172" xlink:href="#DejaVuSans-20"/>
     <use x="319.238281" xlink:href="#DejaVuSans-73"/>
     <use x="371.337891" xlink:href="#DejaVuSans-69"/>
     <use x="399.121094" xlink:href="#DejaVuSans-7a"/>
     <use x="451.611328" xlink:href="#DejaVuSans-65"/>
     <use x="513.134766" xlink:href="#DejaVuSans-20"/>
     <use x="544.921875" xlink:href="#DejaVuSans-3d"/>
     <use x="628.710938" xlink:href="#DejaVuSans-20"/>
     <use x="660.498047" xlink:href="#DejaVuSans-36"/>
     <use x="724.121094" xlink:href="#DejaVuSans-34"/>
    </g>
   </g>
  </g>
  <g id="axes_2">
   <g id="patch_5">
    <path d="M 475.261999 416.809628 
L 854.23105 416.809628 
L 854.23105 60.48 
L 475.261999 60.48 
z
" style="fill:#ffffff;"/>
   </g>
   <g id="matplotlib.axis_3">
    <g id="xtick_9">
     <g id="line2d_23">
      <path clip-path="url(#p8bbef17cf2)" d="M 492.487865 416.809628 
L 492.487865 60.48 
" style="fill:none;stroke:#cccccc;stroke-linecap:round;stroke-width:0.8;"/>
     </g>
    </g>
    <g id="xtick_10">
     <g id="line2d_24">
      <path clip-path="url(#p8bbef17cf2)" d="M 537.819092 416.809628 
L 537.819092 60.48 
" style="fill:none;stroke:#cccccc;stroke-linecap:round;stroke-width:0.8;"/>
     </g>
    </g>
    <g id="xtick_11">
     <g id="line2d_25">
      <path clip-path="url(#p8bbef17cf2)" d="M 583.150318 416.809628 
L 583.150318 60.48 
" style="fill:none;stroke:#cccccc;stroke-linecap:round;stroke-width:0.8;"/>
     </g>
    </g>
    <g id="xtick_12">
     <g id="line2d_26">
      <path clip-path="url(#p8bbef17cf2)" d="M 628.481544 416.809628 
L 628.481544 60.48 
" style="fill:none;stroke:#cccccc;stroke-linecap:round;stroke-width:0.8;"/>
     </g>
    </g>
    <g id="xtick_13">
     <g id="line2d_27">
      <path clip-path="url(#p8bbef17cf2)" d="M 673.81277 416.809628 
L 673.81277 60.48 
" style="fill:none;stroke:#cccccc;stroke-linecap:round;stroke-width:0.8;"/>
     </g>
    </g>
    <g id="xtick_14">
     <g id="line2d_28">
      <path clip-path="url(#p8bbef17cf2)" d="M 719.143996 416.809628 
L 719.143996 60.48 
" style="fill:none;stroke:#cccccc;stroke-linecap:round;stroke-width:0.8;"/>
     </g>
    </g>
    <g id="xtick_15">
     <g id="line2d_29">
      <path clip-path="url(#p8bbef17cf2)" d="M 764.475222 416.809628 
L 764.475222 60.48 
" style="fill:none;stroke:#cccccc;stroke-linecap:round;stroke-width:0.8;"/>
     </g>
    </g>
    <g id="xtick_16">
     <g id="line2d_30">
      <path clip-path="url(#p8bbef17cf2)" d="M 809.806448 416.809628 
L 809.806448 60.48 
" style="fill:none;stroke:#cccccc;stroke-linecap:round;stroke-width:0.8;"/>
     </g>
    </g>
   </g>
   <g id="matplotlib.axis_4">
    <g id="ytick_6">
     <g id="line2d_31">
      <path clip-path="url(#p8bbef17cf2)" d="M 475.261999 377.292741 
L 854.23105 377.292741 
" style="fill:none;stroke:#cccccc;stroke-linecap:round;stroke-width:0.8;"/>
     </g>
    </g>
    <g id="ytick_7">
     <g id="line2d_32">
      <path clip-path="url(#p8bbef17cf2)" d="M 475.261999 305.296353 
L 854.23105 305.296353 
" style="fill:none;stroke:#cccccc;stroke-linecap:round;stroke-width:0.8;"/>
     </g>
    </g>
    <g id="ytick_8">
     <g id="line2d_33">
      <path clip-path="url(#p8bbef17cf2)" d="M 475.261999 233.299965 
L 854.23105 233.299965 
" style="fill:none;stroke:#cccccc;stroke-linecap:round;stroke-width:0.8;"/>
     </g>
    </g>
    <g id="ytick_9">
     <g id="line2d_34">
      <path clip-path="url(#p8bbef17cf2)" d="M 475.261999 161.303576 
L 854.23105 161.303576 
" style="fill:none;stroke:#cccccc;stroke-linecap:round;stroke-width:0.8;"/>
     </g>
    </g>
    <g id="ytick_10">
     <g id="line2d_35">
      <path clip-path="url(#p8bbef17cf2)" d="M 475.261999 89.307188 
L 854.23105 89.307188 
" style="fill:none;stroke:#cccccc;stroke-linecap:round;stroke-width:0.8;"/>
     </g>
    </g>
   </g>
   <g id="PolyCollection_5">
    <defs>
     <path d="M 492.487865 -637.540169 
L 492.487865 -613.679237 
L 510.620356 -688.952526 
L 528.752846 -715.804029 
L 546.885337 -731.011397 
L 565.017827 -743.228195 
L 583.150318 -747.618606 
L 601.282808 -750.800064 
L 619.415299 -754.236038 
L 637.547789 -756.073331 
L 655.68028 -761.871537 
L 673.81277 -761.298875 
L 691.94526 -763.9713 
L 710.077751 -768.616228 
L 728.210241 -767.534532 
L 746.342732 -769.252519 
L 764.475222 -769.125261 
L 782.607713 -771.288652 
L 800.740203 -771.352281 
L 818.872694 -771.034135 
L 837.005184 -770.906877 
L 837.005184 -777.46068 
L 837.005184 -777.46068 
L 818.872694 -774.979143 
L 800.740203 -775.042772 
L 782.607713 -775.297288 
L 764.475222 -775.679064 
L 746.342732 -775.171621 
L 728.210241 -772.497606 
L 710.077751 -771.924943 
L 691.94526 -770.461474 
L 673.81277 -764.989366 
L 655.68028 -766.645314 
L 637.547789 -764.925737 
L 619.415299 -761.298875 
L 601.282808 -756.851197 
L 583.150318 -754.045151 
L 565.017827 -746.155137 
L 546.885337 -735.274551 
L 528.752846 -719.430891 
L 510.620356 -699.904694 
L 492.487865 -637.540169 
z
" id="mc041f32219" style="stroke:#4c72b0;stroke-opacity:0.2;stroke-width:0.8;"/>
    </defs>
    <g clip-path="url(#p8bbef17cf2)">
     <use style="fill:#4c72b0;fill-opacity:0.2;stroke:#4c72b0;stroke-opacity:0.2;stroke-width:0.8;" x="0" xlink:href="#mc041f32219" y="864"/>
    </g>
   </g>
   <g id="PolyCollection_6">
    <defs>
     <path d="M 492.487865 -685.580181 
L 492.487865 -673.6179 
L 510.620356 -708.104901 
L 528.752846 -725.984695 
L 546.885337 -735.401809 
L 565.017827 -740.492141 
L 583.150318 -746.218765 
L 601.282808 -750.481919 
L 619.415299 -753.090714 
L 637.547789 -754.93596 
L 655.68028 -756.399429 
L 673.81277 -758.244675 
L 691.94526 -760.15355 
L 710.077751 -760.589409 
L 728.210241 -762.316941 
L 746.342732 -761.362504 
L 764.475222 -764.606 
L 782.607713 -766.007432 
L 800.740203 -765.243883 
L 818.872694 -766.261949 
L 837.005184 -767.661791 
L 837.005184 -770.652361 
L 837.005184 -770.652361 
L 818.872694 -769.446588 
L 800.740203 -767.534532 
L 782.607713 -768.743486 
L 764.475222 -768.745077 
L 746.342732 -766.707353 
L 728.210241 -767.031861 
L 710.077751 -765.243882 
L 691.94526 -762.889604 
L 673.81277 -762.571458 
L 655.68028 -760.474877 
L 637.547789 -758.944596 
L 619.415299 -756.39943 
L 601.282808 -755.190476 
L 583.150318 -751.563614 
L 565.017827 -746.791427 
L 546.885337 -741.510207 
L 528.752846 -732.350791 
L 510.620356 -719.685407 
L 492.487865 -685.580181 
z
" id="madecf852b6" style="stroke:#dd8452;stroke-opacity:0.2;stroke-width:0.8;"/>
    </defs>
    <g clip-path="url(#p8bbef17cf2)">
     <use style="fill:#dd8452;fill-opacity:0.2;stroke:#dd8452;stroke-opacity:0.2;stroke-width:0.8;" x="0" xlink:href="#madecf852b6" y="864"/>
    </g>
   </g>
   <g id="PolyCollection_7">
    <defs>
     <path d="M 492.487865 -615.333595 
L 492.487865 -609.988745 
L 510.620356 -689.461559 
L 528.752846 -718.73097 
L 546.885337 -731.329543 
L 565.017827 -739.404083 
L 583.150318 -750.990952 
L 601.282808 -755.890397 
L 619.415299 -757.862901 
L 637.547789 -760.9171 
L 655.68028 -764.478742 
L 673.81277 -765.116624 
L 691.94526 -768.170823 
L 710.077751 -766.707353 
L 728.210241 -767.216387 
L 746.342732 -769.316148 
L 764.475222 -773.261156 
L 782.607713 -773.197526 
L 800.740203 -775.17003 
L 818.872694 -774.406481 
L 837.005184 -777.333421 
L 837.005184 -779.6877 
L 837.005184 -779.6877 
L 818.872694 -776.188097 
L 800.740203 -778.98778 
L 782.607713 -775.551805 
L 764.475222 -775.297288 
L 746.342732 -773.770189 
L 728.210241 -773.833819 
L 710.077751 -772.052202 
L 691.94526 -772.624864 
L 673.81277 -769.888811 
L 655.68028 -769.829953 
L 637.547789 -763.907671 
L 619.415299 -762.126054 
L 601.282808 -760.15355 
L 583.150318 -754.236039 
L 565.017827 -748.318527 
L 546.885337 -735.083664 
L 528.752846 -721.403395 
L 510.620356 -698.942303 
L 492.487865 -615.333595 
z
" id="m1f1caa4e43" style="stroke:#55a868;stroke-opacity:0.2;stroke-width:0.8;"/>
    </defs>
    <g clip-path="url(#p8bbef17cf2)">
     <use style="fill:#55a868;fill-opacity:0.2;stroke:#55a868;stroke-opacity:0.2;stroke-width:0.8;" x="0" xlink:href="#m1f1caa4e43" y="864"/>
    </g>
   </g>
   <g id="PolyCollection_8">
    <defs>
     <path d="M 492.487865 -685.389293 
L 492.487865 -673.936045 
L 510.620356 -717.140242 
L 528.752846 -741.570655 
L 546.885337 -751.945389 
L 565.017827 -757.099351 
L 583.150318 -766.325578 
L 601.282808 -766.707353 
L 619.415299 -769.694742 
L 637.547789 -775.106401 
L 655.68028 -772.94301 
L 673.81277 -775.615434 
L 691.94526 -773.320013 
L 710.077751 -779.242297 
L 728.210241 -778.796893 
L 746.342732 -779.496813 
L 764.475222 -778.924151 
L 782.607713 -777.524309 
L 800.740203 -778.733264 
L 818.872694 -777.524309 
L 837.005184 -778.92415 
L 837.005184 -783.950854 
L 837.005184 -783.950854 
L 818.872694 -780.389212 
L 800.740203 -781.787463 
L 782.607713 -787.323199 
L 764.475222 -783.50545 
L 746.342732 -781.91472 
L 728.210241 -781.598166 
L 710.077751 -784.078112 
L 691.94526 -780.387621 
L 673.81277 -782.687815 
L 655.68028 -778.351488 
L 637.547789 -777.842455 
L 619.415299 -774.47011 
L 601.282808 -773.642931 
L 583.150318 -772.688493 
L 565.017827 -763.589524 
L 546.885337 -755.063218 
L 528.752846 -746.218765 
L 510.620356 -729.166152 
L 492.487865 -685.389293 
z
" id="m310c981c71" style="stroke:#c44e52;stroke-opacity:0.2;stroke-width:0.8;"/>
    </defs>
    <g clip-path="url(#p8bbef17cf2)">
     <use style="fill:#c44e52;fill-opacity:0.2;stroke:#c44e52;stroke-opacity:0.2;stroke-width:0.8;" x="0" xlink:href="#m310c981c71" y="864"/>
    </g>
   </g>
   <g id="line2d_36">
    <path clip-path="url(#p8bbef17cf2)" d="M 492.487865 238.294853 
L 510.620356 169.638996 
L 528.752846 146.287096 
L 546.885337 130.443437 
L 565.017827 119.690109 
L 583.150318 113.963486 
L 601.282808 110.400253 
L 619.415299 106.009842 
L 637.547789 103.464675 
L 655.68028 99.901442 
L 673.81277 100.983138 
L 691.94526 95.956435 
L 710.077751 93.983931 
L 728.210241 93.983931 
L 746.342732 91.756911 
L 764.475222 91.884169 
L 782.607713 90.675215 
L 800.740203 90.866103 
L 818.872694 91.120619 
L 837.005184 89.911666 
" style="fill:none;stroke:#4c72b0;stroke-linecap:round;stroke-width:1.5;"/>
   </g>
   <g id="line2d_37">
    <path clip-path="url(#p8bbef17cf2)" d="M 492.487865 184.40096 
L 510.620356 150.104846 
L 528.752846 134.388444 
L 546.885337 125.798509 
L 565.017827 120.517288 
L 583.150318 115.10881 
L 601.282808 111.163803 
L 619.415299 109.191299 
L 637.547789 107.091537 
L 655.68028 105.437179 
L 673.81277 103.655563 
L 691.94526 102.446608 
L 710.077751 101.046767 
L 728.210241 99.201522 
L 746.342732 100.155959 
L 764.475222 97.165389 
L 782.607713 96.592726 
L 800.740203 97.483535 
L 818.872694 96.147322 
L 837.005184 94.938368 
" style="fill:none;stroke:#dd8452;stroke-linecap:round;stroke-width:1.5;"/>
   </g>
   <g id="line2d_38">
    <path clip-path="url(#p8bbef17cf2)" d="M 492.487865 250.957055 
L 510.620356 169.829883 
L 528.752846 143.932817 
L 546.885337 130.825211 
L 565.017827 120.135513 
L 583.150318 111.672836 
L 601.282808 106.07347 
L 619.415299 103.84645 
L 637.547789 101.364913 
L 655.68028 97.038131 
L 673.81277 96.529097 
L 691.94526 93.34764 
L 710.077751 94.81111 
L 728.210241 93.474897 
L 746.342732 92.456831 
L 764.475222 89.720778 
L 782.607713 89.720778 
L 800.740203 86.921095 
L 818.872694 88.702711 
L 837.005184 85.457625 
" style="fill:none;stroke:#55a868;stroke-linecap:round;stroke-width:1.5;"/>
   </g>
   <g id="line2d_39">
    <path clip-path="url(#p8bbef17cf2)" d="M 492.487865 183.764668 
L 510.620356 140.433213 
L 528.752846 120.326401 
L 546.885337 110.209366 
L 565.017827 103.337417 
L 583.150318 94.683852 
L 601.282808 93.474898 
L 619.415299 92.011427 
L 637.547789 87.557386 
L 655.68028 87.875532 
L 673.81277 84.694075 
L 691.94526 86.857466 
L 710.077751 82.594313 
L 728.210241 83.676008 
L 746.342732 83.294233 
L 764.475222 82.594312 
L 782.607713 81.448987 
L 800.740203 83.866895 
L 818.872694 85.07585 
L 837.005184 82.530683 
" style="fill:none;stroke:#c44e52;stroke-linecap:round;stroke-width:1.5;"/>
   </g>
   <g id="patch_6">
    <path d="M 475.261999 416.809628 
L 475.261999 60.48 
" style="fill:none;stroke:#cccccc;stroke-linecap:square;stroke-linejoin:miter;"/>
   </g>
   <g id="patch_7">
    <path d="M 475.261999 416.809628 
L 854.23105 416.809628 
" style="fill:none;stroke:#cccccc;stroke-linecap:square;stroke-linejoin:miter;"/>
   </g>
   <g id="text_8">
    <!-- Batch size = 128 -->
    <defs>
     <path d="M 12.40625 8.296875 
L 28.515625 8.296875 
L 28.515625 63.921875 
L 10.984375 60.40625 
L 10.984375 69.390625 
L 28.421875 72.90625 
L 38.28125 72.90625 
L 38.28125 8.296875 
L 54.390625 8.296875 
L 54.390625 0 
L 12.40625 0 
z
" id="DejaVuSans-31"/>
     <path d="M 19.1875 8.296875 
L 53.609375 8.296875 
L 53.609375 0 
L 7.328125 0 
L 7.328125 8.296875 
Q 12.9375 14.109375 22.625 23.890625 
Q 32.328125 33.6875 34.8125 36.53125 
Q 39.546875 41.84375 41.421875 45.53125 
Q 43.3125 49.21875 43.3125 52.78125 
Q 43.3125 58.59375 39.234375 62.25 
Q 35.15625 65.921875 28.609375 65.921875 
Q 23.96875 65.921875 18.8125 64.3125 
Q 13.671875 62.703125 7.8125 59.421875 
L 7.8125 69.390625 
Q 13.765625 71.78125 18.9375 73 
Q 24.125 74.21875 28.421875 74.21875 
Q 39.75 74.21875 46.484375 68.546875 
Q 53.21875 62.890625 53.21875 53.421875 
Q 53.21875 48.921875 51.53125 44.890625 
Q 49.859375 40.875 45.40625 35.40625 
Q 44.1875 33.984375 37.640625 27.21875 
Q 31.109375 20.453125 19.1875 8.296875 
z
" id="DejaVuSans-32"/>
     <path d="M 31.78125 34.625 
Q 24.75 34.625 20.71875 30.859375 
Q 16.703125 27.09375 16.703125 20.515625 
Q 16.703125 13.921875 20.71875 10.15625 
Q 24.75 6.390625 31.78125 6.390625 
Q 38.8125 6.390625 42.859375 10.171875 
Q 46.921875 13.96875 46.921875 20.515625 
Q 46.921875 27.09375 42.890625 30.859375 
Q 38.875 34.625 31.78125 34.625 
z
M 21.921875 38.8125 
Q 15.578125 40.375 12.03125 44.71875 
Q 8.5 49.078125 8.5 55.328125 
Q 8.5 64.0625 14.71875 69.140625 
Q 20.953125 74.21875 31.78125 74.21875 
Q 42.671875 74.21875 48.875 69.140625 
Q 55.078125 64.0625 55.078125 55.328125 
Q 55.078125 49.078125 51.53125 44.71875 
Q 48 40.375 41.703125 38.8125 
Q 48.828125 37.15625 52.796875 32.3125 
Q 56.78125 27.484375 56.78125 20.515625 
Q 56.78125 9.90625 50.3125 4.234375 
Q 43.84375 -1.421875 31.78125 -1.421875 
Q 19.734375 -1.421875 13.25 4.234375 
Q 6.78125 9.90625 6.78125 20.515625 
Q 6.78125 27.484375 10.78125 32.3125 
Q 14.796875 37.15625 21.921875 38.8125 
z
M 18.3125 54.390625 
Q 18.3125 48.734375 21.84375 45.5625 
Q 25.390625 42.390625 31.78125 42.390625 
Q 38.140625 42.390625 41.71875 45.5625 
Q 45.3125 48.734375 45.3125 54.390625 
Q 45.3125 60.0625 41.71875 63.234375 
Q 38.140625 66.40625 31.78125 66.40625 
Q 25.390625 66.40625 21.84375 63.234375 
Q 18.3125 60.0625 18.3125 54.390625 
z
" id="DejaVuSans-38"/>
    </defs>
    <g style="fill:#262626;" transform="translate(603.44865 54.48)scale(0.144 -0.144)">
     <use xlink:href="#DejaVuSans-42"/>
     <use x="68.603516" xlink:href="#DejaVuSans-61"/>
     <use x="129.882812" xlink:href="#DejaVuSans-74"/>
     <use x="169.091797" xlink:href="#DejaVuSans-63"/>
     <use x="224.072266" xlink:href="#DejaVuSans-68"/>
     <use x="287.451172" xlink:href="#DejaVuSans-20"/>
     <use x="319.238281" xlink:href="#DejaVuSans-73"/>
     <use x="371.337891" xlink:href="#DejaVuSans-69"/>
     <use x="399.121094" xlink:href="#DejaVuSans-7a"/>
     <use x="451.611328" xlink:href="#DejaVuSans-65"/>
     <use x="513.134766" xlink:href="#DejaVuSans-20"/>
     <use x="544.921875" xlink:href="#DejaVuSans-3d"/>
     <use x="628.710938" xlink:href="#DejaVuSans-20"/>
     <use x="660.498047" xlink:href="#DejaVuSans-31"/>
     <use x="724.121094" xlink:href="#DejaVuSans-32"/>
     <use x="787.744141" xlink:href="#DejaVuSans-38"/>
    </g>
   </g>
  </g>
  <g id="axes_3">
   <g id="patch_8">
    <path d="M 71.064589 809.148 
L 450.033639 809.148 
L 450.033639 452.818372 
L 71.064589 452.818372 
z
" style="fill:#ffffff;"/>
   </g>
   <g id="matplotlib.axis_5">
    <g id="xtick_17">
     <g id="line2d_40">
      <path clip-path="url(#pba5b4b0ff9)" d="M 88.290455 809.148 
L 88.290455 452.818372 
" style="fill:none;stroke:#cccccc;stroke-linecap:round;stroke-width:0.8;"/>
     </g>
     <g id="text_9">
      <!-- 0.0 -->
      <g style="fill:#262626;" transform="translate(77.794392 827.477938)scale(0.132 -0.132)">
       <use xlink:href="#DejaVuSans-30"/>
       <use x="63.623047" xlink:href="#DejaVuSans-2e"/>
       <use x="95.410156" xlink:href="#DejaVuSans-30"/>
      </g>
     </g>
    </g>
    <g id="xtick_18">
     <g id="line2d_41">
      <path clip-path="url(#pba5b4b0ff9)" d="M 133.621681 809.148 
L 133.621681 452.818372 
" style="fill:none;stroke:#cccccc;stroke-linecap:round;stroke-width:0.8;"/>
     </g>
     <g id="text_10">
      <!-- 2.5 -->
      <g style="fill:#262626;" transform="translate(123.125618 827.477938)scale(0.132 -0.132)">
       <use xlink:href="#DejaVuSans-32"/>
       <use x="63.623047" xlink:href="#DejaVuSans-2e"/>
       <use x="95.410156" xlink:href="#DejaVuSans-35"/>
      </g>
     </g>
    </g>
    <g id="xtick_19">
     <g id="line2d_42">
      <path clip-path="url(#pba5b4b0ff9)" d="M 178.952907 809.148 
L 178.952907 452.818372 
" style="fill:none;stroke:#cccccc;stroke-linecap:round;stroke-width:0.8;"/>
     </g>
     <g id="text_11">
      <!-- 5.0 -->
      <g style="fill:#262626;" transform="translate(168.456844 827.477938)scale(0.132 -0.132)">
       <use xlink:href="#DejaVuSans-35"/>
       <use x="63.623047" xlink:href="#DejaVuSans-2e"/>
       <use x="95.410156" xlink:href="#DejaVuSans-30"/>
      </g>
     </g>
    </g>
    <g id="xtick_20">
     <g id="line2d_43">
      <path clip-path="url(#pba5b4b0ff9)" d="M 224.284133 809.148 
L 224.284133 452.818372 
" style="fill:none;stroke:#cccccc;stroke-linecap:round;stroke-width:0.8;"/>
     </g>
     <g id="text_12">
      <!-- 7.5 -->
      <g style="fill:#262626;" transform="translate(213.78807 827.477938)scale(0.132 -0.132)">
       <use xlink:href="#DejaVuSans-37"/>
       <use x="63.623047" xlink:href="#DejaVuSans-2e"/>
       <use x="95.410156" xlink:href="#DejaVuSans-35"/>
      </g>
     </g>
    </g>
    <g id="xtick_21">
     <g id="line2d_44">
      <path clip-path="url(#pba5b4b0ff9)" d="M 269.615359 809.148 
L 269.615359 452.818372 
" style="fill:none;stroke:#cccccc;stroke-linecap:round;stroke-width:0.8;"/>
     </g>
     <g id="text_13">
      <!-- 10.0 -->
      <g style="fill:#262626;" transform="translate(254.920047 827.477938)scale(0.132 -0.132)">
       <use xlink:href="#DejaVuSans-31"/>
       <use x="63.623047" xlink:href="#DejaVuSans-30"/>
       <use x="127.246094" xlink:href="#DejaVuSans-2e"/>
       <use x="159.033203" xlink:href="#DejaVuSans-30"/>
      </g>
     </g>
    </g>
    <g id="xtick_22">
     <g id="line2d_45">
      <path clip-path="url(#pba5b4b0ff9)" d="M 314.946585 809.148 
L 314.946585 452.818372 
" style="fill:none;stroke:#cccccc;stroke-linecap:round;stroke-width:0.8;"/>
     </g>
     <g id="text_14">
      <!-- 12.5 -->
      <g style="fill:#262626;" transform="translate(300.251273 827.477938)scale(0.132 -0.132)">
       <use xlink:href="#DejaVuSans-31"/>
       <use x="63.623047" xlink:href="#DejaVuSans-32"/>
       <use x="127.246094" xlink:href="#DejaVuSans-2e"/>
       <use x="159.033203" xlink:href="#DejaVuSans-35"/>
      </g>
     </g>
    </g>
    <g id="xtick_23">
     <g id="line2d_46">
      <path clip-path="url(#pba5b4b0ff9)" d="M 360.277811 809.148 
L 360.277811 452.818372 
" style="fill:none;stroke:#cccccc;stroke-linecap:round;stroke-width:0.8;"/>
     </g>
     <g id="text_15">
      <!-- 15.0 -->
      <g style="fill:#262626;" transform="translate(345.582499 827.477938)scale(0.132 -0.132)">
       <use xlink:href="#DejaVuSans-31"/>
       <use x="63.623047" xlink:href="#DejaVuSans-35"/>
       <use x="127.246094" xlink:href="#DejaVuSans-2e"/>
       <use x="159.033203" xlink:href="#DejaVuSans-30"/>
      </g>
     </g>
    </g>
    <g id="xtick_24">
     <g id="line2d_47">
      <path clip-path="url(#pba5b4b0ff9)" d="M 405.609038 809.148 
L 405.609038 452.818372 
" style="fill:none;stroke:#cccccc;stroke-linecap:round;stroke-width:0.8;"/>
     </g>
     <g id="text_16">
      <!-- 17.5 -->
      <g style="fill:#262626;" transform="translate(390.913725 827.477938)scale(0.132 -0.132)">
       <use xlink:href="#DejaVuSans-31"/>
       <use x="63.623047" xlink:href="#DejaVuSans-37"/>
       <use x="127.246094" xlink:href="#DejaVuSans-2e"/>
       <use x="159.033203" xlink:href="#DejaVuSans-35"/>
      </g>
     </g>
    </g>
    <g id="text_17">
     <!-- Epoch -->
     <defs>
      <path d="M 9.8125 72.90625 
L 55.90625 72.90625 
L 55.90625 64.59375 
L 19.671875 64.59375 
L 19.671875 43.015625 
L 54.390625 43.015625 
L 54.390625 34.71875 
L 19.671875 34.71875 
L 19.671875 8.296875 
L 56.78125 8.296875 
L 56.78125 0 
L 9.8125 0 
z
" id="DejaVuSans-45"/>
      <path d="M 18.109375 8.203125 
L 18.109375 -20.796875 
L 9.078125 -20.796875 
L 9.078125 54.6875 
L 18.109375 54.6875 
L 18.109375 46.390625 
Q 20.953125 51.265625 25.265625 53.625 
Q 29.59375 56 35.59375 56 
Q 45.5625 56 51.78125 48.09375 
Q 58.015625 40.1875 58.015625 27.296875 
Q 58.015625 14.40625 51.78125 6.484375 
Q 45.5625 -1.421875 35.59375 -1.421875 
Q 29.59375 -1.421875 25.265625 0.953125 
Q 20.953125 3.328125 18.109375 8.203125 
z
M 48.6875 27.296875 
Q 48.6875 37.203125 44.609375 42.84375 
Q 40.53125 48.484375 33.40625 48.484375 
Q 26.265625 48.484375 22.1875 42.84375 
Q 18.109375 37.203125 18.109375 27.296875 
Q 18.109375 17.390625 22.1875 11.75 
Q 26.265625 6.109375 33.40625 6.109375 
Q 40.53125 6.109375 44.609375 11.75 
Q 48.6875 17.390625 48.6875 27.296875 
z
" id="DejaVuSans-70"/>
     </defs>
     <g style="fill:#262626;" transform="translate(238.501364 845.164875)scale(0.144 -0.144)">
      <use xlink:href="#DejaVuSans-45"/>
      <use x="63.183594" xlink:href="#DejaVuSans-70"/>
      <use x="126.660156" xlink:href="#DejaVuSans-6f"/>
      <use x="187.841797" xlink:href="#DejaVuSans-63"/>
      <use x="242.822266" xlink:href="#DejaVuSans-68"/>
     </g>
    </g>
   </g>
   <g id="matplotlib.axis_6">
    <g id="ytick_11">
     <g id="line2d_48">
      <path clip-path="url(#pba5b4b0ff9)" d="M 71.064589 769.631114 
L 450.033639 769.631114 
" style="fill:none;stroke:#cccccc;stroke-linecap:round;stroke-width:0.8;"/>
     </g>
     <g id="text_18">
      <!-- 0.3 -->
      <g style="fill:#262626;" transform="translate(41.772464 774.646082)scale(0.132 -0.132)">
       <use xlink:href="#DejaVuSans-30"/>
       <use x="63.623047" xlink:href="#DejaVuSans-2e"/>
       <use x="95.410156" xlink:href="#DejaVuSans-33"/>
      </g>
     </g>
    </g>
    <g id="ytick_12">
     <g id="line2d_49">
      <path clip-path="url(#pba5b4b0ff9)" d="M 71.064589 697.634725 
L 450.033639 697.634725 
" style="fill:none;stroke:#cccccc;stroke-linecap:round;stroke-width:0.8;"/>
     </g>
     <g id="text_19">
      <!-- 0.4 -->
      <g style="fill:#262626;" transform="translate(41.772464 702.649694)scale(0.132 -0.132)">
       <use xlink:href="#DejaVuSans-30"/>
       <use x="63.623047" xlink:href="#DejaVuSans-2e"/>
       <use x="95.410156" xlink:href="#DejaVuSans-34"/>
      </g>
     </g>
    </g>
    <g id="ytick_13">
     <g id="line2d_50">
      <path clip-path="url(#pba5b4b0ff9)" d="M 71.064589 625.638337 
L 450.033639 625.638337 
" style="fill:none;stroke:#cccccc;stroke-linecap:round;stroke-width:0.8;"/>
     </g>
     <g id="text_20">
      <!-- 0.5 -->
      <g style="fill:#262626;" transform="translate(41.772464 630.653306)scale(0.132 -0.132)">
       <use xlink:href="#DejaVuSans-30"/>
       <use x="63.623047" xlink:href="#DejaVuSans-2e"/>
       <use x="95.410156" xlink:href="#DejaVuSans-35"/>
      </g>
     </g>
    </g>
    <g id="ytick_14">
     <g id="line2d_51">
      <path clip-path="url(#pba5b4b0ff9)" d="M 71.064589 553.641949 
L 450.033639 553.641949 
" style="fill:none;stroke:#cccccc;stroke-linecap:round;stroke-width:0.8;"/>
     </g>
     <g id="text_21">
      <!-- 0.6 -->
      <g style="fill:#262626;" transform="translate(41.772464 558.656918)scale(0.132 -0.132)">
       <use xlink:href="#DejaVuSans-30"/>
       <use x="63.623047" xlink:href="#DejaVuSans-2e"/>
       <use x="95.410156" xlink:href="#DejaVuSans-36"/>
      </g>
     </g>
    </g>
    <g id="ytick_15">
     <g id="line2d_52">
      <path clip-path="url(#pba5b4b0ff9)" d="M 71.064589 481.645561 
L 450.033639 481.645561 
" style="fill:none;stroke:#cccccc;stroke-linecap:round;stroke-width:0.8;"/>
     </g>
     <g id="text_22">
      <!-- 0.7 -->
      <g style="fill:#262626;" transform="translate(41.772464 486.660529)scale(0.132 -0.132)">
       <use xlink:href="#DejaVuSans-30"/>
       <use x="63.623047" xlink:href="#DejaVuSans-2e"/>
       <use x="95.410156" xlink:href="#DejaVuSans-37"/>
      </g>
     </g>
    </g>
    <g id="text_23">
     <!-- Validation accuracy -->
     <g style="fill:#262626;" transform="translate(34.777714 701.861561)rotate(-90)scale(0.144 -0.144)">
      <use xlink:href="#DejaVuSans-56"/>
      <use x="68.298828" xlink:href="#DejaVuSans-61"/>
      <use x="129.578125" xlink:href="#DejaVuSans-6c"/>
      <use x="157.361328" xlink:href="#DejaVuSans-69"/>
      <use x="185.144531" xlink:href="#DejaVuSans-64"/>
      <use x="248.621094" xlink:href="#DejaVuSans-61"/>
      <use x="309.900391" xlink:href="#DejaVuSans-74"/>
      <use x="349.109375" xlink:href="#DejaVuSans-69"/>
      <use x="376.892578" xlink:href="#DejaVuSans-6f"/>
      <use x="438.074219" xlink:href="#DejaVuSans-6e"/>
      <use x="501.453125" xlink:href="#DejaVuSans-20"/>
      <use x="533.240234" xlink:href="#DejaVuSans-61"/>
      <use x="594.519531" xlink:href="#DejaVuSans-63"/>
      <use x="649.5" xlink:href="#DejaVuSans-63"/>
      <use x="704.480469" xlink:href="#DejaVuSans-75"/>
      <use x="767.859375" xlink:href="#DejaVuSans-72"/>
      <use x="808.972656" xlink:href="#DejaVuSans-61"/>
      <use x="870.251953" xlink:href="#DejaVuSans-63"/>
      <use x="925.232422" xlink:href="#DejaVuSans-79"/>
     </g>
    </g>
   </g>
   <g id="PolyCollection_9">
    <defs>
     <path d="M 88.290455 -183.227001 
L 88.290455 -152.875894 
L 106.422945 -255.191573 
L 124.555435 -293.305438 
L 142.687926 -317.482927 
L 160.820416 -327.856069 
L 178.952907 -337.464071 
L 197.085397 -337.082296 
L 215.217888 -349.617239 
L 233.350378 -351.08071 
L 251.482869 -359.41613 
L 269.615359 -359.225241 
L 287.74785 -362.724845 
L 305.88034 -361.515891 
L 324.01283 -367.178885 
L 342.145321 -365.270011 
L 360.277811 -366.097191 
L 378.410302 -375.705191 
L 396.542792 -369.024132 
L 414.675283 -375.196158 
L 432.807773 -372.0147 
L 432.807773 -380.04152 
L 432.807773 -380.04152 
L 414.675283 -378.250358 
L 396.542792 -375.13253 
L 378.410302 -380.731896 
L 360.277811 -369.660423 
L 342.145321 -373.987207 
L 324.01283 -371.887444 
L 305.88034 -371.906533 
L 287.74785 -367.751548 
L 269.615359 -367.178886 
L 251.482869 -364.00061 
L 233.350378 -355.59838 
L 215.217888 -355.089346 
L 197.085397 -349.362722 
L 178.952907 -344.972311 
L 160.820416 -336.509633 
L 142.687926 -321.429525 
L 124.555435 -311.057971 
L 106.422945 -270.5262 
L 88.290455 -183.227001 
z
" id="m1027facddd" style="stroke:#4c72b0;stroke-opacity:0.2;stroke-width:0.8;"/>
    </defs>
    <g clip-path="url(#pba5b4b0ff9)">
     <use style="fill:#4c72b0;fill-opacity:0.2;stroke:#4c72b0;stroke-opacity:0.2;stroke-width:0.8;" x="0" xlink:href="#m1027facddd" y="864"/>
    </g>
   </g>
   <g id="PolyCollection_10">
    <defs>
     <path d="M 88.290455 -265.881272 
L 88.290455 -234.321212 
L 106.422945 -298.904803 
L 124.555435 -323.338397 
L 142.687926 -337.018667 
L 160.820416 -341.027303 
L 178.952907 -344.908683 
L 197.085397 -351.51816 
L 215.217888 -355.534751 
L 233.350378 -359.41613 
L 251.482869 -363.933798 
L 269.615359 -363.294326 
L 287.74785 -365.715414 
L 305.88034 -369.08617 
L 324.01283 -368.133323 
L 342.145321 -369.469536 
L 360.277811 -370.233085 
L 378.410302 -371.823814 
L 396.542792 -372.714622 
L 414.675283 -372.905509 
L 432.807773 -372.778251 
L 432.807773 -379.459312 
L 432.807773 -379.459312 
L 414.675283 -376.914148 
L 396.542792 -377.804955 
L 378.410302 -375.132531 
L 360.277811 -373.414542 
L 342.145321 -375.450675 
L 324.01283 -372.078332 
L 305.88034 -371.569297 
L 287.74785 -372.969138 
L 269.615359 -369.024131 
L 251.482869 -368.260583 
L 233.350378 -364.824608 
L 215.217888 -360.052421 
L 197.085397 -358.716209 
L 178.952907 -353.816764 
L 160.820416 -347.135702 
L 142.687926 -341.603147 
L 124.555435 -332.437367 
L 106.422945 -311.126374 
L 88.290455 -265.881272 
z
" id="m60f9b2e1f8" style="stroke:#dd8452;stroke-opacity:0.2;stroke-width:0.8;"/>
    </defs>
    <g clip-path="url(#pba5b4b0ff9)">
     <use style="fill:#dd8452;fill-opacity:0.2;stroke:#dd8452;stroke-opacity:0.2;stroke-width:0.8;" x="0" xlink:href="#m60f9b2e1f8" y="864"/>
    </g>
   </g>
   <g id="PolyCollection_11">
    <defs>
     <path d="M 88.290455 -185.899425 
L 88.290455 -165.474466 
L 106.422945 -263.908768 
L 124.555435 -303.040698 
L 142.687926 -320.029683 
L 160.820416 -329.764943 
L 178.952907 -339.436574 
L 197.085397 -348.343064 
L 215.217888 -350.444419 
L 233.350378 -355.216604 
L 251.482869 -360.94323 
L 269.615359 -363.552025 
L 287.74785 -365.715416 
L 305.88034 -369.151389 
L 324.01283 -371.251153 
L 342.145321 -372.396477 
L 360.277811 -372.587363 
L 378.410302 -373.796318 
L 396.542792 -373.923575 
L 414.675283 -375.13253 
L 432.807773 -375.514305 
L 432.807773 -382.454656 
L 432.807773 -382.454656 
L 414.675283 -381.240929 
L 396.542792 -380.604637 
L 378.410302 -379.459313 
L 360.277811 -377.995842 
L 342.145321 -377.677697 
L 324.01283 -376.150597 
L 305.88034 -373.160026 
L 287.74785 -369.343869 
L 269.615359 -368.896874 
L 251.482869 -362.34307 
L 233.350378 -360.625083 
L 215.217888 -356.870964 
L 197.085397 -351.144339 
L 178.952907 -343.763358 
L 160.820416 -336.318746 
L 142.687926 -325.50179 
L 124.555435 -309.85379 
L 106.422945 -269.06273 
L 88.290455 -185.899425 
z
" id="m21854a5a6f" style="stroke:#55a868;stroke-opacity:0.2;stroke-width:0.8;"/>
    </defs>
    <g clip-path="url(#pba5b4b0ff9)">
     <use style="fill:#55a868;fill-opacity:0.2;stroke:#55a868;stroke-opacity:0.2;stroke-width:0.8;" x="0" xlink:href="#m21854a5a6f" y="864"/>
    </g>
   </g>
   <g id="PolyCollection_12">
    <defs>
     <path d="M 88.290455 -237.256106 
L 88.290455 -220.89546 
L 106.422945 -301.386341 
L 124.555435 -325.883564 
L 142.687926 -345.223646 
L 160.820416 -358.843466 
L 178.952907 -353.880393 
L 197.085397 -368.833244 
L 215.217888 -368.069695 
L 233.350378 -370.551229 
L 251.482869 -375.571571 
L 269.615359 -374.178094 
L 287.74785 -377.232292 
L 305.88034 -378.250358 
L 324.01283 -375.321828 
L 342.145321 -381.11367 
L 360.277811 -381.559075 
L 378.410302 -382.195367 
L 396.542792 -385.758598 
L 414.675283 -382.577141 
L 432.807773 -385.567712 
L 432.807773 -387.985619 
L 432.807773 -387.985619 
L 414.675283 -389.321831 
L 396.542792 -389.385461 
L 378.410302 -388.303765 
L 360.277811 -388.112876 
L 342.145321 -390.085382 
L 324.01283 -386.967554 
L 305.88034 -386.45852 
L 287.74785 -381.431816 
L 269.615359 -381.113671 
L 251.482869 -378.186729 
L 233.350378 -378.697353 
L 215.217888 -372.07833 
L 197.085397 -374.881194 
L 178.952907 -363.679283 
L 160.820416 -361.515892 
L 142.687926 -349.235464 
L 124.555435 -336.318746 
L 106.422945 -313.030476 
L 88.290455 -237.256106 
z
" id="m50eccc5205" style="stroke:#c44e52;stroke-opacity:0.2;stroke-width:0.8;"/>
    </defs>
    <g clip-path="url(#pba5b4b0ff9)">
     <use style="fill:#c44e52;fill-opacity:0.2;stroke:#c44e52;stroke-opacity:0.2;stroke-width:0.8;" x="0" xlink:href="#m50eccc5205" y="864"/>
    </g>
   </g>
   <g id="line2d_53">
    <path clip-path="url(#pba5b4b0ff9)" d="M 88.290455 696.616658 
L 106.422945 601.172928 
L 124.555435 561.659223 
L 142.687926 544.47935 
L 160.820416 532.071666 
L 178.952907 522.718179 
L 197.085397 520.363901 
L 215.217888 511.646707 
L 233.350378 510.62864 
L 251.482869 502.293221 
L 269.615359 500.575234 
L 287.74785 498.60273 
L 305.88034 498.157326 
L 324.01283 494.275948 
L 342.145321 494.784981 
L 360.277811 496.31208 
L 378.410302 485.431496 
L 396.542792 492.239815 
L 414.675283 487.276742 
L 432.807773 487.976662 
" style="fill:none;stroke:#4c72b0;stroke-linecap:round;stroke-width:1.5;"/>
   </g>
   <g id="line2d_54">
    <path clip-path="url(#pba5b4b0ff9)" d="M 88.290455 611.48085 
L 106.422945 559.55946 
L 124.555435 535.380382 
L 142.687926 524.690684 
L 160.820416 519.409464 
L 178.952907 514.255502 
L 197.085397 508.847025 
L 215.217888 505.665566 
L 233.350378 502.293221 
L 251.482869 498.030067 
L 269.615359 497.711922 
L 287.74785 494.848611 
L 305.88034 493.703286 
L 324.01283 493.957802 
L 342.145321 491.539895 
L 360.277811 492.176187 
L 378.410302 490.712715 
L 396.542792 488.549324 
L 414.675283 489.058357 
L 432.807773 487.467628 
" style="fill:none;stroke:#dd8452;stroke-linecap:round;stroke-width:1.5;"/>
   </g>
   <g id="line2d_55">
    <path clip-path="url(#pba5b4b0ff9)" d="M 88.290455 688.472127 
L 106.422945 597.418807 
L 124.555435 557.650586 
L 142.687926 541.107005 
L 160.820416 530.480937 
L 178.952907 522.336405 
L 197.085397 514.128244 
L 215.217888 510.310494 
L 233.350378 505.856454 
L 251.482869 502.35685 
L 269.615359 497.775551 
L 287.74785 496.375709 
L 305.88034 492.62159 
L 324.01283 490.203682 
L 342.145321 488.931099 
L 360.277811 488.740212 
L 378.410302 487.467628 
L 396.542792 486.64045 
L 414.675283 485.813271 
L 432.807773 484.795204 
" style="fill:none;stroke:#55a868;stroke-linecap:round;stroke-width:1.5;"/>
   </g>
   <g id="line2d_56">
    <path clip-path="url(#pba5b4b0ff9)" d="M 88.290455 635.469041 
L 106.422945 556.950665 
L 124.555435 532.453441 
L 142.687926 516.800669 
L 160.820416 503.756692 
L 178.952907 505.156533 
L 197.085397 492.303444 
L 215.217888 493.512398 
L 233.350378 489.312874 
L 251.482869 487.213112 
L 269.615359 486.385932 
L 287.74785 484.667946 
L 305.88034 482.186408 
L 324.01283 482.822699 
L 342.145321 477.986885 
L 360.277811 478.750435 
L 378.410302 478.750434 
L 396.542792 476.77793 
L 414.675283 478.114143 
L 432.807773 477.159706 
" style="fill:none;stroke:#c44e52;stroke-linecap:round;stroke-width:1.5;"/>
   </g>
   <g id="patch_9">
    <path d="M 71.064589 809.148 
L 71.064589 452.818372 
" style="fill:none;stroke:#cccccc;stroke-linecap:square;stroke-linejoin:miter;"/>
   </g>
   <g id="patch_10">
    <path d="M 71.064589 809.148 
L 450.033639 809.148 
" style="fill:none;stroke:#cccccc;stroke-linecap:square;stroke-linejoin:miter;"/>
   </g>
   <g id="text_24">
    <!-- Batch size = 256 -->
    <g style="fill:#262626;" transform="translate(199.251239 446.818372)scale(0.144 -0.144)">
     <use xlink:href="#DejaVuSans-42"/>
     <use x="68.603516" xlink:href="#DejaVuSans-61"/>
     <use x="129.882812" xlink:href="#DejaVuSans-74"/>
     <use x="169.091797" xlink:href="#DejaVuSans-63"/>
     <use x="224.072266" xlink:href="#DejaVuSans-68"/>
     <use x="287.451172" xlink:href="#DejaVuSans-20"/>
     <use x="319.238281" xlink:href="#DejaVuSans-73"/>
     <use x="371.337891" xlink:href="#DejaVuSans-69"/>
     <use x="399.121094" xlink:href="#DejaVuSans-7a"/>
     <use x="451.611328" xlink:href="#DejaVuSans-65"/>
     <use x="513.134766" xlink:href="#DejaVuSans-20"/>
     <use x="544.921875" xlink:href="#DejaVuSans-3d"/>
     <use x="628.710938" xlink:href="#DejaVuSans-20"/>
     <use x="660.498047" xlink:href="#DejaVuSans-32"/>
     <use x="724.121094" xlink:href="#DejaVuSans-35"/>
     <use x="787.744141" xlink:href="#DejaVuSans-36"/>
    </g>
   </g>
  </g>
  <g id="axes_4">
   <g id="patch_11">
    <path d="M 475.261999 809.148 
L 854.23105 809.148 
L 854.23105 452.818372 
L 475.261999 452.818372 
z
" style="fill:#ffffff;"/>
   </g>
   <g id="matplotlib.axis_7">
    <g id="xtick_25">
     <g id="line2d_57">
      <path clip-path="url(#p9d30a21c58)" d="M 492.487865 809.148 
L 492.487865 452.818372 
" style="fill:none;stroke:#cccccc;stroke-linecap:round;stroke-width:0.8;"/>
     </g>
     <g id="text_25">
      <!-- 0.0 -->
      <g style="fill:#262626;" transform="translate(481.991803 827.477938)scale(0.132 -0.132)">
       <use xlink:href="#DejaVuSans-30"/>
       <use x="63.623047" xlink:href="#DejaVuSans-2e"/>
       <use x="95.410156" xlink:href="#DejaVuSans-30"/>
      </g>
     </g>
    </g>
    <g id="xtick_26">
     <g id="line2d_58">
      <path clip-path="url(#p9d30a21c58)" d="M 537.819092 809.148 
L 537.819092 452.818372 
" style="fill:none;stroke:#cccccc;stroke-linecap:round;stroke-width:0.8;"/>
     </g>
     <g id="text_26">
      <!-- 2.5 -->
      <g style="fill:#262626;" transform="translate(527.323029 827.477938)scale(0.132 -0.132)">
       <use xlink:href="#DejaVuSans-32"/>
       <use x="63.623047" xlink:href="#DejaVuSans-2e"/>
       <use x="95.410156" xlink:href="#DejaVuSans-35"/>
      </g>
     </g>
    </g>
    <g id="xtick_27">
     <g id="line2d_59">
      <path clip-path="url(#p9d30a21c58)" d="M 583.150318 809.148 
L 583.150318 452.818372 
" style="fill:none;stroke:#cccccc;stroke-linecap:round;stroke-width:0.8;"/>
     </g>
     <g id="text_27">
      <!-- 5.0 -->
      <g style="fill:#262626;" transform="translate(572.654255 827.477938)scale(0.132 -0.132)">
       <use xlink:href="#DejaVuSans-35"/>
       <use x="63.623047" xlink:href="#DejaVuSans-2e"/>
       <use x="95.410156" xlink:href="#DejaVuSans-30"/>
      </g>
     </g>
    </g>
    <g id="xtick_28">
     <g id="line2d_60">
      <path clip-path="url(#p9d30a21c58)" d="M 628.481544 809.148 
L 628.481544 452.818372 
" style="fill:none;stroke:#cccccc;stroke-linecap:round;stroke-width:0.8;"/>
     </g>
     <g id="text_28">
      <!-- 7.5 -->
      <g style="fill:#262626;" transform="translate(617.985481 827.477938)scale(0.132 -0.132)">
       <use xlink:href="#DejaVuSans-37"/>
       <use x="63.623047" xlink:href="#DejaVuSans-2e"/>
       <use x="95.410156" xlink:href="#DejaVuSans-35"/>
      </g>
     </g>
    </g>
    <g id="xtick_29">
     <g id="line2d_61">
      <path clip-path="url(#p9d30a21c58)" d="M 673.81277 809.148 
L 673.81277 452.818372 
" style="fill:none;stroke:#cccccc;stroke-linecap:round;stroke-width:0.8;"/>
     </g>
     <g id="text_29">
      <!-- 10.0 -->
      <g style="fill:#262626;" transform="translate(659.117457 827.477938)scale(0.132 -0.132)">
       <use xlink:href="#DejaVuSans-31"/>
       <use x="63.623047" xlink:href="#DejaVuSans-30"/>
       <use x="127.246094" xlink:href="#DejaVuSans-2e"/>
       <use x="159.033203" xlink:href="#DejaVuSans-30"/>
      </g>
     </g>
    </g>
    <g id="xtick_30">
     <g id="line2d_62">
      <path clip-path="url(#p9d30a21c58)" d="M 719.143996 809.148 
L 719.143996 452.818372 
" style="fill:none;stroke:#cccccc;stroke-linecap:round;stroke-width:0.8;"/>
     </g>
     <g id="text_30">
      <!-- 12.5 -->
      <g style="fill:#262626;" transform="translate(704.448684 827.477938)scale(0.132 -0.132)">
       <use xlink:href="#DejaVuSans-31"/>
       <use x="63.623047" xlink:href="#DejaVuSans-32"/>
       <use x="127.246094" xlink:href="#DejaVuSans-2e"/>
       <use x="159.033203" xlink:href="#DejaVuSans-35"/>
      </g>
     </g>
    </g>
    <g id="xtick_31">
     <g id="line2d_63">
      <path clip-path="url(#p9d30a21c58)" d="M 764.475222 809.148 
L 764.475222 452.818372 
" style="fill:none;stroke:#cccccc;stroke-linecap:round;stroke-width:0.8;"/>
     </g>
     <g id="text_31">
      <!-- 15.0 -->
      <g style="fill:#262626;" transform="translate(749.77991 827.477938)scale(0.132 -0.132)">
       <use xlink:href="#DejaVuSans-31"/>
       <use x="63.623047" xlink:href="#DejaVuSans-35"/>
       <use x="127.246094" xlink:href="#DejaVuSans-2e"/>
       <use x="159.033203" xlink:href="#DejaVuSans-30"/>
      </g>
     </g>
    </g>
    <g id="xtick_32">
     <g id="line2d_64">
      <path clip-path="url(#p9d30a21c58)" d="M 809.806448 809.148 
L 809.806448 452.818372 
" style="fill:none;stroke:#cccccc;stroke-linecap:round;stroke-width:0.8;"/>
     </g>
     <g id="text_32">
      <!-- 17.5 -->
      <g style="fill:#262626;" transform="translate(795.111136 827.477938)scale(0.132 -0.132)">
       <use xlink:href="#DejaVuSans-31"/>
       <use x="63.623047" xlink:href="#DejaVuSans-37"/>
       <use x="127.246094" xlink:href="#DejaVuSans-2e"/>
       <use x="159.033203" xlink:href="#DejaVuSans-35"/>
      </g>
     </g>
    </g>
    <g id="text_33">
     <!-- Epoch -->
     <g style="fill:#262626;" transform="translate(642.698775 845.164875)scale(0.144 -0.144)">
      <use xlink:href="#DejaVuSans-45"/>
      <use x="63.183594" xlink:href="#DejaVuSans-70"/>
      <use x="126.660156" xlink:href="#DejaVuSans-6f"/>
      <use x="187.841797" xlink:href="#DejaVuSans-63"/>
      <use x="242.822266" xlink:href="#DejaVuSans-68"/>
     </g>
    </g>
   </g>
   <g id="matplotlib.axis_8">
    <g id="ytick_16">
     <g id="line2d_65">
      <path clip-path="url(#p9d30a21c58)" d="M 475.261999 769.631114 
L 854.23105 769.631114 
" style="fill:none;stroke:#cccccc;stroke-linecap:round;stroke-width:0.8;"/>
     </g>
    </g>
    <g id="ytick_17">
     <g id="line2d_66">
      <path clip-path="url(#p9d30a21c58)" d="M 475.261999 697.634725 
L 854.23105 697.634725 
" style="fill:none;stroke:#cccccc;stroke-linecap:round;stroke-width:0.8;"/>
     </g>
    </g>
    <g id="ytick_18">
     <g id="line2d_67">
      <path clip-path="url(#p9d30a21c58)" d="M 475.261999 625.638337 
L 854.23105 625.638337 
" style="fill:none;stroke:#cccccc;stroke-linecap:round;stroke-width:0.8;"/>
     </g>
    </g>
    <g id="ytick_19">
     <g id="line2d_68">
      <path clip-path="url(#p9d30a21c58)" d="M 475.261999 553.641949 
L 854.23105 553.641949 
" style="fill:none;stroke:#cccccc;stroke-linecap:round;stroke-width:0.8;"/>
     </g>
    </g>
    <g id="ytick_20">
     <g id="line2d_69">
      <path clip-path="url(#p9d30a21c58)" d="M 475.261999 481.645561 
L 854.23105 481.645561 
" style="fill:none;stroke:#cccccc;stroke-linecap:round;stroke-width:0.8;"/>
     </g>
    </g>
   </g>
   <g id="PolyCollection_13">
    <defs>
     <path d="M 492.487865 -148.103707 
L 492.487865 -121.888496 
L 510.620356 -217.268598 
L 528.752846 -280.261461 
L 546.885337 -292.669147 
L 565.017827 -312.775958 
L 583.150318 -321.047749 
L 601.282808 -328.046958 
L 619.415299 -334.028096 
L 637.547789 -341.281819 
L 655.68028 -348.344655 
L 673.81277 -347.32659 
L 691.94526 -352.989584 
L 710.077751 -353.244103 
L 728.210241 -358.52532 
L 746.342732 -363.042991 
L 764.475222 -362.788474 
L 782.607713 -365.142753 
L 800.740203 -365.969932 
L 818.872694 -366.478965 
L 837.005184 -368.578728 
L 837.005184 -374.178094 
L 837.005184 -374.178094 
L 818.872694 -370.996636 
L 800.740203 -371.887444 
L 782.607713 -371.123894 
L 764.475222 -367.115257 
L 746.342732 -366.606223 
L 728.210241 -363.233879 
L 710.077751 -361.134116 
L 691.94526 -359.288871 
L 673.81277 -354.962088 
L 655.68028 -350.764155 
L 637.547789 -345.990378 
L 619.415299 -340.263752 
L 601.282808 -333.964468 
L 583.150318 -327.792438 
L 565.017827 -317.86629 
L 546.885337 -304.058766 
L 528.752846 -285.351794 
L 510.620356 -249.910354 
L 492.487865 -148.103707 
z
" id="m34ace6ad6d" style="stroke:#4c72b0;stroke-opacity:0.2;stroke-width:0.8;"/>
    </defs>
    <g clip-path="url(#p9d30a21c58)">
     <use style="fill:#4c72b0;fill-opacity:0.2;stroke:#4c72b0;stroke-opacity:0.2;stroke-width:0.8;" x="0" xlink:href="#m34ace6ad6d" y="864"/>
    </g>
   </g>
   <g id="PolyCollection_14">
    <defs>
     <path d="M 492.487865 -249.146805 
L 492.487865 -222.530729 
L 510.620356 -287.578813 
L 528.752846 -317.293628 
L 546.885337 -329.95583 
L 565.017827 -334.600759 
L 583.150318 -344.336019 
L 601.282808 -345.03594 
L 619.415299 -347.135703 
L 637.547789 -352.544181 
L 655.68028 -356.807335 
L 673.81277 -357.570884 
L 691.94526 -361.452263 
L 710.077751 -362.597588 
L 728.210241 -364.951866 
L 746.342732 -365.906303 
L 764.475222 -364.63372 
L 782.607713 -367.178887 
L 800.740203 -367.751549 
L 818.872694 -368.069693 
L 837.005184 -370.869377 
L 837.005184 -374.559867 
L 837.005184 -374.559867 
L 818.872694 -372.587363 
L 800.740203 -373.478172 
L 782.607713 -372.460106 
L 764.475222 -369.405906 
L 746.342732 -370.621224 
L 728.210241 -369.087761 
L 710.077751 -367.178886 
L 691.94526 -365.588158 
L 673.81277 -361.834038 
L 655.68028 -359.670646 
L 637.547789 -358.525321 
L 619.415299 -353.307732 
L 601.282808 -348.980948 
L 583.150318 -347.835623 
L 565.017827 -339.118429 
L 546.885337 -334.473501 
L 528.752846 -322.256703 
L 510.620356 -304.44054 
L 492.487865 -249.146805 
z
" id="mc71ea91949" style="stroke:#dd8452;stroke-opacity:0.2;stroke-width:0.8;"/>
    </defs>
    <g clip-path="url(#p9d30a21c58)">
     <use style="fill:#dd8452;fill-opacity:0.2;stroke:#dd8452;stroke-opacity:0.2;stroke-width:0.8;" x="0" xlink:href="#mc71ea91949" y="864"/>
    </g>
   </g>
   <g id="PolyCollection_15">
    <defs>
     <path d="M 492.487865 -102.608861 
L 492.487865 -71.048801 
L 510.620356 -187.299267 
L 528.752846 -259.134992 
L 546.885337 -288.533251 
L 565.017827 -305.394977 
L 583.150318 -320.538715 
L 601.282808 -327.219776 
L 619.415299 -336.76415 
L 637.547789 -341.599966 
L 655.68028 -348.662802 
L 673.81277 -351.144338 
L 691.94526 -355.598381 
L 710.077751 -356.870963 
L 728.210241 -360.497825 
L 746.342732 -360.17968 
L 764.475222 -364.442832 
L 782.607713 -364.506462 
L 800.740203 -368.642355 
L 818.872694 -370.355572 
L 837.005184 -372.07833 
L 837.005184 -377.359551 
L 837.005184 -377.359551 
L 818.872694 -377.423179 
L 800.740203 -372.523734 
L 782.607713 -373.669061 
L 764.475222 -371.761777 
L 746.342732 -367.497033 
L 728.210241 -366.870284 
L 710.077751 -363.552025 
L 691.94526 -358.270803 
L 673.81277 -357.570883 
L 655.68028 -351.14434 
L 637.547789 -347.453848 
L 619.415299 -341.472709 
L 601.282808 -331.801076 
L 583.150318 -321.811299 
L 565.017827 -308.830952 
L 546.885337 -295.405201 
L 528.752846 -262.892293 
L 510.620356 -205.369946 
L 492.487865 -102.608861 
z
" id="m1f805ef688" style="stroke:#55a868;stroke-opacity:0.2;stroke-width:0.8;"/>
    </defs>
    <g clip-path="url(#p9d30a21c58)">
     <use style="fill:#55a868;fill-opacity:0.2;stroke:#55a868;stroke-opacity:0.2;stroke-width:0.8;" x="0" xlink:href="#m1f805ef688" y="864"/>
    </g>
   </g>
   <g id="PolyCollection_16">
    <defs>
     <path d="M 492.487865 -199.197918 
L 492.487865 -184.05418 
L 510.620356 -277.461778 
L 528.752846 -305.70835 
L 546.885337 -330.273978 
L 565.017827 -344.145133 
L 583.150318 -349.299094 
L 601.282808 -354.260576 
L 619.415299 -360.306937 
L 637.547789 -361.643149 
L 655.68028 -366.160819 
L 673.81277 -366.03356 
L 691.94526 -370.933005 
L 710.077751 -374.941642 
L 728.210241 -375.132529 
L 746.342732 -378.568504 
L 764.475222 -377.868584 
L 782.607713 -378.632135 
L 800.740203 -379.650202 
L 818.872694 -380.350121 
L 837.005184 -383.149804 
L 837.005184 -385.376825 
L 837.005184 -385.376825 
L 818.872694 -386.331262 
L 800.740203 -384.804161 
L 782.607713 -384.618046 
L 764.475222 -381.686332 
L 746.342732 -380.031974 
L 728.210241 -380.668267 
L 710.077751 -377.995842 
L 691.94526 -376.786888 
L 673.81277 -375.132531 
L 655.68028 -373.669059 
L 637.547789 -363.933799 
L 619.415299 -366.229221 
L 601.282808 -359.161611 
L 583.150318 -353.562247 
L 565.017827 -346.626669 
L 546.885337 -338.100362 
L 528.752846 -319.520649 
L 510.620356 -284.906391 
L 492.487865 -199.197918 
z
" id="ma1da550a36" style="stroke:#c44e52;stroke-opacity:0.2;stroke-width:0.8;"/>
    </defs>
    <g clip-path="url(#p9d30a21c58)">
     <use style="fill:#c44e52;fill-opacity:0.2;stroke:#c44e52;stroke-opacity:0.2;stroke-width:0.8;" x="0" xlink:href="#ma1da550a36" y="864"/>
    </g>
   </g>
   <g id="line2d_70">
    <path clip-path="url(#p9d30a21c58)" d="M 492.487865 728.749382 
L 510.620356 629.996935 
L 528.752846 580.747968 
L 546.885337 565.031567 
L 565.017827 548.742505 
L 583.150318 539.834424 
L 601.282808 532.453439 
L 619.415299 527.172221 
L 637.547789 520.554788 
L 655.68028 514.510019 
L 673.81277 512.855661 
L 691.94526 508.083474 
L 710.077751 507.001778 
L 728.210241 503.1204 
L 746.342732 499.36628 
L 764.475222 498.920876 
L 782.607713 495.803047 
L 800.740203 495.166756 
L 818.872694 495.039497 
L 837.005184 492.55796 
" style="fill:none;stroke:#4c72b0;stroke-linecap:round;stroke-width:1.5;"/>
   </g>
   <g id="line2d_71">
    <path clip-path="url(#p9d30a21c58)" d="M 492.487865 629.61516 
L 510.620356 566.940442 
L 528.752846 543.843059 
L 546.885337 531.753519 
L 565.017827 526.981333 
L 583.150318 517.945993 
L 601.282808 516.991556 
L 619.415299 513.301064 
L 637.547789 508.592507 
L 655.68028 505.665567 
L 673.81277 504.202096 
L 691.94526 500.447975 
L 710.077751 499.239021 
L 728.210241 497.202888 
L 746.342732 495.930305 
L 764.475222 496.821114 
L 782.607713 494.594093 
L 800.740203 493.766914 
L 818.872694 493.703286 
L 837.005184 491.285378 
" style="fill:none;stroke:#dd8452;stroke-linecap:round;stroke-width:1.5;"/>
   </g>
   <g id="line2d_72">
    <path clip-path="url(#p9d30a21c58)" d="M 492.487865 777.489314 
L 510.620356 667.219989 
L 528.752846 602.954543 
L 546.885337 571.649 
L 565.017827 557.26881 
L 583.150318 542.761364 
L 601.282808 534.80772 
L 619.415299 524.817941 
L 637.547789 519.409464 
L 655.68028 514.064615 
L 673.81277 509.801462 
L 691.94526 507.192666 
L 710.077751 504.074837 
L 728.210241 500.320718 
L 746.342732 500.702491 
L 764.475222 496.184822 
L 782.607713 494.912238 
L 800.740203 493.385141 
L 818.872694 490.140052 
L 837.005184 489.185615 
" style="fill:none;stroke:#55a868;stroke-linecap:round;stroke-width:1.5;"/>
   </g>
   <g id="line2d_73">
    <path clip-path="url(#p9d30a21c58)" d="M 492.487865 672.755726 
L 510.620356 583.038618 
L 528.752846 551.096783 
L 546.885337 529.844645 
L 565.017827 518.773172 
L 583.150318 512.792031 
L 601.282808 507.192667 
L 619.415299 501.275155 
L 637.547789 501.147897 
L 655.68028 494.466836 
L 673.81277 493.194253 
L 691.94526 490.076424 
L 710.077751 487.467629 
L 728.210241 486.067787 
L 746.342732 484.667946 
L 764.475222 484.222542 
L 782.607713 482.250037 
L 800.740203 482.186408 
L 818.872694 480.659309 
L 837.005184 479.768501 
" style="fill:none;stroke:#c44e52;stroke-linecap:round;stroke-width:1.5;"/>
   </g>
   <g id="patch_12">
    <path d="M 475.261999 809.148 
L 475.261999 452.818372 
" style="fill:none;stroke:#cccccc;stroke-linecap:square;stroke-linejoin:miter;"/>
   </g>
   <g id="patch_13">
    <path d="M 475.261999 809.148 
L 854.23105 809.148 
" style="fill:none;stroke:#cccccc;stroke-linecap:square;stroke-linejoin:miter;"/>
   </g>
   <g id="text_34">
    <!-- Batch size = 512 -->
    <g style="fill:#262626;" transform="translate(603.44865 446.818372)scale(0.144 -0.144)">
     <use xlink:href="#DejaVuSans-42"/>
     <use x="68.603516" xlink:href="#DejaVuSans-61"/>
     <use x="129.882812" xlink:href="#DejaVuSans-74"/>
     <use x="169.091797" xlink:href="#DejaVuSans-63"/>
     <use x="224.072266" xlink:href="#DejaVuSans-68"/>
     <use x="287.451172" xlink:href="#DejaVuSans-20"/>
     <use x="319.238281" xlink:href="#DejaVuSans-73"/>
     <use x="371.337891" xlink:href="#DejaVuSans-69"/>
     <use x="399.121094" xlink:href="#DejaVuSans-7a"/>
     <use x="451.611328" xlink:href="#DejaVuSans-65"/>
     <use x="513.134766" xlink:href="#DejaVuSans-20"/>
     <use x="544.921875" xlink:href="#DejaVuSans-3d"/>
     <use x="628.710938" xlink:href="#DejaVuSans-20"/>
     <use x="660.498047" xlink:href="#DejaVuSans-35"/>
     <use x="724.121094" xlink:href="#DejaVuSans-31"/>
     <use x="787.744141" xlink:href="#DejaVuSans-32"/>
    </g>
   </g>
  </g>
  <g id="text_35">
   <!-- Model A - Hyperparameter exploration - Optimizer &amp; Batch size - Confidence: 95% -->
   <defs>
    <path d="M 9.8125 72.90625 
L 24.515625 72.90625 
L 43.109375 23.296875 
L 61.8125 72.90625 
L 76.515625 72.90625 
L 76.515625 0 
L 66.890625 0 
L 66.890625 64.015625 
L 48.09375 14.015625 
L 38.1875 14.015625 
L 19.390625 64.015625 
L 19.390625 0 
L 9.8125 0 
z
" id="DejaVuSans-4d"/>
    <path d="M 34.1875 63.1875 
L 20.796875 26.90625 
L 47.609375 26.90625 
z
M 28.609375 72.90625 
L 39.796875 72.90625 
L 67.578125 0 
L 57.328125 0 
L 50.6875 18.703125 
L 17.828125 18.703125 
L 11.1875 0 
L 0.78125 0 
z
" id="DejaVuSans-41"/>
    <path d="M 4.890625 31.390625 
L 31.203125 31.390625 
L 31.203125 23.390625 
L 4.890625 23.390625 
z
" id="DejaVuSans-2d"/>
    <path d="M 9.8125 72.90625 
L 19.671875 72.90625 
L 19.671875 43.015625 
L 55.515625 43.015625 
L 55.515625 72.90625 
L 65.375 72.90625 
L 65.375 0 
L 55.515625 0 
L 55.515625 34.71875 
L 19.671875 34.71875 
L 19.671875 0 
L 9.8125 0 
z
" id="DejaVuSans-48"/>
    <path d="M 52 44.1875 
Q 55.375 50.25 60.0625 53.125 
Q 64.75 56 71.09375 56 
Q 79.640625 56 84.28125 50.015625 
Q 88.921875 44.046875 88.921875 33.015625 
L 88.921875 0 
L 79.890625 0 
L 79.890625 32.71875 
Q 79.890625 40.578125 77.09375 44.375 
Q 74.3125 48.1875 68.609375 48.1875 
Q 61.625 48.1875 57.5625 43.546875 
Q 53.515625 38.921875 53.515625 30.90625 
L 53.515625 0 
L 44.484375 0 
L 44.484375 32.71875 
Q 44.484375 40.625 41.703125 44.40625 
Q 38.921875 48.1875 33.109375 48.1875 
Q 26.21875 48.1875 22.15625 43.53125 
Q 18.109375 38.875 18.109375 30.90625 
L 18.109375 0 
L 9.078125 0 
L 9.078125 54.6875 
L 18.109375 54.6875 
L 18.109375 46.1875 
Q 21.1875 51.21875 25.484375 53.609375 
Q 29.78125 56 35.6875 56 
Q 41.65625 56 45.828125 52.96875 
Q 50 49.953125 52 44.1875 
z
" id="DejaVuSans-6d"/>
    <path d="M 54.890625 54.6875 
L 35.109375 28.078125 
L 55.90625 0 
L 45.3125 0 
L 29.390625 21.484375 
L 13.484375 0 
L 2.875 0 
L 24.125 28.609375 
L 4.6875 54.6875 
L 15.28125 54.6875 
L 29.78125 35.203125 
L 44.28125 54.6875 
z
" id="DejaVuSans-78"/>
    <path d="M 39.40625 66.21875 
Q 28.65625 66.21875 22.328125 58.203125 
Q 16.015625 50.203125 16.015625 36.375 
Q 16.015625 22.609375 22.328125 14.59375 
Q 28.65625 6.59375 39.40625 6.59375 
Q 50.140625 6.59375 56.421875 14.59375 
Q 62.703125 22.609375 62.703125 36.375 
Q 62.703125 50.203125 56.421875 58.203125 
Q 50.140625 66.21875 39.40625 66.21875 
z
M 39.40625 74.21875 
Q 54.734375 74.21875 63.90625 63.9375 
Q 73.09375 53.65625 73.09375 36.375 
Q 73.09375 19.140625 63.90625 8.859375 
Q 54.734375 -1.421875 39.40625 -1.421875 
Q 24.03125 -1.421875 14.8125 8.828125 
Q 5.609375 19.09375 5.609375 36.375 
Q 5.609375 53.65625 14.8125 63.9375 
Q 24.03125 74.21875 39.40625 74.21875 
z
" id="DejaVuSans-4f"/>
    <path d="M 24.3125 39.203125 
Q 19.875 35.25 17.796875 31.3125 
Q 15.71875 27.390625 15.71875 23.09375 
Q 15.71875 15.96875 20.890625 11.234375 
Q 26.078125 6.5 33.890625 6.5 
Q 38.53125 6.5 42.578125 8.03125 
Q 46.625 9.578125 50.203125 12.703125 
z
M 31.203125 44.671875 
L 56 19.28125 
Q 58.890625 23.640625 60.5 28.59375 
Q 62.109375 33.546875 62.40625 39.109375 
L 71.484375 39.109375 
Q 70.90625 32.671875 68.359375 26.359375 
Q 65.828125 20.0625 61.28125 13.921875 
L 74.90625 0 
L 62.59375 0 
L 55.609375 7.171875 
Q 50.53125 2.828125 44.96875 0.703125 
Q 39.40625 -1.421875 33.015625 -1.421875 
Q 21.234375 -1.421875 13.765625 5.296875 
Q 6.296875 12.015625 6.296875 22.515625 
Q 6.296875 28.765625 9.5625 34.25 
Q 12.84375 39.75 19.390625 44.578125 
Q 17.046875 47.65625 15.8125 50.703125 
Q 14.59375 53.765625 14.59375 56.6875 
Q 14.59375 64.59375 20.015625 69.40625 
Q 25.4375 74.21875 34.421875 74.21875 
Q 38.484375 74.21875 42.5 73.34375 
Q 46.53125 72.46875 50.6875 70.703125 
L 50.6875 61.8125 
Q 46.4375 64.109375 42.578125 65.296875 
Q 38.71875 66.5 35.40625 66.5 
Q 30.28125 66.5 27.078125 63.78125 
Q 23.875 61.078125 23.875 56.78125 
Q 23.875 54.296875 25.3125 51.78125 
Q 26.765625 49.265625 31.203125 44.671875 
z
" id="DejaVuSans-26"/>
    <path d="M 64.40625 67.28125 
L 64.40625 56.890625 
Q 59.421875 61.53125 53.78125 63.8125 
Q 48.140625 66.109375 41.796875 66.109375 
Q 29.296875 66.109375 22.65625 58.46875 
Q 16.015625 50.828125 16.015625 36.375 
Q 16.015625 21.96875 22.65625 14.328125 
Q 29.296875 6.6875 41.796875 6.6875 
Q 48.140625 6.6875 53.78125 8.984375 
Q 59.421875 11.28125 64.40625 15.921875 
L 64.40625 5.609375 
Q 59.234375 2.09375 53.4375 0.328125 
Q 47.65625 -1.421875 41.21875 -1.421875 
Q 24.65625 -1.421875 15.125 8.703125 
Q 5.609375 18.84375 5.609375 36.375 
Q 5.609375 53.953125 15.125 64.078125 
Q 24.65625 74.21875 41.21875 74.21875 
Q 47.75 74.21875 53.53125 72.484375 
Q 59.328125 70.75 64.40625 67.28125 
z
" id="DejaVuSans-43"/>
    <path d="M 37.109375 75.984375 
L 37.109375 68.5 
L 28.515625 68.5 
Q 23.6875 68.5 21.796875 66.546875 
Q 19.921875 64.59375 19.921875 59.515625 
L 19.921875 54.6875 
L 34.71875 54.6875 
L 34.71875 47.703125 
L 19.921875 47.703125 
L 19.921875 0 
L 10.890625 0 
L 10.890625 47.703125 
L 2.296875 47.703125 
L 2.296875 54.6875 
L 10.890625 54.6875 
L 10.890625 58.5 
Q 10.890625 67.625 15.140625 71.796875 
Q 19.390625 75.984375 28.609375 75.984375 
z
" id="DejaVuSans-66"/>
    <path d="M 11.71875 12.40625 
L 22.015625 12.40625 
L 22.015625 0 
L 11.71875 0 
z
M 11.71875 51.703125 
L 22.015625 51.703125 
L 22.015625 39.3125 
L 11.71875 39.3125 
z
" id="DejaVuSans-3a"/>
    <path d="M 10.984375 1.515625 
L 10.984375 10.5 
Q 14.703125 8.734375 18.5 7.8125 
Q 22.3125 6.890625 25.984375 6.890625 
Q 35.75 6.890625 40.890625 13.453125 
Q 46.046875 20.015625 46.78125 33.40625 
Q 43.953125 29.203125 39.59375 26.953125 
Q 35.25 24.703125 29.984375 24.703125 
Q 19.046875 24.703125 12.671875 31.3125 
Q 6.296875 37.9375 6.296875 49.421875 
Q 6.296875 60.640625 12.9375 67.421875 
Q 19.578125 74.21875 30.609375 74.21875 
Q 43.265625 74.21875 49.921875 64.515625 
Q 56.59375 54.828125 56.59375 36.375 
Q 56.59375 19.140625 48.40625 8.859375 
Q 40.234375 -1.421875 26.421875 -1.421875 
Q 22.703125 -1.421875 18.890625 -0.6875 
Q 15.09375 0.046875 10.984375 1.515625 
z
M 30.609375 32.421875 
Q 37.25 32.421875 41.125 36.953125 
Q 45.015625 41.5 45.015625 49.421875 
Q 45.015625 57.28125 41.125 61.84375 
Q 37.25 66.40625 30.609375 66.40625 
Q 23.96875 66.40625 20.09375 61.84375 
Q 16.21875 57.28125 16.21875 49.421875 
Q 16.21875 41.5 20.09375 36.953125 
Q 23.96875 32.421875 30.609375 32.421875 
z
" id="DejaVuSans-39"/>
    <path d="M 72.703125 32.078125 
Q 68.453125 32.078125 66.03125 28.46875 
Q 63.625 24.859375 63.625 18.40625 
Q 63.625 12.0625 66.03125 8.421875 
Q 68.453125 4.78125 72.703125 4.78125 
Q 76.859375 4.78125 79.265625 8.421875 
Q 81.6875 12.0625 81.6875 18.40625 
Q 81.6875 24.8125 79.265625 28.4375 
Q 76.859375 32.078125 72.703125 32.078125 
z
M 72.703125 38.28125 
Q 80.421875 38.28125 84.953125 32.90625 
Q 89.5 27.546875 89.5 18.40625 
Q 89.5 9.28125 84.9375 3.921875 
Q 80.375 -1.421875 72.703125 -1.421875 
Q 64.890625 -1.421875 60.34375 3.921875 
Q 55.8125 9.28125 55.8125 18.40625 
Q 55.8125 27.59375 60.375 32.9375 
Q 64.9375 38.28125 72.703125 38.28125 
z
M 22.3125 68.015625 
Q 18.109375 68.015625 15.6875 64.375 
Q 13.28125 60.75 13.28125 54.390625 
Q 13.28125 47.953125 15.671875 44.328125 
Q 18.0625 40.71875 22.3125 40.71875 
Q 26.5625 40.71875 28.96875 44.328125 
Q 31.390625 47.953125 31.390625 54.390625 
Q 31.390625 60.6875 28.953125 64.34375 
Q 26.515625 68.015625 22.3125 68.015625 
z
M 66.40625 74.21875 
L 74.21875 74.21875 
L 28.609375 -1.421875 
L 20.796875 -1.421875 
z
M 22.3125 74.21875 
Q 30.03125 74.21875 34.609375 68.875 
Q 39.203125 63.53125 39.203125 54.390625 
Q 39.203125 45.171875 34.640625 39.84375 
Q 30.078125 34.515625 22.3125 34.515625 
Q 14.546875 34.515625 10.03125 39.859375 
Q 5.515625 45.21875 5.515625 54.390625 
Q 5.515625 63.484375 10.046875 68.84375 
Q 14.59375 74.21875 22.3125 74.21875 
z
" id="DejaVuSans-25"/>
   </defs>
   <g style="fill:#262626;" transform="translate(132.40255 30.4101)scale(0.1728 -0.1728)">
    <use xlink:href="#DejaVuSans-4d"/>
    <use x="86.279297" xlink:href="#DejaVuSans-6f"/>
    <use x="147.460938" xlink:href="#DejaVuSans-64"/>
    <use x="210.9375" xlink:href="#DejaVuSans-65"/>
    <use x="272.460938" xlink:href="#DejaVuSans-6c"/>
    <use x="300.244141" xlink:href="#DejaVuSans-20"/>
    <use x="332.03125" xlink:href="#DejaVuSans-41"/>
    <use x="400.439453" xlink:href="#DejaVuSans-20"/>
    <use x="432.226562" xlink:href="#DejaVuSans-2d"/>
    <use x="468.310547" xlink:href="#DejaVuSans-20"/>
    <use x="500.097656" xlink:href="#DejaVuSans-48"/>
    <use x="575.292969" xlink:href="#DejaVuSans-79"/>
    <use x="634.472656" xlink:href="#DejaVuSans-70"/>
    <use x="697.949219" xlink:href="#DejaVuSans-65"/>
    <use x="759.472656" xlink:href="#DejaVuSans-72"/>
    <use x="800.585938" xlink:href="#DejaVuSans-70"/>
    <use x="864.0625" xlink:href="#DejaVuSans-61"/>
    <use x="925.341797" xlink:href="#DejaVuSans-72"/>
    <use x="966.455078" xlink:href="#DejaVuSans-61"/>
    <use x="1027.734375" xlink:href="#DejaVuSans-6d"/>
    <use x="1125.146484" xlink:href="#DejaVuSans-65"/>
    <use x="1186.669922" xlink:href="#DejaVuSans-74"/>
    <use x="1225.878906" xlink:href="#DejaVuSans-65"/>
    <use x="1287.402344" xlink:href="#DejaVuSans-72"/>
    <use x="1328.515625" xlink:href="#DejaVuSans-20"/>
    <use x="1360.302734" xlink:href="#DejaVuSans-65"/>
    <use x="1421.810547" xlink:href="#DejaVuSans-78"/>
    <use x="1480.990234" xlink:href="#DejaVuSans-70"/>
    <use x="1544.466797" xlink:href="#DejaVuSans-6c"/>
    <use x="1572.25" xlink:href="#DejaVuSans-6f"/>
    <use x="1633.431641" xlink:href="#DejaVuSans-72"/>
    <use x="1674.544922" xlink:href="#DejaVuSans-61"/>
    <use x="1735.824219" xlink:href="#DejaVuSans-74"/>
    <use x="1775.033203" xlink:href="#DejaVuSans-69"/>
    <use x="1802.816406" xlink:href="#DejaVuSans-6f"/>
    <use x="1863.998047" xlink:href="#DejaVuSans-6e"/>
    <use x="1927.376953" xlink:href="#DejaVuSans-20"/>
    <use x="1959.164062" xlink:href="#DejaVuSans-2d"/>
    <use x="1995.248047" xlink:href="#DejaVuSans-20"/>
    <use x="2027.035156" xlink:href="#DejaVuSans-4f"/>
    <use x="2105.746094" xlink:href="#DejaVuSans-70"/>
    <use x="2169.222656" xlink:href="#DejaVuSans-74"/>
    <use x="2208.431641" xlink:href="#DejaVuSans-69"/>
    <use x="2236.214844" xlink:href="#DejaVuSans-6d"/>
    <use x="2333.626953" xlink:href="#DejaVuSans-69"/>
    <use x="2361.410156" xlink:href="#DejaVuSans-7a"/>
    <use x="2413.900391" xlink:href="#DejaVuSans-65"/>
    <use x="2475.423828" xlink:href="#DejaVuSans-72"/>
    <use x="2516.537109" xlink:href="#DejaVuSans-20"/>
    <use x="2548.324219" xlink:href="#DejaVuSans-26"/>
    <use x="2626.302734" xlink:href="#DejaVuSans-20"/>
    <use x="2658.089844" xlink:href="#DejaVuSans-42"/>
    <use x="2726.693359" xlink:href="#DejaVuSans-61"/>
    <use x="2787.972656" xlink:href="#DejaVuSans-74"/>
    <use x="2827.181641" xlink:href="#DejaVuSans-63"/>
    <use x="2882.162109" xlink:href="#DejaVuSans-68"/>
    <use x="2945.541016" xlink:href="#DejaVuSans-20"/>
    <use x="2977.328125" xlink:href="#DejaVuSans-73"/>
    <use x="3029.427734" xlink:href="#DejaVuSans-69"/>
    <use x="3057.210938" xlink:href="#DejaVuSans-7a"/>
    <use x="3109.701172" xlink:href="#DejaVuSans-65"/>
    <use x="3171.224609" xlink:href="#DejaVuSans-20"/>
    <use x="3203.011719" xlink:href="#DejaVuSans-2d"/>
    <use x="3239.095703" xlink:href="#DejaVuSans-20"/>
    <use x="3270.882812" xlink:href="#DejaVuSans-43"/>
    <use x="3340.707031" xlink:href="#DejaVuSans-6f"/>
    <use x="3401.888672" xlink:href="#DejaVuSans-6e"/>
    <use x="3465.267578" xlink:href="#DejaVuSans-66"/>
    <use x="3500.472656" xlink:href="#DejaVuSans-69"/>
    <use x="3528.255859" xlink:href="#DejaVuSans-64"/>
    <use x="3591.732422" xlink:href="#DejaVuSans-65"/>
    <use x="3653.255859" xlink:href="#DejaVuSans-6e"/>
    <use x="3716.634766" xlink:href="#DejaVuSans-63"/>
    <use x="3771.615234" xlink:href="#DejaVuSans-65"/>
    <use x="3833.138672" xlink:href="#DejaVuSans-3a"/>
    <use x="3866.830078" xlink:href="#DejaVuSans-20"/>
    <use x="3898.617188" xlink:href="#DejaVuSans-39"/>
    <use x="3962.240234" xlink:href="#DejaVuSans-35"/>
    <use x="4025.863281" xlink:href="#DejaVuSans-25"/>
   </g>
  </g>
  <g id="legend_1">
   <g id="line2d_74">
    <path d="M 863.441 392.272125 
L 889.841 392.272125 
" style="fill:none;"/>
   </g>
   <g id="line2d_75"/>
   <g id="text_36">
    <!-- Optimizer -->
    <g style="fill:#262626;" transform="translate(900.401 396.892125)scale(0.132 -0.132)">
     <use xlink:href="#DejaVuSans-4f"/>
     <use x="78.710938" xlink:href="#DejaVuSans-70"/>
     <use x="142.1875" xlink:href="#DejaVuSans-74"/>
     <use x="181.396484" xlink:href="#DejaVuSans-69"/>
     <use x="209.179688" xlink:href="#DejaVuSans-6d"/>
     <use x="306.591797" xlink:href="#DejaVuSans-69"/>
     <use x="334.375" xlink:href="#DejaVuSans-7a"/>
     <use x="386.865234" xlink:href="#DejaVuSans-65"/>
     <use x="448.388672" xlink:href="#DejaVuSans-72"/>
    </g>
   </g>
   <g id="line2d_76">
    <path d="M 863.441 411.64725 
L 889.841 411.64725 
" style="fill:none;stroke:#4c72b0;stroke-linecap:round;stroke-width:1.5;"/>
   </g>
   <g id="line2d_77"/>
   <g id="text_37">
    <!-- rmsprop -->
    <g style="fill:#262626;" transform="translate(900.401 416.26725)scale(0.132 -0.132)">
     <use xlink:href="#DejaVuSans-72"/>
     <use x="41.097656" xlink:href="#DejaVuSans-6d"/>
     <use x="138.509766" xlink:href="#DejaVuSans-73"/>
     <use x="190.609375" xlink:href="#DejaVuSans-70"/>
     <use x="254.085938" xlink:href="#DejaVuSans-72"/>
     <use x="295.167969" xlink:href="#DejaVuSans-6f"/>
     <use x="356.349609" xlink:href="#DejaVuSans-70"/>
    </g>
   </g>
   <g id="line2d_78">
    <path d="M 863.441 431.022375 
L 889.841 431.022375 
" style="fill:none;stroke:#dd8452;stroke-linecap:round;stroke-width:1.5;"/>
   </g>
   <g id="line2d_79"/>
   <g id="text_38">
    <!-- adagrad -->
    <defs>
     <path d="M 45.40625 27.984375 
Q 45.40625 37.75 41.375 43.109375 
Q 37.359375 48.484375 30.078125 48.484375 
Q 22.859375 48.484375 18.828125 43.109375 
Q 14.796875 37.75 14.796875 27.984375 
Q 14.796875 18.265625 18.828125 12.890625 
Q 22.859375 7.515625 30.078125 7.515625 
Q 37.359375 7.515625 41.375 12.890625 
Q 45.40625 18.265625 45.40625 27.984375 
z
M 54.390625 6.78125 
Q 54.390625 -7.171875 48.1875 -13.984375 
Q 42 -20.796875 29.203125 -20.796875 
Q 24.46875 -20.796875 20.265625 -20.09375 
Q 16.0625 -19.390625 12.109375 -17.921875 
L 12.109375 -9.1875 
Q 16.0625 -11.328125 19.921875 -12.34375 
Q 23.78125 -13.375 27.78125 -13.375 
Q 36.625 -13.375 41.015625 -8.765625 
Q 45.40625 -4.15625 45.40625 5.171875 
L 45.40625 9.625 
Q 42.625 4.78125 38.28125 2.390625 
Q 33.9375 0 27.875 0 
Q 17.828125 0 11.671875 7.65625 
Q 5.515625 15.328125 5.515625 27.984375 
Q 5.515625 40.671875 11.671875 48.328125 
Q 17.828125 56 27.875 56 
Q 33.9375 56 38.28125 53.609375 
Q 42.625 51.21875 45.40625 46.390625 
L 45.40625 54.6875 
L 54.390625 54.6875 
z
" id="DejaVuSans-67"/>
    </defs>
    <g style="fill:#262626;" transform="translate(900.401 435.642375)scale(0.132 -0.132)">
     <use xlink:href="#DejaVuSans-61"/>
     <use x="61.279297" xlink:href="#DejaVuSans-64"/>
     <use x="124.755859" xlink:href="#DejaVuSans-61"/>
     <use x="186.035156" xlink:href="#DejaVuSans-67"/>
     <use x="249.511719" xlink:href="#DejaVuSans-72"/>
     <use x="290.625" xlink:href="#DejaVuSans-61"/>
     <use x="351.904297" xlink:href="#DejaVuSans-64"/>
    </g>
   </g>
   <g id="line2d_80">
    <path d="M 863.441 450.3975 
L 889.841 450.3975 
" style="fill:none;stroke:#55a868;stroke-linecap:round;stroke-width:1.5;"/>
   </g>
   <g id="line2d_81"/>
   <g id="text_39">
    <!-- adam -->
    <g style="fill:#262626;" transform="translate(900.401 455.0175)scale(0.132 -0.132)">
     <use xlink:href="#DejaVuSans-61"/>
     <use x="61.279297" xlink:href="#DejaVuSans-64"/>
     <use x="124.755859" xlink:href="#DejaVuSans-61"/>
     <use x="186.035156" xlink:href="#DejaVuSans-6d"/>
    </g>
   </g>
   <g id="line2d_82">
    <path d="M 863.441 469.772625 
L 889.841 469.772625 
" style="fill:none;stroke:#c44e52;stroke-linecap:round;stroke-width:1.5;"/>
   </g>
   <g id="line2d_83"/>
   <g id="text_40">
    <!-- nadam -->
    <g style="fill:#262626;" transform="translate(900.401 474.392625)scale(0.132 -0.132)">
     <use xlink:href="#DejaVuSans-6e"/>
     <use x="63.378906" xlink:href="#DejaVuSans-61"/>
     <use x="124.658203" xlink:href="#DejaVuSans-64"/>
     <use x="188.134766" xlink:href="#DejaVuSans-61"/>
     <use x="249.414062" xlink:href="#DejaVuSans-6d"/>
    </g>
   </g>
  </g>
 </g>
 <defs>
  <clipPath id="p07114b7cba">
   <rect height="356.329628" width="378.969051" x="71.064589" y="60.48"/>
  </clipPath>
  <clipPath id="p8bbef17cf2">
   <rect height="356.329628" width="378.969051" x="475.261999" y="60.48"/>
  </clipPath>
  <clipPath id="pba5b4b0ff9">
   <rect height="356.329628" width="378.969051" x="71.064589" y="452.818372"/>
  </clipPath>
  <clipPath id="p9d30a21c58">
   <rect height="356.329628" width="378.969051" x="475.261999" y="452.818372"/>
  </clipPath>
 </defs>
</svg>
