<?xml version="1.0" encoding="utf-8" standalone="no"?>
<!DOCTYPE svg PUBLIC "-//W3C//DTD SVG 1.1//EN"
  "http://www.w3.org/Graphics/SVG/1.1/DTD/svg11.dtd">
<!-- Created with matplotlib (http://matplotlib.org/) -->
<svg height="720pt" version="1.1" viewBox="0 0 899 720" width="899pt" xmlns="http://www.w3.org/2000/svg" xmlns:xlink="http://www.w3.org/1999/xlink">
 <defs>
  <style type="text/css">
*{stroke-linecap:butt;stroke-linejoin:round;}
  </style>
 </defs>
 <g id="figure_1">
  <g id="patch_1">
   <path d="M 0 720 
L 899.004375 720 
L 899.004375 0 
L 0 0 
z
" style="fill:#ffffff;"/>
  </g>
  <g id="axes_1">
   <g id="patch_2">
    <path d="M 78.478087 665.148 
L 711.009956 665.148 
L 711.009956 20.352 
L 78.478087 20.352 
z
" style="fill:#ffffff;"/>
   </g>
   <g id="matplotlib.axis_1">
    <g id="xtick_1">
     <g id="line2d_1">
      <path clip-path="url(#p505f6324d4)" d="M 107.229536 665.148 
L 107.229536 20.352 
" style="fill:none;stroke:#cccccc;stroke-linecap:round;stroke-width:0.8;"/>
     </g>
     <g id="text_1">
      <!-- 0 -->
      <defs>
       <path d="M 31.78125 66.40625 
Q 24.171875 66.40625 20.328125 58.90625 
Q 16.5 51.421875 16.5 36.375 
Q 16.5 21.390625 20.328125 13.890625 
Q 24.171875 6.390625 31.78125 6.390625 
Q 39.453125 6.390625 43.28125 13.890625 
Q 47.125 21.390625 47.125 36.375 
Q 47.125 51.421875 43.28125 58.90625 
Q 39.453125 66.40625 31.78125 66.40625 
z
M 31.78125 74.21875 
Q 44.046875 74.21875 50.515625 64.515625 
Q 56.984375 54.828125 56.984375 36.375 
Q 56.984375 17.96875 50.515625 8.265625 
Q 44.046875 -1.421875 31.78125 -1.421875 
Q 19.53125 -1.421875 13.0625 8.265625 
Q 6.59375 17.96875 6.59375 36.375 
Q 6.59375 54.828125 13.0625 64.515625 
Q 19.53125 74.21875 31.78125 74.21875 
z
" id="DejaVuSans-30"/>
      </defs>
      <g style="fill:#262626;" transform="translate(103.030286 683.477937)scale(0.132 -0.132)">
       <use xlink:href="#DejaVuSans-30"/>
      </g>
     </g>
    </g>
    <g id="xtick_2">
     <g id="line2d_2">
      <path clip-path="url(#p505f6324d4)" d="M 222.350451 665.148 
L 222.350451 20.352 
" style="fill:none;stroke:#cccccc;stroke-linecap:round;stroke-width:0.8;"/>
     </g>
     <g id="text_2">
      <!-- 200 -->
      <defs>
       <path d="M 19.1875 8.296875 
L 53.609375 8.296875 
L 53.609375 0 
L 7.328125 0 
L 7.328125 8.296875 
Q 12.9375 14.109375 22.625 23.890625 
Q 32.328125 33.6875 34.8125 36.53125 
Q 39.546875 41.84375 41.421875 45.53125 
Q 43.3125 49.21875 43.3125 52.78125 
Q 43.3125 58.59375 39.234375 62.25 
Q 35.15625 65.921875 28.609375 65.921875 
Q 23.96875 65.921875 18.8125 64.3125 
Q 13.671875 62.703125 7.8125 59.421875 
L 7.8125 69.390625 
Q 13.765625 71.78125 18.9375 73 
Q 24.125 74.21875 28.421875 74.21875 
Q 39.75 74.21875 46.484375 68.546875 
Q 53.21875 62.890625 53.21875 53.421875 
Q 53.21875 48.921875 51.53125 44.890625 
Q 49.859375 40.875 45.40625 35.40625 
Q 44.1875 33.984375 37.640625 27.21875 
Q 31.109375 20.453125 19.1875 8.296875 
z
" id="DejaVuSans-32"/>
      </defs>
      <g style="fill:#262626;" transform="translate(209.752701 683.477937)scale(0.132 -0.132)">
       <use xlink:href="#DejaVuSans-32"/>
       <use x="63.623047" xlink:href="#DejaVuSans-30"/>
       <use x="127.246094" xlink:href="#DejaVuSans-30"/>
      </g>
     </g>
    </g>
    <g id="xtick_3">
     <g id="line2d_3">
      <path clip-path="url(#p505f6324d4)" d="M 337.471367 665.148 
L 337.471367 20.352 
" style="fill:none;stroke:#cccccc;stroke-linecap:round;stroke-width:0.8;"/>
     </g>
     <g id="text_3">
      <!-- 400 -->
      <defs>
       <path d="M 37.796875 64.3125 
L 12.890625 25.390625 
L 37.796875 25.390625 
z
M 35.203125 72.90625 
L 47.609375 72.90625 
L 47.609375 25.390625 
L 58.015625 25.390625 
L 58.015625 17.1875 
L 47.609375 17.1875 
L 47.609375 0 
L 37.796875 0 
L 37.796875 17.1875 
L 4.890625 17.1875 
L 4.890625 26.703125 
z
" id="DejaVuSans-34"/>
      </defs>
      <g style="fill:#262626;" transform="translate(324.873617 683.477937)scale(0.132 -0.132)">
       <use xlink:href="#DejaVuSans-34"/>
       <use x="63.623047" xlink:href="#DejaVuSans-30"/>
       <use x="127.246094" xlink:href="#DejaVuSans-30"/>
      </g>
     </g>
    </g>
    <g id="xtick_4">
     <g id="line2d_4">
      <path clip-path="url(#p505f6324d4)" d="M 452.592282 665.148 
L 452.592282 20.352 
" style="fill:none;stroke:#cccccc;stroke-linecap:round;stroke-width:0.8;"/>
     </g>
     <g id="text_4">
      <!-- 600 -->
      <defs>
       <path d="M 33.015625 40.375 
Q 26.375 40.375 22.484375 35.828125 
Q 18.609375 31.296875 18.609375 23.390625 
Q 18.609375 15.53125 22.484375 10.953125 
Q 26.375 6.390625 33.015625 6.390625 
Q 39.65625 6.390625 43.53125 10.953125 
Q 47.40625 15.53125 47.40625 23.390625 
Q 47.40625 31.296875 43.53125 35.828125 
Q 39.65625 40.375 33.015625 40.375 
z
M 52.59375 71.296875 
L 52.59375 62.3125 
Q 48.875 64.0625 45.09375 64.984375 
Q 41.3125 65.921875 37.59375 65.921875 
Q 27.828125 65.921875 22.671875 59.328125 
Q 17.53125 52.734375 16.796875 39.40625 
Q 19.671875 43.65625 24.015625 45.921875 
Q 28.375 48.1875 33.59375 48.1875 
Q 44.578125 48.1875 50.953125 41.515625 
Q 57.328125 34.859375 57.328125 23.390625 
Q 57.328125 12.15625 50.6875 5.359375 
Q 44.046875 -1.421875 33.015625 -1.421875 
Q 20.359375 -1.421875 13.671875 8.265625 
Q 6.984375 17.96875 6.984375 36.375 
Q 6.984375 53.65625 15.1875 63.9375 
Q 23.390625 74.21875 37.203125 74.21875 
Q 40.921875 74.21875 44.703125 73.484375 
Q 48.484375 72.75 52.59375 71.296875 
z
" id="DejaVuSans-36"/>
      </defs>
      <g style="fill:#262626;" transform="translate(439.994532 683.477937)scale(0.132 -0.132)">
       <use xlink:href="#DejaVuSans-36"/>
       <use x="63.623047" xlink:href="#DejaVuSans-30"/>
       <use x="127.246094" xlink:href="#DejaVuSans-30"/>
      </g>
     </g>
    </g>
    <g id="xtick_5">
     <g id="line2d_5">
      <path clip-path="url(#p505f6324d4)" d="M 567.713197 665.148 
L 567.713197 20.352 
" style="fill:none;stroke:#cccccc;stroke-linecap:round;stroke-width:0.8;"/>
     </g>
     <g id="text_5">
      <!-- 800 -->
      <defs>
       <path d="M 31.78125 34.625 
Q 24.75 34.625 20.71875 30.859375 
Q 16.703125 27.09375 16.703125 20.515625 
Q 16.703125 13.921875 20.71875 10.15625 
Q 24.75 6.390625 31.78125 6.390625 
Q 38.8125 6.390625 42.859375 10.171875 
Q 46.921875 13.96875 46.921875 20.515625 
Q 46.921875 27.09375 42.890625 30.859375 
Q 38.875 34.625 31.78125 34.625 
z
M 21.921875 38.8125 
Q 15.578125 40.375 12.03125 44.71875 
Q 8.5 49.078125 8.5 55.328125 
Q 8.5 64.0625 14.71875 69.140625 
Q 20.953125 74.21875 31.78125 74.21875 
Q 42.671875 74.21875 48.875 69.140625 
Q 55.078125 64.0625 55.078125 55.328125 
Q 55.078125 49.078125 51.53125 44.71875 
Q 48 40.375 41.703125 38.8125 
Q 48.828125 37.15625 52.796875 32.3125 
Q 56.78125 27.484375 56.78125 20.515625 
Q 56.78125 9.90625 50.3125 4.234375 
Q 43.84375 -1.421875 31.78125 -1.421875 
Q 19.734375 -1.421875 13.25 4.234375 
Q 6.78125 9.90625 6.78125 20.515625 
Q 6.78125 27.484375 10.78125 32.3125 
Q 14.796875 37.15625 21.921875 38.8125 
z
M 18.3125 54.390625 
Q 18.3125 48.734375 21.84375 45.5625 
Q 25.390625 42.390625 31.78125 42.390625 
Q 38.140625 42.390625 41.71875 45.5625 
Q 45.3125 48.734375 45.3125 54.390625 
Q 45.3125 60.0625 41.71875 63.234375 
Q 38.140625 66.40625 31.78125 66.40625 
Q 25.390625 66.40625 21.84375 63.234375 
Q 18.3125 60.0625 18.3125 54.390625 
z
" id="DejaVuSans-38"/>
      </defs>
      <g style="fill:#262626;" transform="translate(555.115447 683.477937)scale(0.132 -0.132)">
       <use xlink:href="#DejaVuSans-38"/>
       <use x="63.623047" xlink:href="#DejaVuSans-30"/>
       <use x="127.246094" xlink:href="#DejaVuSans-30"/>
      </g>
     </g>
    </g>
    <g id="xtick_6">
     <g id="line2d_6">
      <path clip-path="url(#p505f6324d4)" d="M 682.834112 665.148 
L 682.834112 20.352 
" style="fill:none;stroke:#cccccc;stroke-linecap:round;stroke-width:0.8;"/>
     </g>
     <g id="text_6">
      <!-- 1000 -->
      <defs>
       <path d="M 12.40625 8.296875 
L 28.515625 8.296875 
L 28.515625 63.921875 
L 10.984375 60.40625 
L 10.984375 69.390625 
L 28.421875 72.90625 
L 38.28125 72.90625 
L 38.28125 8.296875 
L 54.390625 8.296875 
L 54.390625 0 
L 12.40625 0 
z
" id="DejaVuSans-31"/>
      </defs>
      <g style="fill:#262626;" transform="translate(666.037112 683.477937)scale(0.132 -0.132)">
       <use xlink:href="#DejaVuSans-31"/>
       <use x="63.623047" xlink:href="#DejaVuSans-30"/>
       <use x="127.246094" xlink:href="#DejaVuSans-30"/>
       <use x="190.869141" xlink:href="#DejaVuSans-30"/>
      </g>
     </g>
    </g>
    <g id="text_7">
     <!-- Epoch -->
     <defs>
      <path d="M 9.8125 72.90625 
L 55.90625 72.90625 
L 55.90625 64.59375 
L 19.671875 64.59375 
L 19.671875 43.015625 
L 54.390625 43.015625 
L 54.390625 34.71875 
L 19.671875 34.71875 
L 19.671875 8.296875 
L 56.78125 8.296875 
L 56.78125 0 
L 9.8125 0 
z
" id="DejaVuSans-45"/>
      <path d="M 18.109375 8.203125 
L 18.109375 -20.796875 
L 9.078125 -20.796875 
L 9.078125 54.6875 
L 18.109375 54.6875 
L 18.109375 46.390625 
Q 20.953125 51.265625 25.265625 53.625 
Q 29.59375 56 35.59375 56 
Q 45.5625 56 51.78125 48.09375 
Q 58.015625 40.1875 58.015625 27.296875 
Q 58.015625 14.40625 51.78125 6.484375 
Q 45.5625 -1.421875 35.59375 -1.421875 
Q 29.59375 -1.421875 25.265625 0.953125 
Q 20.953125 3.328125 18.109375 8.203125 
z
M 48.6875 27.296875 
Q 48.6875 37.203125 44.609375 42.84375 
Q 40.53125 48.484375 33.40625 48.484375 
Q 26.265625 48.484375 22.1875 42.84375 
Q 18.109375 37.203125 18.109375 27.296875 
Q 18.109375 17.390625 22.1875 11.75 
Q 26.265625 6.109375 33.40625 6.109375 
Q 40.53125 6.109375 44.609375 11.75 
Q 48.6875 17.390625 48.6875 27.296875 
z
" id="DejaVuSans-70"/>
      <path d="M 30.609375 48.390625 
Q 23.390625 48.390625 19.1875 42.75 
Q 14.984375 37.109375 14.984375 27.296875 
Q 14.984375 17.484375 19.15625 11.84375 
Q 23.34375 6.203125 30.609375 6.203125 
Q 37.796875 6.203125 41.984375 11.859375 
Q 46.1875 17.53125 46.1875 27.296875 
Q 46.1875 37.015625 41.984375 42.703125 
Q 37.796875 48.390625 30.609375 48.390625 
z
M 30.609375 56 
Q 42.328125 56 49.015625 48.375 
Q 55.71875 40.765625 55.71875 27.296875 
Q 55.71875 13.875 49.015625 6.21875 
Q 42.328125 -1.421875 30.609375 -1.421875 
Q 18.84375 -1.421875 12.171875 6.21875 
Q 5.515625 13.875 5.515625 27.296875 
Q 5.515625 40.765625 12.171875 48.375 
Q 18.84375 56 30.609375 56 
z
" id="DejaVuSans-6f"/>
      <path d="M 48.78125 52.59375 
L 48.78125 44.1875 
Q 44.96875 46.296875 41.140625 47.34375 
Q 37.3125 48.390625 33.40625 48.390625 
Q 24.65625 48.390625 19.8125 42.84375 
Q 14.984375 37.3125 14.984375 27.296875 
Q 14.984375 17.28125 19.8125 11.734375 
Q 24.65625 6.203125 33.40625 6.203125 
Q 37.3125 6.203125 41.140625 7.25 
Q 44.96875 8.296875 48.78125 10.40625 
L 48.78125 2.09375 
Q 45.015625 0.34375 40.984375 -0.53125 
Q 36.96875 -1.421875 32.421875 -1.421875 
Q 20.0625 -1.421875 12.78125 6.34375 
Q 5.515625 14.109375 5.515625 27.296875 
Q 5.515625 40.671875 12.859375 48.328125 
Q 20.21875 56 33.015625 56 
Q 37.15625 56 41.109375 55.140625 
Q 45.0625 54.296875 48.78125 52.59375 
z
" id="DejaVuSans-63"/>
      <path d="M 54.890625 33.015625 
L 54.890625 0 
L 45.90625 0 
L 45.90625 32.71875 
Q 45.90625 40.484375 42.875 44.328125 
Q 39.84375 48.1875 33.796875 48.1875 
Q 26.515625 48.1875 22.3125 43.546875 
Q 18.109375 38.921875 18.109375 30.90625 
L 18.109375 0 
L 9.078125 0 
L 9.078125 75.984375 
L 18.109375 75.984375 
L 18.109375 46.1875 
Q 21.34375 51.125 25.703125 53.5625 
Q 30.078125 56 35.796875 56 
Q 45.21875 56 50.046875 50.171875 
Q 54.890625 44.34375 54.890625 33.015625 
z
" id="DejaVuSans-68"/>
     </defs>
     <g style="fill:#262626;" transform="translate(372.696272 701.164875)scale(0.144 -0.144)">
      <use xlink:href="#DejaVuSans-45"/>
      <use x="63.183594" xlink:href="#DejaVuSans-70"/>
      <use x="126.660156" xlink:href="#DejaVuSans-6f"/>
      <use x="187.841797" xlink:href="#DejaVuSans-63"/>
      <use x="242.822266" xlink:href="#DejaVuSans-68"/>
     </g>
    </g>
   </g>
   <g id="matplotlib.axis_2">
    <g id="ytick_1">
     <g id="line2d_7">
      <path clip-path="url(#p505f6324d4)" d="M 78.478087 546.439246 
L 711.009956 546.439246 
" style="fill:none;stroke:#cccccc;stroke-linecap:round;stroke-width:0.8;"/>
     </g>
     <g id="text_8">
      <!-- 0.2 -->
      <defs>
       <path d="M 10.6875 12.40625 
L 21 12.40625 
L 21 0 
L 10.6875 0 
z
" id="DejaVuSans-2e"/>
      </defs>
      <g style="fill:#262626;" transform="translate(49.185962 551.454214)scale(0.132 -0.132)">
       <use xlink:href="#DejaVuSans-30"/>
       <use x="63.623047" xlink:href="#DejaVuSans-2e"/>
       <use x="95.410156" xlink:href="#DejaVuSans-32"/>
      </g>
     </g>
    </g>
    <g id="ytick_2">
     <g id="line2d_8">
      <path clip-path="url(#p505f6324d4)" d="M 78.478087 407.551845 
L 711.009956 407.551845 
" style="fill:none;stroke:#cccccc;stroke-linecap:round;stroke-width:0.8;"/>
     </g>
     <g id="text_9">
      <!-- 0.4 -->
      <g style="fill:#262626;" transform="translate(49.185962 412.566813)scale(0.132 -0.132)">
       <use xlink:href="#DejaVuSans-30"/>
       <use x="63.623047" xlink:href="#DejaVuSans-2e"/>
       <use x="95.410156" xlink:href="#DejaVuSans-34"/>
      </g>
     </g>
    </g>
    <g id="ytick_3">
     <g id="line2d_9">
      <path clip-path="url(#p505f6324d4)" d="M 78.478087 268.664443 
L 711.009956 268.664443 
" style="fill:none;stroke:#cccccc;stroke-linecap:round;stroke-width:0.8;"/>
     </g>
     <g id="text_10">
      <!-- 0.6 -->
      <g style="fill:#262626;" transform="translate(49.185962 273.679412)scale(0.132 -0.132)">
       <use xlink:href="#DejaVuSans-30"/>
       <use x="63.623047" xlink:href="#DejaVuSans-2e"/>
       <use x="95.410156" xlink:href="#DejaVuSans-36"/>
      </g>
     </g>
    </g>
    <g id="ytick_4">
     <g id="line2d_10">
      <path clip-path="url(#p505f6324d4)" d="M 78.478087 129.777042 
L 711.009956 129.777042 
" style="fill:none;stroke:#cccccc;stroke-linecap:round;stroke-width:0.8;"/>
     </g>
     <g id="text_11">
      <!-- 0.8 -->
      <g style="fill:#262626;" transform="translate(49.185962 134.792011)scale(0.132 -0.132)">
       <use xlink:href="#DejaVuSans-30"/>
       <use x="63.623047" xlink:href="#DejaVuSans-2e"/>
       <use x="95.410156" xlink:href="#DejaVuSans-38"/>
      </g>
     </g>
    </g>
    <g id="text_12">
     <!-- Accuracy -->
     <defs>
      <path d="M 34.1875 63.1875 
L 20.796875 26.90625 
L 47.609375 26.90625 
z
M 28.609375 72.90625 
L 39.796875 72.90625 
L 67.578125 0 
L 57.328125 0 
L 50.6875 18.703125 
L 17.828125 18.703125 
L 11.1875 0 
L 0.78125 0 
z
" id="DejaVuSans-41"/>
      <path d="M 8.5 21.578125 
L 8.5 54.6875 
L 17.484375 54.6875 
L 17.484375 21.921875 
Q 17.484375 14.15625 20.5 10.265625 
Q 23.53125 6.390625 29.59375 6.390625 
Q 36.859375 6.390625 41.078125 11.03125 
Q 45.3125 15.671875 45.3125 23.6875 
L 45.3125 54.6875 
L 54.296875 54.6875 
L 54.296875 0 
L 45.3125 0 
L 45.3125 8.40625 
Q 42.046875 3.421875 37.71875 1 
Q 33.40625 -1.421875 27.6875 -1.421875 
Q 18.265625 -1.421875 13.375 4.4375 
Q 8.5 10.296875 8.5 21.578125 
z
M 31.109375 56 
z
" id="DejaVuSans-75"/>
      <path d="M 41.109375 46.296875 
Q 39.59375 47.171875 37.8125 47.578125 
Q 36.03125 48 33.890625 48 
Q 26.265625 48 22.1875 43.046875 
Q 18.109375 38.09375 18.109375 28.8125 
L 18.109375 0 
L 9.078125 0 
L 9.078125 54.6875 
L 18.109375 54.6875 
L 18.109375 46.1875 
Q 20.953125 51.171875 25.484375 53.578125 
Q 30.03125 56 36.53125 56 
Q 37.453125 56 38.578125 55.875 
Q 39.703125 55.765625 41.0625 55.515625 
z
" id="DejaVuSans-72"/>
      <path d="M 34.28125 27.484375 
Q 23.390625 27.484375 19.1875 25 
Q 14.984375 22.515625 14.984375 16.5 
Q 14.984375 11.71875 18.140625 8.90625 
Q 21.296875 6.109375 26.703125 6.109375 
Q 34.1875 6.109375 38.703125 11.40625 
Q 43.21875 16.703125 43.21875 25.484375 
L 43.21875 27.484375 
z
M 52.203125 31.203125 
L 52.203125 0 
L 43.21875 0 
L 43.21875 8.296875 
Q 40.140625 3.328125 35.546875 0.953125 
Q 30.953125 -1.421875 24.3125 -1.421875 
Q 15.921875 -1.421875 10.953125 3.296875 
Q 6 8.015625 6 15.921875 
Q 6 25.140625 12.171875 29.828125 
Q 18.359375 34.515625 30.609375 34.515625 
L 43.21875 34.515625 
L 43.21875 35.40625 
Q 43.21875 41.609375 39.140625 45 
Q 35.0625 48.390625 27.6875 48.390625 
Q 23 48.390625 18.546875 47.265625 
Q 14.109375 46.140625 10.015625 43.890625 
L 10.015625 52.203125 
Q 14.9375 54.109375 19.578125 55.046875 
Q 24.21875 56 28.609375 56 
Q 40.484375 56 46.34375 49.84375 
Q 52.203125 43.703125 52.203125 31.203125 
z
" id="DejaVuSans-61"/>
      <path d="M 32.171875 -5.078125 
Q 28.375 -14.84375 24.75 -17.8125 
Q 21.140625 -20.796875 15.09375 -20.796875 
L 7.90625 -20.796875 
L 7.90625 -13.28125 
L 13.1875 -13.28125 
Q 16.890625 -13.28125 18.9375 -11.515625 
Q 21 -9.765625 23.484375 -3.21875 
L 25.09375 0.875 
L 2.984375 54.6875 
L 12.5 54.6875 
L 29.59375 11.921875 
L 46.6875 54.6875 
L 56.203125 54.6875 
z
" id="DejaVuSans-79"/>
     </defs>
     <g style="fill:#262626;" transform="translate(42.191212 375.747375)rotate(-90)scale(0.144 -0.144)">
      <use xlink:href="#DejaVuSans-41"/>
      <use x="68.392578" xlink:href="#DejaVuSans-63"/>
      <use x="123.373047" xlink:href="#DejaVuSans-63"/>
      <use x="178.353516" xlink:href="#DejaVuSans-75"/>
      <use x="241.732422" xlink:href="#DejaVuSans-72"/>
      <use x="282.845703" xlink:href="#DejaVuSans-61"/>
      <use x="344.125" xlink:href="#DejaVuSans-63"/>
      <use x="399.105469" xlink:href="#DejaVuSans-79"/>
     </g>
    </g>
   </g>
   <g id="line2d_11">
    <path clip-path="url(#p505f6324d4)" d="M 107.229536 635.839091 
L 107.805141 613.742322 
L 108.380745 596.095596 
L 108.95635 565.328914 
L 111.834373 463.668431 
L 114.136791 422.850788 
L 115.288 410.344631 
L 115.863605 409.347207 
L 116.439209 396.994499 
L 117.014814 390.012534 
L 117.590418 381.189171 
L 118.166023 380.038298 
L 118.741628 374.053756 
L 119.317232 366.227817 
L 119.892837 363.312271 
L 120.468441 363.158821 
L 121.044046 357.02083 
L 122.195255 351.650088 
L 122.77086 346.432795 
L 123.346464 347.276769 
L 123.922069 341.215502 
L 124.497673 339.911179 
L 125.073278 329.783493 
L 125.648882 328.939519 
L 126.224487 323.338602 
L 126.800092 320.499781 
L 127.375696 320.116157 
L 127.951301 317.584235 
L 128.526905 313.287641 
L 129.10251 307.763449 
L 129.678115 304.771178 
L 130.253719 305.691877 
L 130.829324 301.088383 
L 131.404928 289.426199 
L 131.980533 296.715064 
L 132.556137 298.096112 
L 133.131742 289.349474 
L 133.707347 290.193448 
L 134.282951 287.968426 
L 134.858556 284.592531 
L 135.43416 277.84074 
L 136.009765 279.528688 
L 136.585369 277.917465 
L 137.160974 270.475151 
L 137.736579 274.618295 
L 138.312183 272.393273 
L 138.887788 269.554452 
L 139.463392 269.938077 
L 140.038997 266.178557 
L 140.614601 264.260434 
L 141.190206 265.334583 
L 141.765811 263.800085 
L 142.341415 259.503491 
L 142.91702 264.490609 
L 143.492624 255.283622 
L 144.068229 249.989604 
L 144.643834 251.831002 
L 145.219438 251.217203 
L 145.795043 245.616285 
L 146.370647 244.695587 
L 146.946252 247.994757 
L 147.521856 252.368076 
L 148.097461 245.155936 
L 148.673066 245.079211 
L 149.24867 242.010216 
L 149.824275 238.250696 
L 150.399879 239.248119 
L 150.975484 232.419604 
L 151.551088 234.030827 
L 152.126693 240.629167 
L 152.702298 235.948949 
L 153.277902 233.033403 
L 153.853507 234.030827 
L 154.429111 229.043709 
L 155.004716 231.268731 
L 155.58032 229.734233 
L 156.155925 223.749691 
L 156.73153 228.353185 
L 157.307134 231.498905 
L 157.882739 221.524669 
L 158.458343 224.900564 
L 159.033948 220.60397 
L 159.609552 221.678119 
L 160.185157 220.066896 
L 160.760762 221.141045 
L 161.336366 215.386678 
L 161.911971 220.834145 
L 162.487575 212.547857 
L 163.06318 214.772879 
L 163.638785 219.453097 
L 164.214389 214.619429 
L 164.789994 216.921176 
L 165.941203 205.105542 
L 166.516807 209.248686 
L 167.092412 212.317682 
L 167.668017 208.558162 
L 168.243621 205.796066 
L 168.819226 211.243533 
L 169.39483 205.028817 
L 169.970435 205.796066 
L 170.546039 207.330564 
L 171.121644 205.182267 
L 171.697249 200.271874 
L 172.272853 203.18742 
L 172.848458 205.412442 
L 173.424062 199.7348 
L 173.999667 199.964974 
L 174.575271 198.353751 
L 175.150876 195.131306 
L 175.726481 197.816677 
L 176.302085 194.440782 
L 176.87769 195.97528 
L 177.453294 195.438205 
L 178.028899 197.126153 
L 178.604503 195.131306 
L 179.180108 191.525236 
L 179.755713 195.82183 
L 180.331317 192.752834 
L 180.906922 194.594232 
L 181.482526 188.993315 
L 182.058131 189.530389 
L 182.633736 193.596808 
L 183.20934 187.535542 
L 183.784945 186.921742 
L 184.360549 187.688991 
L 184.936154 189.837288 
L 185.511758 184.926895 
L 186.087363 185.847594 
L 186.662968 184.543271 
L 187.238572 186.384668 
L 187.814177 185.387245 
L 188.389781 181.70445 
L 188.965386 186.614843 
L 189.54099 181.934624 
L 190.116595 181.090651 
L 190.6922 180.783751 
L 191.267804 179.632878 
L 191.843409 183.622572 
L 192.419013 179.249253 
L 193.570222 174.875934 
L 194.145827 180.246677 
L 194.721432 176.487157 
L 195.297036 175.182834 
L 195.872641 178.865629 
L 196.448245 177.100956 
L 197.02385 174.952659 
L 197.599455 176.947506 
L 198.175059 178.328554 
L 198.750664 173.187987 
L 199.326268 175.489733 
L 199.901873 171.730214 
L 200.477477 172.113838 
L 201.053082 170.57934 
L 202.204291 173.648336 
L 202.779896 172.037113 
L 203.3555 169.044842 
L 203.931105 168.124144 
L 204.506709 164.441349 
L 205.082314 165.438772 
L 205.657919 167.510345 
L 206.233523 164.978423 
L 206.809128 168.200869 
L 207.384732 163.290475 
L 207.960337 170.42589 
L 208.535941 166.589646 
L 209.111546 164.748248 
L 209.687151 164.211174 
L 210.262755 167.049995 
L 210.83836 160.758554 
L 211.413964 164.287899 
L 211.989569 163.82755 
L 213.140778 165.515497 
L 213.716383 165.745672 
L 214.291987 162.139602 
L 214.867592 160.681829 
L 215.443196 158.073183 
L 216.018801 162.906851 
L 216.594406 159.607681 
L 217.17001 157.689558 
L 217.745615 160.06803 
L 218.321219 159.530956 
L 218.896824 155.464536 
L 219.472428 153.239514 
L 220.048033 156.61541 
L 220.623638 157.689558 
L 221.199242 156.46196 
L 221.774847 156.15506 
L 222.350451 156.76886 
L 222.926056 155.617986 
L 223.50166 152.625715 
L 224.077265 152.932615 
L 224.65287 154.006763 
L 225.228474 153.00934 
L 225.804079 153.930039 
L 226.379683 156.61541 
L 226.955288 151.628292 
L 227.530892 150.707593 
L 228.682102 153.086065 
L 229.257706 151.628292 
L 229.833311 147.792047 
L 230.408915 149.863619 
L 230.98452 150.400693 
L 231.560125 147.485148 
L 232.135729 149.633445 
L 232.711334 151.014493 
L 233.286938 146.794623 
L 233.862543 154.083488 
L 234.438147 147.945497 
L 235.013752 146.334274 
L 235.589357 147.331698 
L 236.164961 146.027375 
L 236.740566 144.339427 
L 237.31617 146.027375 
L 237.891775 149.479995 
L 238.467379 143.572178 
L 239.042984 146.564449 
L 239.618589 148.712746 
L 240.194193 144.646326 
L 240.769798 141.577331 
L 241.345402 143.111829 
L 241.921007 142.804929 
L 242.496611 145.183401 
L 243.072216 143.342003 
L 243.647821 142.19113 
L 244.223425 140.503182 
L 244.79903 143.572178 
L 245.374634 142.574754 
L 245.950239 143.035104 
L 246.525843 137.971261 
L 247.101448 144.032527 
L 247.677053 139.198859 
L 248.252657 140.963532 
L 248.828262 140.963532 
L 249.403866 139.198859 
L 249.979471 141.577331 
L 250.555076 140.042833 
L 251.13068 135.669514 
L 251.706285 139.429034 
L 252.281889 139.045409 
L 252.857494 132.984143 
L 253.433098 138.891959 
L 254.008703 134.211741 
L 254.584308 137.050562 
L 255.159912 137.357462 
L 256.311121 134.135016 
L 256.886726 134.97899 
L 257.46233 133.904841 
L 258.037935 137.510911 
L 258.61354 132.677243 
L 259.189144 135.439339 
L 259.764749 135.28589 
L 260.340353 134.97899 
L 260.915958 132.677243 
L 261.491562 133.214317 
L 262.067167 133.904841 
L 262.642772 135.13244 
L 263.218376 135.899689 
L 263.793981 130.528946 
L 264.369585 130.989296 
L 264.94519 133.444492 
L 265.520795 129.301348 
L 266.096399 130.145322 
L 266.672004 133.291042 
L 267.823213 130.145322 
L 268.398817 129.684972 
L 268.974422 126.999601 
L 270.125631 130.375496 
L 270.701236 126.999601 
L 271.27684 130.375496 
L 271.852445 128.610824 
L 272.428049 127.843575 
L 273.003654 126.615977 
L 273.579259 126.769426 
L 274.154863 125.772003 
L 274.730468 128.534099 
L 275.306072 128.917723 
L 275.881677 125.465103 
L 276.457281 125.925453 
L 277.032886 126.769426 
L 277.608491 125.311653 
L 278.184095 125.311653 
L 278.7597 125.081479 
L 279.335304 128.303924 
L 279.910909 124.31423 
L 280.486513 123.777156 
L 281.062118 125.004754 
L 281.637723 126.692702 
L 282.213327 122.319383 
L 282.788932 126.155627 
L 283.364536 124.31423 
L 283.940141 121.782308 
L 284.515746 124.00733 
L 285.09135 121.628859 
L 285.666955 121.859033 
L 286.242559 121.859033 
L 286.818164 122.165933 
L 287.393768 121.015059 
L 287.969373 121.091784 
L 288.544978 123.316806 
L 289.120582 122.089208 
L 289.696187 122.933182 
L 290.271791 122.549557 
L 290.847396 120.70816 
L 291.423 121.398684 
L 291.998605 119.480562 
L 292.57421 119.710736 
L 293.149814 118.099514 
L 293.725419 119.096937 
L 294.301023 119.327112 
L 294.876628 118.943487 
L 295.452232 120.171086 
L 296.027837 116.411566 
L 296.603442 117.946064 
L 297.179046 118.866762 
L 297.754651 116.104666 
L 298.330255 118.406413 
L 298.90586 119.480562 
L 299.481464 116.488291 
L 300.057069 114.877068 
L 300.632674 117.332265 
L 301.208278 116.79519 
L 301.783883 115.874492 
L 302.359487 116.488291 
L 302.935092 118.483138 
L 303.510697 115.183968 
L 304.086301 113.265845 
L 304.661906 114.493444 
L 305.23751 118.943487 
L 305.813115 114.877068 
L 306.388719 114.416719 
L 306.964324 114.877068 
L 307.539929 115.107243 
L 308.115533 112.805496 
L 308.691138 111.654623 
L 309.842347 113.419295 
L 310.417951 113.265845 
L 310.993556 113.64947 
L 311.569161 112.805496 
L 312.144765 115.107243 
L 312.72037 110.0434 
L 313.295974 114.877068 
L 313.871579 111.808072 
L 314.447183 112.575321 
L 315.022788 109.88995 
L 315.598393 112.575321 
L 316.173997 112.652046 
L 316.749602 110.733924 
L 317.325206 110.733924 
L 317.900811 109.659775 
L 318.476416 111.194273 
L 319.05202 111.961522 
L 319.627625 112.421871 
L 320.203229 111.117548 
L 320.778834 112.575321 
L 321.930043 107.051129 
L 322.505648 107.664928 
L 323.081252 107.741653 
L 323.656857 109.429601 
L 324.808066 108.585627 
L 325.38367 107.511478 
L 325.959275 105.363181 
L 326.53488 107.051129 
L 327.110484 107.434753 
L 327.686089 108.202002 
L 328.261693 108.048553 
L 328.837298 107.051129 
L 329.412902 111.501173 
L 329.988507 107.741653 
L 330.564112 106.897679 
L 331.139716 108.048553 
L 331.715321 104.979557 
L 332.290925 107.434753 
L 332.86653 103.521784 
L 333.442134 104.826107 
L 334.017739 104.749382 
L 334.593344 105.363181 
L 335.168948 107.971828 
L 335.744553 101.910561 
L 336.895762 105.593356 
L 337.471367 103.982133 
L 338.046971 102.907985 
L 338.622576 102.83126 
L 339.19818 104.135583 
L 339.773785 103.675234 
L 340.349389 104.902832 
L 340.924994 105.363181 
L 341.500599 102.447635 
L 342.076203 104.135583 
L 342.651808 103.214884 
L 343.227412 101.987286 
L 343.803017 99.608814 
L 344.378621 102.140736 
L 344.954226 102.67781 
L 345.529831 102.98471 
L 346.105435 101.450212 
L 346.68104 104.519207 
L 347.256644 101.910561 
L 347.832249 101.603662 
L 348.407853 102.83126 
L 348.983458 100.222613 
L 349.559063 102.140736 
L 350.710272 101.450212 
L 351.285876 99.301915 
L 351.861481 100.376063 
L 352.437086 102.83126 
L 353.01269 99.532089 
L 353.588295 100.222613 
L 354.163899 101.220037 
L 354.739504 96.539819 
L 355.315108 97.767417 
L 355.890713 96.386369 
L 356.466318 99.455365 
L 357.041922 100.529513 
L 357.617527 96.693268 
L 358.193131 98.151041 
L 358.768736 97.383792 
L 359.34434 99.37864 
L 359.919945 94.621696 
L 360.49555 98.611391 
L 361.646759 97.230343 
L 362.222363 97.230343 
L 362.797968 99.148465 
L 363.373572 97.076893 
L 363.949177 95.695845 
L 364.524782 98.995015 
L 365.100386 97.153618 
L 365.675991 96.232919 
L 366.251595 95.849295 
L 366.8272 97.767417 
L 367.402804 95.61912 
L 367.978409 94.775146 
L 368.554014 96.539819 
L 369.129618 97.000168 
L 369.705223 96.923443 
L 370.280827 96.002744 
L 370.856432 94.314797 
L 371.432037 94.851871 
L 372.007641 96.463094 
L 372.583246 93.624273 
L 373.15885 93.854447 
L 373.734455 92.089775 
L 374.310059 94.391522 
L 374.885664 93.240648 
L 375.461269 94.775146 
L 376.036873 92.626849 
L 376.612478 95.92602 
L 377.188082 93.317373 
L 377.763687 94.238072 
L 378.339291 94.775146 
L 378.914896 92.473399 
L 379.490501 95.542395 
L 380.066105 91.936325 
L 380.64171 93.854447 
L 381.217314 90.862177 
L 381.792919 93.624273 
L 382.368523 91.475976 
L 382.944128 92.396674 
L 384.095337 90.478552 
L 384.670942 89.941478 
L 385.246546 88.71388 
L 385.822151 90.555277 
L 386.397756 93.240648 
L 386.97336 93.470823 
L 387.548965 91.399251 
L 388.124569 91.782875 
L 388.700174 90.325102 
L 389.275778 89.557853 
L 389.851383 92.243225 
L 391.002592 88.176805 
L 391.578197 92.703574 
L 392.153801 85.721609 
L 392.729406 92.1665 
L 393.30501 89.788028 
L 393.880615 89.250954 
L 394.45622 88.25353 
L 395.031824 90.018203 
L 395.607429 88.56043 
L 396.183033 88.330255 
L 396.758638 89.404404 
L 397.334242 88.40698 
L 397.909847 90.632002 
L 398.485452 88.71388 
L 399.061056 89.404404 
L 399.636661 86.795757 
L 400.212265 88.25353 
L 401.363474 87.409556 
L 401.939079 89.020779 
L 403.090288 87.332831 
L 403.665893 86.412133 
L 404.241497 86.181958 
L 404.817102 87.946631 
L 405.392707 85.261259 
L 405.968311 88.56043 
L 406.543916 85.10781 
L 407.11952 86.565583 
L 407.695125 87.486281 
L 408.270729 85.798334 
L 408.846334 87.102657 
L 409.421939 84.724185 
L 409.997543 87.179382 
L 410.573148 84.724185 
L 411.148752 85.721609 
L 411.724357 85.798334 
L 412.299961 86.412133 
L 412.875566 86.795757 
L 413.451171 82.575888 
L 414.026775 86.642307 
L 414.60238 82.115539 
L 415.177984 84.263836 
L 415.753589 85.644884 
L 416.329193 85.721609 
L 417.480403 85.414709 
L 418.056007 85.031085 
L 418.631612 83.036238 
L 419.207216 82.652613 
L 419.782821 82.959513 
L 420.358426 82.959513 
L 421.509635 81.731914 
L 422.085239 85.644884 
L 422.660844 82.882788 
L 423.236448 84.110386 
L 423.812053 83.496587 
L 424.387658 82.268989 
L 425.538867 84.724185 
L 426.690076 79.813792 
L 427.26568 81.808639 
L 427.841285 81.885364 
L 428.41689 82.345713 
L 428.992494 83.726762 
L 430.143703 79.353443 
L 430.719308 82.499163 
L 431.294912 83.343137 
L 431.870517 82.959513 
L 432.446122 77.74222 
L 433.021726 81.578465 
L 433.597331 81.655189 
L 434.172935 79.967242 
L 434.74854 80.581041 
L 435.324144 80.964665 
L 435.899749 81.50174 
L 436.475354 81.118115 
L 437.050958 82.345713 
L 437.626563 80.427591 
L 438.202167 81.118115 
L 438.777772 78.662919 
L 439.353377 82.652613 
L 439.928981 77.972395 
L 440.504586 77.972395 
L 441.08019 79.737067 
L 441.655795 79.046543 
L 442.231399 79.276718 
L 442.807004 79.737067 
L 443.382609 79.430168 
L 443.958213 79.276718 
L 444.533818 79.276718 
L 445.109422 80.350866 
L 445.685027 78.049119 
L 446.260631 77.74222 
L 446.836236 77.205146 
L 447.411841 77.89567 
L 447.987445 78.969818 
L 448.56305 77.128421 
L 449.714259 78.279294 
L 450.289863 77.972395 
L 450.865468 78.202569 
L 451.441073 77.74222 
L 452.016677 75.593923 
L 452.592282 77.818945 
L 453.167886 79.506892 
L 453.743491 76.207722 
L 454.319095 77.58877 
L 454.8947 78.356019 
L 455.470305 76.130997 
L 456.045909 76.361172 
L 456.621514 74.44305 
L 457.197118 75.977547 
L 458.348328 77.89567 
L 458.923932 77.512045 
L 459.499537 75.440473 
L 460.650746 76.361172 
L 461.22635 76.284447 
L 461.801955 76.591347 
L 462.37756 76.130997 
L 462.953164 74.749949 
L 463.528769 75.670648 
L 464.104373 75.210298 
L 464.679978 75.747373 
L 465.255582 73.82925 
L 465.831187 77.281871 
L 466.406792 75.440473 
L 466.982396 75.210298 
L 468.133605 75.670648 
L 468.70921 76.821521 
L 469.284814 74.519774 
L 469.860419 77.051696 
L 470.436024 73.905975 
L 471.011628 73.522351 
L 471.587233 73.368901 
L 472.162837 74.596499 
L 472.738442 72.985277 
L 473.314047 73.599076 
L 473.889651 71.604228 
L 474.465256 75.363748 
L 475.04086 75.056849 
L 475.616465 72.908552 
L 476.192069 74.980124 
L 476.767674 72.831827 
L 477.343279 72.985277 
L 477.918883 73.675801 
L 478.494488 74.673224 
L 479.070092 74.212875 
L 479.645697 74.980124 
L 480.221301 75.287023 
L 480.796906 70.146455 
L 481.372511 70.606805 
L 481.948115 74.212875 
L 482.52372 71.911128 
L 483.099324 71.143879 
L 483.674929 72.141303 
L 484.250533 71.604228 
L 484.826138 73.522351 
L 485.401743 72.601652 
L 485.977347 74.2896 
L 486.552952 70.146456 
L 487.128556 71.911128 
L 487.704161 70.22318 
L 488.279765 71.220604 
L 488.85537 73.062001 
L 489.430975 74.366325 
L 490.006579 69.916281 
L 491.157788 72.218028 
L 491.733393 69.839556 
L 492.308998 71.604228 
L 492.884602 70.069731 
L 493.460207 73.138726 
L 494.035811 68.765407 
L 494.611416 71.374054 
L 495.18702 71.604228 
L 495.762625 71.527504 
L 496.33823 71.067154 
L 496.913834 69.302482 
L 497.489439 71.527504 
L 498.065043 72.755102 
L 498.640648 69.839556 
L 499.216252 68.151608 
L 499.791857 68.995582 
L 500.367462 70.069731 
L 500.943066 67.998158 
L 501.518671 69.302482 
L 502.094275 68.995582 
L 502.66988 69.993006 
L 503.245484 70.606805 
L 503.821089 70.299905 
L 504.396694 70.37663 
L 504.972298 68.458508 
L 505.547903 69.609381 
L 506.123507 68.074883 
L 506.699112 68.074883 
L 507.274717 70.299905 
L 507.850321 67.844709 
L 508.425926 69.149032 
L 509.00153 67.921434 
L 509.577135 70.22318 
L 510.152739 68.381783 
L 510.728344 67.921434 
L 511.303949 67.307634 
L 511.879553 68.458508 
L 512.455158 66.847285 
L 513.030762 67.384359 
L 513.606367 68.228333 
L 514.181971 67.691259 
L 514.757576 67.921434 
L 515.333181 66.386936 
L 515.908785 66.463661 
L 516.48439 68.918857 
L 517.059994 70.146456 
L 517.635599 65.466237 
L 518.211203 66.540386 
L 518.786808 66.77056 
L 519.362413 68.611958 
L 519.938017 66.386936 
L 520.513622 67.307634 
L 521.089226 67.384359 
L 521.664831 66.540386 
L 522.240435 68.074883 
L 522.81604 66.77056 
L 523.391645 65.773137 
L 523.967249 66.92401 
L 524.542854 67.461084 
L 525.118458 66.003311 
L 525.694063 67.07746 
L 526.269668 65.082613 
L 526.845272 67.691259 
L 527.420877 67.07746 
L 527.996481 66.156761 
L 528.572086 67.537809 
L 529.14769 66.080036 
L 529.723295 68.305058 
L 530.2989 65.619687 
L 531.450109 66.77056 
L 532.025713 66.156761 
L 532.601318 64.622263 
L 533.176922 66.61711 
L 533.752527 65.005888 
L 534.328132 64.545538 
L 534.903736 65.082613 
L 535.479341 65.159337 
L 536.054945 64.545538 
L 536.63055 65.159337 
L 537.206154 66.080036 
L 537.781759 64.852438 
L 538.357364 64.852438 
L 538.932968 65.389512 
L 539.508573 63.01104 
L 540.084177 63.01104 
L 540.659782 65.926586 
L 541.235387 64.468813 
L 541.810991 64.622263 
L 542.386596 63.855014 
L 542.9622 65.849861 
L 543.537805 63.16449 
L 544.113409 63.087765 
L 544.689014 65.389512 
L 545.264619 64.238639 
L 545.840223 64.775713 
L 546.415828 63.778289 
L 546.991432 64.545538 
L 547.567037 63.855014 
L 548.142641 64.085189 
L 548.718246 62.397241 
L 549.293851 64.161914 
L 549.869455 63.62484 
L 550.44506 63.241215 
L 551.020664 64.085189 
L 551.596269 63.47139 
L 552.171873 63.47139 
L 552.747478 64.622263 
L 553.323083 63.394665 
L 553.898687 63.778289 
L 554.474292 59.55842 
L 555.625501 64.392089 
L 556.77671 63.241215 
L 557.352315 61.323093 
L 557.927919 62.243792 
L 558.503524 62.013617 
L 559.079128 62.780866 
L 559.654733 60.632569 
L 560.230338 62.550691 
L 560.805942 61.936892 
L 561.381547 61.860167 
L 561.957151 61.323093 
L 562.532756 63.16449 
L 563.10836 62.167067 
L 563.683965 61.860167 
L 564.25957 63.47139 
L 564.835174 62.090342 
L 565.410779 62.704141 
L 566.561988 62.473966 
L 567.137592 61.936892 
L 567.713197 61.246368 
L 568.288802 60.862743 
L 568.864406 62.704141 
L 569.440011 60.786019 
L 570.015615 62.397241 
L 570.59122 60.786019 
L 571.166824 61.936892 
L 571.742429 62.320516 
L 572.318034 60.862743 
L 572.893638 62.243792 
L 573.469243 58.330822 
L 574.044847 59.328246 
L 574.620452 60.862743 
L 575.196056 59.788595 
L 575.771661 59.635145 
L 576.347266 61.092918 
L 576.92287 60.01877 
L 577.498475 59.481695 
L 578.074079 60.555844 
L 578.649684 58.791171 
L 579.225289 61.860167 
L 579.800893 59.86532 
L 580.376498 60.479119 
L 580.952102 61.399818 
L 581.527707 60.172219 
L 582.103311 59.942045 
L 582.678916 60.555844 
L 583.254521 58.100647 
L 583.830125 61.323093 
L 584.40573 59.788595 
L 585.556939 59.788595 
L 586.132543 59.40497 
L 586.708148 60.248944 
L 587.283753 58.100647 
L 587.859357 61.092918 
L 588.434962 58.100647 
L 589.010566 58.484272 
L 589.586171 60.01877 
L 590.161775 58.637722 
L 590.73738 59.71187 
L 591.312985 60.325669 
L 591.888589 60.632569 
L 592.464194 58.944621 
L 593.039798 60.402394 
L 593.615403 57.486848 
L 594.191008 58.023922 
L 594.766612 59.71187 
L 595.917821 58.330822 
L 596.493426 59.40497 
L 597.06903 59.71187 
L 597.644635 59.098071 
L 598.22024 59.404971 
L 598.795844 58.023922 
L 599.371449 58.023922 
L 599.947053 57.563573 
L 600.522658 58.407547 
L 601.098262 57.717023 
L 601.673867 57.717023 
L 602.249472 58.177372 
L 602.825076 57.103224 
L 603.400681 58.407547 
L 603.976285 59.174796 
L 604.55189 57.410123 
L 605.703099 57.640298 
L 606.278704 58.407547 
L 606.854308 56.642874 
L 607.429913 58.254097 
L 608.005517 56.949774 
L 608.581122 57.256673 
L 609.156726 57.870473 
L 609.732331 58.254097 
L 610.307936 56.25925 
L 610.88354 58.944621 
L 611.459145 57.256673 
L 612.610354 57.947198 
L 613.185959 57.333398 
L 614.337168 57.333398 
L 614.912772 55.492001 
L 615.488377 55.568726 
L 616.063981 55.95235 
L 616.639586 56.182525 
L 617.215191 55.798901 
L 617.790795 57.026499 
L 618.3664 54.724752 
L 618.942004 56.642874 
L 619.517609 55.568726 
L 620.093213 57.256674 
L 620.668818 57.640298 
L 621.244423 57.026499 
L 621.820027 57.179949 
L 622.395632 55.645451 
L 622.971236 56.335975 
L 623.546841 54.954927 
L 624.122445 55.415276 
L 624.69805 55.722176 
L 625.273655 55.185101 
L 625.849259 55.798901 
L 626.424864 55.95235 
L 627.000468 55.261826 
L 627.576073 56.719599 
L 628.151678 53.957503 
L 628.727282 54.417852 
L 629.302887 56.029075 
L 629.878491 56.25925 
L 631.0297 56.1058 
L 631.605305 54.648027 
L 632.18091 55.722176 
L 632.756514 54.878202 
L 633.332119 56.182525 
L 633.907723 54.417852 
L 634.483328 56.1058 
L 635.058932 54.417852 
L 635.634537 55.645451 
L 636.785746 55.261826 
L 637.361351 54.341128 
L 637.936955 55.185101 
L 638.51256 54.110953 
L 639.663769 56.1058 
L 640.239374 54.110953 
L 640.814978 54.801477 
L 641.390583 55.185101 
L 641.966187 52.960079 
L 642.541792 54.954927 
L 643.117396 53.804053 
L 643.693001 54.648027 
L 644.268606 55.261826 
L 644.84421 52.960079 
L 645.419815 55.261826 
L 645.995419 55.415276 
L 646.571024 53.343704 
L 647.146629 52.729905 
L 647.722233 53.880778 
L 648.297838 54.494577 
L 648.873442 53.190254 
L 649.449047 55.415276 
L 650.024651 54.801477 
L 650.600256 53.650604 
L 651.175861 52.80663 
L 651.751465 54.417852 
L 652.32707 55.415276 
L 652.902674 55.031652 
L 653.478279 53.650604 
L 654.053883 54.034228 
L 654.629488 53.573879 
L 655.205093 53.266979 
L 655.780697 53.497154 
L 656.356302 54.110953 
L 656.931906 53.266979 
L 657.507511 51.118682 
L 658.083115 53.727328 
L 658.65872 52.192831 
L 659.234325 54.494577 
L 659.809929 54.110953 
L 660.385534 54.264403 
L 660.961138 52.883355 
L 661.536743 55.338551 
L 662.112348 52.49973 
L 662.687952 51.962656 
L 663.263557 53.880778 
L 663.839161 50.735058 
L 664.414766 50.581608 
L 664.99037 53.727328 
L 665.565975 52.49973 
L 666.14158 52.883355 
L 666.717184 52.423005 
L 667.292789 52.729905 
L 667.868393 52.192831 
L 668.443998 52.423005 
L 669.019602 52.80663 
L 669.595207 52.423005 
L 670.170812 51.579031 
L 670.746416 51.885931 
L 671.322021 52.80663 
L 671.897625 51.885931 
L 672.47323 51.579031 
L 673.048834 51.732481 
L 673.624439 52.192831 
L 674.200044 53.497154 
L 674.775648 51.502307 
L 675.351253 51.041957 
L 675.926857 52.192831 
L 676.502462 52.96008 
L 677.078066 50.735058 
L 678.229276 51.732481 
L 678.80488 52.039381 
L 679.380485 51.579031 
L 679.956089 51.962656 
L 680.531694 50.121258 
L 681.107299 49.660909 
L 681.682903 51.502307 
L 682.258508 52.49973 
L 682.258508 52.49973 
" style="fill:none;stroke:#4c72b0;stroke-linecap:round;stroke-width:1.5;"/>
   </g>
   <g id="line2d_12">
    <path clip-path="url(#p505f6324d4)" d="M 107.229536 609.837693 
L 107.805141 571.172619 
L 108.380745 554.295007 
L 108.95635 528.518291 
L 110.683164 487.091426 
L 111.258768 449.96068 
L 111.834373 458.552918 
L 112.409977 447.81262 
L 113.561186 410.375009 
L 114.136791 419.887845 
L 114.712396 401.78277 
L 115.288 405.465158 
L 115.863605 391.963069 
L 116.439209 409.761277 
L 117.014814 391.656203 
L 117.590418 387.053218 
L 118.166023 385.825755 
L 118.741628 370.789338 
L 119.317232 373.857995 
L 119.892837 364.345158 
L 120.468441 358.821576 
L 121.044046 366.186352 
L 121.61965 363.117696 
L 122.195255 355.446054 
L 122.77086 362.81083 
L 123.346464 352.377397 
L 123.922069 356.059785 
L 124.497673 341.330234 
L 125.073278 345.626353 
L 125.648882 336.113517 
L 126.224487 333.965457 
L 126.800092 336.420383 
L 127.375696 331.817398 
L 127.951301 328.748741 
L 128.526905 333.658592 
L 129.10251 318.315308 
L 129.678115 324.145756 
L 130.253719 318.008443 
L 130.829324 321.997696 
L 131.404928 327.521278 
L 131.980533 322.918293 
L 132.556137 320.770234 
L 133.131742 302.358294 
L 133.707347 317.087846 
L 134.282951 303.278891 
L 134.858556 299.289637 
L 135.43416 308.188741 
L 136.009765 301.744563 
L 136.585369 299.289637 
L 137.160974 307.57501 
L 137.736579 300.517099 
L 138.312183 294.993518 
L 138.887788 298.36904 
L 139.463392 295.300384 
L 140.038997 300.823966 
L 140.614601 298.062175 
L 141.190206 291.924861 
L 141.765811 294.379787 
L 142.91702 284.560086 
L 143.492624 285.480682 
L 144.068229 294.379787 
L 144.643834 283.332623 
L 145.219438 279.343369 
L 145.795043 274.433518 
L 146.370647 275.967847 
L 146.946252 280.263966 
L 147.521856 277.502175 
L 148.097461 273.819787 
L 148.673066 272.592325 
L 149.24867 275.967846 
L 149.824275 272.899189 
L 150.399879 276.274713 
L 150.975484 273.512921 
L 152.126693 278.729637 
L 152.702298 267.682474 
L 153.277902 266.455011 
L 153.853507 272.285458 
L 154.429111 273.206055 
L 155.004716 274.433519 
L 155.58032 263.693219 
L 156.155925 271.978592 
L 156.73153 278.422772 
L 157.307134 264.920682 
L 157.882739 269.216802 
L 158.458343 263.693219 
L 159.033948 270.75113 
L 159.609552 264.920683 
L 160.185157 271.671728 
L 160.760762 257.862772 
L 161.336366 260.010831 
L 161.911971 255.714713 
L 162.487575 257.555906 
L 163.06318 266.148146 
L 163.638785 258.783369 
L 164.789994 258.169638 
L 165.941203 253.873518 
L 166.516807 255.407846 
L 167.092412 258.476504 
L 167.668017 257.862772 
L 168.243621 255.407847 
L 168.819226 256.328444 
L 169.39483 249.577398 
L 169.970435 255.100981 
L 170.546039 251.418593 
L 171.121644 251.725459 
L 171.697249 254.48725 
L 172.272853 253.873518 
L 172.848458 256.942175 
L 173.424062 249.270533 
L 173.999667 256.63531 
L 174.575271 248.349937 
L 175.150876 248.349936 
L 175.726481 247.736205 
L 176.302085 248.043071 
L 176.87769 247.122473 
L 177.453294 258.78337 
L 178.028899 249.884265 
L 178.604503 244.667549 
L 179.180108 249.577399 
L 179.755713 243.746951 
L 180.331317 247.42934 
L 180.906922 242.826354 
L 181.482526 248.963668 
L 182.058131 252.33919 
L 182.633736 246.508743 
L 183.20934 246.815608 
L 183.784945 248.349936 
L 184.360549 248.656803 
L 184.936154 246.815607 
L 185.511758 244.360682 
L 186.662968 248.04307 
L 187.238572 243.133219 
L 187.814177 243.13322 
L 188.389781 240.371428 
L 188.965386 247.122473 
L 189.54099 240.371429 
L 190.116595 246.201877 
L 190.6922 235.768444 
L 191.267804 237.609638 
L 191.843409 233.927249 
L 192.419013 234.540981 
L 192.994618 238.8371 
L 193.570222 241.598891 
L 194.145827 240.064563 
L 194.721432 236.382175 
L 195.297036 242.519489 
L 195.872641 239.450831 
L 196.448245 237.302772 
L 197.02385 238.530235 
L 197.599455 237.916504 
L 198.175059 237.609638 
L 198.750664 237.609638 
L 199.326268 239.450833 
L 199.901873 234.847847 
L 200.477477 233.006652 
L 201.053082 230.551728 
L 201.628687 234.540981 
L 202.204291 236.689041 
L 202.779896 231.77919 
L 203.3555 234.234116 
L 203.931105 235.154712 
L 204.506709 238.530234 
L 205.082314 234.540981 
L 205.657919 235.461578 
L 206.233523 234.234116 
L 206.809128 233.313518 
L 207.384732 235.154713 
L 207.960337 233.927249 
L 208.535941 232.392922 
L 209.111546 236.382175 
L 209.687151 235.154713 
L 210.262755 230.858594 
L 210.83836 229.631131 
L 211.413964 236.07531 
L 211.989569 235.768445 
L 212.565173 234.234116 
L 213.140778 234.234115 
L 213.716383 233.006652 
L 214.291987 233.92725 
L 214.867592 230.858593 
L 215.443196 231.472324 
L 216.018801 230.551727 
L 216.594406 229.017399 
L 217.17001 231.77919 
L 218.896824 225.641877 
L 219.472428 229.631131 
L 220.048033 232.392921 
L 220.623638 230.244861 
L 221.199242 230.551728 
L 221.774847 229.324264 
L 222.350451 231.77919 
L 222.926056 226.86934 
L 223.50166 226.869339 
L 224.077265 227.789936 
L 224.65287 221.652623 
L 225.228474 226.86934 
L 225.804079 229.017399 
L 226.379683 226.86934 
L 226.955288 225.948743 
L 227.530892 226.562474 
L 228.106497 225.948743 
L 228.682102 232.392922 
L 229.257706 215.822176 
L 229.833311 223.800683 
L 230.408915 221.345758 
L 230.98452 226.869339 
L 231.560125 227.789937 
L 232.135729 225.641876 
L 232.711334 226.869339 
L 233.286938 226.86934 
L 233.862543 227.176205 
L 234.438147 225.335011 
L 235.013752 229.017399 
L 235.589357 222.266354 
L 236.164961 225.641877 
L 236.740566 226.255608 
L 237.31617 226.562474 
L 237.891775 223.800683 
L 238.467379 226.255609 
L 239.042984 223.800683 
L 239.618589 225.641877 
L 240.194193 222.880086 
L 240.769798 224.721279 
L 241.345402 225.028146 
L 241.921007 223.186952 
L 242.496611 225.028146 
L 243.072216 220.732026 
L 243.647821 220.732026 
L 244.223425 223.186951 
L 244.79903 222.57322 
L 245.374634 218.890833 
L 245.950239 222.266355 
L 246.525843 221.652623 
L 247.101448 221.345758 
L 247.677053 220.732027 
L 248.252657 219.197698 
L 248.828262 221.959489 
L 249.403866 225.335011 
L 249.979471 221.652623 
L 250.555076 218.890832 
L 251.13068 218.277101 
L 251.706285 220.425161 
L 252.281889 218.890832 
L 252.857494 222.573221 
L 253.433098 221.959489 
L 254.584308 219.504563 
L 255.159912 220.118295 
L 255.735517 225.028146 
L 256.311121 216.742772 
L 256.886726 216.742772 
L 257.46233 219.504563 
L 258.037935 217.356504 
L 258.61354 219.197697 
L 259.189144 219.197698 
L 259.764749 220.118294 
L 260.340353 220.425161 
L 260.915958 217.049639 
L 261.491562 211.219191 
L 262.642772 219.81143 
L 263.218376 217.356504 
L 263.793981 218.583967 
L 264.369585 216.742772 
L 264.94519 221.345757 
L 265.520795 216.742772 
L 266.096399 221.038892 
L 266.672004 216.129042 
L 267.247608 216.435907 
L 267.823213 215.208445 
L 268.398817 216.742772 
L 268.974422 212.753519 
L 269.550027 215.822175 
L 270.125631 214.901578 
L 270.701236 219.197698 
L 271.27684 215.822175 
L 271.852445 214.901578 
L 273.003654 217.970235 
L 273.579259 215.208444 
L 274.154863 216.742772 
L 274.730468 213.674116 
L 275.306072 214.287848 
L 275.881677 213.367251 
L 276.457281 217.049639 
L 277.032886 217.66337 
L 277.608491 215.515309 
L 278.184095 212.753519 
L 278.7597 213.674116 
L 279.335304 213.060385 
L 279.910909 213.980982 
L 281.062118 215.208444 
L 281.637723 212.753519 
L 282.213327 211.832922 
L 282.788932 213.36725 
L 283.364536 213.980982 
L 283.940141 216.129041 
L 284.515746 213.674116 
L 285.09135 212.753519 
L 285.666955 211.526057 
L 286.242559 211.832922 
L 286.818164 210.912325 
L 287.393768 212.446654 
L 287.969373 212.753519 
L 288.544978 212.446653 
L 289.120582 212.446653 
L 289.696187 211.21919 
L 290.271791 211.219191 
L 290.847396 211.832922 
L 291.423 213.36725 
L 291.998605 211.21919 
L 292.57421 207.229937 
L 293.149814 213.367251 
L 293.725419 211.526056 
L 294.301023 211.832922 
L 295.452232 209.991728 
L 296.027837 213.060384 
L 296.603442 208.4574 
L 297.179046 208.4574 
L 297.754651 210.605459 
L 298.330255 209.377996 
L 298.90586 208.457399 
L 299.481464 209.991728 
L 300.057069 212.753519 
L 300.632674 207.843668 
L 301.208278 209.991728 
L 301.783883 206.309339 
L 302.359487 212.139788 
L 302.935092 208.764266 
L 303.510697 206.616206 
L 304.086301 208.764266 
L 304.661906 209.991728 
L 305.23751 210.298594 
L 305.813115 210.298594 
L 306.388719 211.21919 
L 306.964324 211.21919 
L 307.539929 210.298594 
L 308.115533 205.695609 
L 308.691138 206.002475 
L 309.266742 206.923072 
L 309.842347 209.991728 
L 310.993556 206.616205 
L 311.569161 210.60546 
L 312.72037 208.150534 
L 313.295974 208.764265 
L 314.447183 204.468146 
L 315.022788 209.377997 
L 315.598393 202.933818 
L 316.173997 207.843668 
L 316.749602 205.081878 
L 317.325206 206.309339 
L 317.900811 209.684862 
L 318.476416 206.923071 
L 319.05202 207.536802 
L 319.627625 206.002474 
L 320.203229 205.388743 
L 320.778834 205.695609 
L 321.354438 206.616205 
L 321.930043 203.240683 
L 322.505648 203.240683 
L 323.081252 207.843669 
L 324.232461 205.081877 
L 324.808066 203.854415 
L 325.38367 203.854415 
L 325.959275 204.161281 
L 326.53488 203.240684 
L 327.110484 204.468146 
L 327.686089 207.843669 
L 328.261693 203.854414 
L 328.837298 206.30934 
L 329.412902 206.002474 
L 329.988507 205.388743 
L 330.564112 202.933818 
L 331.139716 205.695609 
L 331.715321 202.933818 
L 332.290925 201.39949 
L 332.86653 200.478893 
L 333.442134 205.388743 
L 334.017739 203.854415 
L 334.593344 207.843668 
L 335.168948 204.468146 
L 335.744553 202.320086 
L 336.320157 201.706355 
L 336.895762 207.229936 
L 337.471367 203.240683 
L 338.046971 201.706355 
L 338.622576 202.320086 
L 339.19818 201.092624 
L 339.773785 201.39949 
L 340.349389 201.399489 
L 341.500599 203.240684 
L 342.076203 206.002474 
L 342.651808 201.092623 
L 343.227412 198.637698 
L 343.803017 201.39949 
L 344.378621 201.092624 
L 344.954226 201.092623 
L 345.529831 198.330832 
L 346.105435 202.013221 
L 346.68104 202.320086 
L 347.256644 200.478892 
L 347.832249 200.785758 
L 348.407853 199.558295 
L 348.983458 197.410235 
L 349.559063 200.785758 
L 350.134667 202.013221 
L 350.710272 200.785758 
L 351.285876 198.637699 
L 351.861481 206.30934 
L 352.437086 201.092623 
L 353.588295 197.10337 
L 354.163899 202.933818 
L 354.739504 200.478892 
L 355.315108 202.626952 
L 355.890713 202.01322 
L 356.466318 201.706355 
L 357.041922 194.955311 
L 357.617527 198.944564 
L 358.193131 198.637698 
L 358.768736 204.16128 
L 359.34434 199.251429 
L 359.919945 202.320086 
L 360.49555 198.330833 
L 361.071154 202.626952 
L 361.646759 198.944564 
L 362.222363 200.785758 
L 362.797968 201.399489 
L 363.373572 198.023966 
L 363.949177 200.478892 
L 364.524782 199.251429 
L 365.100386 199.251429 
L 365.675991 196.182773 
L 366.251595 197.410235 
L 366.8272 199.558295 
L 367.402804 198.637699 
L 367.978409 200.478893 
L 368.554014 197.410235 
L 369.129618 196.796503 
L 369.705223 197.103369 
L 370.280827 194.648444 
L 370.856432 198.330833 
L 371.432037 197.717101 
L 372.007641 194.955311 
L 372.583246 195.875907 
L 373.15885 194.955311 
L 373.734455 196.182773 
L 374.310059 199.251429 
L 374.885664 197.410236 
L 375.461269 196.489639 
L 376.036873 198.637699 
L 376.612478 195.569042 
L 377.188082 199.558296 
L 378.339291 194.95531 
L 378.914896 196.796504 
L 380.066105 197.410235 
L 380.64171 194.648445 
L 381.217314 195.569042 
L 381.792919 194.955311 
L 382.368523 195.262176 
L 382.944128 196.796505 
L 383.519733 199.558295 
L 384.095337 197.717101 
L 384.670942 193.420982 
L 385.246546 194.341579 
L 385.822151 192.80725 
L 386.397756 195.875908 
L 386.97336 194.95531 
L 387.548965 197.717101 
L 388.124569 195.262175 
L 388.700174 199.251429 
L 389.275778 196.489638 
L 389.851383 191.886654 
L 390.426988 193.727847 
L 391.002592 193.727847 
L 391.578197 195.569041 
L 392.153801 196.796505 
L 392.729406 192.19352 
L 393.30501 190.659191 
L 393.880615 193.727847 
L 394.45622 193.727848 
L 395.031824 194.648444 
L 395.607429 194.034713 
L 396.183033 199.25143 
L 396.758638 196.489639 
L 397.909847 192.500385 
L 398.485452 193.420981 
L 399.061056 193.727847 
L 399.636661 191.886654 
L 400.212265 195.262176 
L 400.78787 191.272923 
L 401.363474 194.648445 
L 401.939079 191.579788 
L 402.514684 190.966056 
L 403.090288 195.262176 
L 403.665893 194.341579 
L 404.241497 194.341578 
L 404.817102 195.875908 
L 405.392707 195.875907 
L 405.968311 190.659191 
L 406.543916 191.886653 
L 407.11952 193.727847 
L 407.695125 191.886654 
L 408.270729 193.114116 
L 408.846334 198.637698 
L 409.421939 192.19352 
L 409.997543 193.114116 
L 410.573148 196.489638 
L 411.148752 191.886654 
L 411.724357 195.875908 
L 412.299961 190.659191 
L 412.875566 190.659191 
L 413.451171 197.10337 
L 414.026775 193.420982 
L 414.60238 193.114116 
L 415.177984 195.262176 
L 415.753589 192.807251 
L 416.329193 192.807251 
L 416.904798 197.717101 
L 417.480403 193.727847 
L 418.056007 192.193519 
L 418.631612 192.80725 
L 419.207216 192.807251 
L 419.782821 188.817997 
L 420.358426 192.807251 
L 420.93403 190.045459 
L 421.509635 193.114117 
L 422.085239 191.272923 
L 422.660844 190.966056 
L 423.236448 195.262175 
L 423.812053 193.114117 
L 424.387658 193.420982 
L 424.963262 192.807251 
L 425.538867 193.727847 
L 426.114471 192.500385 
L 426.690076 197.10337 
L 427.26568 193.727848 
L 427.841285 193.420982 
L 428.41689 195.262176 
L 428.992494 189.124863 
L 429.568099 189.738594 
L 430.719308 194.648444 
L 431.294912 194.034714 
L 431.870517 190.65919 
L 432.446122 190.045459 
L 433.021726 190.659191 
L 433.597331 194.95531 
L 434.172935 192.500385 
L 434.74854 193.114116 
L 435.324144 190.04546 
L 435.899749 192.193519 
L 436.475354 193.420982 
L 437.050958 189.124863 
L 437.626563 191.272923 
L 438.202167 190.659191 
L 438.777772 194.95531 
L 439.353377 193.420982 
L 439.928981 190.659191 
L 440.504586 188.817997 
L 441.655795 193.420982 
L 442.231399 188.511131 
L 442.807004 194.648445 
L 443.382609 191.886654 
L 443.958213 187.8974 
L 444.533818 189.738594 
L 445.109422 192.500385 
L 445.685027 189.431729 
L 446.260631 190.04546 
L 446.836236 188.511132 
L 447.411841 192.500384 
L 447.987445 191.886653 
L 448.56305 188.204265 
L 449.138654 190.352325 
L 449.714259 189.124863 
L 450.289863 191.272923 
L 450.865468 192.500385 
L 451.441073 188.204265 
L 452.016677 192.500385 
L 452.592282 190.966057 
L 453.167886 188.817997 
L 453.743491 190.352326 
L 454.319095 192.500385 
L 454.8947 190.04546 
L 455.470305 190.352326 
L 456.045909 188.511131 
L 456.621514 189.431728 
L 458.348328 193.727848 
L 458.923932 190.966056 
L 459.499537 192.193519 
L 460.075141 188.204265 
L 460.650746 191.886654 
L 461.22635 190.966057 
L 461.801955 192.500384 
L 462.37756 190.966057 
L 462.953164 190.04546 
L 463.528769 190.659191 
L 464.104373 186.056206 
L 464.679978 190.352326 
L 465.255582 189.738594 
L 465.831187 193.420982 
L 466.406792 194.341579 
L 466.982396 189.738594 
L 467.558001 187.8974 
L 468.133605 191.272923 
L 468.70921 190.352325 
L 469.284814 191.579788 
L 469.860419 193.114116 
L 470.436024 186.669937 
L 471.011628 187.283668 
L 471.587233 189.738594 
L 472.162837 190.352325 
L 472.738442 192.19352 
L 473.314047 192.80725 
L 473.889651 190.659191 
L 474.465256 190.659191 
L 475.04086 188.204265 
L 475.616465 191.886654 
L 476.192069 190.045459 
L 476.767674 190.659191 
L 477.918883 186.056205 
L 478.494488 191.579788 
L 479.070092 187.590534 
L 479.645697 188.511132 
L 480.221301 190.659191 
L 480.796906 190.045459 
L 481.372511 190.966057 
L 481.948115 190.352326 
L 482.52372 189.431728 
L 483.099324 191.579788 
L 483.674929 189.124863 
L 484.826138 190.966056 
L 485.401743 190.04546 
L 485.977347 187.897399 
L 486.552952 190.352325 
L 487.128556 189.738593 
L 487.704161 188.511131 
L 488.279765 188.817997 
L 488.85537 193.420982 
L 489.430975 190.045459 
L 490.006579 190.659191 
L 490.582184 192.807251 
L 491.157788 190.045459 
L 491.733393 191.886653 
L 492.308998 188.204266 
L 492.884602 190.352326 
L 493.460207 189.124863 
L 494.035811 188.511132 
L 494.611416 187.590535 
L 495.18702 192.500385 
L 495.762625 188.204265 
L 496.33823 189.431728 
L 496.913834 190.352326 
L 497.489439 190.966057 
L 498.065043 191.272922 
L 498.640648 190.04546 
L 499.216252 190.045459 
L 499.791857 190.352325 
L 500.367462 187.897399 
L 500.943066 188.511131 
L 501.518671 188.817997 
L 502.094275 188.511132 
L 502.66988 190.966057 
L 503.245484 190.352325 
L 503.821089 187.590534 
L 504.396694 189.431729 
L 504.972298 189.124862 
L 505.547903 191.579788 
L 506.123507 188.817997 
L 506.699112 185.442475 
L 507.274717 190.352326 
L 507.850321 188.817997 
L 508.425926 190.352326 
L 509.00153 189.431729 
L 509.577135 190.65919 
L 510.152739 190.352325 
L 510.728344 187.8974 
L 511.303949 189.738594 
L 511.879553 188.817997 
L 512.455158 188.817997 
L 513.030762 191.579788 
L 513.606367 186.363072 
L 514.181971 191.886654 
L 514.757576 187.590535 
L 515.333181 190.659191 
L 515.908785 189.124863 
L 516.48439 188.511132 
L 517.059994 189.738594 
L 517.635599 188.204265 
L 518.211203 188.817997 
L 518.786808 189.738594 
L 519.362413 189.124862 
L 519.938017 186.363072 
L 520.513622 189.431729 
L 521.089226 191.579788 
L 521.664831 187.8974 
L 522.240435 189.431728 
L 522.81604 189.738594 
L 523.391645 187.590535 
L 523.967249 188.204266 
L 524.542854 187.590535 
L 525.118458 187.8974 
L 525.694063 188.511131 
L 526.269668 186.976803 
L 526.845272 188.511132 
L 527.420877 187.590534 
L 527.996481 190.352325 
L 528.572086 188.204265 
L 529.14769 187.590534 
L 529.723295 188.511132 
L 530.2989 190.04546 
L 530.874504 186.669938 
L 532.025713 188.511131 
L 532.601318 189.124863 
L 533.176922 186.976802 
L 533.752527 188.204266 
L 534.328132 187.590534 
L 534.903736 188.204265 
L 535.479341 187.590535 
L 536.054945 187.8974 
L 537.206154 189.124862 
L 538.932968 186.363071 
L 540.084177 185.74934 
L 540.659782 186.363071 
L 541.235387 187.8974 
L 541.810991 186.976803 
L 542.386596 187.283669 
L 542.9622 187.283668 
L 543.537805 187.590535 
L 544.113409 187.590535 
L 544.689014 189.431729 
L 545.264619 186.976803 
L 545.840223 186.669938 
L 546.415828 185.749341 
L 546.991432 185.442475 
L 548.142641 187.283669 
L 548.718246 186.669937 
L 549.293851 187.590534 
L 549.869455 185.749341 
L 550.44506 187.590535 
L 551.020664 188.204265 
L 551.596269 184.215012 
L 552.171873 187.8974 
L 552.747478 187.8974 
L 553.323083 190.04546 
L 553.898687 186.976803 
L 554.474292 187.8974 
L 555.049896 187.283669 
L 555.625501 188.817997 
L 556.201105 186.669938 
L 556.77671 186.363071 
L 557.352315 188.511132 
L 557.927919 189.431728 
L 558.503524 186.669937 
L 559.079128 188.511132 
L 559.654733 187.590535 
L 560.230338 188.817996 
L 560.805942 185.74934 
L 561.381547 187.283669 
L 561.957151 187.283669 
L 562.532756 186.363071 
L 563.10836 185.74934 
L 563.683965 187.590535 
L 564.25957 187.283668 
L 564.835174 187.283669 
L 565.410779 190.352325 
L 565.986383 186.976803 
L 566.561988 187.590534 
L 567.137592 186.056206 
L 567.713197 189.124862 
L 568.288802 187.590535 
L 568.864406 187.283668 
L 569.440011 186.669938 
L 570.015615 185.74934 
L 570.59122 186.669937 
L 571.166824 187.8974 
L 571.742429 190.352326 
L 572.318034 189.738594 
L 572.893638 189.431728 
L 573.469243 188.817997 
L 574.044847 187.8974 
L 574.620452 187.590535 
L 575.196056 190.352326 
L 575.771661 188.511132 
L 576.347266 189.738594 
L 576.92287 186.056206 
L 578.074079 188.511131 
L 578.649684 185.749341 
L 579.225289 187.283669 
L 579.800893 187.590534 
L 580.376498 187.283668 
L 580.952102 184.828744 
L 581.527707 187.590535 
L 582.103311 191.886653 
L 582.678916 187.283668 
L 583.254521 185.442474 
L 583.830125 186.056205 
L 584.40573 188.511132 
L 584.981334 188.511132 
L 585.556939 188.204266 
L 586.132543 189.124863 
L 586.708148 188.511131 
L 587.283753 187.590534 
L 587.859357 186.363071 
L 588.434962 186.669937 
L 589.010566 187.8974 
L 589.586171 187.590535 
L 590.161775 185.74934 
L 590.73738 187.8974 
L 591.312985 186.363071 
L 591.888589 187.8974 
L 592.464194 185.135609 
L 593.039798 187.590535 
L 593.615403 187.283669 
L 594.191008 188.511131 
L 594.766612 186.669937 
L 595.342217 187.8974 
L 595.917821 186.363072 
L 596.493426 185.74934 
L 597.06903 185.74934 
L 598.22024 188.204265 
L 598.795844 185.74934 
L 599.371449 188.817996 
L 599.947053 184.521878 
L 600.522658 187.8974 
L 601.098262 186.056206 
L 601.673867 187.590535 
L 602.249472 187.590534 
L 602.825076 188.511131 
L 603.400681 185.135609 
L 603.976285 185.74934 
L 604.55189 187.590534 
L 605.127494 185.135608 
L 605.703099 186.056205 
L 606.278704 185.442475 
L 606.854308 186.363072 
L 607.429913 186.669937 
L 608.005517 186.056205 
L 608.581122 186.363071 
L 609.156726 188.511132 
L 609.732331 186.976803 
L 610.307936 190.04546 
L 610.88354 187.283668 
L 611.459145 187.283669 
L 612.034749 186.976803 
L 612.610354 188.511131 
L 613.185959 187.8974 
L 613.761563 185.442475 
L 614.337168 188.204265 
L 615.488377 186.363071 
L 616.639586 187.590534 
L 617.215191 186.669938 
L 617.790795 188.204266 
L 618.3664 187.590535 
L 618.942004 187.590534 
L 619.517609 188.511131 
L 620.093213 187.590534 
L 620.668818 189.431729 
L 621.244423 186.363071 
L 621.820027 186.363071 
L 622.395632 184.215012 
L 622.971236 187.590534 
L 623.546841 186.056205 
L 624.122445 188.511132 
L 624.69805 186.363071 
L 625.273655 186.056206 
L 625.849259 183.908147 
L 627.000468 187.8974 
L 627.576073 185.74934 
L 628.151678 186.056205 
L 628.727282 187.8974 
L 629.302887 190.352326 
L 629.878491 187.8974 
L 630.454096 186.363071 
L 631.0297 188.204265 
L 631.605305 186.363072 
L 632.18091 186.056206 
L 632.756514 184.828743 
L 633.332119 187.590535 
L 633.907723 187.283668 
L 634.483328 187.283668 
L 635.058932 186.056205 
L 635.634537 186.363071 
L 636.210142 187.590534 
L 637.361351 187.590535 
L 637.936955 188.204265 
L 638.51256 186.669937 
L 639.088164 186.976803 
L 639.663769 187.590534 
L 640.239374 189.124862 
L 640.814978 186.669938 
L 641.390583 186.056206 
L 641.966187 188.204265 
L 642.541792 185.74934 
L 643.117396 187.8974 
L 643.693001 185.442474 
L 644.268606 187.8974 
L 644.84421 185.135609 
L 645.995419 188.511132 
L 647.146629 184.828744 
L 647.722233 185.442474 
L 648.297838 185.442475 
L 648.873442 186.056205 
L 649.449047 185.135609 
L 650.024651 183.601281 
L 650.600256 183.294415 
L 651.175861 187.8974 
L 651.751465 187.590534 
L 652.32707 187.8974 
L 652.902674 182.680683 
L 653.478279 184.521877 
L 654.053883 187.590535 
L 654.629488 188.817997 
L 655.205093 184.521877 
L 655.780697 186.363072 
L 656.356302 186.976802 
L 656.931906 187.283669 
L 657.507511 185.749341 
L 658.083115 187.283668 
L 658.65872 185.442475 
L 659.234325 187.8974 
L 659.809929 185.442475 
L 660.385534 185.749341 
L 660.961138 185.74934 
L 661.536743 184.828743 
L 662.112348 186.669938 
L 663.263557 186.669937 
L 664.414766 184.215011 
L 664.99037 185.74934 
L 666.717184 187.590534 
L 667.292789 187.590534 
L 667.868393 183.601281 
L 668.443998 183.908147 
L 669.019602 185.135609 
L 669.595207 187.283668 
L 670.170812 186.056205 
L 670.746416 184.521878 
L 671.322021 186.363071 
L 671.897625 184.828743 
L 672.47323 188.204265 
L 673.048834 186.056205 
L 673.624439 188.204266 
L 674.200044 184.521877 
L 674.775648 184.215011 
L 675.351253 187.283669 
L 675.926857 185.749341 
L 676.502462 186.056206 
L 677.078066 183.908146 
L 677.653671 186.363071 
L 678.229276 187.590534 
L 678.80488 185.135608 
L 679.380485 184.215012 
L 679.956089 184.828744 
L 680.531694 186.363072 
L 681.107299 190.659191 
L 681.682903 186.976803 
L 682.258508 186.669938 
L 682.258508 186.669938 
" style="fill:none;stroke:#dd8452;stroke-linecap:round;stroke-width:1.5;"/>
   </g>
   <g id="line2d_13"/>
   <g id="line2d_14"/>
   <g id="line2d_15"/>
   <g id="patch_3">
    <path d="M 78.478087 665.148 
L 78.478087 20.352 
" style="fill:none;stroke:#cccccc;stroke-linecap:square;stroke-linejoin:miter;"/>
   </g>
   <g id="patch_4">
    <path d="M 78.478087 665.148 
L 711.009956 665.148 
" style="fill:none;stroke:#cccccc;stroke-linecap:square;stroke-linejoin:miter;"/>
   </g>
  </g>
  <g id="text_13">
   <!-- Model C - Training &amp; validation accuracy vs. epoch -->
   <defs>
    <path d="M 9.8125 72.90625 
L 24.515625 72.90625 
L 43.109375 23.296875 
L 61.8125 72.90625 
L 76.515625 72.90625 
L 76.515625 0 
L 66.890625 0 
L 66.890625 64.015625 
L 48.09375 14.015625 
L 38.1875 14.015625 
L 19.390625 64.015625 
L 19.390625 0 
L 9.8125 0 
z
" id="DejaVuSans-4d"/>
    <path d="M 45.40625 46.390625 
L 45.40625 75.984375 
L 54.390625 75.984375 
L 54.390625 0 
L 45.40625 0 
L 45.40625 8.203125 
Q 42.578125 3.328125 38.25 0.953125 
Q 33.9375 -1.421875 27.875 -1.421875 
Q 17.96875 -1.421875 11.734375 6.484375 
Q 5.515625 14.40625 5.515625 27.296875 
Q 5.515625 40.1875 11.734375 48.09375 
Q 17.96875 56 27.875 56 
Q 33.9375 56 38.25 53.625 
Q 42.578125 51.265625 45.40625 46.390625 
z
M 14.796875 27.296875 
Q 14.796875 17.390625 18.875 11.75 
Q 22.953125 6.109375 30.078125 6.109375 
Q 37.203125 6.109375 41.296875 11.75 
Q 45.40625 17.390625 45.40625 27.296875 
Q 45.40625 37.203125 41.296875 42.84375 
Q 37.203125 48.484375 30.078125 48.484375 
Q 22.953125 48.484375 18.875 42.84375 
Q 14.796875 37.203125 14.796875 27.296875 
z
" id="DejaVuSans-64"/>
    <path d="M 56.203125 29.59375 
L 56.203125 25.203125 
L 14.890625 25.203125 
Q 15.484375 15.921875 20.484375 11.0625 
Q 25.484375 6.203125 34.421875 6.203125 
Q 39.59375 6.203125 44.453125 7.46875 
Q 49.3125 8.734375 54.109375 11.28125 
L 54.109375 2.78125 
Q 49.265625 0.734375 44.1875 -0.34375 
Q 39.109375 -1.421875 33.890625 -1.421875 
Q 20.796875 -1.421875 13.15625 6.1875 
Q 5.515625 13.8125 5.515625 26.8125 
Q 5.515625 40.234375 12.765625 48.109375 
Q 20.015625 56 32.328125 56 
Q 43.359375 56 49.78125 48.890625 
Q 56.203125 41.796875 56.203125 29.59375 
z
M 47.21875 32.234375 
Q 47.125 39.59375 43.09375 43.984375 
Q 39.0625 48.390625 32.421875 48.390625 
Q 24.90625 48.390625 20.390625 44.140625 
Q 15.875 39.890625 15.1875 32.171875 
z
" id="DejaVuSans-65"/>
    <path d="M 9.421875 75.984375 
L 18.40625 75.984375 
L 18.40625 0 
L 9.421875 0 
z
" id="DejaVuSans-6c"/>
    <path id="DejaVuSans-20"/>
    <path d="M 64.40625 67.28125 
L 64.40625 56.890625 
Q 59.421875 61.53125 53.78125 63.8125 
Q 48.140625 66.109375 41.796875 66.109375 
Q 29.296875 66.109375 22.65625 58.46875 
Q 16.015625 50.828125 16.015625 36.375 
Q 16.015625 21.96875 22.65625 14.328125 
Q 29.296875 6.6875 41.796875 6.6875 
Q 48.140625 6.6875 53.78125 8.984375 
Q 59.421875 11.28125 64.40625 15.921875 
L 64.40625 5.609375 
Q 59.234375 2.09375 53.4375 0.328125 
Q 47.65625 -1.421875 41.21875 -1.421875 
Q 24.65625 -1.421875 15.125 8.703125 
Q 5.609375 18.84375 5.609375 36.375 
Q 5.609375 53.953125 15.125 64.078125 
Q 24.65625 74.21875 41.21875 74.21875 
Q 47.75 74.21875 53.53125 72.484375 
Q 59.328125 70.75 64.40625 67.28125 
z
" id="DejaVuSans-43"/>
    <path d="M 4.890625 31.390625 
L 31.203125 31.390625 
L 31.203125 23.390625 
L 4.890625 23.390625 
z
" id="DejaVuSans-2d"/>
    <path d="M -0.296875 72.90625 
L 61.375 72.90625 
L 61.375 64.59375 
L 35.5 64.59375 
L 35.5 0 
L 25.59375 0 
L 25.59375 64.59375 
L -0.296875 64.59375 
z
" id="DejaVuSans-54"/>
    <path d="M 9.421875 54.6875 
L 18.40625 54.6875 
L 18.40625 0 
L 9.421875 0 
z
M 9.421875 75.984375 
L 18.40625 75.984375 
L 18.40625 64.59375 
L 9.421875 64.59375 
z
" id="DejaVuSans-69"/>
    <path d="M 54.890625 33.015625 
L 54.890625 0 
L 45.90625 0 
L 45.90625 32.71875 
Q 45.90625 40.484375 42.875 44.328125 
Q 39.84375 48.1875 33.796875 48.1875 
Q 26.515625 48.1875 22.3125 43.546875 
Q 18.109375 38.921875 18.109375 30.90625 
L 18.109375 0 
L 9.078125 0 
L 9.078125 54.6875 
L 18.109375 54.6875 
L 18.109375 46.1875 
Q 21.34375 51.125 25.703125 53.5625 
Q 30.078125 56 35.796875 56 
Q 45.21875 56 50.046875 50.171875 
Q 54.890625 44.34375 54.890625 33.015625 
z
" id="DejaVuSans-6e"/>
    <path d="M 45.40625 27.984375 
Q 45.40625 37.75 41.375 43.109375 
Q 37.359375 48.484375 30.078125 48.484375 
Q 22.859375 48.484375 18.828125 43.109375 
Q 14.796875 37.75 14.796875 27.984375 
Q 14.796875 18.265625 18.828125 12.890625 
Q 22.859375 7.515625 30.078125 7.515625 
Q 37.359375 7.515625 41.375 12.890625 
Q 45.40625 18.265625 45.40625 27.984375 
z
M 54.390625 6.78125 
Q 54.390625 -7.171875 48.1875 -13.984375 
Q 42 -20.796875 29.203125 -20.796875 
Q 24.46875 -20.796875 20.265625 -20.09375 
Q 16.0625 -19.390625 12.109375 -17.921875 
L 12.109375 -9.1875 
Q 16.0625 -11.328125 19.921875 -12.34375 
Q 23.78125 -13.375 27.78125 -13.375 
Q 36.625 -13.375 41.015625 -8.765625 
Q 45.40625 -4.15625 45.40625 5.171875 
L 45.40625 9.625 
Q 42.625 4.78125 38.28125 2.390625 
Q 33.9375 0 27.875 0 
Q 17.828125 0 11.671875 7.65625 
Q 5.515625 15.328125 5.515625 27.984375 
Q 5.515625 40.671875 11.671875 48.328125 
Q 17.828125 56 27.875 56 
Q 33.9375 56 38.28125 53.609375 
Q 42.625 51.21875 45.40625 46.390625 
L 45.40625 54.6875 
L 54.390625 54.6875 
z
" id="DejaVuSans-67"/>
    <path d="M 24.3125 39.203125 
Q 19.875 35.25 17.796875 31.3125 
Q 15.71875 27.390625 15.71875 23.09375 
Q 15.71875 15.96875 20.890625 11.234375 
Q 26.078125 6.5 33.890625 6.5 
Q 38.53125 6.5 42.578125 8.03125 
Q 46.625 9.578125 50.203125 12.703125 
z
M 31.203125 44.671875 
L 56 19.28125 
Q 58.890625 23.640625 60.5 28.59375 
Q 62.109375 33.546875 62.40625 39.109375 
L 71.484375 39.109375 
Q 70.90625 32.671875 68.359375 26.359375 
Q 65.828125 20.0625 61.28125 13.921875 
L 74.90625 0 
L 62.59375 0 
L 55.609375 7.171875 
Q 50.53125 2.828125 44.96875 0.703125 
Q 39.40625 -1.421875 33.015625 -1.421875 
Q 21.234375 -1.421875 13.765625 5.296875 
Q 6.296875 12.015625 6.296875 22.515625 
Q 6.296875 28.765625 9.5625 34.25 
Q 12.84375 39.75 19.390625 44.578125 
Q 17.046875 47.65625 15.8125 50.703125 
Q 14.59375 53.765625 14.59375 56.6875 
Q 14.59375 64.59375 20.015625 69.40625 
Q 25.4375 74.21875 34.421875 74.21875 
Q 38.484375 74.21875 42.5 73.34375 
Q 46.53125 72.46875 50.6875 70.703125 
L 50.6875 61.8125 
Q 46.4375 64.109375 42.578125 65.296875 
Q 38.71875 66.5 35.40625 66.5 
Q 30.28125 66.5 27.078125 63.78125 
Q 23.875 61.078125 23.875 56.78125 
Q 23.875 54.296875 25.3125 51.78125 
Q 26.765625 49.265625 31.203125 44.671875 
z
" id="DejaVuSans-26"/>
    <path d="M 2.984375 54.6875 
L 12.5 54.6875 
L 29.59375 8.796875 
L 46.6875 54.6875 
L 56.203125 54.6875 
L 35.6875 0 
L 23.484375 0 
z
" id="DejaVuSans-76"/>
    <path d="M 18.3125 70.21875 
L 18.3125 54.6875 
L 36.8125 54.6875 
L 36.8125 47.703125 
L 18.3125 47.703125 
L 18.3125 18.015625 
Q 18.3125 11.328125 20.140625 9.421875 
Q 21.96875 7.515625 27.59375 7.515625 
L 36.8125 7.515625 
L 36.8125 0 
L 27.59375 0 
Q 17.1875 0 13.234375 3.875 
Q 9.28125 7.765625 9.28125 18.015625 
L 9.28125 47.703125 
L 2.6875 47.703125 
L 2.6875 54.6875 
L 9.28125 54.6875 
L 9.28125 70.21875 
z
" id="DejaVuSans-74"/>
    <path d="M 44.28125 53.078125 
L 44.28125 44.578125 
Q 40.484375 46.53125 36.375 47.5 
Q 32.28125 48.484375 27.875 48.484375 
Q 21.1875 48.484375 17.84375 46.4375 
Q 14.5 44.390625 14.5 40.28125 
Q 14.5 37.15625 16.890625 35.375 
Q 19.28125 33.59375 26.515625 31.984375 
L 29.59375 31.296875 
Q 39.15625 29.25 43.1875 25.515625 
Q 47.21875 21.78125 47.21875 15.09375 
Q 47.21875 7.46875 41.1875 3.015625 
Q 35.15625 -1.421875 24.609375 -1.421875 
Q 20.21875 -1.421875 15.453125 -0.5625 
Q 10.6875 0.296875 5.421875 2 
L 5.421875 11.28125 
Q 10.40625 8.6875 15.234375 7.390625 
Q 20.0625 6.109375 24.8125 6.109375 
Q 31.15625 6.109375 34.5625 8.28125 
Q 37.984375 10.453125 37.984375 14.40625 
Q 37.984375 18.0625 35.515625 20.015625 
Q 33.0625 21.96875 24.703125 23.78125 
L 21.578125 24.515625 
Q 13.234375 26.265625 9.515625 29.90625 
Q 5.8125 33.546875 5.8125 39.890625 
Q 5.8125 47.609375 11.28125 51.796875 
Q 16.75 56 26.8125 56 
Q 31.78125 56 36.171875 55.265625 
Q 40.578125 54.546875 44.28125 53.078125 
z
" id="DejaVuSans-73"/>
   </defs>
   <g style="fill:#262626;" transform="translate(230.166337 27.5301)scale(0.1728 -0.1728)">
    <use xlink:href="#DejaVuSans-4d"/>
    <use x="86.279297" xlink:href="#DejaVuSans-6f"/>
    <use x="147.460938" xlink:href="#DejaVuSans-64"/>
    <use x="210.9375" xlink:href="#DejaVuSans-65"/>
    <use x="272.460938" xlink:href="#DejaVuSans-6c"/>
    <use x="300.244141" xlink:href="#DejaVuSans-20"/>
    <use x="332.03125" xlink:href="#DejaVuSans-43"/>
    <use x="401.855469" xlink:href="#DejaVuSans-20"/>
    <use x="433.642578" xlink:href="#DejaVuSans-2d"/>
    <use x="469.726562" xlink:href="#DejaVuSans-20"/>
    <use x="501.513672" xlink:href="#DejaVuSans-54"/>
    <use x="562.378906" xlink:href="#DejaVuSans-72"/>
    <use x="603.492188" xlink:href="#DejaVuSans-61"/>
    <use x="664.771484" xlink:href="#DejaVuSans-69"/>
    <use x="692.554688" xlink:href="#DejaVuSans-6e"/>
    <use x="755.933594" xlink:href="#DejaVuSans-69"/>
    <use x="783.716797" xlink:href="#DejaVuSans-6e"/>
    <use x="847.095703" xlink:href="#DejaVuSans-67"/>
    <use x="910.572266" xlink:href="#DejaVuSans-20"/>
    <use x="942.359375" xlink:href="#DejaVuSans-26"/>
    <use x="1020.337891" xlink:href="#DejaVuSans-20"/>
    <use x="1052.125" xlink:href="#DejaVuSans-76"/>
    <use x="1111.304688" xlink:href="#DejaVuSans-61"/>
    <use x="1172.583984" xlink:href="#DejaVuSans-6c"/>
    <use x="1200.367188" xlink:href="#DejaVuSans-69"/>
    <use x="1228.150391" xlink:href="#DejaVuSans-64"/>
    <use x="1291.626953" xlink:href="#DejaVuSans-61"/>
    <use x="1352.90625" xlink:href="#DejaVuSans-74"/>
    <use x="1392.115234" xlink:href="#DejaVuSans-69"/>
    <use x="1419.898438" xlink:href="#DejaVuSans-6f"/>
    <use x="1481.080078" xlink:href="#DejaVuSans-6e"/>
    <use x="1544.458984" xlink:href="#DejaVuSans-20"/>
    <use x="1576.246094" xlink:href="#DejaVuSans-61"/>
    <use x="1637.525391" xlink:href="#DejaVuSans-63"/>
    <use x="1692.505859" xlink:href="#DejaVuSans-63"/>
    <use x="1747.486328" xlink:href="#DejaVuSans-75"/>
    <use x="1810.865234" xlink:href="#DejaVuSans-72"/>
    <use x="1851.978516" xlink:href="#DejaVuSans-61"/>
    <use x="1913.257812" xlink:href="#DejaVuSans-63"/>
    <use x="1968.238281" xlink:href="#DejaVuSans-79"/>
    <use x="2027.417969" xlink:href="#DejaVuSans-20"/>
    <use x="2059.205078" xlink:href="#DejaVuSans-76"/>
    <use x="2118.384766" xlink:href="#DejaVuSans-73"/>
    <use x="2170.484375" xlink:href="#DejaVuSans-2e"/>
    <use x="2202.271484" xlink:href="#DejaVuSans-20"/>
    <use x="2234.058594" xlink:href="#DejaVuSans-65"/>
    <use x="2295.582031" xlink:href="#DejaVuSans-70"/>
    <use x="2359.058594" xlink:href="#DejaVuSans-6f"/>
    <use x="2420.240234" xlink:href="#DejaVuSans-63"/>
    <use x="2475.220703" xlink:href="#DejaVuSans-68"/>
   </g>
  </g>
  <g id="legend_1">
   <g id="line2d_16">
    <path d="M 720.220687 339.64725 
L 746.620687 339.64725 
" style="fill:none;"/>
   </g>
   <g id="line2d_17"/>
   <g id="text_14">
    <!-- Training/Validation -->
    <defs>
     <path d="M 25.390625 72.90625 
L 33.6875 72.90625 
L 8.296875 -9.28125 
L 0 -9.28125 
z
" id="DejaVuSans-2f"/>
     <path d="M 28.609375 0 
L 0.78125 72.90625 
L 11.078125 72.90625 
L 34.1875 11.53125 
L 57.328125 72.90625 
L 67.578125 72.90625 
L 39.796875 0 
z
" id="DejaVuSans-56"/>
    </defs>
    <g style="fill:#262626;" transform="translate(757.180687 344.26725)scale(0.132 -0.132)">
     <use xlink:href="#DejaVuSans-54"/>
     <use x="60.865234" xlink:href="#DejaVuSans-72"/>
     <use x="101.978516" xlink:href="#DejaVuSans-61"/>
     <use x="163.257812" xlink:href="#DejaVuSans-69"/>
     <use x="191.041016" xlink:href="#DejaVuSans-6e"/>
     <use x="254.419922" xlink:href="#DejaVuSans-69"/>
     <use x="282.203125" xlink:href="#DejaVuSans-6e"/>
     <use x="345.582031" xlink:href="#DejaVuSans-67"/>
     <use x="409.058594" xlink:href="#DejaVuSans-2f"/>
     <use x="442.75" xlink:href="#DejaVuSans-56"/>
     <use x="511.048828" xlink:href="#DejaVuSans-61"/>
     <use x="572.328125" xlink:href="#DejaVuSans-6c"/>
     <use x="600.111328" xlink:href="#DejaVuSans-69"/>
     <use x="627.894531" xlink:href="#DejaVuSans-64"/>
     <use x="691.371094" xlink:href="#DejaVuSans-61"/>
     <use x="752.650391" xlink:href="#DejaVuSans-74"/>
     <use x="791.859375" xlink:href="#DejaVuSans-69"/>
     <use x="819.642578" xlink:href="#DejaVuSans-6f"/>
     <use x="880.824219" xlink:href="#DejaVuSans-6e"/>
    </g>
   </g>
   <g id="line2d_18">
    <path d="M 720.220687 359.022375 
L 746.620687 359.022375 
" style="fill:none;stroke:#4c72b0;stroke-linecap:round;stroke-width:1.5;"/>
   </g>
   <g id="line2d_19"/>
   <g id="text_15">
    <!-- Training accuracy -->
    <g style="fill:#262626;" transform="translate(757.180687 363.642375)scale(0.132 -0.132)">
     <use xlink:href="#DejaVuSans-54"/>
     <use x="60.865234" xlink:href="#DejaVuSans-72"/>
     <use x="101.978516" xlink:href="#DejaVuSans-61"/>
     <use x="163.257812" xlink:href="#DejaVuSans-69"/>
     <use x="191.041016" xlink:href="#DejaVuSans-6e"/>
     <use x="254.419922" xlink:href="#DejaVuSans-69"/>
     <use x="282.203125" xlink:href="#DejaVuSans-6e"/>
     <use x="345.582031" xlink:href="#DejaVuSans-67"/>
     <use x="409.058594" xlink:href="#DejaVuSans-20"/>
     <use x="440.845703" xlink:href="#DejaVuSans-61"/>
     <use x="502.125" xlink:href="#DejaVuSans-63"/>
     <use x="557.105469" xlink:href="#DejaVuSans-63"/>
     <use x="612.085938" xlink:href="#DejaVuSans-75"/>
     <use x="675.464844" xlink:href="#DejaVuSans-72"/>
     <use x="716.578125" xlink:href="#DejaVuSans-61"/>
     <use x="777.857422" xlink:href="#DejaVuSans-63"/>
     <use x="832.837891" xlink:href="#DejaVuSans-79"/>
    </g>
   </g>
   <g id="line2d_20">
    <path d="M 720.220687 378.3975 
L 746.620687 378.3975 
" style="fill:none;stroke:#dd8452;stroke-linecap:round;stroke-width:1.5;"/>
   </g>
   <g id="line2d_21"/>
   <g id="text_16">
    <!-- Validation accuracy -->
    <g style="fill:#262626;" transform="translate(757.180687 383.0175)scale(0.132 -0.132)">
     <use xlink:href="#DejaVuSans-56"/>
     <use x="68.298828" xlink:href="#DejaVuSans-61"/>
     <use x="129.578125" xlink:href="#DejaVuSans-6c"/>
     <use x="157.361328" xlink:href="#DejaVuSans-69"/>
     <use x="185.144531" xlink:href="#DejaVuSans-64"/>
     <use x="248.621094" xlink:href="#DejaVuSans-61"/>
     <use x="309.900391" xlink:href="#DejaVuSans-74"/>
     <use x="349.109375" xlink:href="#DejaVuSans-69"/>
     <use x="376.892578" xlink:href="#DejaVuSans-6f"/>
     <use x="438.074219" xlink:href="#DejaVuSans-6e"/>
     <use x="501.453125" xlink:href="#DejaVuSans-20"/>
     <use x="533.240234" xlink:href="#DejaVuSans-61"/>
     <use x="594.519531" xlink:href="#DejaVuSans-63"/>
     <use x="649.5" xlink:href="#DejaVuSans-63"/>
     <use x="704.480469" xlink:href="#DejaVuSans-75"/>
     <use x="767.859375" xlink:href="#DejaVuSans-72"/>
     <use x="808.972656" xlink:href="#DejaVuSans-61"/>
     <use x="870.251953" xlink:href="#DejaVuSans-63"/>
     <use x="925.232422" xlink:href="#DejaVuSans-79"/>
    </g>
   </g>
  </g>
 </g>
 <defs>
  <clipPath id="p505f6324d4">
   <rect height="644.796" width="632.531869" x="78.478087" y="20.352"/>
  </clipPath>
 </defs>
</svg>
