<?xml version="1.0" encoding="utf-8" standalone="no"?>
<!DOCTYPE svg PUBLIC "-//W3C//DTD SVG 1.1//EN"
  "http://www.w3.org/Graphics/SVG/1.1/DTD/svg11.dtd">
<!-- Created with matplotlib (http://matplotlib.org/) -->
<svg height="720pt" version="1.1" viewBox="0 0 834 720" width="834pt" xmlns="http://www.w3.org/2000/svg" xmlns:xlink="http://www.w3.org/1999/xlink">
 <defs>
  <style type="text/css">
*{stroke-linecap:butt;stroke-linejoin:round;}
  </style>
 </defs>
 <g id="figure_1">
  <g id="patch_1">
   <path d="M 0 720 
L 834.685 720 
L 834.685 0 
L 0 0 
z
" style="fill:#ffffff;"/>
  </g>
  <g id="axes_1">
   <g id="patch_2">
    <path d="M 82.717284 665.148 
L 711.65315 665.148 
L 711.65315 20.352 
L 82.717284 20.352 
z
" style="fill:#ffffff;"/>
   </g>
   <g id="matplotlib.axis_1">
    <g id="xtick_1">
     <g id="text_1">
      <!-- 2 -->
      <defs>
       <path d="M 19.1875 8.296875 
L 53.609375 8.296875 
L 53.609375 0 
L 7.328125 0 
L 7.328125 8.296875 
Q 12.9375 14.109375 22.625 23.890625 
Q 32.328125 33.6875 34.8125 36.53125 
Q 39.546875 41.84375 41.421875 45.53125 
Q 43.3125 49.21875 43.3125 52.78125 
Q 43.3125 58.59375 39.234375 62.25 
Q 35.15625 65.921875 28.609375 65.921875 
Q 23.96875 65.921875 18.8125 64.3125 
Q 13.671875 62.703125 7.8125 59.421875 
L 7.8125 69.390625 
Q 13.765625 71.78125 18.9375 73 
Q 24.125 74.21875 28.421875 74.21875 
Q 39.75 74.21875 46.484375 68.546875 
Q 53.21875 62.890625 53.21875 53.421875 
Q 53.21875 48.921875 51.53125 44.890625 
Q 49.859375 40.875 45.40625 35.40625 
Q 44.1875 33.984375 37.640625 27.21875 
Q 31.109375 20.453125 19.1875 8.296875 
z
" id="DejaVuSans-32"/>
      </defs>
      <g style="fill:#262626;" transform="translate(117.826525 683.477937)scale(0.132 -0.132)">
       <use xlink:href="#DejaVuSans-32"/>
      </g>
     </g>
    </g>
    <g id="xtick_2">
     <g id="text_2">
      <!-- 3 -->
      <defs>
       <path d="M 40.578125 39.3125 
Q 47.65625 37.796875 51.625 33 
Q 55.609375 28.21875 55.609375 21.1875 
Q 55.609375 10.40625 48.1875 4.484375 
Q 40.765625 -1.421875 27.09375 -1.421875 
Q 22.515625 -1.421875 17.65625 -0.515625 
Q 12.796875 0.390625 7.625 2.203125 
L 7.625 11.71875 
Q 11.71875 9.328125 16.59375 8.109375 
Q 21.484375 6.890625 26.8125 6.890625 
Q 36.078125 6.890625 40.9375 10.546875 
Q 45.796875 14.203125 45.796875 21.1875 
Q 45.796875 27.640625 41.28125 31.265625 
Q 36.765625 34.90625 28.71875 34.90625 
L 20.21875 34.90625 
L 20.21875 43.015625 
L 29.109375 43.015625 
Q 36.375 43.015625 40.234375 45.921875 
Q 44.09375 48.828125 44.09375 54.296875 
Q 44.09375 59.90625 40.109375 62.90625 
Q 36.140625 65.921875 28.71875 65.921875 
Q 24.65625 65.921875 20.015625 65.03125 
Q 15.375 64.15625 9.8125 62.3125 
L 9.8125 71.09375 
Q 15.4375 72.65625 20.34375 73.4375 
Q 25.25 74.21875 29.59375 74.21875 
Q 40.828125 74.21875 47.359375 69.109375 
Q 53.90625 64.015625 53.90625 55.328125 
Q 53.90625 49.265625 50.4375 45.09375 
Q 46.96875 40.921875 40.578125 39.3125 
z
" id="DejaVuSans-33"/>
      </defs>
      <g style="fill:#262626;" transform="translate(196.443508 683.477937)scale(0.132 -0.132)">
       <use xlink:href="#DejaVuSans-33"/>
      </g>
     </g>
    </g>
    <g id="xtick_3">
     <g id="text_3">
      <!-- 4 -->
      <defs>
       <path d="M 37.796875 64.3125 
L 12.890625 25.390625 
L 37.796875 25.390625 
z
M 35.203125 72.90625 
L 47.609375 72.90625 
L 47.609375 25.390625 
L 58.015625 25.390625 
L 58.015625 17.1875 
L 47.609375 17.1875 
L 47.609375 0 
L 37.796875 0 
L 37.796875 17.1875 
L 4.890625 17.1875 
L 4.890625 26.703125 
z
" id="DejaVuSans-34"/>
      </defs>
      <g style="fill:#262626;" transform="translate(275.060492 683.477937)scale(0.132 -0.132)">
       <use xlink:href="#DejaVuSans-34"/>
      </g>
     </g>
    </g>
    <g id="xtick_4">
     <g id="text_4">
      <!-- 5 -->
      <defs>
       <path d="M 10.796875 72.90625 
L 49.515625 72.90625 
L 49.515625 64.59375 
L 19.828125 64.59375 
L 19.828125 46.734375 
Q 21.96875 47.46875 24.109375 47.828125 
Q 26.265625 48.1875 28.421875 48.1875 
Q 40.625 48.1875 47.75 41.5 
Q 54.890625 34.8125 54.890625 23.390625 
Q 54.890625 11.625 47.5625 5.09375 
Q 40.234375 -1.421875 26.90625 -1.421875 
Q 22.3125 -1.421875 17.546875 -0.640625 
Q 12.796875 0.140625 7.71875 1.703125 
L 7.71875 11.625 
Q 12.109375 9.234375 16.796875 8.0625 
Q 21.484375 6.890625 26.703125 6.890625 
Q 35.15625 6.890625 40.078125 11.328125 
Q 45.015625 15.765625 45.015625 23.390625 
Q 45.015625 31 40.078125 35.4375 
Q 35.15625 39.890625 26.703125 39.890625 
Q 22.75 39.890625 18.8125 39.015625 
Q 14.890625 38.140625 10.796875 36.28125 
z
" id="DejaVuSans-35"/>
      </defs>
      <g style="fill:#262626;" transform="translate(353.677475 683.477937)scale(0.132 -0.132)">
       <use xlink:href="#DejaVuSans-35"/>
      </g>
     </g>
    </g>
    <g id="xtick_5">
     <g id="text_5">
      <!-- 6 -->
      <defs>
       <path d="M 33.015625 40.375 
Q 26.375 40.375 22.484375 35.828125 
Q 18.609375 31.296875 18.609375 23.390625 
Q 18.609375 15.53125 22.484375 10.953125 
Q 26.375 6.390625 33.015625 6.390625 
Q 39.65625 6.390625 43.53125 10.953125 
Q 47.40625 15.53125 47.40625 23.390625 
Q 47.40625 31.296875 43.53125 35.828125 
Q 39.65625 40.375 33.015625 40.375 
z
M 52.59375 71.296875 
L 52.59375 62.3125 
Q 48.875 64.0625 45.09375 64.984375 
Q 41.3125 65.921875 37.59375 65.921875 
Q 27.828125 65.921875 22.671875 59.328125 
Q 17.53125 52.734375 16.796875 39.40625 
Q 19.671875 43.65625 24.015625 45.921875 
Q 28.375 48.1875 33.59375 48.1875 
Q 44.578125 48.1875 50.953125 41.515625 
Q 57.328125 34.859375 57.328125 23.390625 
Q 57.328125 12.15625 50.6875 5.359375 
Q 44.046875 -1.421875 33.015625 -1.421875 
Q 20.359375 -1.421875 13.671875 8.265625 
Q 6.984375 17.96875 6.984375 36.375 
Q 6.984375 53.65625 15.1875 63.9375 
Q 23.390625 74.21875 37.203125 74.21875 
Q 40.921875 74.21875 44.703125 73.484375 
Q 48.484375 72.75 52.59375 71.296875 
z
" id="DejaVuSans-36"/>
      </defs>
      <g style="fill:#262626;" transform="translate(432.294458 683.477937)scale(0.132 -0.132)">
       <use xlink:href="#DejaVuSans-36"/>
      </g>
     </g>
    </g>
    <g id="xtick_6">
     <g id="text_6">
      <!-- 7 -->
      <defs>
       <path d="M 8.203125 72.90625 
L 55.078125 72.90625 
L 55.078125 68.703125 
L 28.609375 0 
L 18.3125 0 
L 43.21875 64.59375 
L 8.203125 64.59375 
z
" id="DejaVuSans-37"/>
      </defs>
      <g style="fill:#262626;" transform="translate(510.911442 683.477937)scale(0.132 -0.132)">
       <use xlink:href="#DejaVuSans-37"/>
      </g>
     </g>
    </g>
    <g id="xtick_7">
     <g id="text_7">
      <!-- 8 -->
      <defs>
       <path d="M 31.78125 34.625 
Q 24.75 34.625 20.71875 30.859375 
Q 16.703125 27.09375 16.703125 20.515625 
Q 16.703125 13.921875 20.71875 10.15625 
Q 24.75 6.390625 31.78125 6.390625 
Q 38.8125 6.390625 42.859375 10.171875 
Q 46.921875 13.96875 46.921875 20.515625 
Q 46.921875 27.09375 42.890625 30.859375 
Q 38.875 34.625 31.78125 34.625 
z
M 21.921875 38.8125 
Q 15.578125 40.375 12.03125 44.71875 
Q 8.5 49.078125 8.5 55.328125 
Q 8.5 64.0625 14.71875 69.140625 
Q 20.953125 74.21875 31.78125 74.21875 
Q 42.671875 74.21875 48.875 69.140625 
Q 55.078125 64.0625 55.078125 55.328125 
Q 55.078125 49.078125 51.53125 44.71875 
Q 48 40.375 41.703125 38.8125 
Q 48.828125 37.15625 52.796875 32.3125 
Q 56.78125 27.484375 56.78125 20.515625 
Q 56.78125 9.90625 50.3125 4.234375 
Q 43.84375 -1.421875 31.78125 -1.421875 
Q 19.734375 -1.421875 13.25 4.234375 
Q 6.78125 9.90625 6.78125 20.515625 
Q 6.78125 27.484375 10.78125 32.3125 
Q 14.796875 37.15625 21.921875 38.8125 
z
M 18.3125 54.390625 
Q 18.3125 48.734375 21.84375 45.5625 
Q 25.390625 42.390625 31.78125 42.390625 
Q 38.140625 42.390625 41.71875 45.5625 
Q 45.3125 48.734375 45.3125 54.390625 
Q 45.3125 60.0625 41.71875 63.234375 
Q 38.140625 66.40625 31.78125 66.40625 
Q 25.390625 66.40625 21.84375 63.234375 
Q 18.3125 60.0625 18.3125 54.390625 
z
" id="DejaVuSans-38"/>
      </defs>
      <g style="fill:#262626;" transform="translate(589.528425 683.477937)scale(0.132 -0.132)">
       <use xlink:href="#DejaVuSans-38"/>
      </g>
     </g>
    </g>
    <g id="xtick_8">
     <g id="text_8">
      <!-- 9 -->
      <defs>
       <path d="M 10.984375 1.515625 
L 10.984375 10.5 
Q 14.703125 8.734375 18.5 7.8125 
Q 22.3125 6.890625 25.984375 6.890625 
Q 35.75 6.890625 40.890625 13.453125 
Q 46.046875 20.015625 46.78125 33.40625 
Q 43.953125 29.203125 39.59375 26.953125 
Q 35.25 24.703125 29.984375 24.703125 
Q 19.046875 24.703125 12.671875 31.3125 
Q 6.296875 37.9375 6.296875 49.421875 
Q 6.296875 60.640625 12.9375 67.421875 
Q 19.578125 74.21875 30.609375 74.21875 
Q 43.265625 74.21875 49.921875 64.515625 
Q 56.59375 54.828125 56.59375 36.375 
Q 56.59375 19.140625 48.40625 8.859375 
Q 40.234375 -1.421875 26.421875 -1.421875 
Q 22.703125 -1.421875 18.890625 -0.6875 
Q 15.09375 0.046875 10.984375 1.515625 
z
M 30.609375 32.421875 
Q 37.25 32.421875 41.125 36.953125 
Q 45.015625 41.5 45.015625 49.421875 
Q 45.015625 57.28125 41.125 61.84375 
Q 37.25 66.40625 30.609375 66.40625 
Q 23.96875 66.40625 20.09375 61.84375 
Q 16.21875 57.28125 16.21875 49.421875 
Q 16.21875 41.5 20.09375 36.953125 
Q 23.96875 32.421875 30.609375 32.421875 
z
" id="DejaVuSans-39"/>
      </defs>
      <g style="fill:#262626;" transform="translate(668.145408 683.477937)scale(0.132 -0.132)">
       <use xlink:href="#DejaVuSans-39"/>
      </g>
     </g>
    </g>
    <g id="text_9">
     <!-- CNN filter size -->
     <defs>
      <path d="M 64.40625 67.28125 
L 64.40625 56.890625 
Q 59.421875 61.53125 53.78125 63.8125 
Q 48.140625 66.109375 41.796875 66.109375 
Q 29.296875 66.109375 22.65625 58.46875 
Q 16.015625 50.828125 16.015625 36.375 
Q 16.015625 21.96875 22.65625 14.328125 
Q 29.296875 6.6875 41.796875 6.6875 
Q 48.140625 6.6875 53.78125 8.984375 
Q 59.421875 11.28125 64.40625 15.921875 
L 64.40625 5.609375 
Q 59.234375 2.09375 53.4375 0.328125 
Q 47.65625 -1.421875 41.21875 -1.421875 
Q 24.65625 -1.421875 15.125 8.703125 
Q 5.609375 18.84375 5.609375 36.375 
Q 5.609375 53.953125 15.125 64.078125 
Q 24.65625 74.21875 41.21875 74.21875 
Q 47.75 74.21875 53.53125 72.484375 
Q 59.328125 70.75 64.40625 67.28125 
z
" id="DejaVuSans-43"/>
      <path d="M 9.8125 72.90625 
L 23.09375 72.90625 
L 55.421875 11.921875 
L 55.421875 72.90625 
L 64.984375 72.90625 
L 64.984375 0 
L 51.703125 0 
L 19.390625 60.984375 
L 19.390625 0 
L 9.8125 0 
z
" id="DejaVuSans-4e"/>
      <path id="DejaVuSans-20"/>
      <path d="M 37.109375 75.984375 
L 37.109375 68.5 
L 28.515625 68.5 
Q 23.6875 68.5 21.796875 66.546875 
Q 19.921875 64.59375 19.921875 59.515625 
L 19.921875 54.6875 
L 34.71875 54.6875 
L 34.71875 47.703125 
L 19.921875 47.703125 
L 19.921875 0 
L 10.890625 0 
L 10.890625 47.703125 
L 2.296875 47.703125 
L 2.296875 54.6875 
L 10.890625 54.6875 
L 10.890625 58.5 
Q 10.890625 67.625 15.140625 71.796875 
Q 19.390625 75.984375 28.609375 75.984375 
z
" id="DejaVuSans-66"/>
      <path d="M 9.421875 54.6875 
L 18.40625 54.6875 
L 18.40625 0 
L 9.421875 0 
z
M 9.421875 75.984375 
L 18.40625 75.984375 
L 18.40625 64.59375 
L 9.421875 64.59375 
z
" id="DejaVuSans-69"/>
      <path d="M 9.421875 75.984375 
L 18.40625 75.984375 
L 18.40625 0 
L 9.421875 0 
z
" id="DejaVuSans-6c"/>
      <path d="M 18.3125 70.21875 
L 18.3125 54.6875 
L 36.8125 54.6875 
L 36.8125 47.703125 
L 18.3125 47.703125 
L 18.3125 18.015625 
Q 18.3125 11.328125 20.140625 9.421875 
Q 21.96875 7.515625 27.59375 7.515625 
L 36.8125 7.515625 
L 36.8125 0 
L 27.59375 0 
Q 17.1875 0 13.234375 3.875 
Q 9.28125 7.765625 9.28125 18.015625 
L 9.28125 47.703125 
L 2.6875 47.703125 
L 2.6875 54.6875 
L 9.28125 54.6875 
L 9.28125 70.21875 
z
" id="DejaVuSans-74"/>
      <path d="M 56.203125 29.59375 
L 56.203125 25.203125 
L 14.890625 25.203125 
Q 15.484375 15.921875 20.484375 11.0625 
Q 25.484375 6.203125 34.421875 6.203125 
Q 39.59375 6.203125 44.453125 7.46875 
Q 49.3125 8.734375 54.109375 11.28125 
L 54.109375 2.78125 
Q 49.265625 0.734375 44.1875 -0.34375 
Q 39.109375 -1.421875 33.890625 -1.421875 
Q 20.796875 -1.421875 13.15625 6.1875 
Q 5.515625 13.8125 5.515625 26.8125 
Q 5.515625 40.234375 12.765625 48.109375 
Q 20.015625 56 32.328125 56 
Q 43.359375 56 49.78125 48.890625 
Q 56.203125 41.796875 56.203125 29.59375 
z
M 47.21875 32.234375 
Q 47.125 39.59375 43.09375 43.984375 
Q 39.0625 48.390625 32.421875 48.390625 
Q 24.90625 48.390625 20.390625 44.140625 
Q 15.875 39.890625 15.1875 32.171875 
z
" id="DejaVuSans-65"/>
      <path d="M 41.109375 46.296875 
Q 39.59375 47.171875 37.8125 47.578125 
Q 36.03125 48 33.890625 48 
Q 26.265625 48 22.1875 43.046875 
Q 18.109375 38.09375 18.109375 28.8125 
L 18.109375 0 
L 9.078125 0 
L 9.078125 54.6875 
L 18.109375 54.6875 
L 18.109375 46.1875 
Q 20.953125 51.171875 25.484375 53.578125 
Q 30.03125 56 36.53125 56 
Q 37.453125 56 38.578125 55.875 
Q 39.703125 55.765625 41.0625 55.515625 
z
" id="DejaVuSans-72"/>
      <path d="M 44.28125 53.078125 
L 44.28125 44.578125 
Q 40.484375 46.53125 36.375 47.5 
Q 32.28125 48.484375 27.875 48.484375 
Q 21.1875 48.484375 17.84375 46.4375 
Q 14.5 44.390625 14.5 40.28125 
Q 14.5 37.15625 16.890625 35.375 
Q 19.28125 33.59375 26.515625 31.984375 
L 29.59375 31.296875 
Q 39.15625 29.25 43.1875 25.515625 
Q 47.21875 21.78125 47.21875 15.09375 
Q 47.21875 7.46875 41.1875 3.015625 
Q 35.15625 -1.421875 24.609375 -1.421875 
Q 20.21875 -1.421875 15.453125 -0.5625 
Q 10.6875 0.296875 5.421875 2 
L 5.421875 11.28125 
Q 10.40625 8.6875 15.234375 7.390625 
Q 20.0625 6.109375 24.8125 6.109375 
Q 31.15625 6.109375 34.5625 8.28125 
Q 37.984375 10.453125 37.984375 14.40625 
Q 37.984375 18.0625 35.515625 20.015625 
Q 33.0625 21.96875 24.703125 23.78125 
L 21.578125 24.515625 
Q 13.234375 26.265625 9.515625 29.90625 
Q 5.8125 33.546875 5.8125 39.890625 
Q 5.8125 47.609375 11.28125 51.796875 
Q 16.75 56 26.8125 56 
Q 31.78125 56 36.171875 55.265625 
Q 40.578125 54.546875 44.28125 53.078125 
z
" id="DejaVuSans-73"/>
      <path d="M 5.515625 54.6875 
L 48.1875 54.6875 
L 48.1875 46.484375 
L 14.40625 7.171875 
L 48.1875 7.171875 
L 48.1875 0 
L 4.296875 0 
L 4.296875 8.203125 
L 38.09375 47.515625 
L 5.515625 47.515625 
z
" id="DejaVuSans-7a"/>
     </defs>
     <g style="fill:#262626;" transform="translate(346.100092 701.164875)scale(0.144 -0.144)">
      <use xlink:href="#DejaVuSans-43"/>
      <use x="69.824219" xlink:href="#DejaVuSans-4e"/>
      <use x="144.628906" xlink:href="#DejaVuSans-4e"/>
      <use x="219.433594" xlink:href="#DejaVuSans-20"/>
      <use x="251.220703" xlink:href="#DejaVuSans-66"/>
      <use x="286.425781" xlink:href="#DejaVuSans-69"/>
      <use x="314.208984" xlink:href="#DejaVuSans-6c"/>
      <use x="341.992188" xlink:href="#DejaVuSans-74"/>
      <use x="381.201172" xlink:href="#DejaVuSans-65"/>
      <use x="442.724609" xlink:href="#DejaVuSans-72"/>
      <use x="483.837891" xlink:href="#DejaVuSans-20"/>
      <use x="515.625" xlink:href="#DejaVuSans-73"/>
      <use x="567.724609" xlink:href="#DejaVuSans-69"/>
      <use x="595.507812" xlink:href="#DejaVuSans-7a"/>
      <use x="647.998047" xlink:href="#DejaVuSans-65"/>
     </g>
    </g>
   </g>
   <g id="matplotlib.axis_2">
    <g id="ytick_1">
     <g id="line2d_1">
      <path clip-path="url(#p1ed4785c7d)" d="M 82.717284 644.614889 
L 711.65315 644.614889 
" style="fill:none;stroke:#cccccc;stroke-linecap:round;stroke-width:0.8;"/>
     </g>
     <g id="text_10">
      <!-- 0.68 -->
      <defs>
       <path d="M 31.78125 66.40625 
Q 24.171875 66.40625 20.328125 58.90625 
Q 16.5 51.421875 16.5 36.375 
Q 16.5 21.390625 20.328125 13.890625 
Q 24.171875 6.390625 31.78125 6.390625 
Q 39.453125 6.390625 43.28125 13.890625 
Q 47.125 21.390625 47.125 36.375 
Q 47.125 51.421875 43.28125 58.90625 
Q 39.453125 66.40625 31.78125 66.40625 
z
M 31.78125 74.21875 
Q 44.046875 74.21875 50.515625 64.515625 
Q 56.984375 54.828125 56.984375 36.375 
Q 56.984375 17.96875 50.515625 8.265625 
Q 44.046875 -1.421875 31.78125 -1.421875 
Q 19.53125 -1.421875 13.0625 8.265625 
Q 6.59375 17.96875 6.59375 36.375 
Q 6.59375 54.828125 13.0625 64.515625 
Q 19.53125 74.21875 31.78125 74.21875 
z
" id="DejaVuSans-30"/>
       <path d="M 10.6875 12.40625 
L 21 12.40625 
L 21 0 
L 10.6875 0 
z
" id="DejaVuSans-2e"/>
      </defs>
      <g style="fill:#262626;" transform="translate(45.026659 649.629858)scale(0.132 -0.132)">
       <use xlink:href="#DejaVuSans-30"/>
       <use x="63.623047" xlink:href="#DejaVuSans-2e"/>
       <use x="95.410156" xlink:href="#DejaVuSans-36"/>
       <use x="159.033203" xlink:href="#DejaVuSans-38"/>
      </g>
     </g>
    </g>
    <g id="ytick_2">
     <g id="line2d_2">
      <path clip-path="url(#p1ed4785c7d)" d="M 82.717284 517.30959 
L 711.65315 517.30959 
" style="fill:none;stroke:#cccccc;stroke-linecap:round;stroke-width:0.8;"/>
     </g>
     <g id="text_11">
      <!-- 0.69 -->
      <g style="fill:#262626;" transform="translate(45.026659 522.324559)scale(0.132 -0.132)">
       <use xlink:href="#DejaVuSans-30"/>
       <use x="63.623047" xlink:href="#DejaVuSans-2e"/>
       <use x="95.410156" xlink:href="#DejaVuSans-36"/>
       <use x="159.033203" xlink:href="#DejaVuSans-39"/>
      </g>
     </g>
    </g>
    <g id="ytick_3">
     <g id="line2d_3">
      <path clip-path="url(#p1ed4785c7d)" d="M 82.717284 390.004291 
L 711.65315 390.004291 
" style="fill:none;stroke:#cccccc;stroke-linecap:round;stroke-width:0.8;"/>
     </g>
     <g id="text_12">
      <!-- 0.70 -->
      <g style="fill:#262626;" transform="translate(45.026659 395.01926)scale(0.132 -0.132)">
       <use xlink:href="#DejaVuSans-30"/>
       <use x="63.623047" xlink:href="#DejaVuSans-2e"/>
       <use x="95.410156" xlink:href="#DejaVuSans-37"/>
       <use x="159.033203" xlink:href="#DejaVuSans-30"/>
      </g>
     </g>
    </g>
    <g id="ytick_4">
     <g id="line2d_4">
      <path clip-path="url(#p1ed4785c7d)" d="M 82.717284 262.698992 
L 711.65315 262.698992 
" style="fill:none;stroke:#cccccc;stroke-linecap:round;stroke-width:0.8;"/>
     </g>
     <g id="text_13">
      <!-- 0.71 -->
      <defs>
       <path d="M 12.40625 8.296875 
L 28.515625 8.296875 
L 28.515625 63.921875 
L 10.984375 60.40625 
L 10.984375 69.390625 
L 28.421875 72.90625 
L 38.28125 72.90625 
L 38.28125 8.296875 
L 54.390625 8.296875 
L 54.390625 0 
L 12.40625 0 
z
" id="DejaVuSans-31"/>
      </defs>
      <g style="fill:#262626;" transform="translate(45.026659 267.713961)scale(0.132 -0.132)">
       <use xlink:href="#DejaVuSans-30"/>
       <use x="63.623047" xlink:href="#DejaVuSans-2e"/>
       <use x="95.410156" xlink:href="#DejaVuSans-37"/>
       <use x="159.033203" xlink:href="#DejaVuSans-31"/>
      </g>
     </g>
    </g>
    <g id="ytick_5">
     <g id="line2d_5">
      <path clip-path="url(#p1ed4785c7d)" d="M 82.717284 135.393693 
L 711.65315 135.393693 
" style="fill:none;stroke:#cccccc;stroke-linecap:round;stroke-width:0.8;"/>
     </g>
     <g id="text_14">
      <!-- 0.72 -->
      <g style="fill:#262626;" transform="translate(45.026659 140.408662)scale(0.132 -0.132)">
       <use xlink:href="#DejaVuSans-30"/>
       <use x="63.623047" xlink:href="#DejaVuSans-2e"/>
       <use x="95.410156" xlink:href="#DejaVuSans-37"/>
       <use x="159.033203" xlink:href="#DejaVuSans-32"/>
      </g>
     </g>
    </g>
    <g id="text_15">
     <!-- Best validation accuracy -->
     <defs>
      <path d="M 19.671875 34.8125 
L 19.671875 8.109375 
L 35.5 8.109375 
Q 43.453125 8.109375 47.28125 11.40625 
Q 51.125 14.703125 51.125 21.484375 
Q 51.125 28.328125 47.28125 31.5625 
Q 43.453125 34.8125 35.5 34.8125 
z
M 19.671875 64.796875 
L 19.671875 42.828125 
L 34.28125 42.828125 
Q 41.5 42.828125 45.03125 45.53125 
Q 48.578125 48.25 48.578125 53.8125 
Q 48.578125 59.328125 45.03125 62.0625 
Q 41.5 64.796875 34.28125 64.796875 
z
M 9.8125 72.90625 
L 35.015625 72.90625 
Q 46.296875 72.90625 52.390625 68.21875 
Q 58.5 63.53125 58.5 54.890625 
Q 58.5 48.1875 55.375 44.234375 
Q 52.25 40.28125 46.1875 39.3125 
Q 53.46875 37.75 57.5 32.78125 
Q 61.53125 27.828125 61.53125 20.40625 
Q 61.53125 10.640625 54.890625 5.3125 
Q 48.25 0 35.984375 0 
L 9.8125 0 
z
" id="DejaVuSans-42"/>
      <path d="M 2.984375 54.6875 
L 12.5 54.6875 
L 29.59375 8.796875 
L 46.6875 54.6875 
L 56.203125 54.6875 
L 35.6875 0 
L 23.484375 0 
z
" id="DejaVuSans-76"/>
      <path d="M 34.28125 27.484375 
Q 23.390625 27.484375 19.1875 25 
Q 14.984375 22.515625 14.984375 16.5 
Q 14.984375 11.71875 18.140625 8.90625 
Q 21.296875 6.109375 26.703125 6.109375 
Q 34.1875 6.109375 38.703125 11.40625 
Q 43.21875 16.703125 43.21875 25.484375 
L 43.21875 27.484375 
z
M 52.203125 31.203125 
L 52.203125 0 
L 43.21875 0 
L 43.21875 8.296875 
Q 40.140625 3.328125 35.546875 0.953125 
Q 30.953125 -1.421875 24.3125 -1.421875 
Q 15.921875 -1.421875 10.953125 3.296875 
Q 6 8.015625 6 15.921875 
Q 6 25.140625 12.171875 29.828125 
Q 18.359375 34.515625 30.609375 34.515625 
L 43.21875 34.515625 
L 43.21875 35.40625 
Q 43.21875 41.609375 39.140625 45 
Q 35.0625 48.390625 27.6875 48.390625 
Q 23 48.390625 18.546875 47.265625 
Q 14.109375 46.140625 10.015625 43.890625 
L 10.015625 52.203125 
Q 14.9375 54.109375 19.578125 55.046875 
Q 24.21875 56 28.609375 56 
Q 40.484375 56 46.34375 49.84375 
Q 52.203125 43.703125 52.203125 31.203125 
z
" id="DejaVuSans-61"/>
      <path d="M 45.40625 46.390625 
L 45.40625 75.984375 
L 54.390625 75.984375 
L 54.390625 0 
L 45.40625 0 
L 45.40625 8.203125 
Q 42.578125 3.328125 38.25 0.953125 
Q 33.9375 -1.421875 27.875 -1.421875 
Q 17.96875 -1.421875 11.734375 6.484375 
Q 5.515625 14.40625 5.515625 27.296875 
Q 5.515625 40.1875 11.734375 48.09375 
Q 17.96875 56 27.875 56 
Q 33.9375 56 38.25 53.625 
Q 42.578125 51.265625 45.40625 46.390625 
z
M 14.796875 27.296875 
Q 14.796875 17.390625 18.875 11.75 
Q 22.953125 6.109375 30.078125 6.109375 
Q 37.203125 6.109375 41.296875 11.75 
Q 45.40625 17.390625 45.40625 27.296875 
Q 45.40625 37.203125 41.296875 42.84375 
Q 37.203125 48.484375 30.078125 48.484375 
Q 22.953125 48.484375 18.875 42.84375 
Q 14.796875 37.203125 14.796875 27.296875 
z
" id="DejaVuSans-64"/>
      <path d="M 30.609375 48.390625 
Q 23.390625 48.390625 19.1875 42.75 
Q 14.984375 37.109375 14.984375 27.296875 
Q 14.984375 17.484375 19.15625 11.84375 
Q 23.34375 6.203125 30.609375 6.203125 
Q 37.796875 6.203125 41.984375 11.859375 
Q 46.1875 17.53125 46.1875 27.296875 
Q 46.1875 37.015625 41.984375 42.703125 
Q 37.796875 48.390625 30.609375 48.390625 
z
M 30.609375 56 
Q 42.328125 56 49.015625 48.375 
Q 55.71875 40.765625 55.71875 27.296875 
Q 55.71875 13.875 49.015625 6.21875 
Q 42.328125 -1.421875 30.609375 -1.421875 
Q 18.84375 -1.421875 12.171875 6.21875 
Q 5.515625 13.875 5.515625 27.296875 
Q 5.515625 40.765625 12.171875 48.375 
Q 18.84375 56 30.609375 56 
z
" id="DejaVuSans-6f"/>
      <path d="M 54.890625 33.015625 
L 54.890625 0 
L 45.90625 0 
L 45.90625 32.71875 
Q 45.90625 40.484375 42.875 44.328125 
Q 39.84375 48.1875 33.796875 48.1875 
Q 26.515625 48.1875 22.3125 43.546875 
Q 18.109375 38.921875 18.109375 30.90625 
L 18.109375 0 
L 9.078125 0 
L 9.078125 54.6875 
L 18.109375 54.6875 
L 18.109375 46.1875 
Q 21.34375 51.125 25.703125 53.5625 
Q 30.078125 56 35.796875 56 
Q 45.21875 56 50.046875 50.171875 
Q 54.890625 44.34375 54.890625 33.015625 
z
" id="DejaVuSans-6e"/>
      <path d="M 48.78125 52.59375 
L 48.78125 44.1875 
Q 44.96875 46.296875 41.140625 47.34375 
Q 37.3125 48.390625 33.40625 48.390625 
Q 24.65625 48.390625 19.8125 42.84375 
Q 14.984375 37.3125 14.984375 27.296875 
Q 14.984375 17.28125 19.8125 11.734375 
Q 24.65625 6.203125 33.40625 6.203125 
Q 37.3125 6.203125 41.140625 7.25 
Q 44.96875 8.296875 48.78125 10.40625 
L 48.78125 2.09375 
Q 45.015625 0.34375 40.984375 -0.53125 
Q 36.96875 -1.421875 32.421875 -1.421875 
Q 20.0625 -1.421875 12.78125 6.34375 
Q 5.515625 14.109375 5.515625 27.296875 
Q 5.515625 40.671875 12.859375 48.328125 
Q 20.21875 56 33.015625 56 
Q 37.15625 56 41.109375 55.140625 
Q 45.0625 54.296875 48.78125 52.59375 
z
" id="DejaVuSans-63"/>
      <path d="M 8.5 21.578125 
L 8.5 54.6875 
L 17.484375 54.6875 
L 17.484375 21.921875 
Q 17.484375 14.15625 20.5 10.265625 
Q 23.53125 6.390625 29.59375 6.390625 
Q 36.859375 6.390625 41.078125 11.03125 
Q 45.3125 15.671875 45.3125 23.6875 
L 45.3125 54.6875 
L 54.296875 54.6875 
L 54.296875 0 
L 45.3125 0 
L 45.3125 8.40625 
Q 42.046875 3.421875 37.71875 1 
Q 33.40625 -1.421875 27.6875 -1.421875 
Q 18.265625 -1.421875 13.375 4.4375 
Q 8.5 10.296875 8.5 21.578125 
z
M 31.109375 56 
z
" id="DejaVuSans-75"/>
      <path d="M 32.171875 -5.078125 
Q 28.375 -14.84375 24.75 -17.8125 
Q 21.140625 -20.796875 15.09375 -20.796875 
L 7.90625 -20.796875 
L 7.90625 -13.28125 
L 13.1875 -13.28125 
Q 16.890625 -13.28125 18.9375 -11.515625 
Q 21 -9.765625 23.484375 -3.21875 
L 25.09375 0.875 
L 2.984375 54.6875 
L 12.5 54.6875 
L 29.59375 11.921875 
L 46.6875 54.6875 
L 56.203125 54.6875 
z
" id="DejaVuSans-79"/>
     </defs>
     <g style="fill:#262626;" transform="translate(38.031909 431.20425)rotate(-90)scale(0.144 -0.144)">
      <use xlink:href="#DejaVuSans-42"/>
      <use x="68.603516" xlink:href="#DejaVuSans-65"/>
      <use x="130.126953" xlink:href="#DejaVuSans-73"/>
      <use x="182.226562" xlink:href="#DejaVuSans-74"/>
      <use x="221.435547" xlink:href="#DejaVuSans-20"/>
      <use x="253.222656" xlink:href="#DejaVuSans-76"/>
      <use x="312.402344" xlink:href="#DejaVuSans-61"/>
      <use x="373.681641" xlink:href="#DejaVuSans-6c"/>
      <use x="401.464844" xlink:href="#DejaVuSans-69"/>
      <use x="429.248047" xlink:href="#DejaVuSans-64"/>
      <use x="492.724609" xlink:href="#DejaVuSans-61"/>
      <use x="554.003906" xlink:href="#DejaVuSans-74"/>
      <use x="593.212891" xlink:href="#DejaVuSans-69"/>
      <use x="620.996094" xlink:href="#DejaVuSans-6f"/>
      <use x="682.177734" xlink:href="#DejaVuSans-6e"/>
      <use x="745.556641" xlink:href="#DejaVuSans-20"/>
      <use x="777.34375" xlink:href="#DejaVuSans-61"/>
      <use x="838.623047" xlink:href="#DejaVuSans-63"/>
      <use x="893.603516" xlink:href="#DejaVuSans-63"/>
      <use x="948.583984" xlink:href="#DejaVuSans-75"/>
      <use x="1011.962891" xlink:href="#DejaVuSans-72"/>
      <use x="1053.076172" xlink:href="#DejaVuSans-61"/>
      <use x="1114.355469" xlink:href="#DejaVuSans-63"/>
      <use x="1169.335938" xlink:href="#DejaVuSans-79"/>
     </g>
    </g>
   </g>
   <g id="PathCollection_1">
    <defs>
     <path d="M 0 3.383948 
C 0.897434 3.383948 1.758231 3.027394 2.392813 2.392813 
C 3.027394 1.758231 3.383948 0.897434 3.383948 0 
C 3.383948 -0.897434 3.027394 -1.758231 2.392813 -2.392813 
C 1.758231 -3.027394 0.897434 -3.383948 0 -3.383948 
C -0.897434 -3.383948 -1.758231 -3.027394 -2.392813 -2.392813 
C -3.027394 -1.758231 -3.383948 -0.897434 -3.383948 0 
C -3.383948 0.897434 -3.027394 1.758231 -2.392813 2.392813 
C -1.758231 3.027394 -0.897434 3.383948 0 3.383948 
z
" id="C0_0_0c0a391f33"/>
    </defs>
    <g clip-path="url(#p1ed4785c7d)">
     <use style="fill:#4c72b0;stroke:#4c72b0;stroke-width:2.025;" x="106.302378" xlink:href="#C0_0_0c0a391f33" y="406.318267"/>
    </g>
    <g clip-path="url(#p1ed4785c7d)">
     <use style="fill:#4c72b0;stroke:#4c72b0;stroke-width:2.025;" x="184.919362" xlink:href="#C0_0_0c0a391f33" y="468.198876"/>
    </g>
    <g clip-path="url(#p1ed4785c7d)">
     <use style="fill:#4c72b0;stroke:#4c72b0;stroke-width:2.025;" x="263.536345" xlink:href="#C0_0_0c0a391f33" y="456.947864"/>
    </g>
    <g clip-path="url(#p1ed4785c7d)">
     <use style="fill:#4c72b0;stroke:#4c72b0;stroke-width:2.025;" x="342.153328" xlink:href="#C0_0_0c0a391f33" y="501.951947"/>
    </g>
    <g clip-path="url(#p1ed4785c7d)">
     <use style="fill:#4c72b0;stroke:#4c72b0;stroke-width:2.025;" x="420.770312" xlink:href="#C0_0_0c0a391f33" y="542.455619"/>
    </g>
    <g clip-path="url(#p1ed4785c7d)">
     <use style="fill:#4c72b0;stroke:#4c72b0;stroke-width:2.025;" x="499.387295" xlink:href="#C0_0_0c0a391f33" y="580.709095"/>
    </g>
    <g clip-path="url(#p1ed4785c7d)">
     <use style="fill:#4c72b0;stroke:#4c72b0;stroke-width:2.025;" x="578.004278" xlink:href="#C0_0_0c0a391f33" y="576.208682"/>
    </g>
    <g clip-path="url(#p1ed4785c7d)">
     <use style="fill:#4c72b0;stroke:#4c72b0;stroke-width:2.025;" x="656.621262" xlink:href="#C0_0_0c0a391f33" y="598.710722"/>
    </g>
   </g>
   <g id="line2d_6">
    <path clip-path="url(#p1ed4785c7d)" d="M 106.302378 406.318267 
L 184.919362 468.198876 
L 263.536345 456.947864 
L 342.153328 501.951947 
L 420.770312 542.455619 
L 499.387295 580.709095 
L 578.004278 576.208682 
L 656.621262 598.710722 
" style="fill:none;stroke:#4c72b0;stroke-dasharray:2.7,4.455;stroke-dashoffset:0;stroke-width:2.7;"/>
   </g>
   <g id="line2d_7">
    <path clip-path="url(#p1ed4785c7d)" d="M 106.302378 442.321529 
L 106.302378 375.940511 
" style="fill:none;stroke:#4c72b0;stroke-linecap:round;stroke-width:1.8;"/>
   </g>
   <g id="line2d_8">
    <path clip-path="url(#p1ed4785c7d)" d="M 102.371529 442.321529 
L 110.233228 442.321529 
" style="fill:none;stroke:#4c72b0;stroke-linecap:round;stroke-width:1.8;"/>
   </g>
   <g id="line2d_9">
    <path clip-path="url(#p1ed4785c7d)" d="M 102.371529 375.940511 
L 110.233228 375.940511 
" style="fill:none;stroke:#4c72b0;stroke-linecap:round;stroke-width:1.8;"/>
   </g>
   <g id="line2d_10">
    <path clip-path="url(#p1ed4785c7d)" d="M 184.919362 524.453982 
L 184.919362 407.443364 
" style="fill:none;stroke:#4c72b0;stroke-linecap:round;stroke-width:1.8;"/>
   </g>
   <g id="line2d_11">
    <path clip-path="url(#p1ed4785c7d)" d="M 180.988513 524.453982 
L 188.850211 524.453982 
" style="fill:none;stroke:#4c72b0;stroke-linecap:round;stroke-width:1.8;"/>
   </g>
   <g id="line2d_12">
    <path clip-path="url(#p1ed4785c7d)" d="M 180.988513 407.443364 
L 188.850211 407.443364 
" style="fill:none;stroke:#4c72b0;stroke-linecap:round;stroke-width:1.8;"/>
   </g>
   <g id="line2d_13">
    <path clip-path="url(#p1ed4785c7d)" d="M 263.536345 482.825214 
L 263.536345 427.695212 
" style="fill:none;stroke:#4c72b0;stroke-linecap:round;stroke-width:1.8;"/>
   </g>
   <g id="line2d_14">
    <path clip-path="url(#p1ed4785c7d)" d="M 259.605496 482.825214 
L 267.467194 482.825214 
" style="fill:none;stroke:#4c72b0;stroke-linecap:round;stroke-width:1.8;"/>
   </g>
   <g id="line2d_15">
    <path clip-path="url(#p1ed4785c7d)" d="M 259.605496 427.695212 
L 267.467194 427.695212 
" style="fill:none;stroke:#4c72b0;stroke-linecap:round;stroke-width:1.8;"/>
   </g>
   <g id="line2d_16">
    <path clip-path="url(#p1ed4785c7d)" d="M 342.153328 580.709094 
L 342.153328 415.319086 
" style="fill:none;stroke:#4c72b0;stroke-linecap:round;stroke-width:1.8;"/>
   </g>
   <g id="line2d_17">
    <path clip-path="url(#p1ed4785c7d)" d="M 338.222479 580.709094 
L 346.084178 580.709094 
" style="fill:none;stroke:#4c72b0;stroke-linecap:round;stroke-width:1.8;"/>
   </g>
   <g id="line2d_18">
    <path clip-path="url(#p1ed4785c7d)" d="M 338.222479 415.319086 
L 346.084178 415.319086 
" style="fill:none;stroke:#4c72b0;stroke-linecap:round;stroke-width:1.8;"/>
   </g>
   <g id="line2d_19">
    <path clip-path="url(#p1ed4785c7d)" d="M 420.770312 606.586432 
L 420.770312 498.576639 
" style="fill:none;stroke:#4c72b0;stroke-linecap:round;stroke-width:1.8;"/>
   </g>
   <g id="line2d_20">
    <path clip-path="url(#p1ed4785c7d)" d="M 416.839463 606.586432 
L 424.701161 606.586432 
" style="fill:none;stroke:#4c72b0;stroke-linecap:round;stroke-width:1.8;"/>
   </g>
   <g id="line2d_21">
    <path clip-path="url(#p1ed4785c7d)" d="M 416.839463 498.576639 
L 424.701161 498.576639 
" style="fill:none;stroke:#4c72b0;stroke-linecap:round;stroke-width:1.8;"/>
   </g>
   <g id="line2d_22">
    <path clip-path="url(#p1ed4785c7d)" d="M 499.387295 600.960932 
L 499.387295 560.457257 
" style="fill:none;stroke:#4c72b0;stroke-linecap:round;stroke-width:1.8;"/>
   </g>
   <g id="line2d_23">
    <path clip-path="url(#p1ed4785c7d)" d="M 495.456446 600.960932 
L 503.318144 600.960932 
" style="fill:none;stroke:#4c72b0;stroke-linecap:round;stroke-width:1.8;"/>
   </g>
   <g id="line2d_24">
    <path clip-path="url(#p1ed4785c7d)" d="M 495.456446 560.457257 
L 503.318144 560.457257 
" style="fill:none;stroke:#4c72b0;stroke-linecap:round;stroke-width:1.8;"/>
   </g>
   <g id="line2d_25">
    <path clip-path="url(#p1ed4785c7d)" d="M 578.004278 582.98743 
L 578.004278 569.458069 
" style="fill:none;stroke:#4c72b0;stroke-linecap:round;stroke-width:1.8;"/>
   </g>
   <g id="line2d_26">
    <path clip-path="url(#p1ed4785c7d)" d="M 574.073429 582.98743 
L 581.935128 582.98743 
" style="fill:none;stroke:#4c72b0;stroke-linecap:round;stroke-width:1.8;"/>
   </g>
   <g id="line2d_27">
    <path clip-path="url(#p1ed4785c7d)" d="M 574.073429 569.458069 
L 581.935128 569.458069 
" style="fill:none;stroke:#4c72b0;stroke-linecap:round;stroke-width:1.8;"/>
   </g>
   <g id="line2d_28">
    <path clip-path="url(#p1ed4785c7d)" d="M 656.621262 635.839091 
L 656.621262 572.83337 
" style="fill:none;stroke:#4c72b0;stroke-linecap:round;stroke-width:1.8;"/>
   </g>
   <g id="line2d_29">
    <path clip-path="url(#p1ed4785c7d)" d="M 652.690413 635.839091 
L 660.552111 635.839091 
" style="fill:none;stroke:#4c72b0;stroke-linecap:round;stroke-width:1.8;"/>
   </g>
   <g id="line2d_30">
    <path clip-path="url(#p1ed4785c7d)" d="M 652.690413 572.83337 
L 660.552111 572.83337 
" style="fill:none;stroke:#4c72b0;stroke-linecap:round;stroke-width:1.8;"/>
   </g>
   <g id="PathCollection_2">
    <path clip-path="url(#p1ed4785c7d)" d="M 116.784643 218.417582 
L 113.400695 225.185478 
L 120.168591 225.185478 
z
" style="fill:#dd8452;stroke:#dd8452;stroke-width:2.025;"/>
    <path clip-path="url(#p1ed4785c7d)" d="M 195.401626 225.168192 
L 192.017678 231.936089 
L 198.785574 231.936089 
z
" style="fill:#dd8452;stroke:#dd8452;stroke-width:2.025;"/>
    <path clip-path="url(#p1ed4785c7d)" d="M 274.01861 209.41677 
L 270.634661 216.184666 
L 277.402558 216.184666 
z
" style="fill:#dd8452;stroke:#dd8452;stroke-width:2.025;"/>
    <path clip-path="url(#p1ed4785c7d)" d="M 352.635593 281.423296 
L 349.251645 288.191193 
L 356.019541 288.191193 
z
" style="fill:#dd8452;stroke:#dd8452;stroke-width:2.025;"/>
    <path clip-path="url(#p1ed4785c7d)" d="M 431.252576 330.927792 
L 427.868628 337.695689 
L 434.636524 337.695689 
z
" style="fill:#dd8452;stroke:#dd8452;stroke-width:2.025;"/>
    <path clip-path="url(#p1ed4785c7d)" d="M 509.869559 317.426574 
L 506.485611 324.19447 
L 513.253508 324.19447 
z
" style="fill:#dd8452;stroke:#dd8452;stroke-width:2.025;"/>
    <path clip-path="url(#p1ed4785c7d)" d="M 588.486543 368.056166 
L 585.102595 374.824062 
L 591.870491 374.824062 
z
" style="fill:#dd8452;stroke:#dd8452;stroke-width:2.025;"/>
    <path clip-path="url(#p1ed4785c7d)" d="M 667.103526 383.807585 
L 663.719578 390.575482 
L 670.487474 390.575482 
z
" style="fill:#dd8452;stroke:#dd8452;stroke-width:2.025;"/>
   </g>
   <g id="line2d_31">
    <path clip-path="url(#p1ed4785c7d)" d="M 116.784643 221.80153 
L 195.401626 228.55214 
L 274.01861 212.800718 
L 352.635593 284.807245 
L 431.252576 334.31174 
L 509.869559 320.810522 
L 588.486543 371.440114 
L 667.103526 387.191534 
" style="fill:none;stroke:#dd8452;stroke-dasharray:2.7,4.455;stroke-dashoffset:0;stroke-width:2.7;"/>
   </g>
   <g id="line2d_32">
    <path clip-path="url(#p1ed4785c7d)" d="M 116.784643 243.178468 
L 116.784643 200.424598 
" style="fill:none;stroke:#dd8452;stroke-linecap:round;stroke-width:1.8;"/>
   </g>
   <g id="line2d_33">
    <path clip-path="url(#p1ed4785c7d)" d="M 112.853794 243.178468 
L 120.715492 243.178468 
" style="fill:none;stroke:#dd8452;stroke-linecap:round;stroke-width:1.8;"/>
   </g>
   <g id="line2d_34">
    <path clip-path="url(#p1ed4785c7d)" d="M 112.853794 200.424598 
L 120.715492 200.424598 
" style="fill:none;stroke:#dd8452;stroke-linecap:round;stroke-width:1.8;"/>
   </g>
   <g id="line2d_35">
    <path clip-path="url(#p1ed4785c7d)" d="M 195.401626 247.67889 
L 195.401626 208.300305 
" style="fill:none;stroke:#dd8452;stroke-linecap:round;stroke-width:1.8;"/>
   </g>
   <g id="line2d_36">
    <path clip-path="url(#p1ed4785c7d)" d="M 191.470777 247.67889 
L 199.332475 247.67889 
" style="fill:none;stroke:#dd8452;stroke-linecap:round;stroke-width:1.8;"/>
   </g>
   <g id="line2d_37">
    <path clip-path="url(#p1ed4785c7d)" d="M 191.470777 208.300305 
L 199.332475 208.300305 
" style="fill:none;stroke:#dd8452;stroke-linecap:round;stroke-width:1.8;"/>
   </g>
   <g id="line2d_38">
    <path clip-path="url(#p1ed4785c7d)" d="M 274.01861 245.456799 
L 274.01861 185.798269 
" style="fill:none;stroke:#dd8452;stroke-linecap:round;stroke-width:1.8;"/>
   </g>
   <g id="line2d_39">
    <path clip-path="url(#p1ed4785c7d)" d="M 270.08776 245.456799 
L 277.949459 245.456799 
" style="fill:none;stroke:#dd8452;stroke-linecap:round;stroke-width:1.8;"/>
   </g>
   <g id="line2d_40">
    <path clip-path="url(#p1ed4785c7d)" d="M 270.08776 185.798269 
L 277.949459 185.798269 
" style="fill:none;stroke:#dd8452;stroke-linecap:round;stroke-width:1.8;"/>
   </g>
   <g id="line2d_41">
    <path clip-path="url(#p1ed4785c7d)" d="M 352.635593 326.436018 
L 352.635593 243.178473 
" style="fill:none;stroke:#dd8452;stroke-linecap:round;stroke-width:1.8;"/>
   </g>
   <g id="line2d_42">
    <path clip-path="url(#p1ed4785c7d)" d="M 348.704744 326.436018 
L 356.566442 326.436018 
" style="fill:none;stroke:#dd8452;stroke-linecap:round;stroke-width:1.8;"/>
   </g>
   <g id="line2d_43">
    <path clip-path="url(#p1ed4785c7d)" d="M 348.704744 243.178473 
L 356.566442 243.178473 
" style="fill:none;stroke:#dd8452;stroke-linecap:round;stroke-width:1.8;"/>
   </g>
   <g id="line2d_44">
    <path clip-path="url(#p1ed4785c7d)" d="M 431.252576 364.717627 
L 431.252576 296.058261 
" style="fill:none;stroke:#dd8452;stroke-linecap:round;stroke-width:1.8;"/>
   </g>
   <g id="line2d_45">
    <path clip-path="url(#p1ed4785c7d)" d="M 427.321727 364.717627 
L 435.183425 364.717627 
" style="fill:none;stroke:#dd8452;stroke-linecap:round;stroke-width:1.8;"/>
   </g>
   <g id="line2d_46">
    <path clip-path="url(#p1ed4785c7d)" d="M 427.321727 296.058261 
L 435.183425 296.058261 
" style="fill:none;stroke:#dd8452;stroke-linecap:round;stroke-width:1.8;"/>
   </g>
   <g id="line2d_47">
    <path clip-path="url(#p1ed4785c7d)" d="M 509.869559 342.187462 
L 509.869559 303.933988 
" style="fill:none;stroke:#dd8452;stroke-linecap:round;stroke-width:1.8;"/>
   </g>
   <g id="line2d_48">
    <path clip-path="url(#p1ed4785c7d)" d="M 505.93871 342.187462 
L 513.800409 342.187462 
" style="fill:none;stroke:#dd8452;stroke-linecap:round;stroke-width:1.8;"/>
   </g>
   <g id="line2d_49">
    <path clip-path="url(#p1ed4785c7d)" d="M 505.93871 303.933988 
L 513.800409 303.933988 
" style="fill:none;stroke:#dd8452;stroke-linecap:round;stroke-width:1.8;"/>
   </g>
   <g id="line2d_50">
    <path clip-path="url(#p1ed4785c7d)" d="M 588.486543 422.069706 
L 588.486543 312.93481 
" style="fill:none;stroke:#dd8452;stroke-linecap:round;stroke-width:1.8;"/>
   </g>
   <g id="line2d_51">
    <path clip-path="url(#p1ed4785c7d)" d="M 584.555694 422.069706 
L 592.417392 422.069706 
" style="fill:none;stroke:#dd8452;stroke-linecap:round;stroke-width:1.8;"/>
   </g>
   <g id="line2d_52">
    <path clip-path="url(#p1ed4785c7d)" d="M 584.555694 312.93481 
L 592.417392 312.93481 
" style="fill:none;stroke:#dd8452;stroke-linecap:round;stroke-width:1.8;"/>
   </g>
   <g id="line2d_53">
    <path clip-path="url(#p1ed4785c7d)" d="M 667.103526 429.94541 
L 667.103526 355.68868 
" style="fill:none;stroke:#dd8452;stroke-linecap:round;stroke-width:1.8;"/>
   </g>
   <g id="line2d_54">
    <path clip-path="url(#p1ed4785c7d)" d="M 663.172677 429.94541 
L 671.034375 429.94541 
" style="fill:none;stroke:#dd8452;stroke-linecap:round;stroke-width:1.8;"/>
   </g>
   <g id="line2d_55">
    <path clip-path="url(#p1ed4785c7d)" d="M 663.172677 355.68868 
L 671.034375 355.68868 
" style="fill:none;stroke:#dd8452;stroke-linecap:round;stroke-width:1.8;"/>
   </g>
   <g id="patch_3">
    <path d="M 82.717284 665.148 
L 82.717284 20.352 
" style="fill:none;stroke:#cccccc;stroke-linecap:square;stroke-linejoin:miter;"/>
   </g>
   <g id="patch_4">
    <path d="M 82.717284 665.148 
L 711.65315 665.148 
" style="fill:none;stroke:#cccccc;stroke-linecap:square;stroke-linejoin:miter;"/>
   </g>
   <g id="PathCollection_3">
    <path clip-path="url(#p1ed4785c7d)" d="M 123.882959 95.798735 
L 130.650856 95.798735 
L 130.650856 89.030839 
L 123.882959 89.030839 
z
" style="fill:#55a868;stroke:#55a868;stroke-width:2.025;"/>
    <path clip-path="url(#p1ed4785c7d)" d="M 202.499943 120.550985 
L 209.267839 120.550985 
L 209.267839 113.783088 
L 202.499943 113.783088 
z
" style="fill:#55a868;stroke:#55a868;stroke-width:2.025;"/>
    <path clip-path="url(#p1ed4785c7d)" d="M 281.116926 192.557515 
L 287.884822 192.557515 
L 287.884822 185.789618 
L 281.116926 185.789618 
z
" style="fill:#55a868;stroke:#55a868;stroke-width:2.025;"/>
    <path clip-path="url(#p1ed4785c7d)" d="M 359.733909 212.809355 
L 366.501805 212.809355 
L 366.501805 206.041459 
L 359.733909 206.041459 
z
" style="fill:#55a868;stroke:#55a868;stroke-width:2.025;"/>
    <path clip-path="url(#p1ed4785c7d)" d="M 438.350892 230.810988 
L 445.118789 230.810988 
L 445.118789 224.043091 
L 438.350892 224.043091 
z
" style="fill:#55a868;stroke:#55a868;stroke-width:2.025;"/>
    <path clip-path="url(#p1ed4785c7d)" d="M 516.967876 294.941804 
L 523.735772 294.941804 
L 523.735772 288.173908 
L 516.967876 288.173908 
z
" style="fill:#55a868;stroke:#55a868;stroke-width:2.025;"/>
    <path clip-path="url(#p1ed4785c7d)" d="M 595.584859 309.568139 
L 602.352755 309.568139 
L 602.352755 302.800243 
L 595.584859 302.800243 
z
" style="fill:#55a868;stroke:#55a868;stroke-width:2.025;"/>
    <path clip-path="url(#p1ed4785c7d)" d="M 674.201842 362.447934 
L 680.969739 362.447934 
L 680.969739 355.680038 
L 674.201842 355.680038 
z
" style="fill:#55a868;stroke:#55a868;stroke-width:2.025;"/>
   </g>
   <g id="line2d_56">
    <path clip-path="url(#p1ed4785c7d)" d="M 127.266907 92.414787 
L 205.883891 117.167036 
L 284.500874 189.173567 
L 363.117857 209.425407 
L 441.734841 227.427039 
L 520.351824 291.557856 
L 598.968807 306.184191 
L 677.585791 359.063986 
" style="fill:none;stroke:#55a868;stroke-dasharray:2.7,4.455;stroke-dashoffset:0;stroke-width:2.7;"/>
   </g>
   <g id="line2d_57">
    <path clip-path="url(#p1ed4785c7d)" d="M 127.266907 122.79254 
L 127.266907 56.411523 
" style="fill:none;stroke:#55a868;stroke-linecap:round;stroke-width:1.8;"/>
   </g>
   <g id="line2d_58">
    <path clip-path="url(#p1ed4785c7d)" d="M 123.336058 122.79254 
L 131.197757 122.79254 
" style="fill:none;stroke:#55a868;stroke-linecap:round;stroke-width:1.8;"/>
   </g>
   <g id="line2d_59">
    <path clip-path="url(#p1ed4785c7d)" d="M 123.336058 56.411523 
L 131.197757 56.411523 
" style="fill:none;stroke:#55a868;stroke-linecap:round;stroke-width:1.8;"/>
   </g>
   <g id="line2d_60">
    <path clip-path="url(#p1ed4785c7d)" d="M 205.883891 139.697215 
L 205.883891 91.289689 
" style="fill:none;stroke:#55a868;stroke-linecap:round;stroke-width:1.8;"/>
   </g>
   <g id="line2d_61">
    <path clip-path="url(#p1ed4785c7d)" d="M 201.953042 139.697215 
L 209.81474 139.697215 
" style="fill:none;stroke:#55a868;stroke-linecap:round;stroke-width:1.8;"/>
   </g>
   <g id="line2d_62">
    <path clip-path="url(#p1ed4785c7d)" d="M 201.953042 91.289689 
L 209.81474 91.289689 
" style="fill:none;stroke:#55a868;stroke-linecap:round;stroke-width:1.8;"/>
   </g>
   <g id="line2d_63">
    <path clip-path="url(#p1ed4785c7d)" d="M 284.500874 209.425401 
L 284.500874 165.546428 
" style="fill:none;stroke:#55a868;stroke-linecap:round;stroke-width:1.8;"/>
   </g>
   <g id="line2d_64">
    <path clip-path="url(#p1ed4785c7d)" d="M 280.570025 209.425401 
L 288.431723 209.425401 
" style="fill:none;stroke:#55a868;stroke-linecap:round;stroke-width:1.8;"/>
   </g>
   <g id="line2d_65">
    <path clip-path="url(#p1ed4785c7d)" d="M 280.570025 165.546428 
L 288.431723 165.546428 
" style="fill:none;stroke:#55a868;stroke-linecap:round;stroke-width:1.8;"/>
   </g>
   <g id="line2d_66">
    <path clip-path="url(#p1ed4785c7d)" d="M 363.117857 255.554594 
L 363.117857 158.795804 
" style="fill:none;stroke:#55a868;stroke-linecap:round;stroke-width:1.8;"/>
   </g>
   <g id="line2d_67">
    <path clip-path="url(#p1ed4785c7d)" d="M 359.187008 255.554594 
L 367.048706 255.554594 
" style="fill:none;stroke:#55a868;stroke-linecap:round;stroke-width:1.8;"/>
   </g>
   <g id="line2d_68">
    <path clip-path="url(#p1ed4785c7d)" d="M 359.187008 158.795804 
L 367.048706 158.795804 
" style="fill:none;stroke:#55a868;stroke-linecap:round;stroke-width:1.8;"/>
   </g>
   <g id="line2d_69">
    <path clip-path="url(#p1ed4785c7d)" d="M 441.734841 256.679699 
L 441.734841 200.424583 
" style="fill:none;stroke:#55a868;stroke-linecap:round;stroke-width:1.8;"/>
   </g>
   <g id="line2d_70">
    <path clip-path="url(#p1ed4785c7d)" d="M 437.803991 256.679699 
L 445.66569 256.679699 
" style="fill:none;stroke:#55a868;stroke-linecap:round;stroke-width:1.8;"/>
   </g>
   <g id="line2d_71">
    <path clip-path="url(#p1ed4785c7d)" d="M 437.803991 200.424583 
L 445.66569 200.424583 
" style="fill:none;stroke:#55a868;stroke-linecap:round;stroke-width:1.8;"/>
   </g>
   <g id="line2d_72">
    <path clip-path="url(#p1ed4785c7d)" d="M 520.351824 314.059899 
L 520.351824 264.555406 
" style="fill:none;stroke:#55a868;stroke-linecap:round;stroke-width:1.8;"/>
   </g>
   <g id="line2d_73">
    <path clip-path="url(#p1ed4785c7d)" d="M 516.420975 314.059899 
L 524.282673 314.059899 
" style="fill:none;stroke:#55a868;stroke-linecap:round;stroke-width:1.8;"/>
   </g>
   <g id="line2d_74">
    <path clip-path="url(#p1ed4785c7d)" d="M 516.420975 264.555406 
L 524.282673 264.555406 
" style="fill:none;stroke:#55a868;stroke-linecap:round;stroke-width:1.8;"/>
   </g>
   <g id="line2d_75">
    <path clip-path="url(#p1ed4785c7d)" d="M 598.968807 330.936435 
L 598.968807 281.431947 
" style="fill:none;stroke:#55a868;stroke-linecap:round;stroke-width:1.8;"/>
   </g>
   <g id="line2d_76">
    <path clip-path="url(#p1ed4785c7d)" d="M 595.037958 330.936435 
L 602.899656 330.936435 
" style="fill:none;stroke:#55a868;stroke-linecap:round;stroke-width:1.8;"/>
   </g>
   <g id="line2d_77">
    <path clip-path="url(#p1ed4785c7d)" d="M 595.037958 281.431947 
L 602.899656 281.431947 
" style="fill:none;stroke:#55a868;stroke-linecap:round;stroke-width:1.8;"/>
   </g>
   <g id="line2d_78">
    <path clip-path="url(#p1ed4785c7d)" d="M 677.585791 383.816228 
L 677.585791 324.185828 
" style="fill:none;stroke:#55a868;stroke-linecap:round;stroke-width:1.8;"/>
   </g>
   <g id="line2d_79">
    <path clip-path="url(#p1ed4785c7d)" d="M 673.654941 383.816228 
L 681.51664 383.816228 
" style="fill:none;stroke:#55a868;stroke-linecap:round;stroke-width:1.8;"/>
   </g>
   <g id="line2d_80">
    <path clip-path="url(#p1ed4785c7d)" d="M 673.654941 324.185828 
L 681.51664 324.185828 
" style="fill:none;stroke:#55a868;stroke-linecap:round;stroke-width:1.8;"/>
   </g>
   <g id="PathCollection_4">
    <path clip-path="url(#p1ed4785c7d)" d="M 137.749172 78.073676 
L 140.620547 73.288051 
L 137.749172 68.502425 
L 134.877797 73.288051 
z
" style="fill:#c44e52;stroke:#c44e52;stroke-width:2.025;"/>
    <path clip-path="url(#p1ed4785c7d)" d="M 216.366155 75.823471 
L 219.23753 71.037846 
L 216.366155 66.25222 
L 213.49478 71.037846 
z
" style="fill:#c44e52;stroke:#c44e52;stroke-width:2.025;"/>
    <path clip-path="url(#p1ed4785c7d)" d="M 294.983138 157.955931 
L 297.854514 153.170306 
L 294.983138 148.38468 
L 292.111763 153.170306 
z
" style="fill:#c44e52;stroke:#c44e52;stroke-width:2.025;"/>
    <path clip-path="url(#p1ed4785c7d)" d="M 373.600122 184.958379 
L 376.471497 180.172754 
L 373.600122 175.387129 
L 370.728747 180.172754 
z
" style="fill:#c44e52;stroke:#c44e52;stroke-width:2.025;"/>
    <path clip-path="url(#p1ed4785c7d)" d="M 452.217105 243.463689 
L 455.08848 238.678063 
L 452.217105 233.892438 
L 449.34573 238.678063 
z
" style="fill:#c44e52;stroke:#c44e52;stroke-width:2.025;"/>
    <path clip-path="url(#p1ed4785c7d)" d="M 530.834088 252.464501 
L 533.705464 247.678876 
L 530.834088 242.893251 
L 527.962713 247.678876 
z
" style="fill:#c44e52;stroke:#c44e52;stroke-width:2.025;"/>
    <path clip-path="url(#p1ed4785c7d)" d="M 609.451072 328.971444 
L 612.322447 324.185818 
L 609.451072 319.400193 
L 606.579696 324.185818 
z
" style="fill:#c44e52;stroke:#c44e52;stroke-width:2.025;"/>
    <path clip-path="url(#p1ed4785c7d)" d="M 688.068055 360.474298 
L 690.93943 355.688673 
L 688.068055 350.903048 
L 685.19668 355.688673 
z
" style="fill:#c44e52;stroke:#c44e52;stroke-width:2.025;"/>
   </g>
   <g id="line2d_81">
    <path clip-path="url(#p1ed4785c7d)" d="M 137.749172 73.288051 
L 216.366155 71.037846 
L 294.983138 153.170306 
L 373.600122 180.172754 
L 452.217105 238.678063 
L 530.834088 247.678876 
L 609.451072 324.185818 
L 688.068055 355.688673 
" style="fill:none;stroke:#c44e52;stroke-dasharray:2.7,4.455;stroke-dashoffset:0;stroke-width:2.7;"/>
   </g>
   <g id="line2d_82">
    <path clip-path="url(#p1ed4785c7d)" d="M 137.749172 98.040294 
L 137.749172 49.660909 
" style="fill:none;stroke:#c44e52;stroke-linecap:round;stroke-width:1.8;"/>
   </g>
   <g id="line2d_83">
    <path clip-path="url(#p1ed4785c7d)" d="M 133.818323 98.040294 
L 141.680021 98.040294 
" style="fill:none;stroke:#c44e52;stroke-linecap:round;stroke-width:1.8;"/>
   </g>
   <g id="line2d_84">
    <path clip-path="url(#p1ed4785c7d)" d="M 133.818323 49.660909 
L 141.680021 49.660909 
" style="fill:none;stroke:#c44e52;stroke-linecap:round;stroke-width:1.8;"/>
   </g>
   <g id="line2d_85">
    <path clip-path="url(#p1ed4785c7d)" d="M 216.366155 86.789274 
L 216.366155 51.911108 
" style="fill:none;stroke:#c44e52;stroke-linecap:round;stroke-width:1.8;"/>
   </g>
   <g id="line2d_86">
    <path clip-path="url(#p1ed4785c7d)" d="M 212.435306 86.789274 
L 220.297004 86.789274 
" style="fill:none;stroke:#c44e52;stroke-linecap:round;stroke-width:1.8;"/>
   </g>
   <g id="line2d_87">
    <path clip-path="url(#p1ed4785c7d)" d="M 212.435306 51.911108 
L 220.297004 51.911108 
" style="fill:none;stroke:#c44e52;stroke-linecap:round;stroke-width:1.8;"/>
   </g>
   <g id="line2d_88">
    <path clip-path="url(#p1ed4785c7d)" d="M 294.983138 185.798261 
L 294.983138 128.418067 
" style="fill:none;stroke:#c44e52;stroke-linecap:round;stroke-width:1.8;"/>
   </g>
   <g id="line2d_89">
    <path clip-path="url(#p1ed4785c7d)" d="M 291.052289 185.798261 
L 298.913988 185.798261 
" style="fill:none;stroke:#c44e52;stroke-linecap:round;stroke-width:1.8;"/>
   </g>
   <g id="line2d_90">
    <path clip-path="url(#p1ed4785c7d)" d="M 291.052289 128.418067 
L 298.913988 128.418067 
" style="fill:none;stroke:#c44e52;stroke-linecap:round;stroke-width:1.8;"/>
   </g>
   <g id="line2d_91">
    <path clip-path="url(#p1ed4785c7d)" d="M 373.600122 195.92418 
L 373.600122 164.421323 
" style="fill:none;stroke:#c44e52;stroke-linecap:round;stroke-width:1.8;"/>
   </g>
   <g id="line2d_92">
    <path clip-path="url(#p1ed4785c7d)" d="M 369.669273 195.92418 
L 377.530971 195.92418 
" style="fill:none;stroke:#c44e52;stroke-linecap:round;stroke-width:1.8;"/>
   </g>
   <g id="line2d_93">
    <path clip-path="url(#p1ed4785c7d)" d="M 369.669273 164.421323 
L 377.530971 164.421323 
" style="fill:none;stroke:#c44e52;stroke-linecap:round;stroke-width:1.8;"/>
   </g>
   <g id="line2d_94">
    <path clip-path="url(#p1ed4785c7d)" d="M 452.217105 271.30602 
L 452.217105 204.925003 
" style="fill:none;stroke:#c44e52;stroke-linecap:round;stroke-width:1.8;"/>
   </g>
   <g id="line2d_95">
    <path clip-path="url(#p1ed4785c7d)" d="M 448.286256 271.30602 
L 456.147954 271.30602 
" style="fill:none;stroke:#c44e52;stroke-linecap:round;stroke-width:1.8;"/>
   </g>
   <g id="line2d_96">
    <path clip-path="url(#p1ed4785c7d)" d="M 448.286256 204.925003 
L 456.147954 204.925003 
" style="fill:none;stroke:#c44e52;stroke-linecap:round;stroke-width:1.8;"/>
   </g>
   <g id="line2d_97">
    <path clip-path="url(#p1ed4785c7d)" d="M 530.834088 262.305197 
L 530.834088 234.177656 
" style="fill:none;stroke:#c44e52;stroke-linecap:round;stroke-width:1.8;"/>
   </g>
   <g id="line2d_98">
    <path clip-path="url(#p1ed4785c7d)" d="M 526.903239 262.305197 
L 534.764938 262.305197 
" style="fill:none;stroke:#c44e52;stroke-linecap:round;stroke-width:1.8;"/>
   </g>
   <g id="line2d_99">
    <path clip-path="url(#p1ed4785c7d)" d="M 526.903239 234.177656 
L 534.764938 234.177656 
" style="fill:none;stroke:#c44e52;stroke-linecap:round;stroke-width:1.8;"/>
   </g>
   <g id="line2d_100">
    <path clip-path="url(#p1ed4785c7d)" d="M 609.451072 383.816223 
L 609.451072 265.680512 
" style="fill:none;stroke:#c44e52;stroke-linecap:round;stroke-width:1.8;"/>
   </g>
   <g id="line2d_101">
    <path clip-path="url(#p1ed4785c7d)" d="M 605.520223 383.816223 
L 613.381921 383.816223 
" style="fill:none;stroke:#c44e52;stroke-linecap:round;stroke-width:1.8;"/>
   </g>
   <g id="line2d_102">
    <path clip-path="url(#p1ed4785c7d)" d="M 605.520223 265.680512 
L 613.381921 265.680512 
" style="fill:none;stroke:#c44e52;stroke-linecap:round;stroke-width:1.8;"/>
   </g>
   <g id="line2d_103">
    <path clip-path="url(#p1ed4785c7d)" d="M 688.068055 390.566834 
L 688.068055 318.532177 
" style="fill:none;stroke:#c44e52;stroke-linecap:round;stroke-width:1.8;"/>
   </g>
   <g id="line2d_104">
    <path clip-path="url(#p1ed4785c7d)" d="M 684.137206 390.566834 
L 691.998904 390.566834 
" style="fill:none;stroke:#c44e52;stroke-linecap:round;stroke-width:1.8;"/>
   </g>
   <g id="line2d_105">
    <path clip-path="url(#p1ed4785c7d)" d="M 684.137206 318.532177 
L 691.998904 318.532177 
" style="fill:none;stroke:#c44e52;stroke-linecap:round;stroke-width:1.8;"/>
   </g>
  </g>
  <g id="text_16">
   <!-- Model A - Hyperparameter exploration - CNN filter size &amp; Number of filters - Confidence: 95% -->
   <defs>
    <path d="M 9.8125 72.90625 
L 24.515625 72.90625 
L 43.109375 23.296875 
L 61.8125 72.90625 
L 76.515625 72.90625 
L 76.515625 0 
L 66.890625 0 
L 66.890625 64.015625 
L 48.09375 14.015625 
L 38.1875 14.015625 
L 19.390625 64.015625 
L 19.390625 0 
L 9.8125 0 
z
" id="DejaVuSans-4d"/>
    <path d="M 34.1875 63.1875 
L 20.796875 26.90625 
L 47.609375 26.90625 
z
M 28.609375 72.90625 
L 39.796875 72.90625 
L 67.578125 0 
L 57.328125 0 
L 50.6875 18.703125 
L 17.828125 18.703125 
L 11.1875 0 
L 0.78125 0 
z
" id="DejaVuSans-41"/>
    <path d="M 4.890625 31.390625 
L 31.203125 31.390625 
L 31.203125 23.390625 
L 4.890625 23.390625 
z
" id="DejaVuSans-2d"/>
    <path d="M 9.8125 72.90625 
L 19.671875 72.90625 
L 19.671875 43.015625 
L 55.515625 43.015625 
L 55.515625 72.90625 
L 65.375 72.90625 
L 65.375 0 
L 55.515625 0 
L 55.515625 34.71875 
L 19.671875 34.71875 
L 19.671875 0 
L 9.8125 0 
z
" id="DejaVuSans-48"/>
    <path d="M 18.109375 8.203125 
L 18.109375 -20.796875 
L 9.078125 -20.796875 
L 9.078125 54.6875 
L 18.109375 54.6875 
L 18.109375 46.390625 
Q 20.953125 51.265625 25.265625 53.625 
Q 29.59375 56 35.59375 56 
Q 45.5625 56 51.78125 48.09375 
Q 58.015625 40.1875 58.015625 27.296875 
Q 58.015625 14.40625 51.78125 6.484375 
Q 45.5625 -1.421875 35.59375 -1.421875 
Q 29.59375 -1.421875 25.265625 0.953125 
Q 20.953125 3.328125 18.109375 8.203125 
z
M 48.6875 27.296875 
Q 48.6875 37.203125 44.609375 42.84375 
Q 40.53125 48.484375 33.40625 48.484375 
Q 26.265625 48.484375 22.1875 42.84375 
Q 18.109375 37.203125 18.109375 27.296875 
Q 18.109375 17.390625 22.1875 11.75 
Q 26.265625 6.109375 33.40625 6.109375 
Q 40.53125 6.109375 44.609375 11.75 
Q 48.6875 17.390625 48.6875 27.296875 
z
" id="DejaVuSans-70"/>
    <path d="M 52 44.1875 
Q 55.375 50.25 60.0625 53.125 
Q 64.75 56 71.09375 56 
Q 79.640625 56 84.28125 50.015625 
Q 88.921875 44.046875 88.921875 33.015625 
L 88.921875 0 
L 79.890625 0 
L 79.890625 32.71875 
Q 79.890625 40.578125 77.09375 44.375 
Q 74.3125 48.1875 68.609375 48.1875 
Q 61.625 48.1875 57.5625 43.546875 
Q 53.515625 38.921875 53.515625 30.90625 
L 53.515625 0 
L 44.484375 0 
L 44.484375 32.71875 
Q 44.484375 40.625 41.703125 44.40625 
Q 38.921875 48.1875 33.109375 48.1875 
Q 26.21875 48.1875 22.15625 43.53125 
Q 18.109375 38.875 18.109375 30.90625 
L 18.109375 0 
L 9.078125 0 
L 9.078125 54.6875 
L 18.109375 54.6875 
L 18.109375 46.1875 
Q 21.1875 51.21875 25.484375 53.609375 
Q 29.78125 56 35.6875 56 
Q 41.65625 56 45.828125 52.96875 
Q 50 49.953125 52 44.1875 
z
" id="DejaVuSans-6d"/>
    <path d="M 54.890625 54.6875 
L 35.109375 28.078125 
L 55.90625 0 
L 45.3125 0 
L 29.390625 21.484375 
L 13.484375 0 
L 2.875 0 
L 24.125 28.609375 
L 4.6875 54.6875 
L 15.28125 54.6875 
L 29.78125 35.203125 
L 44.28125 54.6875 
z
" id="DejaVuSans-78"/>
    <path d="M 24.3125 39.203125 
Q 19.875 35.25 17.796875 31.3125 
Q 15.71875 27.390625 15.71875 23.09375 
Q 15.71875 15.96875 20.890625 11.234375 
Q 26.078125 6.5 33.890625 6.5 
Q 38.53125 6.5 42.578125 8.03125 
Q 46.625 9.578125 50.203125 12.703125 
z
M 31.203125 44.671875 
L 56 19.28125 
Q 58.890625 23.640625 60.5 28.59375 
Q 62.109375 33.546875 62.40625 39.109375 
L 71.484375 39.109375 
Q 70.90625 32.671875 68.359375 26.359375 
Q 65.828125 20.0625 61.28125 13.921875 
L 74.90625 0 
L 62.59375 0 
L 55.609375 7.171875 
Q 50.53125 2.828125 44.96875 0.703125 
Q 39.40625 -1.421875 33.015625 -1.421875 
Q 21.234375 -1.421875 13.765625 5.296875 
Q 6.296875 12.015625 6.296875 22.515625 
Q 6.296875 28.765625 9.5625 34.25 
Q 12.84375 39.75 19.390625 44.578125 
Q 17.046875 47.65625 15.8125 50.703125 
Q 14.59375 53.765625 14.59375 56.6875 
Q 14.59375 64.59375 20.015625 69.40625 
Q 25.4375 74.21875 34.421875 74.21875 
Q 38.484375 74.21875 42.5 73.34375 
Q 46.53125 72.46875 50.6875 70.703125 
L 50.6875 61.8125 
Q 46.4375 64.109375 42.578125 65.296875 
Q 38.71875 66.5 35.40625 66.5 
Q 30.28125 66.5 27.078125 63.78125 
Q 23.875 61.078125 23.875 56.78125 
Q 23.875 54.296875 25.3125 51.78125 
Q 26.765625 49.265625 31.203125 44.671875 
z
" id="DejaVuSans-26"/>
    <path d="M 48.6875 27.296875 
Q 48.6875 37.203125 44.609375 42.84375 
Q 40.53125 48.484375 33.40625 48.484375 
Q 26.265625 48.484375 22.1875 42.84375 
Q 18.109375 37.203125 18.109375 27.296875 
Q 18.109375 17.390625 22.1875 11.75 
Q 26.265625 6.109375 33.40625 6.109375 
Q 40.53125 6.109375 44.609375 11.75 
Q 48.6875 17.390625 48.6875 27.296875 
z
M 18.109375 46.390625 
Q 20.953125 51.265625 25.265625 53.625 
Q 29.59375 56 35.59375 56 
Q 45.5625 56 51.78125 48.09375 
Q 58.015625 40.1875 58.015625 27.296875 
Q 58.015625 14.40625 51.78125 6.484375 
Q 45.5625 -1.421875 35.59375 -1.421875 
Q 29.59375 -1.421875 25.265625 0.953125 
Q 20.953125 3.328125 18.109375 8.203125 
L 18.109375 0 
L 9.078125 0 
L 9.078125 75.984375 
L 18.109375 75.984375 
z
" id="DejaVuSans-62"/>
    <path d="M 11.71875 12.40625 
L 22.015625 12.40625 
L 22.015625 0 
L 11.71875 0 
z
M 11.71875 51.703125 
L 22.015625 51.703125 
L 22.015625 39.3125 
L 11.71875 39.3125 
z
" id="DejaVuSans-3a"/>
    <path d="M 72.703125 32.078125 
Q 68.453125 32.078125 66.03125 28.46875 
Q 63.625 24.859375 63.625 18.40625 
Q 63.625 12.0625 66.03125 8.421875 
Q 68.453125 4.78125 72.703125 4.78125 
Q 76.859375 4.78125 79.265625 8.421875 
Q 81.6875 12.0625 81.6875 18.40625 
Q 81.6875 24.8125 79.265625 28.4375 
Q 76.859375 32.078125 72.703125 32.078125 
z
M 72.703125 38.28125 
Q 80.421875 38.28125 84.953125 32.90625 
Q 89.5 27.546875 89.5 18.40625 
Q 89.5 9.28125 84.9375 3.921875 
Q 80.375 -1.421875 72.703125 -1.421875 
Q 64.890625 -1.421875 60.34375 3.921875 
Q 55.8125 9.28125 55.8125 18.40625 
Q 55.8125 27.59375 60.375 32.9375 
Q 64.9375 38.28125 72.703125 38.28125 
z
M 22.3125 68.015625 
Q 18.109375 68.015625 15.6875 64.375 
Q 13.28125 60.75 13.28125 54.390625 
Q 13.28125 47.953125 15.671875 44.328125 
Q 18.0625 40.71875 22.3125 40.71875 
Q 26.5625 40.71875 28.96875 44.328125 
Q 31.390625 47.953125 31.390625 54.390625 
Q 31.390625 60.6875 28.953125 64.34375 
Q 26.515625 68.015625 22.3125 68.015625 
z
M 66.40625 74.21875 
L 74.21875 74.21875 
L 28.609375 -1.421875 
L 20.796875 -1.421875 
z
M 22.3125 74.21875 
Q 30.03125 74.21875 34.609375 68.875 
Q 39.203125 63.53125 39.203125 54.390625 
Q 39.203125 45.171875 34.640625 39.84375 
Q 30.078125 34.515625 22.3125 34.515625 
Q 14.546875 34.515625 10.03125 39.859375 
Q 5.515625 45.21875 5.515625 54.390625 
Q 5.515625 63.484375 10.046875 68.84375 
Q 14.59375 74.21875 22.3125 74.21875 
z
" id="DejaVuSans-25"/>
   </defs>
   <g style="fill:#262626;" transform="translate(13.4954 27.5301)scale(0.1728 -0.1728)">
    <use xlink:href="#DejaVuSans-4d"/>
    <use x="86.279297" xlink:href="#DejaVuSans-6f"/>
    <use x="147.460938" xlink:href="#DejaVuSans-64"/>
    <use x="210.9375" xlink:href="#DejaVuSans-65"/>
    <use x="272.460938" xlink:href="#DejaVuSans-6c"/>
    <use x="300.244141" xlink:href="#DejaVuSans-20"/>
    <use x="332.03125" xlink:href="#DejaVuSans-41"/>
    <use x="400.439453" xlink:href="#DejaVuSans-20"/>
    <use x="432.226562" xlink:href="#DejaVuSans-2d"/>
    <use x="468.310547" xlink:href="#DejaVuSans-20"/>
    <use x="500.097656" xlink:href="#DejaVuSans-48"/>
    <use x="575.292969" xlink:href="#DejaVuSans-79"/>
    <use x="634.472656" xlink:href="#DejaVuSans-70"/>
    <use x="697.949219" xlink:href="#DejaVuSans-65"/>
    <use x="759.472656" xlink:href="#DejaVuSans-72"/>
    <use x="800.585938" xlink:href="#DejaVuSans-70"/>
    <use x="864.0625" xlink:href="#DejaVuSans-61"/>
    <use x="925.341797" xlink:href="#DejaVuSans-72"/>
    <use x="966.455078" xlink:href="#DejaVuSans-61"/>
    <use x="1027.734375" xlink:href="#DejaVuSans-6d"/>
    <use x="1125.146484" xlink:href="#DejaVuSans-65"/>
    <use x="1186.669922" xlink:href="#DejaVuSans-74"/>
    <use x="1225.878906" xlink:href="#DejaVuSans-65"/>
    <use x="1287.402344" xlink:href="#DejaVuSans-72"/>
    <use x="1328.515625" xlink:href="#DejaVuSans-20"/>
    <use x="1360.302734" xlink:href="#DejaVuSans-65"/>
    <use x="1421.810547" xlink:href="#DejaVuSans-78"/>
    <use x="1480.990234" xlink:href="#DejaVuSans-70"/>
    <use x="1544.466797" xlink:href="#DejaVuSans-6c"/>
    <use x="1572.25" xlink:href="#DejaVuSans-6f"/>
    <use x="1633.431641" xlink:href="#DejaVuSans-72"/>
    <use x="1674.544922" xlink:href="#DejaVuSans-61"/>
    <use x="1735.824219" xlink:href="#DejaVuSans-74"/>
    <use x="1775.033203" xlink:href="#DejaVuSans-69"/>
    <use x="1802.816406" xlink:href="#DejaVuSans-6f"/>
    <use x="1863.998047" xlink:href="#DejaVuSans-6e"/>
    <use x="1927.376953" xlink:href="#DejaVuSans-20"/>
    <use x="1959.164062" xlink:href="#DejaVuSans-2d"/>
    <use x="1995.248047" xlink:href="#DejaVuSans-20"/>
    <use x="2027.035156" xlink:href="#DejaVuSans-43"/>
    <use x="2096.859375" xlink:href="#DejaVuSans-4e"/>
    <use x="2171.664062" xlink:href="#DejaVuSans-4e"/>
    <use x="2246.46875" xlink:href="#DejaVuSans-20"/>
    <use x="2278.255859" xlink:href="#DejaVuSans-66"/>
    <use x="2313.460938" xlink:href="#DejaVuSans-69"/>
    <use x="2341.244141" xlink:href="#DejaVuSans-6c"/>
    <use x="2369.027344" xlink:href="#DejaVuSans-74"/>
    <use x="2408.236328" xlink:href="#DejaVuSans-65"/>
    <use x="2469.759766" xlink:href="#DejaVuSans-72"/>
    <use x="2510.873047" xlink:href="#DejaVuSans-20"/>
    <use x="2542.660156" xlink:href="#DejaVuSans-73"/>
    <use x="2594.759766" xlink:href="#DejaVuSans-69"/>
    <use x="2622.542969" xlink:href="#DejaVuSans-7a"/>
    <use x="2675.033203" xlink:href="#DejaVuSans-65"/>
    <use x="2736.556641" xlink:href="#DejaVuSans-20"/>
    <use x="2768.34375" xlink:href="#DejaVuSans-26"/>
    <use x="2846.322266" xlink:href="#DejaVuSans-20"/>
    <use x="2878.109375" xlink:href="#DejaVuSans-4e"/>
    <use x="2952.914062" xlink:href="#DejaVuSans-75"/>
    <use x="3016.292969" xlink:href="#DejaVuSans-6d"/>
    <use x="3113.705078" xlink:href="#DejaVuSans-62"/>
    <use x="3177.181641" xlink:href="#DejaVuSans-65"/>
    <use x="3238.705078" xlink:href="#DejaVuSans-72"/>
    <use x="3279.818359" xlink:href="#DejaVuSans-20"/>
    <use x="3311.605469" xlink:href="#DejaVuSans-6f"/>
    <use x="3372.787109" xlink:href="#DejaVuSans-66"/>
    <use x="3407.992188" xlink:href="#DejaVuSans-20"/>
    <use x="3439.779297" xlink:href="#DejaVuSans-66"/>
    <use x="3474.984375" xlink:href="#DejaVuSans-69"/>
    <use x="3502.767578" xlink:href="#DejaVuSans-6c"/>
    <use x="3530.550781" xlink:href="#DejaVuSans-74"/>
    <use x="3569.759766" xlink:href="#DejaVuSans-65"/>
    <use x="3631.283203" xlink:href="#DejaVuSans-72"/>
    <use x="3672.396484" xlink:href="#DejaVuSans-73"/>
    <use x="3724.496094" xlink:href="#DejaVuSans-20"/>
    <use x="3756.283203" xlink:href="#DejaVuSans-2d"/>
    <use x="3792.367188" xlink:href="#DejaVuSans-20"/>
    <use x="3824.154297" xlink:href="#DejaVuSans-43"/>
    <use x="3893.978516" xlink:href="#DejaVuSans-6f"/>
    <use x="3955.160156" xlink:href="#DejaVuSans-6e"/>
    <use x="4018.539062" xlink:href="#DejaVuSans-66"/>
    <use x="4053.744141" xlink:href="#DejaVuSans-69"/>
    <use x="4081.527344" xlink:href="#DejaVuSans-64"/>
    <use x="4145.003906" xlink:href="#DejaVuSans-65"/>
    <use x="4206.527344" xlink:href="#DejaVuSans-6e"/>
    <use x="4269.90625" xlink:href="#DejaVuSans-63"/>
    <use x="4324.886719" xlink:href="#DejaVuSans-65"/>
    <use x="4386.410156" xlink:href="#DejaVuSans-3a"/>
    <use x="4420.101562" xlink:href="#DejaVuSans-20"/>
    <use x="4451.888672" xlink:href="#DejaVuSans-39"/>
    <use x="4515.511719" xlink:href="#DejaVuSans-35"/>
    <use x="4579.134766" xlink:href="#DejaVuSans-25"/>
   </g>
  </g>
  <g id="legend_1">
   <g id="text_17">
    <!-- Number of filters -->
    <g style="fill:#262626;" transform="translate(719.2087 324.627225)scale(0.1224 -0.1224)">
     <use xlink:href="#DejaVuSans-4e"/>
     <use x="74.804688" xlink:href="#DejaVuSans-75"/>
     <use x="138.183594" xlink:href="#DejaVuSans-6d"/>
     <use x="235.595703" xlink:href="#DejaVuSans-62"/>
     <use x="299.072266" xlink:href="#DejaVuSans-65"/>
     <use x="360.595703" xlink:href="#DejaVuSans-72"/>
     <use x="401.708984" xlink:href="#DejaVuSans-20"/>
     <use x="433.496094" xlink:href="#DejaVuSans-6f"/>
     <use x="494.677734" xlink:href="#DejaVuSans-66"/>
     <use x="529.882812" xlink:href="#DejaVuSans-20"/>
     <use x="561.669922" xlink:href="#DejaVuSans-66"/>
     <use x="596.875" xlink:href="#DejaVuSans-69"/>
     <use x="624.658203" xlink:href="#DejaVuSans-6c"/>
     <use x="652.441406" xlink:href="#DejaVuSans-74"/>
     <use x="691.650391" xlink:href="#DejaVuSans-65"/>
     <use x="753.173828" xlink:href="#DejaVuSans-72"/>
     <use x="794.287109" xlink:href="#DejaVuSans-73"/>
    </g>
   </g>
   <g id="PathCollection_5">
    <path d="M 753.1291 343.721648 
C 754.026534 343.721648 754.887331 343.365094 755.521913 342.730513 
C 756.156494 342.095931 756.513048 341.235134 756.513048 340.3377 
C 756.513048 339.440266 756.156494 338.579469 755.521913 337.944887 
C 754.887331 337.310306 754.026534 336.953752 753.1291 336.953752 
C 752.231666 336.953752 751.370869 337.310306 750.736287 337.944887 
C 750.101706 338.579469 749.745152 339.440266 749.745152 340.3377 
C 749.745152 341.235134 750.101706 342.095931 750.736287 342.730513 
C 751.370869 343.365094 752.231666 343.721648 753.1291 343.721648 
z
" style="fill:#4c72b0;stroke:#4c72b0;stroke-width:2.025;"/>
   </g>
   <g id="text_18">
    <!-- 100 -->
    <g style="fill:#262626;" transform="translate(776.8891 343.8027)scale(0.132 -0.132)">
     <use xlink:href="#DejaVuSans-31"/>
     <use x="63.623047" xlink:href="#DejaVuSans-30"/>
     <use x="127.246094" xlink:href="#DejaVuSans-30"/>
    </g>
   </g>
   <g id="PathCollection_6">
    <path d="M 753.1291 356.328877 
L 749.745152 363.096773 
L 756.513048 363.096773 
z
" style="fill:#dd8452;stroke:#dd8452;stroke-width:2.025;"/>
   </g>
   <g id="text_19">
    <!-- 300 -->
    <g style="fill:#262626;" transform="translate(776.8891 363.177825)scale(0.132 -0.132)">
     <use xlink:href="#DejaVuSans-33"/>
     <use x="63.623047" xlink:href="#DejaVuSans-30"/>
     <use x="127.246094" xlink:href="#DejaVuSans-30"/>
    </g>
   </g>
   <g id="PathCollection_7">
    <path d="M 749.745152 382.471898 
L 756.513048 382.471898 
L 756.513048 375.704002 
L 749.745152 375.704002 
z
" style="fill:#55a868;stroke:#55a868;stroke-width:2.025;"/>
   </g>
   <g id="text_20">
    <!-- 600 -->
    <g style="fill:#262626;" transform="translate(776.8891 382.55295)scale(0.132 -0.132)">
     <use xlink:href="#DejaVuSans-36"/>
     <use x="63.623047" xlink:href="#DejaVuSans-30"/>
     <use x="127.246094" xlink:href="#DejaVuSans-30"/>
    </g>
   </g>
   <g id="PathCollection_8">
    <path d="M 753.1291 403.2487 
L 756.000475 398.463075 
L 753.1291 393.67745 
L 750.257725 398.463075 
z
" style="fill:#c44e52;stroke:#c44e52;stroke-width:2.025;"/>
   </g>
   <g id="text_21">
    <!-- 900 -->
    <g style="fill:#262626;" transform="translate(776.8891 401.928075)scale(0.132 -0.132)">
     <use xlink:href="#DejaVuSans-39"/>
     <use x="63.623047" xlink:href="#DejaVuSans-30"/>
     <use x="127.246094" xlink:href="#DejaVuSans-30"/>
    </g>
   </g>
  </g>
 </g>
 <defs>
  <clipPath id="p1ed4785c7d">
   <rect height="644.796" width="628.935866" x="82.717284" y="20.352"/>
  </clipPath>
 </defs>
</svg>
