<?xml version="1.0" encoding="utf-8" standalone="no"?>
<!DOCTYPE svg PUBLIC "-//W3C//DTD SVG 1.1//EN"
  "http://www.w3.org/Graphics/SVG/1.1/DTD/svg11.dtd">
<!-- Created with matplotlib (http://matplotlib.org/) -->
<svg height="432pt" version="1.1" viewBox="0 0 1042 432" width="1042pt" xmlns="http://www.w3.org/2000/svg" xmlns:xlink="http://www.w3.org/1999/xlink">
 <defs>
  <style type="text/css">
*{stroke-linecap:butt;stroke-linejoin:round;}
  </style>
 </defs>
 <g id="figure_1">
  <g id="patch_1">
   <path d="M 0 432 
L 1042.145 432 
L 1042.145 0 
L 0 0 
z
" style="fill:#ffffff;"/>
  </g>
  <g id="axes_1">
   <g id="patch_2">
    <path d="M 75.811224 377.148 
L 452.167669 377.148 
L 452.167669 51.84 
L 75.811224 51.84 
z
" style="fill:#ffffff;"/>
   </g>
   <g id="matplotlib.axis_1">
    <g id="xtick_1">
     <g id="line2d_1">
      <path clip-path="url(#p5778aac1ec)" d="M 92.918335 377.148 
L 92.918335 51.84 
" style="fill:none;stroke:#cccccc;stroke-linecap:round;stroke-width:0.8;"/>
     </g>
     <g id="text_1">
      <!-- 0.0 -->
      <defs>
       <path d="M 31.78125 66.40625 
Q 24.171875 66.40625 20.328125 58.90625 
Q 16.5 51.421875 16.5 36.375 
Q 16.5 21.390625 20.328125 13.890625 
Q 24.171875 6.390625 31.78125 6.390625 
Q 39.453125 6.390625 43.28125 13.890625 
Q 47.125 21.390625 47.125 36.375 
Q 47.125 51.421875 43.28125 58.90625 
Q 39.453125 66.40625 31.78125 66.40625 
z
M 31.78125 74.21875 
Q 44.046875 74.21875 50.515625 64.515625 
Q 56.984375 54.828125 56.984375 36.375 
Q 56.984375 17.96875 50.515625 8.265625 
Q 44.046875 -1.421875 31.78125 -1.421875 
Q 19.53125 -1.421875 13.0625 8.265625 
Q 6.59375 17.96875 6.59375 36.375 
Q 6.59375 54.828125 13.0625 64.515625 
Q 19.53125 74.21875 31.78125 74.21875 
z
" id="DejaVuSans-30"/>
       <path d="M 10.6875 12.40625 
L 21 12.40625 
L 21 0 
L 10.6875 0 
z
" id="DejaVuSans-2e"/>
      </defs>
      <g style="fill:#262626;" transform="translate(82.422273 395.477937)scale(0.132 -0.132)">
       <use xlink:href="#DejaVuSans-30"/>
       <use x="63.623047" xlink:href="#DejaVuSans-2e"/>
       <use x="95.410156" xlink:href="#DejaVuSans-30"/>
      </g>
     </g>
    </g>
    <g id="xtick_2">
     <g id="line2d_2">
      <path clip-path="url(#p5778aac1ec)" d="M 137.937049 377.148 
L 137.937049 51.84 
" style="fill:none;stroke:#cccccc;stroke-linecap:round;stroke-width:0.8;"/>
     </g>
     <g id="text_2">
      <!-- 2.5 -->
      <defs>
       <path d="M 19.1875 8.296875 
L 53.609375 8.296875 
L 53.609375 0 
L 7.328125 0 
L 7.328125 8.296875 
Q 12.9375 14.109375 22.625 23.890625 
Q 32.328125 33.6875 34.8125 36.53125 
Q 39.546875 41.84375 41.421875 45.53125 
Q 43.3125 49.21875 43.3125 52.78125 
Q 43.3125 58.59375 39.234375 62.25 
Q 35.15625 65.921875 28.609375 65.921875 
Q 23.96875 65.921875 18.8125 64.3125 
Q 13.671875 62.703125 7.8125 59.421875 
L 7.8125 69.390625 
Q 13.765625 71.78125 18.9375 73 
Q 24.125 74.21875 28.421875 74.21875 
Q 39.75 74.21875 46.484375 68.546875 
Q 53.21875 62.890625 53.21875 53.421875 
Q 53.21875 48.921875 51.53125 44.890625 
Q 49.859375 40.875 45.40625 35.40625 
Q 44.1875 33.984375 37.640625 27.21875 
Q 31.109375 20.453125 19.1875 8.296875 
z
" id="DejaVuSans-32"/>
       <path d="M 10.796875 72.90625 
L 49.515625 72.90625 
L 49.515625 64.59375 
L 19.828125 64.59375 
L 19.828125 46.734375 
Q 21.96875 47.46875 24.109375 47.828125 
Q 26.265625 48.1875 28.421875 48.1875 
Q 40.625 48.1875 47.75 41.5 
Q 54.890625 34.8125 54.890625 23.390625 
Q 54.890625 11.625 47.5625 5.09375 
Q 40.234375 -1.421875 26.90625 -1.421875 
Q 22.3125 -1.421875 17.546875 -0.640625 
Q 12.796875 0.140625 7.71875 1.703125 
L 7.71875 11.625 
Q 12.109375 9.234375 16.796875 8.0625 
Q 21.484375 6.890625 26.703125 6.890625 
Q 35.15625 6.890625 40.078125 11.328125 
Q 45.015625 15.765625 45.015625 23.390625 
Q 45.015625 31 40.078125 35.4375 
Q 35.15625 39.890625 26.703125 39.890625 
Q 22.75 39.890625 18.8125 39.015625 
Q 14.890625 38.140625 10.796875 36.28125 
z
" id="DejaVuSans-35"/>
      </defs>
      <g style="fill:#262626;" transform="translate(127.440986 395.477937)scale(0.132 -0.132)">
       <use xlink:href="#DejaVuSans-32"/>
       <use x="63.623047" xlink:href="#DejaVuSans-2e"/>
       <use x="95.410156" xlink:href="#DejaVuSans-35"/>
      </g>
     </g>
    </g>
    <g id="xtick_3">
     <g id="line2d_3">
      <path clip-path="url(#p5778aac1ec)" d="M 182.955762 377.148 
L 182.955762 51.84 
" style="fill:none;stroke:#cccccc;stroke-linecap:round;stroke-width:0.8;"/>
     </g>
     <g id="text_3">
      <!-- 5.0 -->
      <g style="fill:#262626;" transform="translate(172.4597 395.477937)scale(0.132 -0.132)">
       <use xlink:href="#DejaVuSans-35"/>
       <use x="63.623047" xlink:href="#DejaVuSans-2e"/>
       <use x="95.410156" xlink:href="#DejaVuSans-30"/>
      </g>
     </g>
    </g>
    <g id="xtick_4">
     <g id="line2d_4">
      <path clip-path="url(#p5778aac1ec)" d="M 227.974476 377.148 
L 227.974476 51.84 
" style="fill:none;stroke:#cccccc;stroke-linecap:round;stroke-width:0.8;"/>
     </g>
     <g id="text_4">
      <!-- 7.5 -->
      <defs>
       <path d="M 8.203125 72.90625 
L 55.078125 72.90625 
L 55.078125 68.703125 
L 28.609375 0 
L 18.3125 0 
L 43.21875 64.59375 
L 8.203125 64.59375 
z
" id="DejaVuSans-37"/>
      </defs>
      <g style="fill:#262626;" transform="translate(217.478413 395.477937)scale(0.132 -0.132)">
       <use xlink:href="#DejaVuSans-37"/>
       <use x="63.623047" xlink:href="#DejaVuSans-2e"/>
       <use x="95.410156" xlink:href="#DejaVuSans-35"/>
      </g>
     </g>
    </g>
    <g id="xtick_5">
     <g id="line2d_5">
      <path clip-path="url(#p5778aac1ec)" d="M 272.993189 377.148 
L 272.993189 51.84 
" style="fill:none;stroke:#cccccc;stroke-linecap:round;stroke-width:0.8;"/>
     </g>
     <g id="text_5">
      <!-- 10.0 -->
      <defs>
       <path d="M 12.40625 8.296875 
L 28.515625 8.296875 
L 28.515625 63.921875 
L 10.984375 60.40625 
L 10.984375 69.390625 
L 28.421875 72.90625 
L 38.28125 72.90625 
L 38.28125 8.296875 
L 54.390625 8.296875 
L 54.390625 0 
L 12.40625 0 
z
" id="DejaVuSans-31"/>
      </defs>
      <g style="fill:#262626;" transform="translate(258.297877 395.477937)scale(0.132 -0.132)">
       <use xlink:href="#DejaVuSans-31"/>
       <use x="63.623047" xlink:href="#DejaVuSans-30"/>
       <use x="127.246094" xlink:href="#DejaVuSans-2e"/>
       <use x="159.033203" xlink:href="#DejaVuSans-30"/>
      </g>
     </g>
    </g>
    <g id="xtick_6">
     <g id="line2d_6">
      <path clip-path="url(#p5778aac1ec)" d="M 318.011903 377.148 
L 318.011903 51.84 
" style="fill:none;stroke:#cccccc;stroke-linecap:round;stroke-width:0.8;"/>
     </g>
     <g id="text_6">
      <!-- 12.5 -->
      <g style="fill:#262626;" transform="translate(303.31659 395.477937)scale(0.132 -0.132)">
       <use xlink:href="#DejaVuSans-31"/>
       <use x="63.623047" xlink:href="#DejaVuSans-32"/>
       <use x="127.246094" xlink:href="#DejaVuSans-2e"/>
       <use x="159.033203" xlink:href="#DejaVuSans-35"/>
      </g>
     </g>
    </g>
    <g id="xtick_7">
     <g id="line2d_7">
      <path clip-path="url(#p5778aac1ec)" d="M 363.030616 377.148 
L 363.030616 51.84 
" style="fill:none;stroke:#cccccc;stroke-linecap:round;stroke-width:0.8;"/>
     </g>
     <g id="text_7">
      <!-- 15.0 -->
      <g style="fill:#262626;" transform="translate(348.335304 395.477937)scale(0.132 -0.132)">
       <use xlink:href="#DejaVuSans-31"/>
       <use x="63.623047" xlink:href="#DejaVuSans-35"/>
       <use x="127.246094" xlink:href="#DejaVuSans-2e"/>
       <use x="159.033203" xlink:href="#DejaVuSans-30"/>
      </g>
     </g>
    </g>
    <g id="xtick_8">
     <g id="line2d_8">
      <path clip-path="url(#p5778aac1ec)" d="M 408.04933 377.148 
L 408.04933 51.84 
" style="fill:none;stroke:#cccccc;stroke-linecap:round;stroke-width:0.8;"/>
     </g>
     <g id="text_8">
      <!-- 17.5 -->
      <g style="fill:#262626;" transform="translate(393.354017 395.477937)scale(0.132 -0.132)">
       <use xlink:href="#DejaVuSans-31"/>
       <use x="63.623047" xlink:href="#DejaVuSans-37"/>
       <use x="127.246094" xlink:href="#DejaVuSans-2e"/>
       <use x="159.033203" xlink:href="#DejaVuSans-35"/>
      </g>
     </g>
    </g>
    <g id="text_9">
     <!-- Epoch -->
     <defs>
      <path d="M 9.8125 72.90625 
L 55.90625 72.90625 
L 55.90625 64.59375 
L 19.671875 64.59375 
L 19.671875 43.015625 
L 54.390625 43.015625 
L 54.390625 34.71875 
L 19.671875 34.71875 
L 19.671875 8.296875 
L 56.78125 8.296875 
L 56.78125 0 
L 9.8125 0 
z
" id="DejaVuSans-45"/>
      <path d="M 18.109375 8.203125 
L 18.109375 -20.796875 
L 9.078125 -20.796875 
L 9.078125 54.6875 
L 18.109375 54.6875 
L 18.109375 46.390625 
Q 20.953125 51.265625 25.265625 53.625 
Q 29.59375 56 35.59375 56 
Q 45.5625 56 51.78125 48.09375 
Q 58.015625 40.1875 58.015625 27.296875 
Q 58.015625 14.40625 51.78125 6.484375 
Q 45.5625 -1.421875 35.59375 -1.421875 
Q 29.59375 -1.421875 25.265625 0.953125 
Q 20.953125 3.328125 18.109375 8.203125 
z
M 48.6875 27.296875 
Q 48.6875 37.203125 44.609375 42.84375 
Q 40.53125 48.484375 33.40625 48.484375 
Q 26.265625 48.484375 22.1875 42.84375 
Q 18.109375 37.203125 18.109375 27.296875 
Q 18.109375 17.390625 22.1875 11.75 
Q 26.265625 6.109375 33.40625 6.109375 
Q 40.53125 6.109375 44.609375 11.75 
Q 48.6875 17.390625 48.6875 27.296875 
z
" id="DejaVuSans-70"/>
      <path d="M 30.609375 48.390625 
Q 23.390625 48.390625 19.1875 42.75 
Q 14.984375 37.109375 14.984375 27.296875 
Q 14.984375 17.484375 19.15625 11.84375 
Q 23.34375 6.203125 30.609375 6.203125 
Q 37.796875 6.203125 41.984375 11.859375 
Q 46.1875 17.53125 46.1875 27.296875 
Q 46.1875 37.015625 41.984375 42.703125 
Q 37.796875 48.390625 30.609375 48.390625 
z
M 30.609375 56 
Q 42.328125 56 49.015625 48.375 
Q 55.71875 40.765625 55.71875 27.296875 
Q 55.71875 13.875 49.015625 6.21875 
Q 42.328125 -1.421875 30.609375 -1.421875 
Q 18.84375 -1.421875 12.171875 6.21875 
Q 5.515625 13.875 5.515625 27.296875 
Q 5.515625 40.765625 12.171875 48.375 
Q 18.84375 56 30.609375 56 
z
" id="DejaVuSans-6f"/>
      <path d="M 48.78125 52.59375 
L 48.78125 44.1875 
Q 44.96875 46.296875 41.140625 47.34375 
Q 37.3125 48.390625 33.40625 48.390625 
Q 24.65625 48.390625 19.8125 42.84375 
Q 14.984375 37.3125 14.984375 27.296875 
Q 14.984375 17.28125 19.8125 11.734375 
Q 24.65625 6.203125 33.40625 6.203125 
Q 37.3125 6.203125 41.140625 7.25 
Q 44.96875 8.296875 48.78125 10.40625 
L 48.78125 2.09375 
Q 45.015625 0.34375 40.984375 -0.53125 
Q 36.96875 -1.421875 32.421875 -1.421875 
Q 20.0625 -1.421875 12.78125 6.34375 
Q 5.515625 14.109375 5.515625 27.296875 
Q 5.515625 40.671875 12.859375 48.328125 
Q 20.21875 56 33.015625 56 
Q 37.15625 56 41.109375 55.140625 
Q 45.0625 54.296875 48.78125 52.59375 
z
" id="DejaVuSans-63"/>
      <path d="M 54.890625 33.015625 
L 54.890625 0 
L 45.90625 0 
L 45.90625 32.71875 
Q 45.90625 40.484375 42.875 44.328125 
Q 39.84375 48.1875 33.796875 48.1875 
Q 26.515625 48.1875 22.3125 43.546875 
Q 18.109375 38.921875 18.109375 30.90625 
L 18.109375 0 
L 9.078125 0 
L 9.078125 75.984375 
L 18.109375 75.984375 
L 18.109375 46.1875 
Q 21.34375 51.125 25.703125 53.5625 
Q 30.078125 56 35.796875 56 
Q 45.21875 56 50.046875 50.171875 
Q 54.890625 44.34375 54.890625 33.015625 
z
" id="DejaVuSans-68"/>
     </defs>
     <g style="fill:#262626;" transform="translate(241.941696 413.164875)scale(0.144 -0.144)">
      <use xlink:href="#DejaVuSans-45"/>
      <use x="63.183594" xlink:href="#DejaVuSans-70"/>
      <use x="126.660156" xlink:href="#DejaVuSans-6f"/>
      <use x="187.841797" xlink:href="#DejaVuSans-63"/>
      <use x="242.822266" xlink:href="#DejaVuSans-68"/>
     </g>
    </g>
   </g>
   <g id="matplotlib.axis_2">
    <g id="ytick_1">
     <g id="line2d_9">
      <path clip-path="url(#p5778aac1ec)" d="M 75.811224 360.427673 
L 452.167669 360.427673 
" style="fill:none;stroke:#cccccc;stroke-linecap:round;stroke-width:0.8;"/>
     </g>
     <g id="text_10">
      <!-- 0.1 -->
      <g style="fill:#262626;" transform="translate(46.519099 365.442642)scale(0.132 -0.132)">
       <use xlink:href="#DejaVuSans-30"/>
       <use x="63.623047" xlink:href="#DejaVuSans-2e"/>
       <use x="95.410156" xlink:href="#DejaVuSans-31"/>
      </g>
     </g>
    </g>
    <g id="ytick_2">
     <g id="line2d_10">
      <path clip-path="url(#p5778aac1ec)" d="M 75.811224 312.342655 
L 452.167669 312.342655 
" style="fill:none;stroke:#cccccc;stroke-linecap:round;stroke-width:0.8;"/>
     </g>
     <g id="text_11">
      <!-- 0.2 -->
      <g style="fill:#262626;" transform="translate(46.519099 317.357624)scale(0.132 -0.132)">
       <use xlink:href="#DejaVuSans-30"/>
       <use x="63.623047" xlink:href="#DejaVuSans-2e"/>
       <use x="95.410156" xlink:href="#DejaVuSans-32"/>
      </g>
     </g>
    </g>
    <g id="ytick_3">
     <g id="line2d_11">
      <path clip-path="url(#p5778aac1ec)" d="M 75.811224 264.257637 
L 452.167669 264.257637 
" style="fill:none;stroke:#cccccc;stroke-linecap:round;stroke-width:0.8;"/>
     </g>
     <g id="text_12">
      <!-- 0.3 -->
      <defs>
       <path d="M 40.578125 39.3125 
Q 47.65625 37.796875 51.625 33 
Q 55.609375 28.21875 55.609375 21.1875 
Q 55.609375 10.40625 48.1875 4.484375 
Q 40.765625 -1.421875 27.09375 -1.421875 
Q 22.515625 -1.421875 17.65625 -0.515625 
Q 12.796875 0.390625 7.625 2.203125 
L 7.625 11.71875 
Q 11.71875 9.328125 16.59375 8.109375 
Q 21.484375 6.890625 26.8125 6.890625 
Q 36.078125 6.890625 40.9375 10.546875 
Q 45.796875 14.203125 45.796875 21.1875 
Q 45.796875 27.640625 41.28125 31.265625 
Q 36.765625 34.90625 28.71875 34.90625 
L 20.21875 34.90625 
L 20.21875 43.015625 
L 29.109375 43.015625 
Q 36.375 43.015625 40.234375 45.921875 
Q 44.09375 48.828125 44.09375 54.296875 
Q 44.09375 59.90625 40.109375 62.90625 
Q 36.140625 65.921875 28.71875 65.921875 
Q 24.65625 65.921875 20.015625 65.03125 
Q 15.375 64.15625 9.8125 62.3125 
L 9.8125 71.09375 
Q 15.4375 72.65625 20.34375 73.4375 
Q 25.25 74.21875 29.59375 74.21875 
Q 40.828125 74.21875 47.359375 69.109375 
Q 53.90625 64.015625 53.90625 55.328125 
Q 53.90625 49.265625 50.4375 45.09375 
Q 46.96875 40.921875 40.578125 39.3125 
z
" id="DejaVuSans-33"/>
      </defs>
      <g style="fill:#262626;" transform="translate(46.519099 269.272606)scale(0.132 -0.132)">
       <use xlink:href="#DejaVuSans-30"/>
       <use x="63.623047" xlink:href="#DejaVuSans-2e"/>
       <use x="95.410156" xlink:href="#DejaVuSans-33"/>
      </g>
     </g>
    </g>
    <g id="ytick_4">
     <g id="line2d_12">
      <path clip-path="url(#p5778aac1ec)" d="M 75.811224 216.172619 
L 452.167669 216.172619 
" style="fill:none;stroke:#cccccc;stroke-linecap:round;stroke-width:0.8;"/>
     </g>
     <g id="text_13">
      <!-- 0.4 -->
      <defs>
       <path d="M 37.796875 64.3125 
L 12.890625 25.390625 
L 37.796875 25.390625 
z
M 35.203125 72.90625 
L 47.609375 72.90625 
L 47.609375 25.390625 
L 58.015625 25.390625 
L 58.015625 17.1875 
L 47.609375 17.1875 
L 47.609375 0 
L 37.796875 0 
L 37.796875 17.1875 
L 4.890625 17.1875 
L 4.890625 26.703125 
z
" id="DejaVuSans-34"/>
      </defs>
      <g style="fill:#262626;" transform="translate(46.519099 221.187588)scale(0.132 -0.132)">
       <use xlink:href="#DejaVuSans-30"/>
       <use x="63.623047" xlink:href="#DejaVuSans-2e"/>
       <use x="95.410156" xlink:href="#DejaVuSans-34"/>
      </g>
     </g>
    </g>
    <g id="ytick_5">
     <g id="line2d_13">
      <path clip-path="url(#p5778aac1ec)" d="M 75.811224 168.087602 
L 452.167669 168.087602 
" style="fill:none;stroke:#cccccc;stroke-linecap:round;stroke-width:0.8;"/>
     </g>
     <g id="text_14">
      <!-- 0.5 -->
      <g style="fill:#262626;" transform="translate(46.519099 173.10257)scale(0.132 -0.132)">
       <use xlink:href="#DejaVuSans-30"/>
       <use x="63.623047" xlink:href="#DejaVuSans-2e"/>
       <use x="95.410156" xlink:href="#DejaVuSans-35"/>
      </g>
     </g>
    </g>
    <g id="ytick_6">
     <g id="line2d_14">
      <path clip-path="url(#p5778aac1ec)" d="M 75.811224 120.002584 
L 452.167669 120.002584 
" style="fill:none;stroke:#cccccc;stroke-linecap:round;stroke-width:0.8;"/>
     </g>
     <g id="text_15">
      <!-- 0.6 -->
      <defs>
       <path d="M 33.015625 40.375 
Q 26.375 40.375 22.484375 35.828125 
Q 18.609375 31.296875 18.609375 23.390625 
Q 18.609375 15.53125 22.484375 10.953125 
Q 26.375 6.390625 33.015625 6.390625 
Q 39.65625 6.390625 43.53125 10.953125 
Q 47.40625 15.53125 47.40625 23.390625 
Q 47.40625 31.296875 43.53125 35.828125 
Q 39.65625 40.375 33.015625 40.375 
z
M 52.59375 71.296875 
L 52.59375 62.3125 
Q 48.875 64.0625 45.09375 64.984375 
Q 41.3125 65.921875 37.59375 65.921875 
Q 27.828125 65.921875 22.671875 59.328125 
Q 17.53125 52.734375 16.796875 39.40625 
Q 19.671875 43.65625 24.015625 45.921875 
Q 28.375 48.1875 33.59375 48.1875 
Q 44.578125 48.1875 50.953125 41.515625 
Q 57.328125 34.859375 57.328125 23.390625 
Q 57.328125 12.15625 50.6875 5.359375 
Q 44.046875 -1.421875 33.015625 -1.421875 
Q 20.359375 -1.421875 13.671875 8.265625 
Q 6.984375 17.96875 6.984375 36.375 
Q 6.984375 53.65625 15.1875 63.9375 
Q 23.390625 74.21875 37.203125 74.21875 
Q 40.921875 74.21875 44.703125 73.484375 
Q 48.484375 72.75 52.59375 71.296875 
z
" id="DejaVuSans-36"/>
      </defs>
      <g style="fill:#262626;" transform="translate(46.519099 125.017553)scale(0.132 -0.132)">
       <use xlink:href="#DejaVuSans-30"/>
       <use x="63.623047" xlink:href="#DejaVuSans-2e"/>
       <use x="95.410156" xlink:href="#DejaVuSans-36"/>
      </g>
     </g>
    </g>
    <g id="ytick_7">
     <g id="line2d_15">
      <path clip-path="url(#p5778aac1ec)" d="M 75.811224 71.917566 
L 452.167669 71.917566 
" style="fill:none;stroke:#cccccc;stroke-linecap:round;stroke-width:0.8;"/>
     </g>
     <g id="text_16">
      <!-- 0.7 -->
      <g style="fill:#262626;" transform="translate(46.519099 76.932535)scale(0.132 -0.132)">
       <use xlink:href="#DejaVuSans-30"/>
       <use x="63.623047" xlink:href="#DejaVuSans-2e"/>
       <use x="95.410156" xlink:href="#DejaVuSans-37"/>
      </g>
     </g>
    </g>
    <g id="text_17">
     <!-- Validation accuracy -->
     <defs>
      <path d="M 28.609375 0 
L 0.78125 72.90625 
L 11.078125 72.90625 
L 34.1875 11.53125 
L 57.328125 72.90625 
L 67.578125 72.90625 
L 39.796875 0 
z
" id="DejaVuSans-56"/>
      <path d="M 34.28125 27.484375 
Q 23.390625 27.484375 19.1875 25 
Q 14.984375 22.515625 14.984375 16.5 
Q 14.984375 11.71875 18.140625 8.90625 
Q 21.296875 6.109375 26.703125 6.109375 
Q 34.1875 6.109375 38.703125 11.40625 
Q 43.21875 16.703125 43.21875 25.484375 
L 43.21875 27.484375 
z
M 52.203125 31.203125 
L 52.203125 0 
L 43.21875 0 
L 43.21875 8.296875 
Q 40.140625 3.328125 35.546875 0.953125 
Q 30.953125 -1.421875 24.3125 -1.421875 
Q 15.921875 -1.421875 10.953125 3.296875 
Q 6 8.015625 6 15.921875 
Q 6 25.140625 12.171875 29.828125 
Q 18.359375 34.515625 30.609375 34.515625 
L 43.21875 34.515625 
L 43.21875 35.40625 
Q 43.21875 41.609375 39.140625 45 
Q 35.0625 48.390625 27.6875 48.390625 
Q 23 48.390625 18.546875 47.265625 
Q 14.109375 46.140625 10.015625 43.890625 
L 10.015625 52.203125 
Q 14.9375 54.109375 19.578125 55.046875 
Q 24.21875 56 28.609375 56 
Q 40.484375 56 46.34375 49.84375 
Q 52.203125 43.703125 52.203125 31.203125 
z
" id="DejaVuSans-61"/>
      <path d="M 9.421875 75.984375 
L 18.40625 75.984375 
L 18.40625 0 
L 9.421875 0 
z
" id="DejaVuSans-6c"/>
      <path d="M 9.421875 54.6875 
L 18.40625 54.6875 
L 18.40625 0 
L 9.421875 0 
z
M 9.421875 75.984375 
L 18.40625 75.984375 
L 18.40625 64.59375 
L 9.421875 64.59375 
z
" id="DejaVuSans-69"/>
      <path d="M 45.40625 46.390625 
L 45.40625 75.984375 
L 54.390625 75.984375 
L 54.390625 0 
L 45.40625 0 
L 45.40625 8.203125 
Q 42.578125 3.328125 38.25 0.953125 
Q 33.9375 -1.421875 27.875 -1.421875 
Q 17.96875 -1.421875 11.734375 6.484375 
Q 5.515625 14.40625 5.515625 27.296875 
Q 5.515625 40.1875 11.734375 48.09375 
Q 17.96875 56 27.875 56 
Q 33.9375 56 38.25 53.625 
Q 42.578125 51.265625 45.40625 46.390625 
z
M 14.796875 27.296875 
Q 14.796875 17.390625 18.875 11.75 
Q 22.953125 6.109375 30.078125 6.109375 
Q 37.203125 6.109375 41.296875 11.75 
Q 45.40625 17.390625 45.40625 27.296875 
Q 45.40625 37.203125 41.296875 42.84375 
Q 37.203125 48.484375 30.078125 48.484375 
Q 22.953125 48.484375 18.875 42.84375 
Q 14.796875 37.203125 14.796875 27.296875 
z
" id="DejaVuSans-64"/>
      <path d="M 18.3125 70.21875 
L 18.3125 54.6875 
L 36.8125 54.6875 
L 36.8125 47.703125 
L 18.3125 47.703125 
L 18.3125 18.015625 
Q 18.3125 11.328125 20.140625 9.421875 
Q 21.96875 7.515625 27.59375 7.515625 
L 36.8125 7.515625 
L 36.8125 0 
L 27.59375 0 
Q 17.1875 0 13.234375 3.875 
Q 9.28125 7.765625 9.28125 18.015625 
L 9.28125 47.703125 
L 2.6875 47.703125 
L 2.6875 54.6875 
L 9.28125 54.6875 
L 9.28125 70.21875 
z
" id="DejaVuSans-74"/>
      <path d="M 54.890625 33.015625 
L 54.890625 0 
L 45.90625 0 
L 45.90625 32.71875 
Q 45.90625 40.484375 42.875 44.328125 
Q 39.84375 48.1875 33.796875 48.1875 
Q 26.515625 48.1875 22.3125 43.546875 
Q 18.109375 38.921875 18.109375 30.90625 
L 18.109375 0 
L 9.078125 0 
L 9.078125 54.6875 
L 18.109375 54.6875 
L 18.109375 46.1875 
Q 21.34375 51.125 25.703125 53.5625 
Q 30.078125 56 35.796875 56 
Q 45.21875 56 50.046875 50.171875 
Q 54.890625 44.34375 54.890625 33.015625 
z
" id="DejaVuSans-6e"/>
      <path id="DejaVuSans-20"/>
      <path d="M 8.5 21.578125 
L 8.5 54.6875 
L 17.484375 54.6875 
L 17.484375 21.921875 
Q 17.484375 14.15625 20.5 10.265625 
Q 23.53125 6.390625 29.59375 6.390625 
Q 36.859375 6.390625 41.078125 11.03125 
Q 45.3125 15.671875 45.3125 23.6875 
L 45.3125 54.6875 
L 54.296875 54.6875 
L 54.296875 0 
L 45.3125 0 
L 45.3125 8.40625 
Q 42.046875 3.421875 37.71875 1 
Q 33.40625 -1.421875 27.6875 -1.421875 
Q 18.265625 -1.421875 13.375 4.4375 
Q 8.5 10.296875 8.5 21.578125 
z
M 31.109375 56 
z
" id="DejaVuSans-75"/>
      <path d="M 41.109375 46.296875 
Q 39.59375 47.171875 37.8125 47.578125 
Q 36.03125 48 33.890625 48 
Q 26.265625 48 22.1875 43.046875 
Q 18.109375 38.09375 18.109375 28.8125 
L 18.109375 0 
L 9.078125 0 
L 9.078125 54.6875 
L 18.109375 54.6875 
L 18.109375 46.1875 
Q 20.953125 51.171875 25.484375 53.578125 
Q 30.03125 56 36.53125 56 
Q 37.453125 56 38.578125 55.875 
Q 39.703125 55.765625 41.0625 55.515625 
z
" id="DejaVuSans-72"/>
      <path d="M 32.171875 -5.078125 
Q 28.375 -14.84375 24.75 -17.8125 
Q 21.140625 -20.796875 15.09375 -20.796875 
L 7.90625 -20.796875 
L 7.90625 -13.28125 
L 13.1875 -13.28125 
Q 16.890625 -13.28125 18.9375 -11.515625 
Q 21 -9.765625 23.484375 -3.21875 
L 25.09375 0.875 
L 2.984375 54.6875 
L 12.5 54.6875 
L 29.59375 11.921875 
L 46.6875 54.6875 
L 56.203125 54.6875 
z
" id="DejaVuSans-79"/>
     </defs>
     <g style="fill:#262626;" transform="translate(39.524349 285.372375)rotate(-90)scale(0.144 -0.144)">
      <use xlink:href="#DejaVuSans-56"/>
      <use x="68.298828" xlink:href="#DejaVuSans-61"/>
      <use x="129.578125" xlink:href="#DejaVuSans-6c"/>
      <use x="157.361328" xlink:href="#DejaVuSans-69"/>
      <use x="185.144531" xlink:href="#DejaVuSans-64"/>
      <use x="248.621094" xlink:href="#DejaVuSans-61"/>
      <use x="309.900391" xlink:href="#DejaVuSans-74"/>
      <use x="349.109375" xlink:href="#DejaVuSans-69"/>
      <use x="376.892578" xlink:href="#DejaVuSans-6f"/>
      <use x="438.074219" xlink:href="#DejaVuSans-6e"/>
      <use x="501.453125" xlink:href="#DejaVuSans-20"/>
      <use x="533.240234" xlink:href="#DejaVuSans-61"/>
      <use x="594.519531" xlink:href="#DejaVuSans-63"/>
      <use x="649.5" xlink:href="#DejaVuSans-63"/>
      <use x="704.480469" xlink:href="#DejaVuSans-75"/>
      <use x="767.859375" xlink:href="#DejaVuSans-72"/>
      <use x="808.972656" xlink:href="#DejaVuSans-61"/>
      <use x="870.251953" xlink:href="#DejaVuSans-63"/>
      <use x="925.232422" xlink:href="#DejaVuSans-79"/>
     </g>
    </g>
   </g>
   <g id="PolyCollection_1">
    <defs>
     <path d="M 92.918335 -81.123461 
L 92.918335 -69.638727 
L 110.925821 -99.598902 
L 128.933306 -118.297451 
L 146.940791 -148.852579 
L 164.948277 -163.896411 
L 182.955762 -181.320059 
L 200.963248 -192.964155 
L 218.970733 -199.21117 
L 236.978218 -206.053139 
L 254.985704 -212.937605 
L 272.993189 -218.759653 
L 291.000674 -222.79684 
L 309.00816 -227.214372 
L 327.015645 -230.021279 
L 345.023131 -229.596312 
L 363.030616 -233.803485 
L 381.038101 -235.758333 
L 399.045587 -239.709464 
L 417.053072 -241.112918 
L 435.060558 -243.747713 
L 435.060558 -246.212522 
L 435.060558 -246.212522 
L 417.053072 -244.682641 
L 399.045587 -243.110263 
L 381.038101 -239.328056 
L 363.030616 -240.220487 
L 345.023131 -234.313446 
L 327.015645 -233.973472 
L 309.00816 -230.658729 
L 291.000674 -228.831371 
L 272.993189 -222.881833 
L 254.985704 -217.952215 
L 236.978218 -212.980101 
L 218.970733 -208.220471 
L 200.963248 -199.296164 
L 182.955762 -188.756982 
L 164.948277 -170.780877 
L 146.940791 -153.61221 
L 128.933306 -133.426276 
L 110.925821 -113.53782 
L 92.918335 -81.123461 
z
" id="m14de828593" style="stroke:#4c72b0;stroke-opacity:0.2;stroke-width:0.8;"/>
    </defs>
    <g clip-path="url(#p5778aac1ec)">
     <use style="fill:#4c72b0;fill-opacity:0.2;stroke:#4c72b0;stroke-opacity:0.2;stroke-width:0.8;" x="0" xlink:href="#m14de828593" y="432"/>
    </g>
   </g>
   <g id="PolyCollection_2">
    <defs>
     <path d="M 92.918335 -288.284257 
L 92.918335 -279.954903 
L 110.925821 -310.765012 
L 128.933306 -326.021327 
L 146.940791 -327.381222 
L 164.948277 -334.859579 
L 182.955762 -334.520668 
L 200.963248 -336.985477 
L 218.970733 -337.112967 
L 236.978218 -337.19796 
L 254.985704 -340.725186 
L 272.993189 -338.723592 
L 291.000674 -339.788134 
L 309.00816 -338.430364 
L 327.015645 -340.130232 
L 345.023131 -339.832755 
L 363.030616 -342.807525 
L 381.038101 -340.810179 
L 399.045587 -342.127577 
L 417.053072 -342.170074 
L 435.060558 -340.130232 
L 435.060558 -344.719876 
L 435.060558 -344.719876 
L 417.053072 -345.656929 
L 399.045587 -346.249758 
L 381.038101 -345.18734 
L 363.030616 -344.93236 
L 345.023131 -343.828508 
L 327.015645 -344.804869 
L 309.00816 -344.47127 
L 291.000674 -344.677379 
L 272.993189 -343.105002 
L 254.985704 -342.510048 
L 236.978218 -342.935015 
L 218.970733 -342.085081 
L 200.963248 -340.512703 
L 182.955762 -337.837535 
L 164.948277 -335.965556 
L 146.940791 -331.375912 
L 128.933306 -327.763692 
L 110.925821 -315.524642 
L 92.918335 -288.284257 
z
" id="mccf4114a26" style="stroke:#dd8452;stroke-opacity:0.2;stroke-width:0.8;"/>
    </defs>
    <g clip-path="url(#p5778aac1ec)">
     <use style="fill:#dd8452;fill-opacity:0.2;stroke:#dd8452;stroke-opacity:0.2;stroke-width:0.8;" x="0" xlink:href="#mccf4114a26" y="432"/>
    </g>
   </g>
   <g id="line2d_16">
    <path clip-path="url(#p5778aac1ec)" d="M 92.918335 356.581721 
L 110.925821 325.516632 
L 128.933306 306.138137 
L 146.940791 280.767606 
L 164.948277 265.426297 
L 182.955762 247.492688 
L 200.963248 235.933586 
L 218.970733 228.114193 
L 236.978218 222.632118 
L 254.985704 216.257613 
L 272.993189 211.158009 
L 291.000674 206.185895 
L 309.00816 202.913649 
L 327.015645 200.19386 
L 345.023131 199.981376 
L 363.030616 195.391732 
L 381.038101 194.456805 
L 399.045587 190.674599 
L 417.053072 189.102221 
L 435.060558 187.104876 
" style="fill:none;stroke:#4c72b0;stroke-linecap:round;stroke-width:1.5;"/>
   </g>
   <g id="line2d_17">
    <path clip-path="url(#p5778aac1ec)" d="M 92.918335 148.1354 
L 110.925821 118.855173 
L 128.933306 105.043745 
L 146.940791 102.493943 
L 164.948277 96.671895 
L 182.955762 95.609477 
L 200.963248 93.272158 
L 218.970733 92.252238 
L 236.978218 91.699781 
L 254.985704 90.42488 
L 272.993189 90.637363 
L 291.000674 89.489952 
L 309.00816 90.594867 
L 327.015645 89.489952 
L 345.023131 89.999913 
L 363.030616 88.130058 
L 381.038101 89.234972 
L 399.045587 87.407614 
L 417.053072 88.002568 
L 435.060558 89.064985 
" style="fill:none;stroke:#dd8452;stroke-linecap:round;stroke-width:1.5;"/>
   </g>
   <g id="line2d_18"/>
   <g id="line2d_19"/>
   <g id="line2d_20"/>
   <g id="patch_3">
    <path d="M 75.811224 377.148 
L 75.811224 51.84 
" style="fill:none;stroke:#cccccc;stroke-linecap:square;stroke-linejoin:miter;"/>
   </g>
   <g id="patch_4">
    <path d="M 75.811224 377.148 
L 452.167669 377.148 
" style="fill:none;stroke:#cccccc;stroke-linecap:square;stroke-linejoin:miter;"/>
   </g>
   <g id="text_18">
    <!-- Embedding train = False -->
    <defs>
     <path d="M 52 44.1875 
Q 55.375 50.25 60.0625 53.125 
Q 64.75 56 71.09375 56 
Q 79.640625 56 84.28125 50.015625 
Q 88.921875 44.046875 88.921875 33.015625 
L 88.921875 0 
L 79.890625 0 
L 79.890625 32.71875 
Q 79.890625 40.578125 77.09375 44.375 
Q 74.3125 48.1875 68.609375 48.1875 
Q 61.625 48.1875 57.5625 43.546875 
Q 53.515625 38.921875 53.515625 30.90625 
L 53.515625 0 
L 44.484375 0 
L 44.484375 32.71875 
Q 44.484375 40.625 41.703125 44.40625 
Q 38.921875 48.1875 33.109375 48.1875 
Q 26.21875 48.1875 22.15625 43.53125 
Q 18.109375 38.875 18.109375 30.90625 
L 18.109375 0 
L 9.078125 0 
L 9.078125 54.6875 
L 18.109375 54.6875 
L 18.109375 46.1875 
Q 21.1875 51.21875 25.484375 53.609375 
Q 29.78125 56 35.6875 56 
Q 41.65625 56 45.828125 52.96875 
Q 50 49.953125 52 44.1875 
z
" id="DejaVuSans-6d"/>
     <path d="M 48.6875 27.296875 
Q 48.6875 37.203125 44.609375 42.84375 
Q 40.53125 48.484375 33.40625 48.484375 
Q 26.265625 48.484375 22.1875 42.84375 
Q 18.109375 37.203125 18.109375 27.296875 
Q 18.109375 17.390625 22.1875 11.75 
Q 26.265625 6.109375 33.40625 6.109375 
Q 40.53125 6.109375 44.609375 11.75 
Q 48.6875 17.390625 48.6875 27.296875 
z
M 18.109375 46.390625 
Q 20.953125 51.265625 25.265625 53.625 
Q 29.59375 56 35.59375 56 
Q 45.5625 56 51.78125 48.09375 
Q 58.015625 40.1875 58.015625 27.296875 
Q 58.015625 14.40625 51.78125 6.484375 
Q 45.5625 -1.421875 35.59375 -1.421875 
Q 29.59375 -1.421875 25.265625 0.953125 
Q 20.953125 3.328125 18.109375 8.203125 
L 18.109375 0 
L 9.078125 0 
L 9.078125 75.984375 
L 18.109375 75.984375 
z
" id="DejaVuSans-62"/>
     <path d="M 56.203125 29.59375 
L 56.203125 25.203125 
L 14.890625 25.203125 
Q 15.484375 15.921875 20.484375 11.0625 
Q 25.484375 6.203125 34.421875 6.203125 
Q 39.59375 6.203125 44.453125 7.46875 
Q 49.3125 8.734375 54.109375 11.28125 
L 54.109375 2.78125 
Q 49.265625 0.734375 44.1875 -0.34375 
Q 39.109375 -1.421875 33.890625 -1.421875 
Q 20.796875 -1.421875 13.15625 6.1875 
Q 5.515625 13.8125 5.515625 26.8125 
Q 5.515625 40.234375 12.765625 48.109375 
Q 20.015625 56 32.328125 56 
Q 43.359375 56 49.78125 48.890625 
Q 56.203125 41.796875 56.203125 29.59375 
z
M 47.21875 32.234375 
Q 47.125 39.59375 43.09375 43.984375 
Q 39.0625 48.390625 32.421875 48.390625 
Q 24.90625 48.390625 20.390625 44.140625 
Q 15.875 39.890625 15.1875 32.171875 
z
" id="DejaVuSans-65"/>
     <path d="M 45.40625 27.984375 
Q 45.40625 37.75 41.375 43.109375 
Q 37.359375 48.484375 30.078125 48.484375 
Q 22.859375 48.484375 18.828125 43.109375 
Q 14.796875 37.75 14.796875 27.984375 
Q 14.796875 18.265625 18.828125 12.890625 
Q 22.859375 7.515625 30.078125 7.515625 
Q 37.359375 7.515625 41.375 12.890625 
Q 45.40625 18.265625 45.40625 27.984375 
z
M 54.390625 6.78125 
Q 54.390625 -7.171875 48.1875 -13.984375 
Q 42 -20.796875 29.203125 -20.796875 
Q 24.46875 -20.796875 20.265625 -20.09375 
Q 16.0625 -19.390625 12.109375 -17.921875 
L 12.109375 -9.1875 
Q 16.0625 -11.328125 19.921875 -12.34375 
Q 23.78125 -13.375 27.78125 -13.375 
Q 36.625 -13.375 41.015625 -8.765625 
Q 45.40625 -4.15625 45.40625 5.171875 
L 45.40625 9.625 
Q 42.625 4.78125 38.28125 2.390625 
Q 33.9375 0 27.875 0 
Q 17.828125 0 11.671875 7.65625 
Q 5.515625 15.328125 5.515625 27.984375 
Q 5.515625 40.671875 11.671875 48.328125 
Q 17.828125 56 27.875 56 
Q 33.9375 56 38.28125 53.609375 
Q 42.625 51.21875 45.40625 46.390625 
L 45.40625 54.6875 
L 54.390625 54.6875 
z
" id="DejaVuSans-67"/>
     <path d="M 10.59375 45.40625 
L 73.1875 45.40625 
L 73.1875 37.203125 
L 10.59375 37.203125 
z
M 10.59375 25.484375 
L 73.1875 25.484375 
L 73.1875 17.1875 
L 10.59375 17.1875 
z
" id="DejaVuSans-3d"/>
     <path d="M 9.8125 72.90625 
L 51.703125 72.90625 
L 51.703125 64.59375 
L 19.671875 64.59375 
L 19.671875 43.109375 
L 48.578125 43.109375 
L 48.578125 34.8125 
L 19.671875 34.8125 
L 19.671875 0 
L 9.8125 0 
z
" id="DejaVuSans-46"/>
     <path d="M 44.28125 53.078125 
L 44.28125 44.578125 
Q 40.484375 46.53125 36.375 47.5 
Q 32.28125 48.484375 27.875 48.484375 
Q 21.1875 48.484375 17.84375 46.4375 
Q 14.5 44.390625 14.5 40.28125 
Q 14.5 37.15625 16.890625 35.375 
Q 19.28125 33.59375 26.515625 31.984375 
L 29.59375 31.296875 
Q 39.15625 29.25 43.1875 25.515625 
Q 47.21875 21.78125 47.21875 15.09375 
Q 47.21875 7.46875 41.1875 3.015625 
Q 35.15625 -1.421875 24.609375 -1.421875 
Q 20.21875 -1.421875 15.453125 -0.5625 
Q 10.6875 0.296875 5.421875 2 
L 5.421875 11.28125 
Q 10.40625 8.6875 15.234375 7.390625 
Q 20.0625 6.109375 24.8125 6.109375 
Q 31.15625 6.109375 34.5625 8.28125 
Q 37.984375 10.453125 37.984375 14.40625 
Q 37.984375 18.0625 35.515625 20.015625 
Q 33.0625 21.96875 24.703125 23.78125 
L 21.578125 24.515625 
Q 13.234375 26.265625 9.515625 29.90625 
Q 5.8125 33.546875 5.8125 39.890625 
Q 5.8125 47.609375 11.28125 51.796875 
Q 16.75 56 26.8125 56 
Q 31.78125 56 36.171875 55.265625 
Q 40.578125 54.546875 44.28125 53.078125 
z
" id="DejaVuSans-73"/>
    </defs>
    <g style="fill:#262626;" transform="translate(174.769071 45.84)scale(0.144 -0.144)">
     <use xlink:href="#DejaVuSans-45"/>
     <use x="63.183594" xlink:href="#DejaVuSans-6d"/>
     <use x="160.595703" xlink:href="#DejaVuSans-62"/>
     <use x="224.072266" xlink:href="#DejaVuSans-65"/>
     <use x="285.595703" xlink:href="#DejaVuSans-64"/>
     <use x="349.072266" xlink:href="#DejaVuSans-64"/>
     <use x="412.548828" xlink:href="#DejaVuSans-69"/>
     <use x="440.332031" xlink:href="#DejaVuSans-6e"/>
     <use x="503.710938" xlink:href="#DejaVuSans-67"/>
     <use x="567.1875" xlink:href="#DejaVuSans-20"/>
     <use x="598.974609" xlink:href="#DejaVuSans-74"/>
     <use x="638.183594" xlink:href="#DejaVuSans-72"/>
     <use x="679.296875" xlink:href="#DejaVuSans-61"/>
     <use x="740.576172" xlink:href="#DejaVuSans-69"/>
     <use x="768.359375" xlink:href="#DejaVuSans-6e"/>
     <use x="831.738281" xlink:href="#DejaVuSans-20"/>
     <use x="863.525391" xlink:href="#DejaVuSans-3d"/>
     <use x="947.314453" xlink:href="#DejaVuSans-20"/>
     <use x="979.101562" xlink:href="#DejaVuSans-46"/>
     <use x="1036.480469" xlink:href="#DejaVuSans-61"/>
     <use x="1097.759766" xlink:href="#DejaVuSans-6c"/>
     <use x="1125.542969" xlink:href="#DejaVuSans-73"/>
     <use x="1177.642578" xlink:href="#DejaVuSans-65"/>
    </g>
   </g>
  </g>
  <g id="axes_2">
   <g id="patch_5">
    <path d="M 477.222105 377.148 
L 853.57855 377.148 
L 853.57855 51.84 
L 477.222105 51.84 
z
" style="fill:#ffffff;"/>
   </g>
   <g id="matplotlib.axis_3">
    <g id="xtick_9">
     <g id="line2d_21">
      <path clip-path="url(#pa5bee1a9a3)" d="M 494.329216 377.148 
L 494.329216 51.84 
" style="fill:none;stroke:#cccccc;stroke-linecap:round;stroke-width:0.8;"/>
     </g>
     <g id="text_19">
      <!-- 0.0 -->
      <g style="fill:#262626;" transform="translate(483.833154 395.477937)scale(0.132 -0.132)">
       <use xlink:href="#DejaVuSans-30"/>
       <use x="63.623047" xlink:href="#DejaVuSans-2e"/>
       <use x="95.410156" xlink:href="#DejaVuSans-30"/>
      </g>
     </g>
    </g>
    <g id="xtick_10">
     <g id="line2d_22">
      <path clip-path="url(#pa5bee1a9a3)" d="M 539.34793 377.148 
L 539.34793 51.84 
" style="fill:none;stroke:#cccccc;stroke-linecap:round;stroke-width:0.8;"/>
     </g>
     <g id="text_20">
      <!-- 2.5 -->
      <g style="fill:#262626;" transform="translate(528.851867 395.477937)scale(0.132 -0.132)">
       <use xlink:href="#DejaVuSans-32"/>
       <use x="63.623047" xlink:href="#DejaVuSans-2e"/>
       <use x="95.410156" xlink:href="#DejaVuSans-35"/>
      </g>
     </g>
    </g>
    <g id="xtick_11">
     <g id="line2d_23">
      <path clip-path="url(#pa5bee1a9a3)" d="M 584.366643 377.148 
L 584.366643 51.84 
" style="fill:none;stroke:#cccccc;stroke-linecap:round;stroke-width:0.8;"/>
     </g>
     <g id="text_21">
      <!-- 5.0 -->
      <g style="fill:#262626;" transform="translate(573.870581 395.477937)scale(0.132 -0.132)">
       <use xlink:href="#DejaVuSans-35"/>
       <use x="63.623047" xlink:href="#DejaVuSans-2e"/>
       <use x="95.410156" xlink:href="#DejaVuSans-30"/>
      </g>
     </g>
    </g>
    <g id="xtick_12">
     <g id="line2d_24">
      <path clip-path="url(#pa5bee1a9a3)" d="M 629.385357 377.148 
L 629.385357 51.84 
" style="fill:none;stroke:#cccccc;stroke-linecap:round;stroke-width:0.8;"/>
     </g>
     <g id="text_22">
      <!-- 7.5 -->
      <g style="fill:#262626;" transform="translate(618.889294 395.477937)scale(0.132 -0.132)">
       <use xlink:href="#DejaVuSans-37"/>
       <use x="63.623047" xlink:href="#DejaVuSans-2e"/>
       <use x="95.410156" xlink:href="#DejaVuSans-35"/>
      </g>
     </g>
    </g>
    <g id="xtick_13">
     <g id="line2d_25">
      <path clip-path="url(#pa5bee1a9a3)" d="M 674.40407 377.148 
L 674.40407 51.84 
" style="fill:none;stroke:#cccccc;stroke-linecap:round;stroke-width:0.8;"/>
     </g>
     <g id="text_23">
      <!-- 10.0 -->
      <g style="fill:#262626;" transform="translate(659.708758 395.477937)scale(0.132 -0.132)">
       <use xlink:href="#DejaVuSans-31"/>
       <use x="63.623047" xlink:href="#DejaVuSans-30"/>
       <use x="127.246094" xlink:href="#DejaVuSans-2e"/>
       <use x="159.033203" xlink:href="#DejaVuSans-30"/>
      </g>
     </g>
    </g>
    <g id="xtick_14">
     <g id="line2d_26">
      <path clip-path="url(#pa5bee1a9a3)" d="M 719.422784 377.148 
L 719.422784 51.84 
" style="fill:none;stroke:#cccccc;stroke-linecap:round;stroke-width:0.8;"/>
     </g>
     <g id="text_24">
      <!-- 12.5 -->
      <g style="fill:#262626;" transform="translate(704.727471 395.477937)scale(0.132 -0.132)">
       <use xlink:href="#DejaVuSans-31"/>
       <use x="63.623047" xlink:href="#DejaVuSans-32"/>
       <use x="127.246094" xlink:href="#DejaVuSans-2e"/>
       <use x="159.033203" xlink:href="#DejaVuSans-35"/>
      </g>
     </g>
    </g>
    <g id="xtick_15">
     <g id="line2d_27">
      <path clip-path="url(#pa5bee1a9a3)" d="M 764.441497 377.148 
L 764.441497 51.84 
" style="fill:none;stroke:#cccccc;stroke-linecap:round;stroke-width:0.8;"/>
     </g>
     <g id="text_25">
      <!-- 15.0 -->
      <g style="fill:#262626;" transform="translate(749.746185 395.477937)scale(0.132 -0.132)">
       <use xlink:href="#DejaVuSans-31"/>
       <use x="63.623047" xlink:href="#DejaVuSans-35"/>
       <use x="127.246094" xlink:href="#DejaVuSans-2e"/>
       <use x="159.033203" xlink:href="#DejaVuSans-30"/>
      </g>
     </g>
    </g>
    <g id="xtick_16">
     <g id="line2d_28">
      <path clip-path="url(#pa5bee1a9a3)" d="M 809.460211 377.148 
L 809.460211 51.84 
" style="fill:none;stroke:#cccccc;stroke-linecap:round;stroke-width:0.8;"/>
     </g>
     <g id="text_26">
      <!-- 17.5 -->
      <g style="fill:#262626;" transform="translate(794.764898 395.477937)scale(0.132 -0.132)">
       <use xlink:href="#DejaVuSans-31"/>
       <use x="63.623047" xlink:href="#DejaVuSans-37"/>
       <use x="127.246094" xlink:href="#DejaVuSans-2e"/>
       <use x="159.033203" xlink:href="#DejaVuSans-35"/>
      </g>
     </g>
    </g>
    <g id="text_27">
     <!-- Epoch -->
     <g style="fill:#262626;" transform="translate(643.352578 413.164875)scale(0.144 -0.144)">
      <use xlink:href="#DejaVuSans-45"/>
      <use x="63.183594" xlink:href="#DejaVuSans-70"/>
      <use x="126.660156" xlink:href="#DejaVuSans-6f"/>
      <use x="187.841797" xlink:href="#DejaVuSans-63"/>
      <use x="242.822266" xlink:href="#DejaVuSans-68"/>
     </g>
    </g>
   </g>
   <g id="matplotlib.axis_4">
    <g id="ytick_8">
     <g id="line2d_29">
      <path clip-path="url(#pa5bee1a9a3)" d="M 477.222105 360.427673 
L 853.57855 360.427673 
" style="fill:none;stroke:#cccccc;stroke-linecap:round;stroke-width:0.8;"/>
     </g>
    </g>
    <g id="ytick_9">
     <g id="line2d_30">
      <path clip-path="url(#pa5bee1a9a3)" d="M 477.222105 312.342655 
L 853.57855 312.342655 
" style="fill:none;stroke:#cccccc;stroke-linecap:round;stroke-width:0.8;"/>
     </g>
    </g>
    <g id="ytick_10">
     <g id="line2d_31">
      <path clip-path="url(#pa5bee1a9a3)" d="M 477.222105 264.257637 
L 853.57855 264.257637 
" style="fill:none;stroke:#cccccc;stroke-linecap:round;stroke-width:0.8;"/>
     </g>
    </g>
    <g id="ytick_11">
     <g id="line2d_32">
      <path clip-path="url(#pa5bee1a9a3)" d="M 477.222105 216.172619 
L 853.57855 216.172619 
" style="fill:none;stroke:#cccccc;stroke-linecap:round;stroke-width:0.8;"/>
     </g>
    </g>
    <g id="ytick_12">
     <g id="line2d_33">
      <path clip-path="url(#pa5bee1a9a3)" d="M 477.222105 168.087602 
L 853.57855 168.087602 
" style="fill:none;stroke:#cccccc;stroke-linecap:round;stroke-width:0.8;"/>
     </g>
    </g>
    <g id="ytick_13">
     <g id="line2d_34">
      <path clip-path="url(#pa5bee1a9a3)" d="M 477.222105 120.002584 
L 853.57855 120.002584 
" style="fill:none;stroke:#cccccc;stroke-linecap:round;stroke-width:0.8;"/>
     </g>
    </g>
    <g id="ytick_14">
     <g id="line2d_35">
      <path clip-path="url(#pa5bee1a9a3)" d="M 477.222105 71.917566 
L 853.57855 71.917566 
" style="fill:none;stroke:#cccccc;stroke-linecap:round;stroke-width:0.8;"/>
     </g>
    </g>
   </g>
   <g id="PolyCollection_3">
    <defs>
     <path d="M 494.329216 -209.755664 
L 494.329216 -199.761503 
L 512.336702 -298.398472 
L 530.344187 -332.268343 
L 548.351673 -343.74139 
L 566.359158 -349.012043 
L 584.366643 -351.816825 
L 602.374129 -353.601687 
L 620.381614 -352.496773 
L 638.3891 -353.134223 
L 656.396585 -354.026654 
L 674.40407 -351.349362 
L 692.411556 -353.134223 
L 710.419041 -353.04923 
L 728.426527 -353.601687 
L 746.434012 -354.961581 
L 764.441497 -354.111648 
L 782.448983 -354.706601 
L 800.456468 -355.089071 
L 818.463953 -353.04923 
L 836.471439 -354.450559 
L 836.471439 -357.086416 
L 836.471439 -357.086416 
L 818.463953 -356.751755 
L 800.456468 -356.193985 
L 782.448983 -356.746443 
L 764.441497 -356.023999 
L 746.434012 -358.148834 
L 728.426527 -355.131568 
L 710.419041 -357.55388 
L 692.411556 -356.108992 
L 674.40407 -354.749098 
L 656.396585 -356.023998 
L 638.3891 -355.556535 
L 620.381614 -354.111647 
L 602.374129 -354.706601 
L 584.366643 -353.81417 
L 566.359158 -351.306865 
L 548.351673 -347.143251 
L 530.344187 -334.945635 
L 512.336702 -305.580414 
L 494.329216 -209.755664 
z
" id="m8c875c93b5" style="stroke:#4c72b0;stroke-opacity:0.2;stroke-width:0.8;"/>
    </defs>
    <g clip-path="url(#pa5bee1a9a3)">
     <use style="fill:#4c72b0;fill-opacity:0.2;stroke:#4c72b0;stroke-opacity:0.2;stroke-width:0.8;" x="0" xlink:href="#m8c875c93b5" y="432"/>
    </g>
   </g>
   <g id="PolyCollection_4">
    <defs>
     <path d="M 494.329216 -295.97616 
L 494.329216 -289.516661 
L 512.336702 -326.531288 
L 530.344187 -338.685344 
L 548.351673 -347.567156 
L 566.359158 -346.802215 
L 584.366643 -352.114302 
L 602.374129 -356.108992 
L 620.381614 -357.807798 
L 638.3891 -357.086417 
L 656.396585 -358.827719 
L 674.40407 -357.082166 
L 692.411556 -360.868623 
L 710.419041 -359.381238 
L 728.426527 -360.826126 
L 746.434012 -359.976192 
L 764.441497 -361.761054 
L 782.448983 -362.058531 
L 800.456468 -359.763709 
L 818.463953 -362.483497 
L 836.471439 -361.378583 
L 836.471439 -364.565836 
L 836.471439 -364.565836 
L 818.463953 -363.885888 
L 800.456468 -365.373273 
L 782.448983 -365.203286 
L 764.441497 -364.140869 
L 746.434012 -363.630908 
L 728.426527 -362.18602 
L 710.419041 -364.142994 
L 692.411556 -362.738477 
L 674.40407 -363.800895 
L 656.396585 -361.506074 
L 638.3891 -360.826126 
L 620.381614 -361.251093 
L 602.374129 -358.320946 
L 584.366643 -357.55388 
L 566.359158 -351.435418 
L 548.351673 -349.479507 
L 530.344187 -342.127577 
L 512.336702 -328.82611 
L 494.329216 -295.97616 
z
" id="me2c7f4fdb6" style="stroke:#dd8452;stroke-opacity:0.2;stroke-width:0.8;"/>
    </defs>
    <g clip-path="url(#pa5bee1a9a3)">
     <use style="fill:#dd8452;fill-opacity:0.2;stroke:#dd8452;stroke-opacity:0.2;stroke-width:0.8;" x="0" xlink:href="#me2c7f4fdb6" y="432"/>
    </g>
   </g>
   <g id="line2d_36">
    <path clip-path="url(#pa5bee1a9a3)" d="M 494.329216 227.476742 
L 512.336702 129.521845 
L 530.344187 98.371763 
L 548.351673 86.600176 
L 566.359158 81.925539 
L 584.366643 79.163254 
L 602.374129 77.845856 
L 620.381614 78.780783 
L 638.3891 77.718366 
L 656.396585 76.953425 
L 674.40407 78.993267 
L 692.411556 77.250902 
L 710.419041 76.698445 
L 728.426527 77.633373 
L 746.434012 75.551034 
L 764.441497 76.953425 
L 782.448983 76.315975 
L 800.456468 76.400968 
L 818.463953 77.208405 
L 836.471439 76.230981 
" style="fill:none;stroke:#4c72b0;stroke-linecap:round;stroke-width:1.5;"/>
   </g>
   <g id="line2d_37">
    <path clip-path="url(#pa5bee1a9a3)" d="M 494.329216 138.99861 
L 512.336702 104.406295 
L 530.344187 91.742278 
L 548.351673 83.455421 
L 566.359158 82.647983 
L 584.366643 76.358471 
L 602.374129 74.786093 
L 620.381614 72.788749 
L 638.3891 73.001232 
L 656.396585 71.641337 
L 674.40407 71.088881 
L 692.411556 70.19645 
L 710.419041 70.238946 
L 728.426527 70.536424 
L 746.434012 70.281443 
L 764.441497 69.006542 
L 782.448983 68.241602 
L 800.456468 69.261522 
L 818.463953 68.921549 
L 836.471439 69.091535 
" style="fill:none;stroke:#dd8452;stroke-linecap:round;stroke-width:1.5;"/>
   </g>
   <g id="patch_6">
    <path d="M 477.222105 377.148 
L 477.222105 51.84 
" style="fill:none;stroke:#cccccc;stroke-linecap:square;stroke-linejoin:miter;"/>
   </g>
   <g id="patch_7">
    <path d="M 477.222105 377.148 
L 853.57855 377.148 
" style="fill:none;stroke:#cccccc;stroke-linecap:square;stroke-linejoin:miter;"/>
   </g>
   <g id="text_28">
    <!-- Embedding train = True -->
    <defs>
     <path d="M -0.296875 72.90625 
L 61.375 72.90625 
L 61.375 64.59375 
L 35.5 64.59375 
L 35.5 0 
L 25.59375 0 
L 25.59375 64.59375 
L -0.296875 64.59375 
z
" id="DejaVuSans-54"/>
    </defs>
    <g style="fill:#262626;" transform="translate(578.569453 45.84)scale(0.144 -0.144)">
     <use xlink:href="#DejaVuSans-45"/>
     <use x="63.183594" xlink:href="#DejaVuSans-6d"/>
     <use x="160.595703" xlink:href="#DejaVuSans-62"/>
     <use x="224.072266" xlink:href="#DejaVuSans-65"/>
     <use x="285.595703" xlink:href="#DejaVuSans-64"/>
     <use x="349.072266" xlink:href="#DejaVuSans-64"/>
     <use x="412.548828" xlink:href="#DejaVuSans-69"/>
     <use x="440.332031" xlink:href="#DejaVuSans-6e"/>
     <use x="503.710938" xlink:href="#DejaVuSans-67"/>
     <use x="567.1875" xlink:href="#DejaVuSans-20"/>
     <use x="598.974609" xlink:href="#DejaVuSans-74"/>
     <use x="638.183594" xlink:href="#DejaVuSans-72"/>
     <use x="679.296875" xlink:href="#DejaVuSans-61"/>
     <use x="740.576172" xlink:href="#DejaVuSans-69"/>
     <use x="768.359375" xlink:href="#DejaVuSans-6e"/>
     <use x="831.738281" xlink:href="#DejaVuSans-20"/>
     <use x="863.525391" xlink:href="#DejaVuSans-3d"/>
     <use x="947.314453" xlink:href="#DejaVuSans-20"/>
     <use x="979.101562" xlink:href="#DejaVuSans-54"/>
     <use x="1039.966797" xlink:href="#DejaVuSans-72"/>
     <use x="1081.080078" xlink:href="#DejaVuSans-75"/>
     <use x="1144.458984" xlink:href="#DejaVuSans-65"/>
    </g>
   </g>
  </g>
  <g id="text_29">
   <!-- Model A - Hyperparameter exploration - Embedding preload &amp; Embedding train - Confidence: 95% -->
   <defs>
    <path d="M 9.8125 72.90625 
L 24.515625 72.90625 
L 43.109375 23.296875 
L 61.8125 72.90625 
L 76.515625 72.90625 
L 76.515625 0 
L 66.890625 0 
L 66.890625 64.015625 
L 48.09375 14.015625 
L 38.1875 14.015625 
L 19.390625 64.015625 
L 19.390625 0 
L 9.8125 0 
z
" id="DejaVuSans-4d"/>
    <path d="M 34.1875 63.1875 
L 20.796875 26.90625 
L 47.609375 26.90625 
z
M 28.609375 72.90625 
L 39.796875 72.90625 
L 67.578125 0 
L 57.328125 0 
L 50.6875 18.703125 
L 17.828125 18.703125 
L 11.1875 0 
L 0.78125 0 
z
" id="DejaVuSans-41"/>
    <path d="M 4.890625 31.390625 
L 31.203125 31.390625 
L 31.203125 23.390625 
L 4.890625 23.390625 
z
" id="DejaVuSans-2d"/>
    <path d="M 9.8125 72.90625 
L 19.671875 72.90625 
L 19.671875 43.015625 
L 55.515625 43.015625 
L 55.515625 72.90625 
L 65.375 72.90625 
L 65.375 0 
L 55.515625 0 
L 55.515625 34.71875 
L 19.671875 34.71875 
L 19.671875 0 
L 9.8125 0 
z
" id="DejaVuSans-48"/>
    <path d="M 54.890625 54.6875 
L 35.109375 28.078125 
L 55.90625 0 
L 45.3125 0 
L 29.390625 21.484375 
L 13.484375 0 
L 2.875 0 
L 24.125 28.609375 
L 4.6875 54.6875 
L 15.28125 54.6875 
L 29.78125 35.203125 
L 44.28125 54.6875 
z
" id="DejaVuSans-78"/>
    <path d="M 24.3125 39.203125 
Q 19.875 35.25 17.796875 31.3125 
Q 15.71875 27.390625 15.71875 23.09375 
Q 15.71875 15.96875 20.890625 11.234375 
Q 26.078125 6.5 33.890625 6.5 
Q 38.53125 6.5 42.578125 8.03125 
Q 46.625 9.578125 50.203125 12.703125 
z
M 31.203125 44.671875 
L 56 19.28125 
Q 58.890625 23.640625 60.5 28.59375 
Q 62.109375 33.546875 62.40625 39.109375 
L 71.484375 39.109375 
Q 70.90625 32.671875 68.359375 26.359375 
Q 65.828125 20.0625 61.28125 13.921875 
L 74.90625 0 
L 62.59375 0 
L 55.609375 7.171875 
Q 50.53125 2.828125 44.96875 0.703125 
Q 39.40625 -1.421875 33.015625 -1.421875 
Q 21.234375 -1.421875 13.765625 5.296875 
Q 6.296875 12.015625 6.296875 22.515625 
Q 6.296875 28.765625 9.5625 34.25 
Q 12.84375 39.75 19.390625 44.578125 
Q 17.046875 47.65625 15.8125 50.703125 
Q 14.59375 53.765625 14.59375 56.6875 
Q 14.59375 64.59375 20.015625 69.40625 
Q 25.4375 74.21875 34.421875 74.21875 
Q 38.484375 74.21875 42.5 73.34375 
Q 46.53125 72.46875 50.6875 70.703125 
L 50.6875 61.8125 
Q 46.4375 64.109375 42.578125 65.296875 
Q 38.71875 66.5 35.40625 66.5 
Q 30.28125 66.5 27.078125 63.78125 
Q 23.875 61.078125 23.875 56.78125 
Q 23.875 54.296875 25.3125 51.78125 
Q 26.765625 49.265625 31.203125 44.671875 
z
" id="DejaVuSans-26"/>
    <path d="M 64.40625 67.28125 
L 64.40625 56.890625 
Q 59.421875 61.53125 53.78125 63.8125 
Q 48.140625 66.109375 41.796875 66.109375 
Q 29.296875 66.109375 22.65625 58.46875 
Q 16.015625 50.828125 16.015625 36.375 
Q 16.015625 21.96875 22.65625 14.328125 
Q 29.296875 6.6875 41.796875 6.6875 
Q 48.140625 6.6875 53.78125 8.984375 
Q 59.421875 11.28125 64.40625 15.921875 
L 64.40625 5.609375 
Q 59.234375 2.09375 53.4375 0.328125 
Q 47.65625 -1.421875 41.21875 -1.421875 
Q 24.65625 -1.421875 15.125 8.703125 
Q 5.609375 18.84375 5.609375 36.375 
Q 5.609375 53.953125 15.125 64.078125 
Q 24.65625 74.21875 41.21875 74.21875 
Q 47.75 74.21875 53.53125 72.484375 
Q 59.328125 70.75 64.40625 67.28125 
z
" id="DejaVuSans-43"/>
    <path d="M 37.109375 75.984375 
L 37.109375 68.5 
L 28.515625 68.5 
Q 23.6875 68.5 21.796875 66.546875 
Q 19.921875 64.59375 19.921875 59.515625 
L 19.921875 54.6875 
L 34.71875 54.6875 
L 34.71875 47.703125 
L 19.921875 47.703125 
L 19.921875 0 
L 10.890625 0 
L 10.890625 47.703125 
L 2.296875 47.703125 
L 2.296875 54.6875 
L 10.890625 54.6875 
L 10.890625 58.5 
Q 10.890625 67.625 15.140625 71.796875 
Q 19.390625 75.984375 28.609375 75.984375 
z
" id="DejaVuSans-66"/>
    <path d="M 11.71875 12.40625 
L 22.015625 12.40625 
L 22.015625 0 
L 11.71875 0 
z
M 11.71875 51.703125 
L 22.015625 51.703125 
L 22.015625 39.3125 
L 11.71875 39.3125 
z
" id="DejaVuSans-3a"/>
    <path d="M 10.984375 1.515625 
L 10.984375 10.5 
Q 14.703125 8.734375 18.5 7.8125 
Q 22.3125 6.890625 25.984375 6.890625 
Q 35.75 6.890625 40.890625 13.453125 
Q 46.046875 20.015625 46.78125 33.40625 
Q 43.953125 29.203125 39.59375 26.953125 
Q 35.25 24.703125 29.984375 24.703125 
Q 19.046875 24.703125 12.671875 31.3125 
Q 6.296875 37.9375 6.296875 49.421875 
Q 6.296875 60.640625 12.9375 67.421875 
Q 19.578125 74.21875 30.609375 74.21875 
Q 43.265625 74.21875 49.921875 64.515625 
Q 56.59375 54.828125 56.59375 36.375 
Q 56.59375 19.140625 48.40625 8.859375 
Q 40.234375 -1.421875 26.421875 -1.421875 
Q 22.703125 -1.421875 18.890625 -0.6875 
Q 15.09375 0.046875 10.984375 1.515625 
z
M 30.609375 32.421875 
Q 37.25 32.421875 41.125 36.953125 
Q 45.015625 41.5 45.015625 49.421875 
Q 45.015625 57.28125 41.125 61.84375 
Q 37.25 66.40625 30.609375 66.40625 
Q 23.96875 66.40625 20.09375 61.84375 
Q 16.21875 57.28125 16.21875 49.421875 
Q 16.21875 41.5 20.09375 36.953125 
Q 23.96875 32.421875 30.609375 32.421875 
z
" id="DejaVuSans-39"/>
    <path d="M 72.703125 32.078125 
Q 68.453125 32.078125 66.03125 28.46875 
Q 63.625 24.859375 63.625 18.40625 
Q 63.625 12.0625 66.03125 8.421875 
Q 68.453125 4.78125 72.703125 4.78125 
Q 76.859375 4.78125 79.265625 8.421875 
Q 81.6875 12.0625 81.6875 18.40625 
Q 81.6875 24.8125 79.265625 28.4375 
Q 76.859375 32.078125 72.703125 32.078125 
z
M 72.703125 38.28125 
Q 80.421875 38.28125 84.953125 32.90625 
Q 89.5 27.546875 89.5 18.40625 
Q 89.5 9.28125 84.9375 3.921875 
Q 80.375 -1.421875 72.703125 -1.421875 
Q 64.890625 -1.421875 60.34375 3.921875 
Q 55.8125 9.28125 55.8125 18.40625 
Q 55.8125 27.59375 60.375 32.9375 
Q 64.9375 38.28125 72.703125 38.28125 
z
M 22.3125 68.015625 
Q 18.109375 68.015625 15.6875 64.375 
Q 13.28125 60.75 13.28125 54.390625 
Q 13.28125 47.953125 15.671875 44.328125 
Q 18.0625 40.71875 22.3125 40.71875 
Q 26.5625 40.71875 28.96875 44.328125 
Q 31.390625 47.953125 31.390625 54.390625 
Q 31.390625 60.6875 28.953125 64.34375 
Q 26.515625 68.015625 22.3125 68.015625 
z
M 66.40625 74.21875 
L 74.21875 74.21875 
L 28.609375 -1.421875 
L 20.796875 -1.421875 
z
M 22.3125 74.21875 
Q 30.03125 74.21875 34.609375 68.875 
Q 39.203125 63.53125 39.203125 54.390625 
Q 39.203125 45.171875 34.640625 39.84375 
Q 30.078125 34.515625 22.3125 34.515625 
Q 14.546875 34.515625 10.03125 39.859375 
Q 5.515625 45.21875 5.515625 54.390625 
Q 5.515625 63.484375 10.046875 68.84375 
Q 14.59375 74.21875 22.3125 74.21875 
z
" id="DejaVuSans-25"/>
   </defs>
   <g style="fill:#262626;" transform="translate(95.2204 21.7701)scale(0.1728 -0.1728)">
    <use xlink:href="#DejaVuSans-4d"/>
    <use x="86.279297" xlink:href="#DejaVuSans-6f"/>
    <use x="147.460938" xlink:href="#DejaVuSans-64"/>
    <use x="210.9375" xlink:href="#DejaVuSans-65"/>
    <use x="272.460938" xlink:href="#DejaVuSans-6c"/>
    <use x="300.244141" xlink:href="#DejaVuSans-20"/>
    <use x="332.03125" xlink:href="#DejaVuSans-41"/>
    <use x="400.439453" xlink:href="#DejaVuSans-20"/>
    <use x="432.226562" xlink:href="#DejaVuSans-2d"/>
    <use x="468.310547" xlink:href="#DejaVuSans-20"/>
    <use x="500.097656" xlink:href="#DejaVuSans-48"/>
    <use x="575.292969" xlink:href="#DejaVuSans-79"/>
    <use x="634.472656" xlink:href="#DejaVuSans-70"/>
    <use x="697.949219" xlink:href="#DejaVuSans-65"/>
    <use x="759.472656" xlink:href="#DejaVuSans-72"/>
    <use x="800.585938" xlink:href="#DejaVuSans-70"/>
    <use x="864.0625" xlink:href="#DejaVuSans-61"/>
    <use x="925.341797" xlink:href="#DejaVuSans-72"/>
    <use x="966.455078" xlink:href="#DejaVuSans-61"/>
    <use x="1027.734375" xlink:href="#DejaVuSans-6d"/>
    <use x="1125.146484" xlink:href="#DejaVuSans-65"/>
    <use x="1186.669922" xlink:href="#DejaVuSans-74"/>
    <use x="1225.878906" xlink:href="#DejaVuSans-65"/>
    <use x="1287.402344" xlink:href="#DejaVuSans-72"/>
    <use x="1328.515625" xlink:href="#DejaVuSans-20"/>
    <use x="1360.302734" xlink:href="#DejaVuSans-65"/>
    <use x="1421.810547" xlink:href="#DejaVuSans-78"/>
    <use x="1480.990234" xlink:href="#DejaVuSans-70"/>
    <use x="1544.466797" xlink:href="#DejaVuSans-6c"/>
    <use x="1572.25" xlink:href="#DejaVuSans-6f"/>
    <use x="1633.431641" xlink:href="#DejaVuSans-72"/>
    <use x="1674.544922" xlink:href="#DejaVuSans-61"/>
    <use x="1735.824219" xlink:href="#DejaVuSans-74"/>
    <use x="1775.033203" xlink:href="#DejaVuSans-69"/>
    <use x="1802.816406" xlink:href="#DejaVuSans-6f"/>
    <use x="1863.998047" xlink:href="#DejaVuSans-6e"/>
    <use x="1927.376953" xlink:href="#DejaVuSans-20"/>
    <use x="1959.164062" xlink:href="#DejaVuSans-2d"/>
    <use x="1995.248047" xlink:href="#DejaVuSans-20"/>
    <use x="2027.035156" xlink:href="#DejaVuSans-45"/>
    <use x="2090.21875" xlink:href="#DejaVuSans-6d"/>
    <use x="2187.630859" xlink:href="#DejaVuSans-62"/>
    <use x="2251.107422" xlink:href="#DejaVuSans-65"/>
    <use x="2312.630859" xlink:href="#DejaVuSans-64"/>
    <use x="2376.107422" xlink:href="#DejaVuSans-64"/>
    <use x="2439.583984" xlink:href="#DejaVuSans-69"/>
    <use x="2467.367188" xlink:href="#DejaVuSans-6e"/>
    <use x="2530.746094" xlink:href="#DejaVuSans-67"/>
    <use x="2594.222656" xlink:href="#DejaVuSans-20"/>
    <use x="2626.009766" xlink:href="#DejaVuSans-70"/>
    <use x="2689.486328" xlink:href="#DejaVuSans-72"/>
    <use x="2730.568359" xlink:href="#DejaVuSans-65"/>
    <use x="2792.091797" xlink:href="#DejaVuSans-6c"/>
    <use x="2819.875" xlink:href="#DejaVuSans-6f"/>
    <use x="2881.056641" xlink:href="#DejaVuSans-61"/>
    <use x="2942.335938" xlink:href="#DejaVuSans-64"/>
    <use x="3005.8125" xlink:href="#DejaVuSans-20"/>
    <use x="3037.599609" xlink:href="#DejaVuSans-26"/>
    <use x="3115.578125" xlink:href="#DejaVuSans-20"/>
    <use x="3147.365234" xlink:href="#DejaVuSans-45"/>
    <use x="3210.548828" xlink:href="#DejaVuSans-6d"/>
    <use x="3307.960938" xlink:href="#DejaVuSans-62"/>
    <use x="3371.4375" xlink:href="#DejaVuSans-65"/>
    <use x="3432.960938" xlink:href="#DejaVuSans-64"/>
    <use x="3496.4375" xlink:href="#DejaVuSans-64"/>
    <use x="3559.914062" xlink:href="#DejaVuSans-69"/>
    <use x="3587.697266" xlink:href="#DejaVuSans-6e"/>
    <use x="3651.076172" xlink:href="#DejaVuSans-67"/>
    <use x="3714.552734" xlink:href="#DejaVuSans-20"/>
    <use x="3746.339844" xlink:href="#DejaVuSans-74"/>
    <use x="3785.548828" xlink:href="#DejaVuSans-72"/>
    <use x="3826.662109" xlink:href="#DejaVuSans-61"/>
    <use x="3887.941406" xlink:href="#DejaVuSans-69"/>
    <use x="3915.724609" xlink:href="#DejaVuSans-6e"/>
    <use x="3979.103516" xlink:href="#DejaVuSans-20"/>
    <use x="4010.890625" xlink:href="#DejaVuSans-2d"/>
    <use x="4046.974609" xlink:href="#DejaVuSans-20"/>
    <use x="4078.761719" xlink:href="#DejaVuSans-43"/>
    <use x="4148.585938" xlink:href="#DejaVuSans-6f"/>
    <use x="4209.767578" xlink:href="#DejaVuSans-6e"/>
    <use x="4273.146484" xlink:href="#DejaVuSans-66"/>
    <use x="4308.351562" xlink:href="#DejaVuSans-69"/>
    <use x="4336.134766" xlink:href="#DejaVuSans-64"/>
    <use x="4399.611328" xlink:href="#DejaVuSans-65"/>
    <use x="4461.134766" xlink:href="#DejaVuSans-6e"/>
    <use x="4524.513672" xlink:href="#DejaVuSans-63"/>
    <use x="4579.494141" xlink:href="#DejaVuSans-65"/>
    <use x="4641.017578" xlink:href="#DejaVuSans-3a"/>
    <use x="4674.708984" xlink:href="#DejaVuSans-20"/>
    <use x="4706.496094" xlink:href="#DejaVuSans-39"/>
    <use x="4770.119141" xlink:href="#DejaVuSans-35"/>
    <use x="4833.742188" xlink:href="#DejaVuSans-25"/>
   </g>
  </g>
  <g id="legend_1">
   <g id="line2d_38">
    <path d="M 864.099688 195.64725 
L 890.499688 195.64725 
" style="fill:none;"/>
   </g>
   <g id="line2d_39"/>
   <g id="text_30">
    <!-- Embedding preload -->
    <g style="fill:#262626;" transform="translate(901.059688 200.26725)scale(0.132 -0.132)">
     <use xlink:href="#DejaVuSans-45"/>
     <use x="63.183594" xlink:href="#DejaVuSans-6d"/>
     <use x="160.595703" xlink:href="#DejaVuSans-62"/>
     <use x="224.072266" xlink:href="#DejaVuSans-65"/>
     <use x="285.595703" xlink:href="#DejaVuSans-64"/>
     <use x="349.072266" xlink:href="#DejaVuSans-64"/>
     <use x="412.548828" xlink:href="#DejaVuSans-69"/>
     <use x="440.332031" xlink:href="#DejaVuSans-6e"/>
     <use x="503.710938" xlink:href="#DejaVuSans-67"/>
     <use x="567.1875" xlink:href="#DejaVuSans-20"/>
     <use x="598.974609" xlink:href="#DejaVuSans-70"/>
     <use x="662.451172" xlink:href="#DejaVuSans-72"/>
     <use x="703.533203" xlink:href="#DejaVuSans-65"/>
     <use x="765.056641" xlink:href="#DejaVuSans-6c"/>
     <use x="792.839844" xlink:href="#DejaVuSans-6f"/>
     <use x="854.021484" xlink:href="#DejaVuSans-61"/>
     <use x="915.300781" xlink:href="#DejaVuSans-64"/>
    </g>
   </g>
   <g id="line2d_40">
    <path d="M 864.099688 215.022375 
L 890.499688 215.022375 
" style="fill:none;stroke:#4c72b0;stroke-linecap:round;stroke-width:1.5;"/>
   </g>
   <g id="line2d_41"/>
   <g id="text_31">
    <!-- False -->
    <g style="fill:#262626;" transform="translate(901.059688 219.642375)scale(0.132 -0.132)">
     <use xlink:href="#DejaVuSans-46"/>
     <use x="57.378906" xlink:href="#DejaVuSans-61"/>
     <use x="118.658203" xlink:href="#DejaVuSans-6c"/>
     <use x="146.441406" xlink:href="#DejaVuSans-73"/>
     <use x="198.541016" xlink:href="#DejaVuSans-65"/>
    </g>
   </g>
   <g id="line2d_42">
    <path d="M 864.099688 234.3975 
L 890.499688 234.3975 
" style="fill:none;stroke:#dd8452;stroke-linecap:round;stroke-width:1.5;"/>
   </g>
   <g id="line2d_43"/>
   <g id="text_32">
    <!-- True -->
    <g style="fill:#262626;" transform="translate(901.059688 239.0175)scale(0.132 -0.132)">
     <use xlink:href="#DejaVuSans-54"/>
     <use x="60.865234" xlink:href="#DejaVuSans-72"/>
     <use x="101.978516" xlink:href="#DejaVuSans-75"/>
     <use x="165.357422" xlink:href="#DejaVuSans-65"/>
    </g>
   </g>
  </g>
 </g>
 <defs>
  <clipPath id="p5778aac1ec">
   <rect height="325.308" width="376.356445" x="75.811224" y="51.84"/>
  </clipPath>
  <clipPath id="pa5bee1a9a3">
   <rect height="325.308" width="376.356445" x="477.222105" y="51.84"/>
  </clipPath>
 </defs>
</svg>
